<svg aria-hidden="true" focusable="false" width="48" height="51" fill="none" xmlns="http://www.w3.org/2000/svg"><path d="M3.26 31.8V5.7H21.2v15.17l2.73 3.53c.16-.16.34-.3.53-.44V3.94A3.36 3.36 0 0021.67.68a65.5 65.5 0 00-18.82 0A3.42 3.42 0 000 3.94v32.88c0 1.52 1.3 3.02 2.9 3.26a65 65 0 0016.06.33c.04-1.46.52-2.8.9-3.81l.31-.87-2.46-3.94H3.26zm8.97 6.64a2.16 2.16 0 110-4.32 2.16 2.16 0 010 4.32z" fill="currentColor"/><path d="M44.22 30.26c-1.1-1.78-3.5-5.6-5.56-7.26-1.93-1.57-3.98-.89-4.6.41a3.65 3.65 0 00-3.45-.23c-1.42.7-1.45 2.27-1.45 2.27-.07 0-1.67-1.23-3.43-.19a3.3 3.3 0 00-1.5 2.47c-2.94-3.85-7.28-9.36-7.79-10.05a2.3 2.3 0 00-3.06-.65c-1.04.64-1.4 1.99-.78 3.04.43.74 7.37 12.1 12.82 20.6-.02.03-.14.15-.35-.02-.63-.52-3.02-3.24-3.44-3.69-.58 1.6-1.48 3.79-.3 5.92 2.5 4.54 8.45 4.21 13.3 7.7L48 42c-3.41-5.31.73-4.5-3.78-11.74z" fill="currentColor"/><path d="M12.88 13.44c.75.22 1.65.3 2.45.37 1.1.1 2.29.12 2.75-.4.17-.2.23-.45.16-.75-.1-.45-.4-.7-.83-.66-2.22.15-3.86-.46-5.7-1.4-.4 1.17-.67 2.23-1.65 3.03-1.02.65-1.05.65-2.41.87l-.9.15c.45 2.01.4 4.09.02 5.83-.08.4.1.74.48.94.22.12.46.14.7.02.48-.25.83-1.1 1.05-2.61.13-.84.24-1.72.2-2.48a5.99 5.99 0 002.17-1.05c.6-.5 1.09-1.1 1.5-1.86z" fill="currentColor"/></svg>
