<svg width="52" height="29" viewBox="0 0 52 29"  fill="none" xmlns="http://www.w3.org/2000/svg">
  <path d="M42.803 20.382v4.412A2.217 2.217 0 0140.576 27H4.227A2.217 2.217 0 012 24.794V4.206C2 2.988 2.997 2 4.227 2h36.349c1.23 0 2.227.988 2.227 2.206v4.412m0 11.764h4.97c1.23 0 2.227-.987 2.227-2.206v-7.352a2.217 2.217 0 00-2.227-2.206h-4.97m0 11.764V8.618" stroke="#CA005D" stroke-width="4"/>
  <path d="M23.53 7.882l-12.62 6.25h9.65c.372 0 2.97 5.515 2.97 6.25 0 .589 8.167-3.921 12.25-6.25H26.5l-2.97-6.25z" fill="#CA005D"/>
</svg>