<svg width="41" height="45" viewBox="0 0 41 45" fill="none" xmlns="http://www.w3.org/2000/svg">
<path d="M0.783951 15.9935L4.69706 17.063C5.25829 17.2163 5.83187 16.8685 6.02878 16.2552L6.03581 16.2334C6.23272 15.6202 5.98998 14.9377 5.47227 14.6488L1.86234 12.635C1.31485 12.3296 0.653976 12.6296 0.445729 13.2781L0.0618149 14.4737C-0.146364 15.1222 0.190492 15.8313 0.783951 15.9935Z" fill="currentColor"/>
<path d="M34.9082 16.2551C35.1051 16.8684 35.6787 17.2163 36.2399 17.063L40.1529 15.9935C40.7464 15.8314 41.0833 15.1223 40.8751 14.4738L40.4912 13.2782C40.283 12.6297 39.622 12.3296 39.0745 12.6351L35.4647 14.6489C34.947 14.9377 34.7042 15.6202 34.9011 16.2335L34.9082 16.2551Z" fill="currentColor"/>
<path d="M40.1529 23.652L36.2398 22.5826C35.6786 22.4293 35.105 22.7771 34.9081 23.3904L34.9011 23.4121C34.7042 24.0254 34.947 24.7078 35.4647 24.9967L39.0745 27.0105C39.622 27.3159 40.283 27.0159 40.4912 26.3674L40.8751 25.1718C41.0833 24.5233 40.7464 23.8142 40.1529 23.652Z" fill="currentColor"/>
<path d="M6.03584 23.4121L6.0288 23.3904C5.8319 22.7771 5.25831 22.4293 4.69709 22.5826L0.783978 23.652C0.190519 23.8142 -0.146406 24.5232 0.0618412 25.1718L0.445756 26.3674C0.654002 27.0159 1.31487 27.3159 1.86237 27.0105L5.47223 24.9967C5.98994 24.7079 6.23268 24.0254 6.03584 23.4121Z" fill="currentColor"/>
<path d="M33.998 32.3476C33.1706 30.9455 32.6338 29.3505 32.4276 27.6815L30.5201 12.2435C29.6333 7.98554 26.7489 4.73778 23.1483 3.63771C22.9954 2.09663 21.8517 0.894226 20.4469 0.894226C19.0421 0.894226 17.8984 2.09663 17.7455 3.63771C14.1448 4.73778 11.2605 7.98546 10.3737 12.2435L8.46618 27.6815C8.25998 29.3505 7.72321 30.9455 6.89583 32.3476L4.32699 36.7589C3.64133 37.9208 4.37856 39.4772 5.61458 39.4772H22.9861C22.9861 39.4772 23.0805 39.895 22.6849 39.973C22.4883 40.0119 19.3443 40.4386 16.0763 40.8827C16.8164 42.7811 18.4928 44.1071 20.4469 44.1071C22.8548 44.1071 24.8414 42.0939 25.1736 39.4772H35.2792C36.5152 39.4772 37.2525 37.9208 36.5669 36.7589L33.998 32.3476Z" fill="currentColor"/>
</svg>


