<svg aria-hidden="true" focusable="false" width="48" height="54" fill="none" xmlns="http://www.w3.org/2000/svg"><path d="M45.97 0H13.44C6.78 0 0 2.58 0 9.57v37.62c0 3.92 2.04 6.57 5.76 6.57h32.53c1.12 0 2.03-.9 2.03-2.03v-40.1c0-1.12-.91-2.03-2.03-2.03H6.6c-.88 0-1.3-.8-.98-1.68.97-2.76 6.01-3.12 7.81-3.12H43.2v40.32h2.88c1.06 0 1.92-.86 1.92-1.92V2.03C48 .9 47.1 0 45.97 0zM33.6 43.2H21.12v-1.17a2.69 2.69 0 012.7-2.67h7.11c1.48 0 2.67 1.2 2.67 2.67v1.17zM6.62 33.57l16-8.52-1.28-2.25-.77.02a1.48 1.48 0 01-1.33-.75l-.29-.5a.74.74 0 01.28-1.01l7.71-4.36c.36-.2.8-.07 1 .28l.3.51c.27.48.25 1.07-.05 1.53-1.08 1.67-3.42 2.54-4.38 3.07.03.05.07.14.25.16.19.02 1.96-.16 4.48-1.22l2.76 4.9a14.05 14.05 0 00-3.35 3.2c-.08.17-.02.25 0 .3.97-.55 2.89-2.1 4.9-2.16.54-.02 1.06.27 1.33.75l.28.5c.2.36.08.81-.28 1.01l-7.7 4.36c-.36.2-.81.07-1.01-.28l-.3-.51a1.48 1.48 0 01.06-1.53l.42-.63-1.3-2.3-15.55 9.3a2.21 2.21 0 11-2.18-3.87z" fill="currentColor"/></svg>
