<svg aria-hidden="true" focusable="false" width="46" height="46" viewBox="0 0 46 46" fill="none" xmlns="http://www.w3.org/2000/svg">
<path fill-rule="evenodd" clip-rule="evenodd" d="M44.16 5.52H37.7917L36.2178 10.8098C36.1208 11.109 35.88 11.0171 35.88 11.0171V5.52H35.8732C35.8599 4.36282 35.8208 2.44104 35.7053 1.72859C35.6985 1.68688 35.6916 1.64282 35.6844 1.59693L35.6843 1.59622L35.6843 1.59593C35.5865 0.968672 35.4356 0 34.6052 0H31.9781C31.0868 0 30.8959 1.12976 30.7966 1.74202C30.6812 2.45355 30.5211 4.3665 30.4303 5.52H15.7117L14.1378 10.81C14.0408 11.1092 13.8 11.0171 13.8 11.0171V5.52H13.7932C13.7799 4.36282 13.7408 2.44104 13.6253 1.72859C13.6184 1.68657 13.6115 1.64218 13.6043 1.59592C13.5065 0.968664 13.3556 0 12.5252 0H9.8981C9.0068 0 8.8159 1.12976 8.71663 1.74202C8.60117 2.45355 8.44109 4.3665 8.35029 5.52H1.84C0.82386 5.52 0 6.34386 0 7.36V44.16C0 45.1761 0.82386 46 1.84 46H44.16C45.1761 46 46 45.1761 46 44.16V7.36C46 6.34386 45.1761 5.52 44.16 5.52ZM41.4 41.4H4.6V17.48H41.4V41.4ZM15.64 22.0801H8.28003V27.6001H15.64V22.0801ZM19.3201 22.0801H26.6801V27.6001H19.3201V22.0801ZM37.7201 22.0801H30.3601V27.6001H37.7201V22.0801ZM8.28003 31.2803H15.64V36.8003H8.28003V31.2803ZM26.6801 31.2803H19.3201V36.8003H26.6801V31.2803ZM30.3601 31.2803H37.7201V36.8003H30.3601V31.2803Z" fill="currentColor"/>
</svg>
