<svg aria-hidden="true" focusable="false" width="50" height="49" viewBox="0 0 50 49" fill="none" xmlns="http://www.w3.org/2000/svg">
  <path d="M42.8 8.652c0 3.674-3.044 6.652-6.8 6.652-3.755 0-6.8-2.978-6.8-6.652S32.245 2 36 2s6.8 2.978 6.8 6.652zM48 40.348C48 44.022 44.956 47 41.2 47s-6.8-2.978-6.8-6.652 3.044-6.652 6.8-6.652c3.755 0 6.8 2.978 6.8 6.652zM15.6 23.956c0 3.674-3.044 6.653-6.8 6.653S2 27.63 2 23.956c0-3.673 3.044-6.652 6.8-6.652 3.755 0 6.8 2.979 6.8 6.652z" fill="#C80D5E"/>
  <path d="M9.021 23.998l27.2-15.305M9.308 23.971l32.4 16.391M36.781 8.928l5.2 31.695m.818-31.97c0 3.673-3.044 6.651-6.8 6.651-3.755 0-6.8-2.978-6.8-6.652S32.245 2 36 2s6.8 2.978 6.8 6.652zM48 40.347C48 44.022 44.956 47 41.2 47s-6.8-2.978-6.8-6.652 3.044-6.652 6.8-6.652c3.755 0 6.8 2.978 6.8 6.652zM15.6 23.956c0 3.674-3.044 6.653-6.8 6.653S2 27.63 2 23.956c0-3.673 3.044-6.652 6.8-6.652 3.755 0 6.8 2.979 6.8 6.652z" stroke="#C80D5E" stroke-width="3"/>
</svg>
