<svg width="46" height="48" fill="none" xmlns="http://www.w3.org/2000/svg"><path d="M32.82.79C26.22-2.18 23 4.19 23 4.19S19.77-2.18 13.18.8C6.68 3.7 7.1 18.2 22.36 26.29c.4.2.88.2 1.28 0C38.9 18.2 39.33 3.7 32.82.78zM41.92 15.27a128.2 128.2 0 00-1.41 7.55c.31.13.61.3.9.56 1.66 1.42 1.83 3.73.54 6.04-2.92 5.23-6.12 7.6-6.79 8.08-.2.14-.3.1-.37.03v-.01c2.9-3.28 4.44-5.53 5.76-8.66 1-2.38.46-3.82-.4-4.33-.83-.51-1.7-.23-2.57 1.07a84.15 84.15 0 01-6.65 8.6l-1.42 1.67c-2.06 2.45-3.46 5.48-3.44 8.59.02 1.97.15 3.05.23 3.54h10.34l.88-5.04c.12-.7.44-1.35.9-1.89l5.67-5.8a7.8 7.8 0 001.9-4.86L46 11.68s-3.02-1-4.08 3.6zM5.85 24.53c.83-.51 1.7-.24 2.57 1.07 2.47 3.68 4.37 5.92 6.65 8.6l1.42 1.67c2.06 2.45 3.46 5.48 3.44 8.59A25.06 25.06 0 0119.7 48H9.36l-.88-5.04a3.9 3.9 0 00-.9-1.89l-5.67-5.8a7.8 7.8 0 01-1.9-4.86L0 11.68s3.02-1 4.08 3.6c.5 2.2 1.03 5.17 1.41 7.54-.31.13-.61.3-.9.56-1.66 1.42-1.83 3.73-.54 6.04 2.92 5.23 6.12 7.59 6.79 8.08.2.14.3.1.37.03v-.01c-2.9-3.28-4.44-5.53-5.76-8.66-1-2.38-.46-3.82.4-4.33z" fill="currentColor"/></svg>