<svg aria-hidden="true" focusable="false" width="29" height="46" viewBox="0 0 29 46" fill="none" xmlns="http://www.w3.org/2000/svg">
<path d="M4.65389 35.883V6.44058H24.9906V23.5582C25.9776 24.8197 27.0533 26.1957 28.0924 27.5331C28.2693 27.361 28.4723 27.1994 28.6882 27.0439C28.6882 19.511 28.6882 11.9781 28.6882 4.44503C28.6882 2.72853 27.356 1.03762 25.5288 0.767205C18.4281 -0.255735 11.286 -0.255735 4.18531 0.767205C2.35833 1.03762 0.956299 2.72862 0.956299 4.44512C0.956299 16.8163 0.956299 29.1875 0.956299 41.5588C0.956391 43.2754 2.42803 44.9662 4.25501 45.2367C10.3302 46.112 16.385 46.232 22.4543 45.6096C22.5039 43.9531 23.0497 42.4569 23.4731 41.3043L23.8297 40.3267C22.8809 38.8239 21.9415 37.328 21.0377 35.8831L4.65389 35.883ZM14.8222 43.3816C13.4693 43.3816 12.3726 42.29 12.3726 40.9434C12.3726 39.5969 13.4694 38.5052 14.8222 38.5052C16.1751 38.5052 17.2719 39.5969 17.2719 40.9434C17.2719 42.29 16.1752 43.3816 14.8222 43.3816Z" fill="currentColor"/>
<path d="M24.9906 35.883V6.44058H4.65389L4.65389 23.5582C3.66691 24.8197 4.38609 28.7086 3.34698 30.046C3.17014 29.8739 1.17224 27.1994 0.956299 27.0439C0.956299 19.511 0.956299 11.9781 0.956299 4.44512C0.956299 2.72862 2.28854 1.03762 4.1157 0.767205C11.2164 -0.255735 18.3585 -0.255735 25.4592 0.767205C27.2862 1.03762 28.6882 2.72853 28.6882 4.44503C28.6882 16.8162 28.6882 29.1875 28.6882 41.5588C28.6881 43.2754 27.2165 44.9662 25.3895 45.2367C19.3143 46.112 13.2595 46.232 7.19015 45.6096C7.1406 43.9531 6.59484 42.4569 6.17137 41.3043L5.81484 40.3267C6.76364 38.8239 7.70301 37.328 8.60679 35.8831L24.9906 35.883ZM14.8222 43.3816C16.1752 43.3816 17.2719 42.29 17.2719 40.9434C17.2719 39.5969 16.1751 38.5052 14.8222 38.5052C13.4694 38.5052 12.3726 39.5969 12.3726 40.9434C12.3726 42.29 13.4693 43.3816 14.8222 43.3816Z" fill="currentColor"/>
<path d="M7.1584 19.3401C6.69392 19.728 6.5391 20.4262 6.84875 20.9692L12.2676 30.046C12.4999 30.4339 12.9643 30.6667 13.3514 30.6667C13.8159 30.6667 14.2029 30.4339 14.4352 30.046L22.7183 16.3145C23.028 15.7714 22.9506 14.9956 22.4087 14.6077C21.8668 14.2198 21.1701 14.2974 20.7056 14.7629L13.274 23.219L8.78406 19.3401C8.31959 18.9522 7.62287 18.9522 7.1584 19.3401Z" fill="currentColor"/>
</svg>
