<?xml version="1.0" encoding="UTF-8" standalone="no"?><!DOCTYPE svg PUBLIC "-//W3C//DTD SVG 1.1//EN" "http://www.w3.org/Graphics/SVG/1.1/DTD/svg11.dtd"><svg width="100%" height="100%" viewBox="0 0 179 179" version="1.1" xmlns="http://www.w3.org/2000/svg" xmlns:xlink="http://www.w3.org/1999/xlink" xml:space="preserve" xmlns:serif="http://www.serif.com/" style="fill-rule:evenodd;clip-rule:evenodd;stroke-linejoin:round;stroke-miterlimit:2;"><path d="M179,39.016l0,100.968c0,21.536 -17.48,39.016 -39.016,39.016l-100.968,0c-21.536,0 -39.016,-17.48 -39.016,-39.016l0,-100.828c0,-21.676 17.48,-39.156 39.016,-39.156l100.828,0c21.676,0 39.156,17.48 39.156,39.016Z" style="fill:url(#_Linear1);fill-rule:nonzero;"/><path d="M110.746,95.773c-0.842,1.951 -1.964,3.624 -3.226,5.297l3.927,3.903c2.384,-0.976 5.329,-0.279 6.871,2.23c1.122,1.812 1.122,4.182 0,5.855c-1.963,3.206 -6.31,3.484 -8.834,0.975c-1.683,-1.672 -2.104,-4.042 -1.263,-6.133l-3.926,-3.903c-3.366,2.788 -7.573,4.739 -12.341,5.157l0,6.831c3.085,1.115 5.049,4.321 4.347,7.945c-0.561,2.649 -2.664,4.74 -5.329,5.297c-4.487,0.976 -8.554,-2.509 -8.554,-6.83c0,-2.927 1.823,-5.436 4.488,-6.552l0,-6.83c-4.628,-0.557 -8.835,-2.37 -12.341,-5.157l-3.927,3.903c0.982,2.369 0.281,5.297 -2.243,6.83c-1.824,1.115 -4.208,1.115 -5.89,0c-3.226,-1.952 -3.506,-6.273 -0.982,-8.782c1.683,-1.673 4.067,-2.091 6.17,-1.254l3.927,-3.904c-2.805,-3.345 -4.768,-7.527 -5.189,-12.266l-6.871,0c-1.122,3.066 -4.348,5.018 -7.994,4.321c-2.664,-0.558 -4.768,-2.648 -5.329,-5.297c-0.981,-4.461 2.524,-8.503 6.872,-8.503c2.945,0 5.469,1.812 6.591,4.461l6.871,0c0.561,-4.6 2.384,-8.782 5.189,-12.267l-3.927,-3.903c-2.384,0.976 -5.328,0.279 -6.871,-2.23c-1.122,-1.813 -1.122,-4.182 0,-5.855c1.963,-3.206 6.311,-3.485 8.835,-0.976c1.683,1.673 2.103,4.043 1.262,6.134l3.927,3.903c3.365,-2.788 7.572,-4.74 12.34,-5.158l0,-6.83c-3.085,-1.115 -5.048,-4.321 -4.347,-7.946c0.561,-2.648 2.664,-4.739 5.329,-5.297c4.487,-0.975 8.554,2.509 8.554,6.831c0,2.927 -1.823,5.436 -4.487,6.551l0,6.83c4.628,0.558 8.835,2.37 12.341,5.158l3.926,-3.903c-0.981,-2.37 -0.28,-5.297 2.244,-6.83c1.823,-1.115 4.207,-1.115 5.89,0c3.225,1.951 3.506,6.272 0.981,8.782c-1.682,1.672 -4.066,2.091 -6.17,1.254l-3.927,3.903c1.403,1.673 2.525,3.485 3.366,5.436c0.561,1.394 1.963,2.231 3.366,2.231l24.822,0c2.103,0 3.786,-1.673 3.786,-3.764l0,-27.6c0,-6.83 -2.805,-9.06 -8.414,-11.43c-7.573,-3.206 -32.114,-12.267 -39.687,-14.915c-1.823,-0.558 -3.646,-0.976 -5.469,-0.976c-1.823,0 -3.646,0.418 -5.329,0.976c-7.573,2.509 -32.114,11.848 -39.687,14.915c-5.469,2.23 -8.414,4.6 -8.414,11.43l0,55.618c0,23.976 12.621,32.758 49.083,53.806c1.682,0.976 3.225,1.255 4.347,1.255c0.981,0 2.664,-0.418 4.347,-1.255c37.163,-19.933 49.083,-29.83 49.083,-53.806l0,-6.133c0,-2.091 -1.683,-3.764 -3.787,-3.764l-25.102,0c-1.402,0.14 -2.664,0.976 -3.225,2.231Z" style="fill:#fff;fill-rule:nonzero;"/><defs><linearGradient id="_Linear1" x1="0" y1="0" x2="1" y2="0" gradientUnits="userSpaceOnUse" gradientTransform="matrix(180.063,-179.953,179.953,180.063,27.2409,151.73)"><stop offset="0" style="stop-color:#c9005d;stop-opacity:1"/><stop offset="0" style="stop-color:#c9005d;stop-opacity:1"/><stop offset="0.25" style="stop-color:#c9005d;stop-opacity:1"/><stop offset="0.98" style="stop-color:#315bbc;stop-opacity:1"/><stop offset="1" style="stop-color:#315bbc;stop-opacity:1"/></linearGradient></defs></svg>