<svg width="224" height="145" viewBox="0 0 224 145" fill="none" xmlns="http://www.w3.org/2000/svg">
<path d="M168.033 17.5352H113.899V114.14H168.033V17.5352Z" fill="#E1F6F8"/>
<path d="M125.884 15.7656V8.12413H135.375V0H145.51V7.88282H155.485V15.7656H125.884Z" fill="#E1F6F8"/>
<path d="M168.033 14.72H113.818C112.853 14.72 112.049 15.5243 112.049 16.4896C112.049 17.4548 112.853 18.2592 113.818 18.2592H168.033C168.998 18.2592 169.803 17.4548 169.803 16.4896C169.722 15.5243 168.998 14.72 168.033 14.72Z" fill="#E1F6F8"/>
<path d="M58.6387 114.14H114.542V41.3446L87.1938 10.2959L58.6387 41.3446V114.14Z" fill="#E1F6F8"/>
<path d="M167.551 114.14H223.454V41.3446L196.106 10.2959L167.551 41.3446V114.14Z" fill="#E1F6F8"/>
<path d="M52.2036 35.7945V30.4857C52.2036 29.1182 51.0775 27.9921 49.71 27.9921H43.1946V22.5224C43.1946 21.155 42.0685 20.0289 40.7011 20.0289H38.3684C36.0358 20.0289 34.1857 18.1788 34.1857 15.8461V13.9157C34.1857 11.0199 31.853 8.68726 28.9573 8.68726C26.0616 8.68726 23.7289 11.0199 23.7289 13.9157V15.8461C23.7289 18.1788 21.8788 20.0289 19.5462 20.0289H17.2135C15.8461 20.0289 14.72 21.155 14.72 22.5224V27.9921H8.20457C6.83714 27.9921 5.71102 29.1182 5.71102 30.4857V35.7945H0V114.14H58.1559V35.7945H52.2036Z" fill="#E1F6F8"/>
<path d="M32.4977 27.0269H25.5801V38.6902H32.4977V27.0269Z" fill="white"/>
<path d="M29.4411 26.7856H28.6367V39.0925H29.4411V26.7856Z" fill="#E1F6F8"/>
<path d="M34.2671 32.4966H23.6494V33.301H34.2671V32.4966Z" fill="#E1F6F8"/>
<path d="M127.895 74.6454C129.263 73.1171 129.665 71.0258 129.021 69.0953C128.7 68.13 128.458 67.0844 128.458 66.0387C128.458 63.9473 129.182 62.0168 130.389 60.4885C131.434 59.1211 131.917 57.4319 131.515 55.7427C131.354 55.0188 131.274 54.134 131.434 53.3296C131.837 50.6752 134.089 48.5034 136.743 48.1817C140.443 47.7795 143.58 50.6752 143.58 54.2949C143.58 54.7775 143.5 55.3406 143.42 55.8232C143.017 57.4319 143.42 59.2015 144.465 60.4885C145.672 62.0168 146.396 63.9473 146.396 66.1191C146.396 67.1648 146.235 68.2105 145.833 69.1757C145.109 71.0258 145.511 73.1171 146.878 74.6454C149.05 77.0585 150.337 80.3565 150.176 83.8957C149.854 90.3306 144.626 95.559 138.272 95.9612C130.871 96.4438 124.678 90.5719 124.678 83.2522C124.678 79.8738 125.884 76.8977 127.895 74.6454Z" fill="white"/>
<path d="M136.388 119.598L138.56 119.598L138.56 87.5837L136.388 87.5837L136.388 119.598Z" fill="white"/>
<path fill-rule="evenodd" clip-rule="evenodd" d="M173.26 42.3098C176.8 42.3098 180.741 42.7924 181.143 57.5928H168.917C168.836 57.5928 166.102 42.3098 173.26 42.3098Z" fill="black"/>
<path d="M174.629 144.786C190.799 144.786 203.908 144.39 203.908 143.902C203.908 143.413 190.799 143.017 174.629 143.017C158.458 143.017 145.35 143.413 145.35 143.902C145.35 144.39 158.458 144.786 174.629 144.786Z" fill="#E0F5F7"/>
<path fill-rule="evenodd" clip-rule="evenodd" d="M175.995 57.3515L171.169 57.5124L172.134 50.997L176.478 49.8708L175.995 57.3515Z" fill="#FF7254"/>
<path d="M174.307 54.0535L171.491 55.5014L171.813 53.3296L174.307 54.0535Z" fill="#F15A37"/>
<path fill-rule="evenodd" clip-rule="evenodd" d="M155.726 134.41L154.198 139.719L152.026 139.88C151.302 139.96 150.658 140.362 150.337 141.006C150.176 141.328 150.337 141.73 150.658 141.891L157.174 144.063C157.656 144.223 158.139 143.982 158.3 143.5L160.793 135.778L155.726 134.41Z" fill="#79D3E6"/>
<path fill-rule="evenodd" clip-rule="evenodd" d="M188.705 135.697L191.44 140.523L189.992 142.213C189.509 142.776 189.349 143.58 189.59 144.304C189.751 144.626 190.153 144.787 190.475 144.626L195.944 141.891L196.588 141.569C196.99 141.328 197.151 140.845 196.99 140.443L193.29 133.204L188.705 135.697Z" fill="#79D3E6"/>
<path fill-rule="evenodd" clip-rule="evenodd" d="M166.666 81L154.6 132.48C154.359 133.686 155.002 134.893 156.209 135.215L160.633 136.421C161.839 136.743 163.046 136.019 163.448 134.893L178.731 82.4479L166.666 81Z" fill="black"/>
<path fill-rule="evenodd" clip-rule="evenodd" d="M169.239 81.563L173.1 108.67C173.422 110.681 174.065 112.612 175.111 114.301L185.729 135.295C186.372 136.582 188.062 137.064 189.348 136.341L192.888 134.169C194.014 133.525 194.416 132.077 193.853 130.951L184.361 110.279C184.361 110.279 183.959 99.5808 183.316 90.4915C183.074 86.4696 182.029 82.2869 180.42 80.9999C176.398 77.8629 169.239 81.563 169.239 81.563Z" fill="#004CBB"/>
<path fill-rule="evenodd" clip-rule="evenodd" d="M180.098 81H166.665L166.907 69.8193C166.907 69.8193 165.298 68.4519 165.298 66.3605C165.298 63.5452 167.148 62.1778 168.918 60.4082C170.607 58.719 170.687 57.3516 173.342 57.3516C177.444 57.3516 181.224 61.0517 181.868 68.291C182.19 71.8302 181.948 76.4151 181.868 79.3109C181.707 80.2761 180.983 81 180.098 81Z" fill="#FFB512"/>
<path fill-rule="evenodd" clip-rule="evenodd" d="M172.377 65.7974L166.746 77.2194L166.666 81H171.331L174.629 77.6216L172.377 65.7974Z" fill="#FF9D12"/>
<path fill-rule="evenodd" clip-rule="evenodd" d="M161.598 88.8825L159.828 91.1348C159.587 91.4565 159.587 91.9392 159.909 92.2609L159.828 92.4218C159.748 92.5827 159.748 92.9044 159.909 93.0653C160.07 93.2262 160.391 93.2261 160.552 93.1457H160.713L160.954 93.3066C161.115 93.4675 161.437 93.4675 161.598 93.387L161.759 93.3066L161.92 93.387C162.161 93.5479 162.483 93.4675 162.644 93.3066L166.022 90.3304L162.965 87.3542L161.598 88.8825Z" fill="#FF7254"/>
<path fill-rule="evenodd" clip-rule="evenodd" d="M161.438 89.9284L160.311 90.1697C159.99 90.2502 159.668 90.0088 159.668 89.6871C159.668 89.5262 159.748 89.3653 159.909 89.2849L162.483 87.9175L163.368 89.2849L162.483 90.2502L161.438 89.9284Z" fill="#FF7254"/>
<path fill-rule="evenodd" clip-rule="evenodd" d="M170.768 58.3167L171.089 56.3862H176.318V58.7189L170.768 58.3167Z" fill="#FFB512"/>
<path d="M185.407 95.1568L178.972 95.559C177.444 95.6394 176.076 94.5133 175.996 92.9045L175.674 88.1588C175.594 86.6305 176.72 85.263 178.328 85.1826L184.763 84.7804C186.292 84.7 187.659 85.8261 187.74 87.4348L188.061 92.1806C188.142 93.7089 186.935 95.0763 185.407 95.1568Z" fill="#008ECC"/>
<path d="M175.914 86.6303L178.247 89.4456C178.729 90.0087 179.373 90.25 180.097 90.25L184.199 90.0087C185.003 89.9282 185.727 89.4456 186.13 88.7217L187.417 85.9868" stroke="#0069D0" stroke-width="0.7975" stroke-miterlimit="10" stroke-linecap="round"/>
<path d="M177.122 86.55C177.122 86.55 172.537 71.83 172.537 63.0624L177.846 62.0972L186.211 85.9065" stroke="#008ECC" stroke-width="1.5951" stroke-miterlimit="10"/>
<path fill-rule="evenodd" clip-rule="evenodd" d="M178.812 61.0515L177.122 78.0237L165.218 91.4567L161.276 87.9979L170.607 75.691L171.974 60.8906L178.812 61.0515Z" fill="#FFB512"/>
<path fill-rule="evenodd" clip-rule="evenodd" d="M177.927 49.2276C177.605 52.1233 174.226 54.8582 171.331 54.5364C167.952 54.2147 167.47 52.1233 167.711 49.2276C168.033 46.0101 169.883 43.0339 173.02 43.0339C176.8 43.0339 178.49 44.884 177.927 49.2276Z" fill="#FF7254"/>
<path fill-rule="evenodd" clip-rule="evenodd" d="M173.02 43.0339C172.859 43.0339 172.698 43.0339 172.537 43.0339C172.537 43.1948 173.744 44.4014 174.065 45.6079C174.789 48.1819 173.261 56.4669 175.352 57.5126H177.202C177.202 57.5126 177.926 50.1124 178.007 49.0667C178.57 44.8035 176.8 43.0339 173.02 43.0339Z" fill="black"/>
<path d="M174.79 50.6751C175.456 50.6751 175.996 50.1349 175.996 49.4685C175.996 48.8022 175.456 48.262 174.79 48.262C174.123 48.262 173.583 48.8022 173.583 49.4685C173.583 50.1349 174.123 50.6751 174.79 50.6751Z" fill="#FF7254"/>
<path fill-rule="evenodd" clip-rule="evenodd" d="M173.342 43.0339C173.101 43.0339 172.94 43.0339 172.699 43.0339C172.538 43.0339 172.297 43.0339 172.136 43.0339C172.055 43.0339 172.055 43.0339 171.975 43.0339C171.814 43.0339 171.653 43.1144 171.573 43.1144C171.573 43.1144 171.573 43.1144 171.492 43.1144C170.607 43.3557 170.044 43.4361 168.838 45.2862L174.629 47.7797L174.951 43.2752C174.629 43.1948 174.227 43.1144 173.905 43.0339H173.825C173.664 43.1144 173.503 43.0339 173.342 43.0339Z" fill="black"/>
<path d="M168.998 51.1579C168.998 51.1579 169.159 51.721 169.963 51.721C170.687 51.6406 171.009 50.9971 171.009 50.9971" stroke="black" stroke-width="0.4015" stroke-miterlimit="10"/>
<path d="M63.2237 50.1123C63.3846 51.721 62.0976 52.1232 61.6954 52.2036C61.2932 52.2841 60.9714 52.1232 60.6497 51.8819C59.6845 51.3188 59.041 48.7448 58.0757 48.1818C56.5474 47.3774 54.6169 47.297 52.8473 47.6992C52.2843 47.7796 51.7212 47.9405 51.2386 47.7796C50.6755 47.6187 50.1929 47.0557 50.032 46.4926C49.8712 45.9295 49.9516 45.2861 50.1125 44.6426C50.2733 43.9991 51.319 43.0338 51.5603 42.4708C52.3647 40.2185 51.3995 38.0467 52.606 35.9554C53.4908 34.4271 55.0996 33.3814 56.8692 33.2205C58.6388 33.0596 60.4084 33.7031 61.6954 34.8292C62.4193 35.4727 63.3041 36.7597 63.2237 37.725C63.1432 38.3685 62.9824 39.0924 62.6606 39.6555C61.8563 41.3446 61.2932 43.1947 61.1323 44.9643C61.0519 46.6535 63.0628 48.2622 63.2237 50.1123Z" fill="#79D3E6"/>
<path d="M70.7047 133.606C96.6483 133.606 117.68 133.174 117.68 132.641C117.68 132.107 96.6483 131.675 70.7047 131.675C44.761 131.675 23.7295 132.107 23.7295 132.641C23.7295 133.174 44.761 133.606 70.7047 133.606Z" fill="#E0F5F7"/>
<path fill-rule="evenodd" clip-rule="evenodd" d="M58.5591 44.4815H57.5939C54.859 44.4815 53.4111 42.4706 53.4111 40.2183L53.4916 37.6443C53.4916 35.6334 55.2612 34.1855 57.5939 34.1855C60.3287 34.1855 62.5809 35.7943 62.6614 38.4487V40.4596C62.6614 43.0336 61.5353 44.4815 58.5591 44.4815Z" fill="#FFB512"/>
<path d="M58.3981 120.173L45.126 72.8759L56.548 71.5889L62.5808 119.208L61.6156 121.138L58.3981 120.173Z" fill="#008ECC"/>
<path fill-rule="evenodd" clip-rule="evenodd" d="M61.3736 120.173C61.8562 120.173 62.3389 119.61 62.4997 119.127C62.5802 118.805 63.0628 118.644 63.3845 118.805L65.9585 119.931L67.7281 120.816C68.5325 121.138 68.9347 121.942 69.0151 122.827C69.0151 123.068 68.8543 123.31 68.6129 123.31H59.604C59.041 123.31 58.5583 122.827 58.4779 122.264L58.3975 120.253L61.3736 120.173Z" fill="black"/>
<path d="M77.3809 111.164C77.3809 122.988 86.9529 132.56 98.7771 132.56C110.601 132.56 120.173 122.988 120.173 111.164C120.173 99.3396 110.601 89.7676 98.7771 89.7676C87.0333 89.7676 77.3809 99.3396 77.3809 111.164ZM79.9548 111.164C79.9548 100.787 88.4007 92.3416 98.7771 92.3416C109.153 92.3416 117.599 100.787 117.599 111.164C117.599 121.54 109.153 129.986 98.7771 129.986C88.4007 130.066 79.9548 121.621 79.9548 111.164Z" fill="#FFB512"/>
<path d="M14.3184 111.164C14.3184 122.988 23.8904 132.56 35.7146 132.56C47.5388 132.56 57.1108 122.988 57.1108 111.164C57.1108 99.3396 47.5388 89.7676 35.7146 89.7676C23.8904 89.7676 14.3184 99.3396 14.3184 111.164ZM16.8923 111.164C16.8923 100.787 25.3382 92.3416 35.7146 92.3416C46.091 92.3416 54.5368 100.787 54.5368 111.164C54.5368 121.54 46.091 129.986 35.7146 129.986C25.3382 130.066 16.8923 121.621 16.8923 111.164Z" fill="#FFB512"/>
<path d="M55.8245 75.5305L48.9874 75.9327C44.1612 75.9327 42.1503 70.3021 44.0003 65.0737L58.6398 68.2912C58.5594 68.3716 58.3985 75.5305 55.8245 75.5305Z" fill="#008ECC"/>
<path d="M92.5026 82.6087H91.0547C89.6873 82.6087 88.6416 81.4826 88.6416 80.1956C88.6416 78.8282 89.7677 77.7825 91.0547 77.7825H92.5026V82.6087Z" fill="#002782"/>
<path d="M90.3317 79.9542C90.01 79.6325 89.6078 79.6325 89.2861 79.9542L87.1143 82.2869C87.3556 82.7695 87.5969 83.0912 87.7578 83.5739L90.3317 80.9999C90.6535 80.6781 90.6535 80.1955 90.3317 79.9542Z" fill="#002782"/>
<path d="M50.998 79.5522L62.4201 113.497L88.8838 87.8373" stroke="#002782" stroke-width="1.6577" stroke-miterlimit="10"/>
<path d="M56.5479 75.9326H46.4128C45.528 75.9326 44.7236 76.6565 44.7236 77.6218V78.7479C44.7236 79.9545 45.6889 80.9197 46.8954 80.9197H47.9411C48.9868 80.9197 49.952 80.6784 50.8368 80.1958L53.0086 78.9892C53.3304 78.8283 53.7326 78.7479 54.0543 78.7479H56.0652C56.95 78.7479 57.674 78.024 57.674 77.1392C57.674 76.4152 57.1914 75.9326 56.5479 75.9326Z" fill="black"/>
<path d="M63.0636 119.69L35.7954 115.427C33.7041 115.186 32.1758 113.416 32.1758 111.405C32.1758 109.153 34.0258 107.303 36.2781 107.303H63.7875C67.2463 107.303 70.0616 110.118 70.0616 113.577C70.0616 117.196 66.7637 120.092 63.0636 119.69Z" fill="#002782"/>
<path d="M58.6387 101.592H64.1888C66.8432 101.592 69.4977 100.627 71.4281 98.7765L86.872 83.0913" stroke="#002782" stroke-width="1.6577" stroke-miterlimit="10"/>
<path d="M101.433 111.164L93.7105 101.753L82.8516 71.5889H85.1038" stroke="#002782" stroke-width="1.6577" stroke-miterlimit="10" stroke-linecap="round" stroke-linejoin="round"/>
<path d="M52.0428 82.2065L35.875 110.44" stroke="#002782" stroke-width="1.6577" stroke-miterlimit="10"/>
<path d="M47.6193 89.9287L44.4822 86.8721H23.7295" stroke="#002782" stroke-width="1.6577" stroke-miterlimit="10" stroke-linecap="round" stroke-linejoin="round"/>
<path d="M64.5918 113.577L67.6484 105.373" stroke="#007BC6" stroke-width="0.8902" stroke-miterlimit="10" stroke-linecap="round"/>
<path d="M70.0626 106.499H65.3168C64.8342 106.499 64.3516 106.096 64.3516 105.533C64.3516 105.051 64.7538 104.568 65.3168 104.568H70.0626C70.5452 104.568 71.0278 104.97 71.0278 105.533C70.9474 106.016 70.5452 106.499 70.0626 106.499Z" fill="#008ECC"/>
<path d="M63.7872 124.918H59.0414C58.5588 124.918 58.0762 124.516 58.0762 123.953C58.0762 123.47 58.4784 122.988 59.0414 122.988H63.7872C64.2698 122.988 64.7524 123.39 64.7524 123.953C64.7524 124.516 64.3503 124.918 63.7872 124.918Z" fill="#008ECC"/>
<path d="M58.5593 68.3713L48.1025 75.9324L68.2922 81.4826L63.3856 102.155L68.0509 102.396L76.3359 82.7696C77.9446 78.5868 77.2207 75.2085 72.9576 73.5193L58.5593 68.3713Z" fill="#008ECC"/>
<path d="M47.458 65.6365C47.458 65.6365 44.2405 72.1519 52.8473 74.2432L71.9108 79.3108L65.7172 100.385" stroke="#0069D0" stroke-width="0.7055" stroke-miterlimit="10"/>
<path d="M63.7871 100.385H68.8546" stroke="#0069D0" stroke-width="0.7055" stroke-miterlimit="10"/>
<path fill-rule="evenodd" clip-rule="evenodd" d="M67.2457 102.155C67.7284 102.155 68.211 101.592 68.3719 101.109C68.4523 100.787 68.9349 100.627 69.2567 100.787L70.9458 101.914L72.7154 102.798C73.5198 103.12 73.922 103.925 74.0024 104.809C74.0024 105.051 73.8416 105.292 73.6003 105.292H64.5913C64.0283 105.292 63.5456 104.809 63.4652 104.246L63.3848 102.235L67.2457 102.155Z" fill="black"/>
<path d="M45.8496 63.7059L40.9429 62.7406C38.7711 62.1775 37.4037 60.0057 37.9667 57.834L40.1385 48.9859C40.7016 46.8141 42.8734 45.4467 45.0452 46.0097L49.3888 47.0554C50.8367 47.3771 51.641 48.9859 50.9975 50.3533L45.8496 63.7059Z" fill="#FF7254"/>
<path fill-rule="evenodd" clip-rule="evenodd" d="M44 65.0737L58.4787 68.2911L58.8808 60.8909C58.9613 61.2127 62.9027 57.9148 62.4201 55.743C60.9722 49.0667 58.6395 46.5732 55.6634 46.171C51.2393 45.5275 50.1936 49.308 47.137 59.6039L44 65.0737Z" fill="#004CBB"/>
<path d="M59.0412 61.2124C58.1564 60.4081 58.2369 60.0059 57.9955 59.845C57.3521 59.3624 50.6758 53.6514 50.6758 53.6514C50.6758 53.6514 53.4911 61.5342 56.3064 67.8083L58.5586 68.4518L59.0412 61.2124Z" fill="black"/>
<path d="M77.1396 111.164C77.1396 99.1787 86.8725 89.4458 98.8576 89.4458" stroke="#002782" stroke-width="1.7804" stroke-miterlimit="10" stroke-linecap="round"/>
<path d="M14.0771 111.164C14.0771 99.1787 23.81 89.4458 35.7951 89.4458C47.7802 89.4458 57.5131 99.1787 57.5131 111.164" stroke="#002782" stroke-width="1.6577" stroke-miterlimit="10" stroke-linecap="round"/>
<path fill-rule="evenodd" clip-rule="evenodd" d="M79.3118 67.567L80.2771 67.1648C81.001 66.8431 81.8054 66.9235 82.4489 67.3257L84.7815 69.4171C85.1033 69.6584 85.1837 70.0606 85.1837 70.4628C85.1033 71.1867 84.3793 71.6693 83.6554 71.428L78.5879 70.5432L79.3118 67.567Z" fill="#FFB512"/>
<path d="M59.6845 54.6971H58.6388V52.8471C58.6388 50.5144 56.7083 48.5839 54.3756 48.5839H51.9625C50.3538 48.5839 48.9059 49.4687 48.1015 50.8361L48.0211 50.997L46.9754 51.3992L46.5732 50.4339L47.2972 50.1926C48.3429 48.5839 50.1125 47.6187 51.9625 47.6187H54.3756C57.2714 47.6187 59.6845 50.0318 59.6845 52.9275V54.6971Z" fill="#FF7254"/>
<path d="M60.0873 55.2603L57.9155 50.9167C56.8698 48.9862 54.5371 48.1818 52.5262 49.147C50.3544 50.1927 49.55 53.008 50.9175 55.0189L53.8132 59.2821L60.0873 55.2603Z" fill="#004CBB"/>
<path d="M64.5112 62.6606L60.0068 55.019L53.8936 59.2822L58.2372 65.315C59.4437 67.0042 61.2133 68.1303 63.2242 68.5325L78.9899 70.7042L80.1964 67.165L64.5112 62.6606Z" fill="#FFB512"/>
<path fill-rule="evenodd" clip-rule="evenodd" d="M59.8457 41.0231L62.0175 40.9426C62.0175 40.9426 61.6153 41.8274 60.7305 41.8274C60.087 41.8274 59.8457 41.0231 59.8457 41.0231Z" fill="white"/>
<path d="M54.2949 40.6206C54.2949 40.6206 56.145 35.7943 58.719 34.266C58.719 34.266 59.7646 34.0247 61.1321 35.2313C61.1321 35.2313 61.6147 35.6335 62.0973 36.277C62.4191 36.7596 62.7408 37.564 62.7408 38.2879C62.7408 38.2879 62.4995 36.5987 61.0516 36.3574C58.9603 35.9552 56.4667 38.3683 54.2949 40.6206Z" fill="#008ECC"/>
<path d="M58.559 44.4817C58.7199 44.4817 55.6633 42.7121 56.709 37.725C57.272 35.0706 59.3634 34.1858 59.3634 34.1858C59.3634 34.1858 53.8132 32.6575 53.0893 37.6446C52.3654 41.9882 53.5719 45.1252 58.559 44.4817Z" fill="#79D3E6"/>
</svg>
