<?xml version="1.0" encoding="UTF-8" standalone="no"?>
<!DOCTYPE svg PUBLIC "-//W3C//DTD SVG 1.1//EN" "http://www.w3.org/Graphics/SVG/1.1/DTD/svg11.dtd">
<svg width="100%" height="100%" viewBox="0 0 123 116" version="1.1" xmlns="http://www.w3.org/2000/svg" xmlns:xlink="http://www.w3.org/1999/xlink" xml:space="preserve" xmlns:serif="http://www.serif.com/" style="fill-rule:evenodd;clip-rule:evenodd;stroke-linejoin:round;stroke-miterlimit:2;">
    <g id="Artboard1" transform="matrix(1.03752,0,0,0.86069,-37.7555,-5.61472)">
        <rect x="36.39" y="6.524" width="117.615" height="134.499" style="fill:none;"/>
        <g transform="matrix(0.561247,0,0,0.676557,22.9845,-52.3312)">
            <path d="M219,133.016L219,233.984C219,255.52 201.52,273 179.984,273L79.016,273C57.481,273 40,255.52 40,233.984L40,133.156C40,111.48 57.481,94 79.016,94L179.844,94C201.52,94 219,111.48 219,133.016Z" style="fill:url(#_Linear1);fill-rule:nonzero;"/>
        </g>
        <g transform="matrix(0.561247,0,0,0.676557,22.9845,-52.3312)">
            <path d="M150.746,190.273C149.904,192.224 148.782,193.897 147.52,195.57L151.447,199.473C153.831,198.497 156.776,199.194 158.318,201.703C159.44,203.515 159.44,205.885 158.318,207.558C156.355,210.764 152.008,211.042 149.484,208.533C147.801,206.861 147.38,204.491 148.221,202.4L144.295,198.497C140.929,201.285 136.722,203.236 131.954,203.655L131.954,210.485C135.039,211.6 137.003,214.806 136.301,218.43C135.74,221.079 133.637,223.17 130.972,223.727C126.485,224.703 122.418,221.218 122.418,216.897C122.418,213.97 124.241,211.461 126.906,210.345L126.906,203.515C122.278,202.958 118.071,201.145 114.565,198.358L110.638,202.261C111.62,204.63 110.919,207.558 108.394,209.091C106.571,210.206 104.187,210.206 102.505,209.091C99.279,207.139 98.999,202.818 101.523,200.309C103.206,198.636 105.59,198.218 107.693,199.055L111.62,195.152C108.815,191.806 106.852,187.624 106.431,182.885L99.56,182.885C98.438,185.952 95.212,187.903 91.566,187.206C88.902,186.648 86.798,184.558 86.237,181.909C85.256,177.448 88.762,173.406 93.109,173.406C96.054,173.406 98.578,175.218 99.7,177.867L106.571,177.867C107.132,173.267 108.955,169.085 111.76,165.6L107.834,161.697C105.45,162.673 102.505,161.976 100.962,159.467C99.84,157.655 99.84,155.285 100.962,153.612C102.925,150.406 107.273,150.127 109.797,152.636C111.48,154.309 111.9,156.679 111.059,158.77L114.986,162.673C118.351,159.885 122.558,157.933 127.326,157.515L127.326,150.685C124.241,149.57 122.278,146.364 122.979,142.739C123.54,140.091 125.644,138 128.308,137.442C132.796,136.467 136.862,139.952 136.862,144.273C136.862,147.2 135.039,149.709 132.375,150.824L132.375,157.655C137.003,158.212 141.21,160.024 144.716,162.812L148.642,158.909C147.661,156.539 148.362,153.612 150.886,152.079C152.709,150.964 155.093,150.964 156.776,152.079C160.001,154.03 160.282,158.352 157.758,160.861C156.075,162.533 153.691,162.952 151.587,162.115L147.661,166.018C149.063,167.691 150.185,169.503 151.026,171.455C151.587,172.848 152.99,173.685 154.392,173.685L179.214,173.685C181.317,173.685 183,172.012 183,169.921L183,142.321C183,135.491 180.195,133.261 174.586,130.891C167.013,127.685 142.472,118.624 134.899,115.976C133.076,115.418 131.253,115 129.43,115C127.607,115 125.784,115.418 124.101,115.976C116.528,118.485 91.987,127.824 84.414,130.891C78.945,133.121 76,135.491 76,142.321L76,197.939C76,221.915 88.621,230.697 125.083,251.745C126.765,252.721 128.308,253 129.43,253C130.412,253 132.094,252.582 133.777,251.745C170.94,231.812 182.86,221.915 182.86,197.939L182.86,191.806C182.86,189.715 181.177,188.042 179.073,188.042L153.971,188.042C152.569,188.182 151.307,189.018 150.746,190.273Z" style="fill:white;fill-rule:nonzero;"/>
        </g>
    </g>
    <defs>
        <linearGradient id="_Linear1" x1="0" y1="0" x2="1" y2="0" gradientUnits="userSpaceOnUse" gradientTransform="matrix(180.063,-179.953,179.953,180.063,67.2409,245.73)"><stop offset="0" style="stop-color:rgb(201,0,93);stop-opacity:1"/><stop offset="0" style="stop-color:rgb(201,0,93);stop-opacity:1"/><stop offset="0.25" style="stop-color:rgb(201,0,93);stop-opacity:1"/><stop offset="0.98" style="stop-color:rgb(49,91,188);stop-opacity:1"/><stop offset="1" style="stop-color:rgb(49,91,188);stop-opacity:1"/></linearGradient>
    </defs>
</svg>
