<svg width="230" height="121" viewBox="0 0 230 121" fill="none" xmlns="http://www.w3.org/2000/svg">
<path d="M29.5357 108.225H111.464C123.933 97.0352 131.846 80.7294 131.846 62.5853C131.846 28.6949 104.43 1.27881 70.5399 1.27881C36.6495 1.27881 9.2334 28.6949 9.2334 62.5853C9.2334 80.7294 17.0666 97.0352 29.5357 108.225Z" fill="#E0F5F7"/>
<path d="M129.288 108.225H208.099C221.447 96.9553 230 80.0901 230 61.3065C230 27.4161 202.584 0 168.693 0C134.803 0 107.387 27.4161 107.387 61.3065C107.387 80.0901 115.939 96.9553 129.288 108.225Z" fill="#E0F5F7"/>
<path d="M131.846 62.5852C131.846 76.0135 127.529 88.4826 120.176 98.5538C112.183 88.2428 107.467 75.2941 107.467 61.2264C107.467 47.7981 111.783 35.329 119.137 25.2578C127.05 35.6487 131.846 48.5175 131.846 62.5852Z" fill="#C1ECF0"/>
<path d="M91.6408 90.5607H8.59337C4.437 90.5607 1 87.2037 1 82.9674V24.3785C1 20.2222 4.35707 16.7852 8.59337 16.7852H91.6408C95.7972 16.7852 99.2342 20.1422 99.2342 24.3785V82.9674C99.2342 87.1237 95.7972 90.5607 91.6408 90.5607Z" stroke="white" stroke-width="2" stroke-miterlimit="10"/>
<path d="M219.289 17.0249H166.136C162.379 17.0249 159.262 20.0623 159.262 23.8989V83.9265C159.262 87.6832 162.299 90.8005 166.136 90.8005H224.485" stroke="white" stroke-width="2" stroke-miterlimit="10"/>
<path d="M98.755 34.6895H1.71973" stroke="white" stroke-width="2" stroke-miterlimit="10"/>
<path d="M228.322 34.6895H159.422" stroke="white" stroke-width="2" stroke-miterlimit="10"/>
<path d="M196.11 119.096H224.246C225.685 119.096 226.883 117.897 226.883 116.458C226.883 115.019 225.685 113.82 224.246 113.82H196.11C194.672 113.82 193.473 115.019 193.473 116.458C193.473 117.897 194.672 119.096 196.11 119.096Z" fill="#96DFE6"/>
<path d="M221.928 119.016H224.885C226.324 119.016 227.443 117.897 227.443 116.458C227.443 115.019 226.324 113.9 224.885 113.9H221.928C220.489 113.9 219.37 115.019 219.37 116.458C219.37 117.897 220.489 119.016 221.928 119.016Z" fill="#CAEFF2"/>
<path d="M191.634 114.939H225.924C226.803 114.939 227.522 114.22 227.522 113.341C227.522 112.462 226.803 111.742 225.924 111.742H191.634C190.755 111.742 190.035 112.462 190.035 113.341C190.035 114.22 190.755 114.939 191.634 114.939Z" fill="#E0F5F7"/>
<path d="M133.285 119.016H209.299L198.029 77.3722C200.746 76.8127 202.824 74.4147 202.824 71.5373V56.4305C202.824 53.1533 200.187 50.5156 196.91 50.5156H139.6C136.322 50.5156 133.685 53.1533 133.685 56.4305V67.0612L133.285 119.016Z" fill="#96DFE6"/>
<path d="M155.266 119.016L143.995 77.3722C146.713 76.8127 148.791 74.4147 148.791 71.5373V56.4305C148.791 53.1533 146.154 50.5156 142.876 50.5156H139.28C136.002 50.5156 133.365 53.1533 133.365 56.4305V67.0612L133.125 119.016H155.266Z" fill="#38BEDA"/>
<path d="M143.516 79.1307H198.508L198.028 77.4521H143.036L143.516 79.1307Z" fill="#38BEDA"/>
<path d="M186.517 79.6899C191.793 81.5283 200.026 99.2728 200.026 99.2728L209.218 85.8446L215.372 88.0826C215.372 88.0826 212.735 99.3528 205.301 107.506C203.622 109.344 199.866 110.063 197.148 108.944C192.352 107.026 190.434 100.712 190.434 100.712L186.438 86.2442V79.6899H186.517Z" fill="#FF9D12"/>
<path fill-rule="evenodd" clip-rule="evenodd" d="M216.331 80.3295L217.21 75.1341C217.29 74.4946 216.971 73.9351 216.331 73.8552C215.692 73.6953 214.972 74.1749 214.733 74.8144L213.773 78.0116L216.331 80.3295Z" fill="#F15A37"/>
<path d="M203.543 86.4843H209.058C210.177 86.4843 211.456 85.5251 211.776 84.4061L216.012 71.6173C216.412 70.4982 215.772 69.5391 214.653 69.5391H209.138C208.019 69.5391 206.74 70.4982 206.42 71.6173L202.184 84.4061C201.784 85.5251 202.424 86.4843 203.543 86.4843Z" fill="#38BEDA"/>
<path d="M204.742 86.484H210.257C211.376 86.484 212.655 85.5249 212.975 84.4058L217.211 71.617C217.611 70.498 216.971 69.5388 215.852 69.5388H210.337C209.218 69.5388 207.939 70.498 207.62 71.617L203.383 84.4058C202.984 85.5249 203.623 86.484 204.742 86.484Z" fill="black"/>
<path fill-rule="evenodd" clip-rule="evenodd" d="M215.053 88.4823L216.492 83.7664C217.291 80.7291 216.412 79.0505 215.053 78.2512L210.977 75.7734C210.417 75.4537 209.618 75.6135 209.218 76.253C208.898 76.8125 209.058 77.4519 209.538 77.7716L211.376 79.0505L208.818 77.2921C208.259 76.9723 207.54 77.1322 207.14 77.6917C206.74 78.2512 206.9 78.8907 207.38 79.2104L210.257 81.1287L208.019 79.61C207.54 79.2903 206.82 79.4502 206.5 79.9298C206.181 80.4093 206.261 81.0488 206.74 81.3685L210.097 83.9263L209.298 86.9636L215.053 88.4823Z" fill="#FF7254"/>
<path d="M204.022 93.6779L209.298 86.0046L215.452 88.2427C215.452 88.2427 214.573 92.6388 211.616 98.3938C209.138 96.7153 206.58 95.1966 204.022 93.6779Z" fill="#FF9D12"/>
<path d="M199.306 97.7544C199.786 98.7136 200.025 99.353 200.025 99.353L198.986 101.591C199.066 101.591 198.906 99.5928 199.306 97.7544Z" fill="#EC8A12"/>
<path fill-rule="evenodd" clip-rule="evenodd" d="M176.368 49.0769C176.368 49.0769 160.701 47.8779 162.859 74.175L189.316 74.4148C189.316 74.4148 190.835 48.1177 176.368 49.0769Z" fill="black"/>
<path fill-rule="evenodd" clip-rule="evenodd" d="M169.173 119.096H193.312L193.073 115.898H168.934L169.173 119.096Z" fill="#004CBB"/>
<path fill-rule="evenodd" clip-rule="evenodd" d="M196.43 95.1168C196.35 93.9178 195.87 92.7988 195.231 91.9196C194.511 90.9604 194.032 89.8414 193.712 88.7224C192.353 84.0864 188.756 80.1698 183.96 78.5712L181.403 77.692L171.891 77.6121L169.013 78.811C163.258 80.0899 160.301 85.9248 162.379 94.3175L167.335 114.38C167.575 115.419 168.614 116.138 169.653 116.138H192.273C193.392 116.138 194.271 115.259 194.271 114.06V99.8327C195.79 98.9534 196.589 97.195 196.43 95.1168Z" fill="#FFB512"/>
<path fill-rule="evenodd" clip-rule="evenodd" d="M172.051 75.9334L180.684 76.1731L177.886 64.7431L170.213 62.7449L172.051 75.9334Z" fill="#FF7254"/>
<path fill-rule="evenodd" clip-rule="evenodd" d="M181.562 78.1715L180.683 74.2549H171.491L171.811 78.3313L181.562 78.1715Z" fill="#FFB512"/>
<path d="M162.539 95.2766L167.495 93.4382L171.012 108.865L165.976 109.105L162.539 95.2766Z" fill="#FF9D12"/>
<path fill-rule="evenodd" clip-rule="evenodd" d="M187.078 63.2246C187.078 66.5017 185.959 68.8996 182.043 69.9387C181.963 69.9387 181.963 69.9387 181.883 69.9387C181.643 70.0186 179.805 70.2584 179.245 70.1785C177.167 70.0986 175.009 69.2193 173.171 67.8605C172.691 67.5408 172.211 67.1411 171.812 66.7415C171.652 66.5816 171.492 66.4218 171.332 66.2619C171.172 66.0221 171.012 65.8623 170.773 65.6225C170.693 65.4626 170.533 65.3827 170.453 65.2228C169.574 64.0239 168.934 62.745 168.694 61.3862C168.135 58.4287 168.215 56.1108 168.854 54.3523C169.254 53.2333 169.973 52.3541 170.853 51.6347C171.332 51.235 171.972 50.9153 172.611 50.6755C172.851 50.5956 173.171 50.4357 173.49 50.3558C173.81 50.2759 174.05 50.1959 174.37 50.116H174.449C174.529 50.116 174.529 50.116 174.529 50.116C174.849 50.0361 175.169 50.0361 175.489 49.9561C175.888 49.8762 176.208 49.8762 176.608 49.8762C176.847 49.8762 177.167 49.8762 177.407 49.8762C177.487 49.8762 177.487 49.8762 177.567 49.8762C177.647 49.8762 177.727 49.8762 177.807 49.8762C178.046 49.8762 178.286 49.9561 178.526 49.9561H178.606C178.846 50.0361 179.005 50.0361 179.245 50.116C179.405 50.1959 179.565 50.1959 179.805 50.2759C180.045 50.3558 180.204 50.4357 180.364 50.5157C180.524 50.5956 180.684 50.6755 180.844 50.7554C181.323 50.9952 181.803 51.315 182.203 51.7146C182.283 51.7945 182.442 51.8745 182.522 52.0343C182.602 52.1143 182.682 52.1942 182.762 52.2741C184.76 54.1925 186.039 57.1499 186.519 60.1872C186.519 60.3471 186.599 60.427 186.599 60.5869C186.998 61.546 187.078 62.4253 187.078 63.2246Z" fill="#FF7254"/>
<path fill-rule="evenodd" clip-rule="evenodd" d="M179.245 70.2585C179.245 70.2585 177.007 69.3793 176.607 69.0596C176.607 69.0596 178.046 71.3775 179.565 71.8571L179.245 70.2585Z" fill="#FB4F32"/>
<path fill-rule="evenodd" clip-rule="evenodd" d="M187.078 63.3045C187.078 66.5817 185.958 68.9796 182.042 70.0187C182.042 70.0187 179.484 70.2585 179.404 70.2585C177.726 70.3384 177.086 67.1412 177.086 67.1412C176.607 66.4218 176.607 65.4626 177.086 64.7433L178.365 62.9848C178.685 62.5052 179.244 62.1855 179.804 62.1056L184.999 61.4661C185.799 61.3862 186.678 61.7859 187.078 62.5052V63.3045Z" fill="white"/>
<path fill-rule="evenodd" clip-rule="evenodd" d="M174.529 50.1958C174.289 50.6754 172.131 52.7536 172.211 54.9117C172.211 58.2688 172.37 62.585 170.532 65.2227C169.653 64.0237 169.013 62.7448 168.774 61.386C168.214 58.4286 168.294 56.1106 168.933 54.3522C169.333 53.2331 170.052 52.3539 170.932 51.6345C171.411 51.2349 172.051 50.9152 172.69 50.6754C172.93 50.5955 173.25 50.4356 173.569 50.3557C173.889 50.3557 174.209 50.2757 174.529 50.1958Z" fill="black"/>
<path d="M179.004 62.9846L172.85 60.1072C171.971 59.7075 171.011 60.1871 170.852 61.1462L170.692 62.1853C170.612 62.7449 170.852 63.3843 171.411 63.704L178.205 67.6206" stroke="white" stroke-width="0.4511" stroke-miterlimit="10"/>
<path d="M171.651 63.4642C172.799 63.4642 173.73 62.5338 173.73 61.386C173.73 60.2383 172.799 59.3079 171.651 59.3079C170.504 59.3079 169.573 60.2383 169.573 61.386C169.573 62.5338 170.504 63.4642 171.651 63.4642Z" fill="#FF7254"/>
<path fill-rule="evenodd" clip-rule="evenodd" d="M175.647 50.036C176.047 49.9561 176.446 49.9561 176.846 49.9561C177.166 49.9561 177.485 49.9561 177.805 49.9561C177.885 49.9561 177.965 49.9561 178.045 49.9561C178.285 49.9561 178.525 50.036 178.764 50.036H178.844C180.443 50.3557 181.882 51.2349 183.081 52.354C181.802 55.0716 171.97 59.148 172.05 59.3079L170.691 51.8744C172.05 50.5955 173.969 50.2758 174.608 50.1958H174.688C175.008 50.1159 175.327 50.036 175.647 50.036Z" fill="black"/>
<path d="M139.52 119.096H169.254C170.692 119.096 171.891 117.897 171.891 116.458C171.891 115.02 170.692 113.821 169.254 113.821H139.52C138.081 113.821 136.882 115.02 136.882 116.458C136.882 117.897 138.001 119.096 139.52 119.096Z" fill="#96DFE6"/>
<path d="M166.856 119.096H169.813C171.252 119.096 172.371 117.977 172.371 116.538C172.371 115.099 171.252 113.98 169.813 113.98H166.856C165.417 113.98 164.298 115.099 164.298 116.538C164.298 117.977 165.417 119.096 166.856 119.096Z" fill="#CAEFF2"/>
<path d="M136.802 114.939H173.09C173.969 114.939 174.689 114.22 174.689 113.341C174.689 112.462 173.969 111.742 173.09 111.742H136.802C135.922 111.742 135.203 112.462 135.203 113.341C135.203 114.22 135.922 114.939 136.802 114.939Z" fill="#E0F5F7"/>
<path d="M171.252 107.906L176.927 108.066C178.685 108.066 180.284 109.105 181.163 110.544L181.803 111.822H179.804L179.644 111.663V111.822H178.765H176.767H175.728H173.73H172.85H166.936C167.335 109.504 169.094 107.746 171.252 107.906Z" fill="#FF7254"/>
<path d="M181.643 111.503L182.362 113.021C182.762 113.661 182.362 114.54 181.643 114.78C181.003 115.02 180.364 114.78 180.044 114.14L178.525 111.263L180.763 111.103L181.643 111.503Z" fill="#FF7254"/>
<path d="M179.084 111.503L179.803 113.021C180.203 113.661 179.803 114.54 179.084 114.78C178.445 115.02 177.805 114.78 177.485 114.14L175.967 111.263L178.205 111.103L179.084 111.503Z" fill="#FF7254"/>
<path d="M176.127 111.503L176.846 113.021C177.246 113.661 176.846 114.54 176.127 114.78C175.488 115.02 174.848 114.78 174.528 114.14L173.01 111.263L175.248 111.103L176.127 111.503Z" fill="#FF7254"/>
<path d="M147.353 103.669L163.659 82.408L169.094 93.9179L158.383 104.469L170.853 104.708L172.211 111.822H150.47C146.874 111.742 145.115 106.947 147.353 103.669Z" fill="#FFB512"/>
<path d="M163.259 104.469L157.344 104.309" stroke="#FF9D12" stroke-width="0.7112" stroke-miterlimit="10" stroke-linecap="round" stroke-linejoin="round"/>
<path d="M83.6473 120.375H111.783C113.222 120.375 114.42 119.176 114.42 117.737C114.42 116.299 113.222 115.1 111.783 115.1H83.6473C82.2086 115.1 81.0096 116.299 81.0096 117.737C80.9297 119.256 82.1287 120.375 83.6473 120.375Z" fill="#96DFE6"/>
<path d="M109.385 120.375H112.342C113.781 120.375 114.9 119.256 114.9 117.817C114.9 116.378 113.781 115.259 112.342 115.259H109.385C107.946 115.259 106.827 116.378 106.827 117.817C106.827 119.256 107.946 120.375 109.385 120.375Z" fill="#CAEFF2"/>
<path d="M79.0918 116.299H113.382C114.261 116.299 114.98 115.579 114.98 114.7C114.98 113.821 114.261 113.102 113.382 113.102H79.0918C78.2125 113.102 77.4932 113.821 77.4932 114.7C77.4932 115.579 78.2125 116.299 79.0918 116.299Z" fill="#E0F5F7"/>
<path d="M20.7422 120.375H96.7558L85.4856 78.7313C88.2033 78.1718 90.2815 75.7739 90.2815 72.8964V57.7896C90.2815 54.5124 87.6438 51.8748 84.3666 51.8748H26.9767C23.6996 51.8748 21.0619 54.5124 21.0619 57.7896V68.4203L20.7422 120.375Z" fill="#96DFE6"/>
<path d="M42.8029 120.375L31.5328 78.7313C34.2504 78.1718 36.3286 75.7739 36.3286 72.8964V57.7896C36.3286 54.5124 33.6909 51.8748 30.4137 51.8748H26.8968C23.6197 51.8748 20.982 54.5124 20.982 57.7896V68.4203L20.7422 120.375H42.8029Z" fill="#38BEDA"/>
<path d="M30.9737 80.4101H85.9657L85.4861 78.8115H30.4941L30.9737 80.4101Z" fill="#38BEDA"/>
<path d="M47.4385 85.1256V88.1629L49.3568 88.9622L48.3976 116.858C48.3177 118.776 49.8364 120.295 51.7547 120.295H88.5226L78.1317 82.5678C77.3324 79.6104 74.6147 77.5322 71.4975 77.5322L55.7512 77.6122C51.6748 77.6921 47.6783 82.5678 47.4385 85.1256Z" fill="#FF7254"/>
<path d="M48.9576 96.2361L51.1956 93.998L51.6752 112.302H48.7178L48.9576 96.2361Z" fill="#FB4F32"/>
<path d="M68.861 77.6123L78.1329 120.375H62.1468L58.6299 77.6922L68.861 77.6123Z" fill="white"/>
<path d="M26.2572 120.375H56.0711C57.5898 120.375 58.8687 119.096 58.8687 117.577C58.8687 116.059 57.5898 114.78 56.0711 114.78H26.2572C24.7385 114.78 23.4596 116.059 23.4596 117.577C23.3797 119.176 24.6586 120.375 26.2572 120.375Z" fill="#96DFE6"/>
<path d="M53.5135 120.375H56.7107C58.2294 120.375 59.4284 119.176 59.4284 117.657C59.4284 116.138 58.2294 114.939 56.7107 114.939H53.5135C51.9948 114.939 50.7959 116.138 50.7959 117.657C50.7959 119.176 52.0748 120.375 53.5135 120.375Z" fill="#CAEFF2"/>
<path d="M23.3797 115.979H59.7479C60.7071 115.979 61.4265 115.259 61.4265 114.3C61.4265 113.341 60.7071 112.622 59.7479 112.622H23.3797C22.4205 112.622 21.7012 113.341 21.7012 114.3C21.7012 115.259 22.4205 115.979 23.3797 115.979Z" fill="#E0F5F7"/>
<path d="M55.8315 107.986L62.6256 108.145C64.7037 108.145 66.702 109.344 67.7411 111.183L68.4605 112.702H66.0626L65.9027 112.542V112.702H64.8636H62.4657H61.2668H58.8688H57.8298H50.7959C51.1955 109.984 53.2737 107.826 55.8315 107.986Z" fill="#FFB512"/>
<path d="M68.3003 112.382L69.0996 114.06C69.4992 114.78 69.0996 115.739 68.3003 115.979C67.5809 116.219 66.9415 115.979 66.5418 115.259L64.8633 112.062L67.3411 111.902L68.3003 112.382Z" fill="#FFB512"/>
<path d="M65.4223 112.382L66.2216 114.06C66.6213 114.78 66.2216 115.739 65.4223 115.979C64.703 116.219 64.0635 115.979 63.6639 115.259L61.9854 112.062L64.4632 111.902L65.4223 112.382Z" fill="#FFB512"/>
<path d="M62.2251 112.382L63.0244 114.06C63.424 114.78 63.0244 115.739 62.2251 115.979C61.5057 116.219 60.8663 115.979 60.4666 115.259L58.7881 112.062L61.2659 111.902L62.2251 112.382Z" fill="#FFB512"/>
<path d="M32.4918 104.629C34.1703 101.112 41.444 89.6017 49.437 81.209L54.8722 90.8006L43.6021 104.389C48.3979 104.309 51.4352 104.788 53.3536 105.108C54.0729 105.188 54.6324 105.748 54.7923 106.467L56.0712 112.701H36.4883C32.0921 112.622 31.133 107.506 32.4918 104.629Z" fill="#FF7254"/>
<path d="M54.792 106.147H57.2698L58.0691 112.621H55.4314L54.792 106.147Z" fill="#FB4F32"/>
<path d="M45.1214 104.389H40.5654" stroke="#FB4F32" stroke-width="0.7112" stroke-miterlimit="10" stroke-linecap="round" stroke-linejoin="round"/>
<path d="M63.745 81.9284C66.3028 81.9284 68.3011 79.7703 68.0613 77.2125L67.3419 70.8181H58.9492L59.5087 77.772C59.5087 80.09 61.4271 81.9284 63.745 81.9284Z" fill="#FFB512"/>
<path fill-rule="evenodd" clip-rule="evenodd" d="M104.429 79.4505L105.228 74.5748C105.308 74.0153 104.989 73.4558 104.429 73.3758C103.79 73.216 103.15 73.6156 102.91 74.2551L102.031 77.2924L104.429 79.4505Z" fill="#FFB512"/>
<path d="M92.6794 84.3266H97.9548C99.0739 84.3266 100.193 83.4473 100.593 82.3283L104.589 70.1789C104.909 69.0599 104.349 68.1807 103.31 68.1807H98.0348C96.9157 68.1807 95.7967 69.0599 95.3971 70.1789L91.4006 82.3283C91.0009 83.4473 91.6404 84.3266 92.6794 84.3266Z" fill="#38BEDA"/>
<path d="M93.8787 84.3266H99.1541C100.273 84.3266 101.392 83.4473 101.792 82.3283L105.788 70.1789C106.108 69.0599 105.548 68.1807 104.509 68.1807H99.234C98.115 68.1807 96.9959 69.0599 96.5963 70.1789L92.5998 82.3283C92.2001 83.4473 92.8396 84.3266 93.8787 84.3266Z" fill="black"/>
<path fill-rule="evenodd" clip-rule="evenodd" d="M103.23 87.204L104.589 82.7279C105.389 79.8504 104.509 78.1719 103.23 77.4525L99.3938 75.0546C98.8343 74.7349 98.1149 74.9746 97.7153 75.5342C97.3956 76.0137 97.5554 76.6532 98.035 76.9729L99.7935 78.1719L97.3156 76.5733C96.836 76.2535 96.1167 76.4134 95.717 76.9729C95.3973 77.4525 95.4772 78.0919 95.9568 78.4116L98.6744 80.25L96.5163 78.8113C96.0367 78.4916 95.3973 78.6514 95.0776 79.131C94.7579 79.6106 94.8378 80.1701 95.3174 80.4898L98.4346 83.0476L97.7153 85.6054L103.23 87.204Z" fill="#FFB512"/>
<path d="M75.415 79.2109L75.8147 85.7652L79.6513 99.5931C79.6513 99.5931 81.8894 105.988 85.1665 109.425C85.9658 110.224 86.7651 110.863 87.6444 111.263C90.2021 112.302 93.1595 111.503 94.7582 109.664C100.433 103.43 102.352 93.7582 102.831 90.3212C102.911 89.6019 102.511 88.8825 101.792 88.6427L97.8754 87.2839C97.236 87.0441 96.5166 87.2839 96.117 87.8434L88.6835 98.1544C88.6835 98.1544 80.3707 81.0493 75.415 79.2109Z" fill="#FF7254"/>
<path d="M97.6354 85.4453L103.23 87.2038L102.751 89.4418L96.916 87.3636L97.6354 85.4453Z" fill="#FB4F32"/>
<path fill-rule="evenodd" clip-rule="evenodd" d="M77.4131 84.3264L85.1663 109.425C85.9656 110.224 86.7649 110.863 87.6442 111.263L77.4131 84.3264Z" fill="#FB4F32"/>
<path d="M67.6614 73.5357C66.7822 73.3758 63.4251 73.2159 62.5459 72.0969C62.5459 72.0969 63.5051 74.5748 67.9012 75.7737L67.6614 73.5357Z" fill="#FF9100"/>
<path d="M67.9816 73.6957L65.4239 73.9355C61.2675 74.3352 57.5907 71.2978 57.1911 67.1415L56.3918 58.4291C55.9921 54.2727 59.0295 50.5959 63.1858 50.1963L65.7436 49.9565C69.9 49.5568 73.5768 52.5942 73.9764 56.7505L74.6958 65.8626C75.1754 70.0989 72.138 73.376 67.9816 73.6957Z" fill="#FFB512"/>
<path d="M56.8708 66.1823C58.4158 66.1823 59.6684 64.9298 59.6684 63.3847C59.6684 61.8397 58.4158 60.5872 56.8708 60.5872C55.3258 60.5872 54.0732 61.8397 54.0732 63.3847C54.0732 64.9298 55.3258 66.1823 56.8708 66.1823Z" fill="#FFB512"/>
<path fill-rule="evenodd" clip-rule="evenodd" d="M74.7752 66.0225C74.7752 70.019 73.4164 72.8965 68.7005 74.0954C68.7005 74.0954 67.7414 74.1754 67.6614 74.2553C65.6632 74.3352 64.6241 73.2961 63.4251 71.6176L62.7058 70.6584C62.1463 69.7792 62.1463 68.6602 62.7058 67.781L64.2244 65.6228C64.6241 65.0633 65.2635 64.6637 65.9829 64.5837L72.2175 63.8644C73.2566 63.7045 74.2157 64.264 74.6953 65.1433L74.7752 66.0225Z" fill="white"/>
<path d="M65.4234 65.9424L57.5902 61.0666C56.5511 60.587 55.3522 61.2265 55.1923 62.3455L54.9525 63.5445C54.7927 64.2638 55.1923 64.9832 55.7518 65.3828L64.4642 71.4575" stroke="white" stroke-width="0.4511" stroke-miterlimit="10"/>
<path d="M56.6314 60.5871L57.0311 63.8642C57.0311 63.8642 61.3473 61.7861 60.7878 56.5107C60.7878 56.5107 65.5836 59.7079 67.8216 56.6705C67.8216 56.6705 79.4914 58.3491 75.6548 52.2744C74.9354 51.1553 71.7382 52.4342 71.7382 52.4342L72.5375 52.0346C73.8963 51.3951 74.3759 49.7166 73.6565 48.4377C72.9372 47.3187 71.4984 46.8391 70.2995 47.4785L65.5836 49.7965L61.2674 50.436C59.1092 50.6758 56.8712 52.0346 55.912 54.0328C55.1927 55.5515 55.0328 59.2283 55.5923 60.8269L56.6314 60.5871Z" fill="#FB930B"/>
<path d="M56.8708 66.1823C58.4158 66.1823 59.6684 64.9298 59.6684 63.3847C59.6684 61.8397 58.4158 60.5872 56.8708 60.5872C55.3258 60.5872 54.0732 61.8397 54.0732 63.3847C54.0732 64.9298 55.3258 66.1823 56.8708 66.1823Z" fill="#FFB512"/>
</svg>
