<svg width="233" height="151" viewBox="0 0 233 151" fill="none" xmlns="http://www.w3.org/2000/svg">
<path d="M12.8452 116.743H205.781C206.727 116.088 207.601 115.506 208.474 114.778C225.941 91.2707 222.083 63.1782 210.148 40.6896C203.67 28.4628 192.608 21.4033 179.726 18.6378C164.006 15.2172 154.545 22.2767 138.534 22.495C121.795 22.7133 110.587 5.6104 92.4649 2.04425C61.7524 -3.92359 37.7355 12.6699 30.5304 34.7946C24.5626 52.8437 -3.9666 110.775 12.8452 116.743Z" fill="#E1F6F8"/>
<path d="M46.5418 19.5828C46.6874 18.7095 46.6874 17.9089 46.6874 17.0356C46.3235 9.97607 40.6467 4.22657 33.66 3.7899C25.5088 3.28045 18.8132 9.68496 18.8132 17.7634C18.8132 18.4184 18.886 19.1462 18.9588 19.8012C19.8321 25.6234 18.3037 31.5185 14.6648 36.1036C11.317 40.2519 9.42477 45.5648 9.57032 51.3871C9.93422 63.8322 20.2688 73.8028 32.7139 73.8756C45.5957 73.9484 56.003 63.5411 56.003 50.6593C56.003 45.1281 54.038 40.0336 50.8357 36.1036C47.0513 31.373 45.7412 25.4051 46.5418 19.5828Z" fill="white"/>
<path d="M32.7139 19.1467V71.0378" stroke="#E1F6F8" stroke-width="0.8" stroke-miterlimit="10"/>
<path d="M26.5273 27.2253L32.7135 33.3387" stroke="#E1F6F8" stroke-width="0.8" stroke-miterlimit="10"/>
<path d="M32.7139 44.5479L42.9029 34.2861" stroke="#E1F6F8" stroke-width="0.8" stroke-miterlimit="10"/>
<path d="M32.7143 55.1726L19.7598 42.2908" stroke="#E1F6F8" stroke-width="0.8" stroke-miterlimit="10"/>
<path d="M63.354 61.067C65.1735 59.0292 65.7557 56.2636 64.8096 53.7164C64.3729 52.4063 64.0818 51.0235 64.0818 49.6408C64.0818 46.8752 65.0279 44.3279 66.629 42.2901C68.0118 40.4707 68.6668 38.1417 68.0846 35.9584C67.8663 34.9395 67.7935 33.8478 67.9391 32.7561C68.5213 29.19 71.4324 26.3516 75.0714 25.915C80.0203 25.3327 84.1687 29.19 84.1687 34.0662C84.1687 34.7212 84.0959 35.4489 83.9503 36.0312C83.4409 38.2145 83.9503 40.4707 85.4059 42.2173C87.0798 44.2551 88.0259 46.8752 88.0259 49.7135C88.0259 51.1691 87.7348 52.5519 87.2982 53.8619C86.352 56.3364 86.8615 59.1747 88.6809 61.1398C91.5921 64.342 93.3388 68.7087 93.0476 73.5121C92.611 82.0272 85.697 89.0867 77.1092 89.5962C67.2113 90.1784 58.9873 82.3911 58.9873 72.566C59.0601 68.0537 60.6612 64.1237 63.354 61.067Z" fill="white"/>
<path d="M74.626 121.02L77.5371 121.02L77.5371 78.2988L74.626 78.2988L74.626 121.02Z" fill="white"/>
<path d="M120.34 116.743H164.516V72.5662L142.901 50.0776L120.34 72.5662V116.743Z" fill="white"/>
<path d="M53.0199 67.1084C53.1654 67.1084 53.2382 67.0356 53.311 66.89L54.3299 64.7067C54.4027 64.5611 54.3299 64.3428 54.1843 64.27C54.0388 64.1972 53.8204 64.27 53.7476 64.4156L52.7287 66.5989C52.656 66.7445 52.7287 66.9628 52.8743 67.0356C52.9471 67.0356 52.9471 67.1084 53.0199 67.1084Z" fill="#FAC47D"/>
<path d="M53.7477 67.5439C53.8933 67.5439 53.9661 67.4711 54.0388 67.3983L55.64 64.7055C55.7127 64.56 55.7127 64.3416 55.4944 64.2689C55.3489 64.1961 55.1305 64.1961 55.0577 64.4144L53.4566 67.1072C53.3838 67.2528 53.3838 67.4711 53.6022 67.5439C53.6749 67.5439 53.7477 67.5439 53.7477 67.5439Z" fill="#FAC47D"/>
<path d="M54.5485 68.0554C54.6941 68.0554 54.7668 67.9826 54.8396 67.9098L56.4408 65.217C56.5135 65.0715 56.5135 64.8531 56.2952 64.7803C56.1496 64.7076 55.9313 64.7076 55.8585 64.9259L54.2574 67.6187C54.1846 67.7643 54.1846 67.9826 54.4029 68.0554C54.4029 68.0554 54.4757 68.0554 54.5485 68.0554Z" fill="#FAC47D"/>
<path d="M55.349 68.5633C55.4945 68.5633 55.5673 68.4906 55.6401 68.4178L56.7318 66.4528C56.8045 66.3072 56.7318 66.0889 56.5862 66.0161C56.4406 65.9433 56.2223 66.0161 56.1495 66.1617L55.0578 68.0539C54.9851 68.1995 55.0578 68.4178 55.2034 68.4906C55.2034 68.4906 55.2762 68.5633 55.349 68.5633Z" fill="#FAC47D"/>
<path d="M52.0732 69.2184L52.146 67.035L53.6016 65.9434L56.0033 67.6173L54.6205 70.2373L52.0732 69.2184Z" fill="#FAC47D"/>
<path d="M52.5094 68.1256C52.7277 68.1256 52.8733 67.98 52.8733 67.7617V65.36C52.8733 65.1417 52.7277 64.9961 52.5094 64.9961C52.2911 64.9961 52.1455 65.1417 52.1455 65.36V67.7617C52.1455 67.98 52.2911 68.1256 52.5094 68.1256Z" fill="#FAC47D"/>
<path d="M57.3851 80.0615L61.388 94.9083C61.5335 95.4906 61.0968 96.0728 60.4418 96.0728C60.0052 96.0728 59.6413 95.7817 59.4957 95.345L55.4929 80.4982C55.3473 79.916 55.784 79.3337 56.439 79.3337C56.8757 79.4065 57.2396 79.6976 57.3851 80.0615Z" fill="#FF7254"/>
<path d="M13.7181 80.0615L17.721 94.9083C17.8665 95.4906 17.4298 96.0728 16.7748 96.0728C16.3382 96.0728 15.9743 95.7817 15.8287 95.345L11.8259 80.4982C11.6803 79.916 12.117 79.3337 12.772 79.3337C13.2087 79.4065 13.5726 79.6976 13.7181 80.0615Z" fill="#FF7254"/>
<path d="M69.8306 89.3765H4.54827C3.74771 89.3765 3.0927 90.177 3.31104 90.9776C3.4566 91.5598 3.96604 91.9237 4.54827 91.9237H69.7578C70.5584 91.9237 71.2134 91.1232 70.9951 90.3226C70.8495 89.8131 70.4128 89.3765 69.8306 89.3765Z" fill="#FFB612"/>
<path d="M67.501 80.7903H2.29144C1.49087 80.7903 0.835867 81.5908 1.0542 82.3914C1.19976 82.9736 1.70921 83.3375 2.29144 83.3375H67.501C68.3015 83.3375 68.9566 82.537 68.7382 81.7364C68.5927 81.1542 68.0832 80.7903 67.501 80.7903Z" fill="#FFB612"/>
<path d="M68.6656 85.083H3.38323C2.58267 85.083 1.92766 85.8836 2.146 86.6841C2.29156 87.2664 2.80101 87.6303 3.38323 87.6303H68.5928C69.3933 87.6303 70.0483 86.8297 69.83 86.0291C69.7572 85.4469 69.2478 85.083 68.6656 85.083Z" fill="#FFB612"/>
<path d="M74.8513 117.396H76.598L71.649 98.9834H69.9023L74.8513 117.396Z" fill="#008FCD"/>
<path d="M56.2936 117.396H54.5469L59.4958 98.9834H61.1697L56.2936 117.396Z" fill="#008FCD"/>
<path d="M29.0739 117.396H30.8206L25.8717 98.9834H24.125L29.0739 117.396Z" fill="#008FCD"/>
<path d="M11.1705 117.396H9.42383L14.3728 98.9834H16.1195L11.1705 117.396Z" fill="#008FCD"/>
<path d="M6.00254 97.238H78.1988C79.145 97.238 79.9455 96.4374 79.9455 95.4913C79.9455 94.5452 79.145 93.7446 78.1988 93.7446H6.00254C5.05642 93.7446 4.25586 94.5452 4.25586 95.4913C4.25586 96.4374 5.05642 97.238 6.00254 97.238Z" fill="#FFB612"/>
<path d="M6.00254 97.238H21.6499C22.596 97.238 23.3966 96.4374 23.3966 95.4913C23.3966 94.5452 22.596 93.7446 21.6499 93.7446H6.00254C5.05642 93.7446 4.25586 94.5452 4.25586 95.4913C4.25586 96.4374 5.05642 97.238 6.00254 97.238Z" fill="#FF7254"/>
<path d="M1.92766 83.3355H3.89269C4.62047 83.3355 5.12992 82.7533 5.12992 82.0983C5.12992 81.3705 4.54769 80.8611 3.89269 80.8611H1.92766C1.19988 80.8611 0.69043 81.4433 0.69043 82.0983C0.69043 82.7533 1.19988 83.3355 1.92766 83.3355Z" fill="#FF7254"/>
<path d="M2.72845 87.6307H4.69347C5.42125 87.6307 5.9307 87.0485 5.9307 86.3935C5.9307 85.6657 5.34847 85.1562 4.69347 85.1562H2.72845C2.00066 85.1562 1.49121 85.7385 1.49121 86.3935C1.49121 87.0485 2.07344 87.6307 2.72845 87.6307Z" fill="#FF7254"/>
<path d="M3.60179 91.9249H5.56681C6.29459 91.9249 6.80404 91.3427 6.80404 90.6877C6.80404 89.9599 6.22182 89.4504 5.56681 89.4504H3.60179C2.874 89.4504 2.36455 90.0327 2.36455 90.6877C2.29178 91.3427 2.874 91.9249 3.60179 91.9249Z" fill="#FF7254"/>
<path d="M11.2108 98.9751L73.7275 98.9751L73.7275 97.1556L11.2108 97.1556L11.2108 98.9751Z" fill="#008FCD"/>
<path d="M46.1767 75.986L38.7533 69.9454L37.7344 75.6949C37.7344 75.6949 43.775 81.1533 46.7589 81.1533C49.7428 81.1533 54.6918 70.2365 54.6918 70.2365L52.1445 68.3442L46.1767 75.986Z" fill="#79D4E7"/>
<path d="M39.9914 77.5878L39.5547 72.0566L42.5386 79.4073C41.5925 78.825 40.7191 78.17 39.9914 77.5878Z" fill="#38BFDB"/>
<path d="M41.0101 88.1404H25.8722L25.4355 80.4987L25.2171 75.477C25.1444 74.1669 25.5083 72.8569 26.236 71.7653C27.3277 70.1641 29.1472 69.218 31.0394 69.218H35.9884C39.7729 69.218 39.9184 71.6925 40.1367 75.8409L40.5006 83.1187L41.0101 88.1404Z" fill="#79D4E7"/>
<path d="M25.4351 80.4994L25.2168 75.4777C25.2168 75.3321 25.2168 75.1866 25.2168 75.041C25.4351 75.041 25.6535 75.1138 25.799 75.1138C26.9635 75.3321 27.9824 75.9871 28.9285 76.7149C29.5835 77.2244 30.1657 77.8066 30.748 78.4616C33.5135 81.2272 36.7158 83.4833 39.9908 85.5939C40.282 85.7395 40.5731 85.9578 40.7914 86.1033L40.937 88.1411H25.8718L25.4351 80.4994Z" fill="#38BFDB"/>
<path d="M41.3009 93.8173L40.8643 87.1944C48.2149 87.1944 59.4956 86.2483 58.9861 93.3806C58.1855 101.386 56.9483 107.645 55.7111 115.578L52.9455 115.432C52.6544 108.227 52.6544 93.89 52.6544 93.89H41.3009V93.8173Z" fill="black"/>
<path d="M34.1689 93.8172V87.1943C41.8107 87.1943 50.3986 86.3938 50.3986 93.3805C49.598 101.386 48.3608 107.645 47.1235 115.578L44.3579 115.432C44.0668 108.227 44.0668 93.89 44.0668 93.89H34.1689V93.8172Z" fill="#004CBC"/>
<path d="M25.7266 87.1951C25.9449 90.9068 28.6377 93.8179 32.7861 93.8179H35.0422V87.1951H25.7266Z" fill="#004CBC"/>
<path d="M34.096 63.3229H32.9316C31.7671 63.3229 30.821 62.4495 30.821 61.2851V60.5573C30.7482 58.7378 32.2038 57.2823 33.9505 57.2095L34.096 63.3229Z" fill="#FF7254"/>
<path d="M35.115 63.687L35.9155 69.5821L34.7511 71.6926L31.9855 69.5821L31.5488 63.687H35.115Z" fill="#FAC47D"/>
<path d="M35.4058 63.8333L35.4786 67.6905C33.7319 67.6905 32.2764 66.2349 32.2764 64.4883V63.906L35.4058 63.8333Z" fill="#004CBC"/>
<path d="M35.7697 68.418C33.8775 68.1268 32.2764 66.4529 32.2764 64.7062V64.124H35.1875L35.7697 68.418Z" fill="#42145F"/>
<path d="M34.9686 67.6187H34.8959C33.0764 67.6915 31.548 66.2359 31.548 64.4164L31.4753 60.5592C31.4025 58.7397 32.8581 57.2114 34.6775 57.2114H34.7503C36.5698 57.1386 38.0981 58.5941 38.0981 60.4136L38.1709 64.2709C38.2437 66.0903 36.7881 67.6187 34.9686 67.6187Z" fill="#FAC47D"/>
<path d="M31.4758 63.3233C32.079 63.3233 32.5679 62.8343 32.5679 62.2312C32.5679 61.6281 32.079 61.1392 31.4758 61.1392C30.8727 61.1392 30.3838 61.6281 30.3838 62.2312C30.3838 62.8343 30.8727 63.3233 31.4758 63.3233Z" fill="#FAC47D"/>
<path d="M32.7129 62.4499V63.3961C32.7129 63.6144 32.7856 63.76 32.9312 63.9055C33.2223 64.1966 33.7318 64.1966 34.0229 63.9055L34.5323 63.3961C34.6779 63.2505 34.8962 63.1777 35.0418 63.1777L37.3707 63.1049C37.8074 63.1049 38.0985 63.3961 38.0985 63.8327V64.3422C38.1713 66.1616 36.7157 67.69 34.8234 67.7628C33.004 67.8356 31.4756 66.38 31.4029 64.4877L31.3301 61.2855C32.1306 61.2127 32.6401 61.7222 32.7129 62.4499Z" fill="#FF7254"/>
<path d="M35.1865 63.8323C35.1865 63.8323 35.769 64.4148 36.3514 64.4148C36.861 64.4148 37.3706 63.7595 37.3706 63.7595L35.1865 63.8323Z" fill="#F6E4EB"/>
<path d="M36.934 59.6117L32.8584 59.6845C32.6401 59.6845 32.4945 59.83 32.4945 60.0483C32.4945 60.7034 31.9851 61.2128 31.3301 61.2128V59.9028C31.3301 58.4472 32.4218 57.2828 33.8773 57.21L36.4974 57.1372C37.2251 57.1372 37.8801 57.7194 37.8801 58.52C38.0257 59.1022 37.5162 59.6117 36.934 59.6117Z" fill="#FF7254"/>
<path d="M43.7764 117.398H51.5637C51.8548 117.398 52.0003 117.106 51.9276 116.888L51.8548 116.743C51.7092 116.306 51.3453 116.015 50.9087 115.942L48.6525 115.214L47.7064 114.195C47.4881 113.977 47.197 113.977 46.9786 114.195C46.7603 114.341 46.5419 114.486 46.1053 114.486C45.523 114.486 45.2319 114.195 44.7225 113.977C44.4314 113.831 44.1403 114.05 44.1403 114.341L43.7764 117.398Z" fill="#FF7254"/>
<path d="M52.4365 117.398H60.2238C60.5149 117.398 60.6605 117.106 60.5877 116.888L60.5149 116.743C60.3694 116.306 60.0055 116.015 59.5688 115.942L57.3127 115.214L56.3666 114.195C56.1482 113.977 55.8571 113.977 55.6388 114.195C55.4204 114.341 55.2021 114.486 54.7654 114.486C54.1832 114.486 53.8921 114.195 53.3826 113.977C53.0915 113.831 52.8004 114.05 52.8004 114.341L52.4365 117.398Z" fill="#FF7254"/>
<path d="M34.7511 71.6929L34.0233 72.7118L31.4033 69.2184L31.9128 68.709L34.7511 71.6929Z" fill="white"/>
<path d="M34.752 71.6925L35.8436 69.218L36.062 72.4931L34.752 71.6925Z" fill="white"/>
<path d="M34.6057 87.121H38.3902L39.1908 80.7893H33.8779L34.6057 87.121Z" fill="white"/>
<path d="M34.0236 81.8085H39.1181C39.482 81.8085 39.7731 81.5174 39.7731 81.1535C39.7731 80.7896 39.482 80.4985 39.1181 80.4985H34.0236C33.6597 80.4985 33.3686 80.7896 33.3686 81.1535C33.2958 81.5174 33.5869 81.8085 34.0236 81.8085Z" fill="#004CBC"/>
<path d="M34.8972 79.8438H38.1722C38.3178 79.8438 38.4633 79.9165 38.5361 80.0621L38.8272 80.8627H34.2422L34.6061 80.0621C34.6061 79.9165 34.7516 79.8438 34.8972 79.8438Z" fill="#004CBC"/>
<path d="M32.859 84.2112H35.9157C36.4979 84.2112 36.9346 84.6479 36.9346 85.2301V86.1762C36.9346 86.6856 36.5707 87.0496 36.0612 87.0496H32.6406L32.859 84.2112Z" fill="#FAC47D"/>
<path d="M26.0184 72.0566L20.9967 83.2645C20.8511 83.6284 20.7783 83.9923 20.7783 84.3562C20.7783 85.8846 22.0156 87.1218 23.5439 87.1218H33.369V83.7012L25.7273 83.3373L30.094 74.895L26.0184 72.0566Z" fill="#79D4E7"/>
<path d="M163.278 76.5692V116.888H231.399V76.5692H233L224.194 50.1506L197.411 33.7026L170.556 50.1506L161.75 76.5692H163.278Z" fill="white"/>
<path d="M217.935 68.4182H206.072V86.904H217.935V68.4182Z" fill="#E1F6F8"/>
<path d="M191.735 68.4182H179.872V86.904H191.735V68.4182Z" fill="white"/>
<path d="M212.258 68.4185H211.749V87.0498H212.258V68.4185Z" fill="white"/>
<path d="M217.935 77.5886H206.072V78.0981H217.935V77.5886Z" fill="white"/>
<path d="M182.856 64.4146C182.71 65.7974 183.802 66.1612 184.166 66.1612C184.457 66.234 184.821 66.0885 185.112 65.9429C185.985 65.4335 186.495 63.2501 187.295 62.8134C188.605 62.0857 190.206 62.0856 191.735 62.3768C192.171 62.4495 192.681 62.5951 193.118 62.4495C193.627 62.304 193.991 61.8673 194.136 61.3579C194.282 60.8484 194.209 60.339 194.064 59.8295C193.918 59.3201 193.045 58.4467 192.826 57.9373C192.099 56.045 192.899 54.1528 191.88 52.4061C191.152 51.0961 189.697 50.2228 188.241 50.0772C186.786 49.9316 185.257 50.4411 184.093 51.46C183.511 51.9694 182.71 53.1339 182.783 53.9345C182.856 54.4439 183.001 55.0989 183.22 55.6084C183.947 57.0639 184.384 58.5923 184.457 60.1206C184.675 61.5034 183.001 62.8134 182.856 64.4146Z" fill="#79D4E7"/>
<path d="M176.451 135.374C198.518 135.374 216.407 134.983 216.407 134.501C216.407 134.018 198.518 133.627 176.451 133.627C154.385 133.627 136.496 134.018 136.496 134.501C136.496 134.983 154.385 135.374 176.451 135.374Z" fill="#E1F6F8"/>
<path fill-rule="evenodd" clip-rule="evenodd" d="M186.786 59.6101H187.587C189.916 59.6101 191.153 57.9362 191.153 55.9712L191.08 53.7879C191.08 52.114 189.625 50.804 187.587 50.804C185.258 50.804 183.366 52.1867 183.293 54.4429V56.1168C183.293 58.3729 184.239 59.6101 186.786 59.6101Z" fill="#FFB612"/>
<path d="M186.931 123.948L198.212 83.701L188.533 82.6821L183.365 123.147L184.239 124.748L186.931 123.948Z" fill="#008FCD"/>
<path fill-rule="evenodd" clip-rule="evenodd" d="M184.385 123.948C183.948 123.948 183.584 123.439 183.438 123.075C183.366 122.784 183.002 122.638 182.711 122.784L180.527 123.73L178.999 124.458C178.271 124.749 177.98 125.404 177.907 126.131C177.907 126.35 178.053 126.568 178.271 126.568H185.986C186.495 126.568 186.859 126.204 186.932 125.695L187.005 123.948H184.385Z" fill="black"/>
<path d="M152.58 98.1108C142.537 98.1108 134.386 106.262 134.386 116.305C134.386 126.349 142.537 134.5 152.58 134.5C162.624 134.5 170.775 126.349 170.775 116.305C170.775 106.262 162.624 98.1108 152.58 98.1108ZM152.58 132.317C143.774 132.317 136.569 125.112 136.569 116.305C136.569 107.426 143.774 100.294 152.58 100.294C161.387 100.294 168.592 107.499 168.592 116.305C168.592 125.184 161.387 132.317 152.58 132.317Z" fill="#FFB612"/>
<path d="M206.146 98.1108C196.102 98.1108 187.951 106.262 187.951 116.305C187.951 126.349 196.102 134.5 206.146 134.5C216.189 134.5 224.34 126.349 224.34 116.305C224.413 106.262 216.262 98.1108 206.146 98.1108ZM206.146 132.317C197.34 132.317 190.135 125.112 190.135 116.305C190.135 107.426 197.34 100.294 206.146 100.294C214.952 100.294 222.157 107.499 222.157 116.305C222.23 125.184 215.025 132.317 206.146 132.317Z" fill="#FFB612"/>
<path d="M189.115 86.0296L194.937 86.3207C199.013 86.3207 200.76 81.5901 199.231 77.1506L186.786 79.9162C186.786 79.9162 186.932 86.0296 189.115 86.0296Z" fill="#008FCD"/>
<path d="M157.893 91.998H159.13C160.294 91.998 161.168 91.0518 161.168 89.9602C161.168 88.7957 160.221 87.9224 159.13 87.9224H157.893V91.998Z" fill="#002783"/>
<path d="M159.786 89.7419C160.004 89.5235 160.441 89.5235 160.659 89.7419L162.551 91.7069C162.333 92.0708 162.115 92.4347 161.969 92.7986L159.786 90.6152C159.495 90.3969 159.495 89.9602 159.786 89.7419Z" fill="#002783"/>
<path d="M193.191 89.3784L183.511 118.271L161.022 96.4379" stroke="#002783" stroke-width="1.5574" stroke-miterlimit="10"/>
<path d="M188.533 86.3213H197.12C197.921 86.3213 198.503 86.9763 198.503 87.7041V88.6502C198.503 89.6691 197.63 90.5424 196.611 90.5424H195.738C194.864 90.5424 193.991 90.3241 193.263 89.8874L191.444 88.8685C191.153 88.723 190.861 88.6502 190.57 88.6502H188.896C188.169 88.6502 187.514 88.068 187.514 87.2674C187.514 86.758 187.95 86.3213 188.533 86.3213Z" fill="black"/>
<path d="M183.002 123.51L206.146 119.871C207.892 119.653 209.202 118.197 209.202 116.45C209.202 114.558 207.674 112.957 205.709 112.957H182.347C179.436 112.957 177.034 115.359 177.034 118.27C177.034 121.399 179.8 123.874 183.002 123.51Z" fill="#002783"/>
<path d="M186.714 108.155H181.983C179.727 108.155 177.471 107.281 175.797 105.753L162.624 92.3616" stroke="#002783" stroke-width="1.5574" stroke-miterlimit="10"/>
<path d="M150.324 116.306L156.874 108.3L166.19 82.6821H164.225" stroke="#002783" stroke-width="1.5574" stroke-miterlimit="10" stroke-linecap="round" stroke-linejoin="round"/>
<path d="M192.317 91.7061L206.073 115.723" stroke="#002783" stroke-width="1.5574" stroke-miterlimit="10"/>
<path d="M196.102 98.2567L198.722 95.6367H216.407" stroke="#002783" stroke-width="1.5574" stroke-miterlimit="10" stroke-linecap="round" stroke-linejoin="round"/>
<path d="M181.691 118.344L179.071 111.43" stroke="#007BC7" stroke-width="0.8363" stroke-miterlimit="10" stroke-linecap="round"/>
<path d="M177.034 112.303H181.11C181.546 112.303 181.91 111.939 181.91 111.503C181.91 111.066 181.546 110.702 181.11 110.702H177.034C176.597 110.702 176.233 111.066 176.233 111.503C176.233 111.939 176.597 112.303 177.034 112.303Z" fill="#008FCD"/>
<path d="M182.346 127.951H186.422C186.859 127.951 187.223 127.587 187.223 127.15C187.223 126.714 186.859 126.35 186.422 126.35H182.346C181.91 126.35 181.546 126.714 181.546 127.15C181.546 127.587 181.91 127.951 182.346 127.951Z" fill="#008FCD"/>
<path d="M186.786 79.9167L195.665 86.3213L178.489 91.0519L182.71 108.591L178.78 108.81L171.721 92.1435C170.338 88.5774 170.92 85.739 174.632 84.2835L186.786 79.9167Z" fill="#008FCD"/>
<path d="M196.248 77.5881C196.248 77.5881 198.941 83.1193 191.663 84.9388L175.434 89.2327L180.746 107.136" stroke="#0069D1" stroke-width="0.6628" stroke-miterlimit="10"/>
<path d="M182.347 107.136H178.053" stroke="#0069D1" stroke-width="0.6628" stroke-miterlimit="10"/>
<path fill-rule="evenodd" clip-rule="evenodd" d="M179.436 108.591C178.999 108.591 178.635 108.081 178.49 107.717C178.417 107.426 178.053 107.281 177.762 107.426L176.307 108.372L174.778 109.1C174.05 109.391 173.759 110.046 173.687 110.774C173.687 110.992 173.832 111.211 174.05 111.211H181.692C182.202 111.211 182.565 110.847 182.638 110.337L182.711 108.591H179.436Z" fill="black"/>
<path d="M197.63 75.9136L201.851 75.0403C203.671 74.6036 204.835 72.7114 204.399 70.8919L202.579 63.323C202.143 61.5035 200.25 60.339 198.431 60.7757L194.792 61.6491C193.555 61.9402 192.9 63.2502 193.409 64.4146L197.63 75.9136Z" fill="#FF7254"/>
<path fill-rule="evenodd" clip-rule="evenodd" d="M199.158 77.151L186.859 79.9166L186.568 73.6576C186.495 73.9487 183.147 71.1832 183.511 69.2909C184.748 63.6142 186.713 61.5036 189.261 61.1397C193.045 60.6303 193.918 63.7598 196.466 72.566L199.158 77.151Z" fill="#004CBC"/>
<path d="M186.423 73.8759C187.223 73.2209 187.151 72.857 187.296 72.7115C187.878 72.2748 193.555 67.4714 193.555 67.4714C193.555 67.4714 191.153 74.2398 188.825 79.4799L186.932 79.9893L186.423 73.8759Z" fill="black"/>
<path d="M170.993 116.305C170.993 106.116 162.769 97.8916 152.58 97.8916" stroke="#002783" stroke-width="1.6726" stroke-miterlimit="10" stroke-linecap="round"/>
<path d="M224.631 116.305C224.631 106.116 216.407 97.8916 206.218 97.8916C196.029 97.8916 187.805 106.116 187.805 116.305" stroke="#002783" stroke-width="1.5574" stroke-miterlimit="10" stroke-linecap="round"/>
<path fill-rule="evenodd" clip-rule="evenodd" d="M169.174 79.2613L168.373 78.8974C167.791 78.6063 167.063 78.6791 166.481 79.043L164.516 80.8624C164.298 81.0808 164.152 81.4447 164.225 81.7358C164.298 82.3908 164.953 82.7547 165.535 82.6091L169.829 81.8813L169.174 79.2613Z" fill="#FFB612"/>
<path d="M185.84 68.2723H186.786V66.6712C186.786 64.7062 188.387 63.0323 190.425 63.0323H192.463C193.845 63.0323 195.083 63.7601 195.738 64.9245L195.81 65.0701L196.684 65.434L196.975 64.5606L196.393 64.3423C195.519 62.9595 193.991 62.1589 192.39 62.1589H190.352C187.878 62.1589 185.84 64.1967 185.84 66.6712V68.2723Z" fill="#FF7254"/>
<path d="M185.477 68.7814L187.369 65.1424C188.242 63.4685 190.28 62.8135 191.954 63.6141C193.846 64.5602 194.428 66.8891 193.264 68.6358L190.789 72.2747L185.477 68.7814Z" fill="#004CBC"/>
<path d="M181.764 75.1123L185.622 68.635L190.862 72.2739L187.15 77.4412C186.131 78.824 184.603 79.8429 182.856 80.134L169.465 81.9535L168.373 78.9696L181.764 75.1123Z" fill="#FFB612"/>
<path fill-rule="evenodd" clip-rule="evenodd" d="M185.695 56.7L183.875 56.6272C183.875 56.6272 184.239 57.428 184.967 57.3552C185.477 57.3552 185.695 56.7 185.695 56.7Z" fill="white"/>
<path d="M190.425 56.3371C190.425 56.3371 188.897 52.2615 186.714 50.9515C186.714 50.9515 185.84 50.7332 184.676 51.7521C184.676 51.7521 184.239 52.0432 183.875 52.6254C183.584 53.0621 183.366 53.7171 183.293 54.3721C183.293 54.3721 183.511 52.9893 184.749 52.771C186.495 52.3343 188.606 54.4449 190.425 56.3371Z" fill="#008FCD"/>
<path d="M186.786 59.611C186.713 59.611 189.26 58.0826 188.387 53.8615C187.878 51.6054 186.131 50.8776 186.131 50.8776C186.131 50.8776 190.861 49.5676 191.516 53.8615C192.026 57.5004 191.08 60.1204 186.786 59.611Z" fill="#79D4E7"/>
<path d="M147.995 70.1658H136.86V85.522H147.995V70.1658Z" fill="#E1F6F8"/>
<path d="M142.755 70.0918H142.245V85.5936H142.755V70.0918Z" fill="white"/>
<path d="M147.995 77.7344H136.86V78.2438H147.995V77.7344Z" fill="white"/>
<path fill-rule="evenodd" clip-rule="evenodd" d="M108.55 42.6555C104.838 42.6555 100.763 43.165 100.326 58.7396H113.208C113.135 58.7396 116.119 42.6555 108.55 42.6555Z" fill="black"/>
<path d="M107.094 150.295C124.056 150.295 137.807 149.871 137.807 149.349C137.807 148.826 124.056 148.403 107.094 148.403C90.1323 148.403 76.3818 148.826 76.3818 149.349C76.3818 149.871 90.1323 150.295 107.094 150.295Z" fill="#E1F6F8"/>
<path fill-rule="evenodd" clip-rule="evenodd" d="M105.639 58.449L110.733 58.5945L109.714 51.7533L105.202 50.5889L105.639 58.449Z" fill="#FF7254"/>
<path d="M107.385 54.9548L110.441 56.556L110.078 54.2271L107.385 54.9548Z" fill="#F25A37"/>
<path fill-rule="evenodd" clip-rule="evenodd" d="M126.963 139.379L128.564 144.983L130.893 145.129C131.621 145.201 132.348 145.638 132.639 146.293C132.785 146.657 132.639 147.094 132.276 147.239L125.507 149.568C124.998 149.714 124.488 149.495 124.343 148.986L121.723 140.908L126.963 139.379Z" fill="#79D4E7"/>
<path fill-rule="evenodd" clip-rule="evenodd" d="M92.3205 140.76L89.4822 145.782L91.0105 147.529C91.5199 148.111 91.6655 148.984 91.3744 149.712C91.2288 150.076 90.7922 150.221 90.5011 150.003L84.7516 147.165L84.0965 146.801C83.6599 146.582 83.4415 146 83.6599 145.564L87.5171 137.995L92.3205 140.76Z" fill="#79D4E7"/>
<path fill-rule="evenodd" clip-rule="evenodd" d="M115.464 83.2661L128.128 137.341C128.419 138.578 127.691 139.888 126.381 140.179L121.723 141.416C120.486 141.78 119.176 141.052 118.812 139.742L102.801 84.6489L115.464 83.2661Z" fill="black"/>
<path fill-rule="evenodd" clip-rule="evenodd" d="M112.699 83.8485L108.696 112.305C108.405 114.416 107.677 116.381 106.658 118.273L95.5228 140.325C94.7951 141.707 93.0484 142.217 91.7383 141.416L88.0267 139.16C86.8622 138.432 86.4255 136.977 87.0077 135.74L96.9056 114.052C96.9056 114.052 97.3423 102.844 97.9973 93.3097C98.2884 89.0886 99.3801 84.7219 101.054 83.3391C105.275 79.9913 112.699 83.8485 112.699 83.8485Z" fill="#004CBC"/>
<path fill-rule="evenodd" clip-rule="evenodd" d="M101.344 83.266H115.463L115.172 71.5486C115.172 71.5486 116.919 70.1658 116.919 67.9097C116.919 64.9258 114.954 63.543 113.135 61.6507C111.388 59.8313 111.315 58.4485 108.55 58.4485C104.183 58.4485 100.253 62.3785 99.5978 69.9475C99.3066 73.6592 99.4522 78.5354 99.5978 81.5193C99.6705 82.5382 100.398 83.266 101.344 83.266Z" fill="#FFB612"/>
<path fill-rule="evenodd" clip-rule="evenodd" d="M109.496 67.3271L115.391 79.2628L115.464 83.2656H110.588L107.095 79.6995L109.496 67.3271Z" fill="#FF9E12"/>
<path fill-rule="evenodd" clip-rule="evenodd" d="M120.777 91.6358L122.669 93.9648C122.96 94.3287 122.887 94.8381 122.596 95.1292L122.669 95.2748C122.814 95.4931 122.742 95.7114 122.596 95.9298C122.378 96.1481 122.087 96.1481 121.868 96.0026L121.723 95.9298L121.432 96.1481C121.213 96.2937 120.922 96.2937 120.704 96.2209L120.558 96.1481L120.413 96.2209C120.121 96.3664 119.83 96.2937 119.612 96.1481L116.046 93.0186L119.248 89.8892L120.777 91.6358Z" fill="#FF7254"/>
<path fill-rule="evenodd" clip-rule="evenodd" d="M120.995 92.655L122.159 92.9461C122.523 93.0189 122.814 92.8006 122.814 92.4367C122.814 92.2183 122.669 92.0728 122.523 92L119.758 90.5444L118.812 91.9272L119.758 92.9461L120.995 92.655Z" fill="#FF7254"/>
<path fill-rule="evenodd" clip-rule="evenodd" d="M111.097 59.4675L110.879 57.5024H105.348V59.9041L111.097 59.4675Z" fill="#FFB612"/>
<path d="M95.7413 98.111L102.437 98.5477C104.038 98.6204 105.421 97.3832 105.566 95.7821L105.858 90.7604C105.93 89.1592 104.693 87.7764 103.092 87.6309L96.3963 87.1942C94.7952 87.1214 93.4124 88.3587 93.2668 89.9598L92.9757 94.9815C92.9029 96.6554 94.1402 98.0382 95.7413 98.111Z" fill="#008FCD"/>
<path d="M105.713 89.233L103.238 92.1441C102.729 92.7263 102.001 93.0174 101.273 92.9447L96.9791 92.6536C96.1058 92.5808 95.378 92.0713 95.0141 91.2708L93.7041 88.3596" stroke="#0069D1" stroke-width="0.9256" stroke-miterlimit="10" stroke-linecap="round"/>
<path d="M104.475 89.1605C104.475 89.1605 109.279 73.6587 109.279 64.4886L103.748 63.4697L94.9414 88.5055" stroke="#008FCD" stroke-width="1.8513" stroke-miterlimit="10"/>
<path fill-rule="evenodd" clip-rule="evenodd" d="M102.654 62.3792L104.474 80.1372L116.992 94.329L121.14 90.6901L111.315 77.7355L109.859 62.2336L102.654 62.3792Z" fill="#FFB612"/>
<path fill-rule="evenodd" clip-rule="evenodd" d="M103.601 49.9333C103.965 52.99 107.458 55.8284 110.515 55.5373C114.008 55.1734 114.591 52.99 114.299 49.9333C114.008 46.5855 112.043 43.4561 108.768 43.4561C104.838 43.4561 103.092 45.3483 103.601 49.9333Z" fill="#FF7254"/>
<path fill-rule="evenodd" clip-rule="evenodd" d="M108.768 43.4561C108.914 43.4561 109.059 43.4561 109.278 43.4561C109.278 43.6744 108.041 44.9116 107.677 46.2216C106.949 48.9144 108.55 57.6479 106.367 58.7395H104.402C104.402 58.7395 103.674 50.9522 103.528 49.8606C102.946 45.2755 104.838 43.4561 108.768 43.4561Z" fill="black"/>
<path d="M106.949 51.3885C107.632 51.3885 108.186 50.8346 108.186 50.1513C108.186 49.468 107.632 48.9141 106.949 48.9141C106.266 48.9141 105.712 49.468 105.712 50.1513C105.712 50.8346 106.266 51.3885 106.949 51.3885Z" fill="#FF7254"/>
<path fill-rule="evenodd" clip-rule="evenodd" d="M108.477 43.4561C108.695 43.4561 108.914 43.4561 109.132 43.4561C109.35 43.4561 109.496 43.4561 109.714 43.4561C109.787 43.4561 109.787 43.4561 109.86 43.4561C110.006 43.4561 110.151 43.5288 110.297 43.5288H110.369C111.316 43.7472 111.898 43.8927 113.208 45.8577L107.094 48.4778L106.73 43.6744C107.094 43.5288 107.458 43.4561 107.822 43.4561H107.895C108.113 43.4561 108.259 43.4561 108.477 43.4561Z" fill="black"/>
<path d="M112.99 51.9716C112.99 51.9716 112.771 52.6268 111.971 52.554C111.17 52.4812 110.806 51.7532 110.806 51.7532" stroke="black" stroke-width="0.4659" stroke-miterlimit="10"/>
</svg>
