<svg width="159" height="145" viewBox="0 0 159 145" fill="none" xmlns="http://www.w3.org/2000/svg">
<path d="M43.4579 4.03125H1.69238V64.5832H43.4579V4.03125Z" fill="#E1F6F8"/>
<path d="M19.1903 37.734C19.6741 36.444 19.9159 35.0733 19.9159 33.5413C19.9159 30.7194 18.9484 28.0586 17.2552 25.9623C15.8845 24.1884 15.2395 21.8502 15.8039 19.6733C15.9651 19.0282 16.0458 18.3832 16.0458 17.6575C16.0458 12.7392 11.7725 8.86904 6.7735 9.43344C4.75779 9.67533 2.90334 10.6429 1.61328 12.0942V64.5027H22.9798C24.1086 62.4063 24.7536 60.0681 24.9149 57.5686C25.1568 52.7309 23.4636 48.2964 20.4803 45.0712C18.7871 43.1361 18.2227 40.2335 19.1903 37.734Z" fill="#C2EDF1"/>
<path d="M22.5762 0V69.2598" stroke="white" stroke-width="1.027" stroke-miterlimit="10"/>
<path d="M0 24.1079H45.6357" stroke="white" stroke-width="1.027" stroke-miterlimit="10"/>
<path d="M0 44.5874H45.6357" stroke="white" stroke-width="1.027" stroke-miterlimit="10"/>
<path d="M91.3523 144.486C128.713 144.486 159 143.836 159 143.035C159 142.233 128.713 141.583 91.3523 141.583C53.9918 141.583 23.7051 142.233 23.7051 143.035C23.7051 143.836 53.9918 144.486 91.3523 144.486Z" fill="#E1F6F8"/>
<path d="M52.8921 87.3206H28.9455C26.7685 87.3206 24.9141 89.0944 24.9141 91.352V126.345C24.9141 128.522 26.6879 130.376 28.9455 130.376H52.8115C54.9885 130.376 56.8429 128.602 56.8429 126.345V91.352C56.8429 89.0944 55.0691 87.3206 52.8921 87.3206Z" fill="#CBF0F3"/>
<path d="M62.3253 87.3206H39.5881C37.4111 87.3206 35.5566 89.0944 35.5566 91.352V126.345C35.5566 128.522 37.3305 130.376 39.5881 130.376H62.3253C64.5022 130.376 66.3567 128.602 66.3567 126.345V91.352C66.2761 89.0944 64.5022 87.3206 62.3253 87.3206Z" fill="#97E0E7"/>
<path d="M111.913 129.812L112.719 134.005L114.332 142.148C114.413 142.713 114.896 143.116 115.461 143.116H117.154C117.799 143.116 118.363 142.552 118.363 141.907V129.812H111.913Z" fill="#008FCD"/>
<path d="M118.363 129.812H111.913L112.639 133.36L118.363 133.441V129.812Z" fill="#0069D1"/>
<path d="M140.697 129.812H147.148V141.907C147.148 142.552 146.583 143.116 145.938 143.116H144.245C143.681 143.116 143.197 142.713 143.116 142.148L140.697 129.812Z" fill="#004CBC"/>
<path d="M69.6632 129.812H63.2129V141.907C63.2129 142.552 63.7773 143.116 64.4223 143.116H66.1155C66.6799 143.116 67.1637 142.713 67.2443 142.148L69.6632 129.812Z" fill="#004CBC"/>
<path d="M34.4287 129.812V141.907C34.4287 142.552 34.9931 143.116 35.6381 143.116H37.3313C37.8957 143.116 38.3795 142.713 38.4601 142.148L40.0727 134.005L40.879 129.812H34.4287Z" fill="#008FCD"/>
<path d="M40.3952 132.392L40.879 129.812H34.4287V132.312L40.3952 132.392Z" fill="#0069D1"/>
<path d="M146.341 109.574L153.517 78.3711C154.646 73.0496 149.969 67.2444 145.051 67.2444H80.3869C75.4686 67.2444 70.5502 71.1952 69.4214 76.1135L61.7617 109.494H146.341V109.574Z" fill="#CBF0F3"/>
<path d="M138.601 67.2444H71.841C66.9226 67.2444 62.0043 71.1952 60.8755 76.1135L53.2158 109.494H137.795L145.455 76.1135C146.584 71.1952 143.52 67.2444 138.601 67.2444Z" fill="#CBF0F3"/>
<path d="M67.0033 106.672H49.2651C47.8944 106.672 46.7656 105.704 46.4431 104.414L43.7823 92.9648C43.3792 91.191 44.4274 89.8203 46.2012 89.8203H62.6494C64.4232 89.8203 66.1164 91.191 66.5196 92.9648L69.0997 104.011C69.4222 105.382 68.374 106.672 67.0033 106.672Z" fill="white"/>
<path d="M124.088 106.752H33.1387V130.377H124.088V106.752Z" fill="#CBF0F3"/>
<path d="M99.5757 74.9849L116.185 66.1158L114.25 76.7588C114.25 76.7588 101.591 83.6928 97.3181 82.9671C92.8029 82.1609 90.2228 66.1964 89.739 62.4069C89.6584 61.9231 89.9809 61.52 90.384 61.3587L94.9798 59.988L99.5757 74.9849Z" fill="#79D4E7"/>
<path d="M90.8677 62.6486H90.4646C89.8196 62.6486 89.3358 62.1648 89.1745 61.6004L88.3682 56.9239C88.207 56.1177 88.5295 55.3114 89.1745 54.747L90.4646 53.6182L91.2709 55.3114L90.8677 62.6486Z" fill="#FF7254"/>
<path d="M96.3505 63.2937H91.8353C91.1902 63.2937 90.6258 62.81 90.5452 62.1649L90.384 61.278L88.852 52.167V52.0057C88.7714 51.3607 89.1745 50.877 89.8196 50.877H94.3348C94.9798 50.877 95.5442 51.3607 95.6248 51.9251V52.167L97.1568 61.278L97.318 62.0843C97.3986 62.81 96.9149 63.2937 96.3505 63.2937Z" fill="black"/>
<path d="M96.6728 61.5199H91.2707L89.8193 52.812H95.2214L96.6728 61.5199Z" fill="#38BFDB"/>
<path d="M89.2546 54.747L89.8996 54.2633C90.2221 54.0214 90.7059 54.102 90.9478 54.5051C91.109 54.8277 91.0284 55.2308 90.7865 55.4727L89.3352 56.6015L89.0127 55.3921L89.2546 54.747Z" fill="#FF7254"/>
<path d="M89.3361 56.4402L90.0617 55.8758C90.3842 55.6339 90.868 55.7146 91.1099 56.1177C91.2712 56.4402 91.1905 56.8433 90.9486 57.0852L89.4973 58.214L89.1748 57.0046L89.3361 56.4402Z" fill="#FF7254"/>
<path d="M89.4972 57.9719L90.2229 57.4075C90.5454 57.1657 91.0291 57.2463 91.271 57.6494C91.4323 57.9719 91.3517 58.3751 91.1098 58.617L89.6585 59.7458L89.3359 58.5363L89.4972 57.9719Z" fill="#FF7254"/>
<path d="M97.4793 59.7459L97.0762 60.9553L96.7536 59.1815L95.3023 57.972C94.9798 57.7301 94.9798 57.2464 95.1411 57.0045C95.383 56.682 95.7861 56.682 96.1086 56.8432L96.9149 57.4883C97.3987 57.8914 97.5599 58.4558 97.4793 59.0202V59.7459Z" fill="#FF7254"/>
<path d="M114.976 66.9221L105.542 80.9515C108.283 79.8227 110.944 78.5326 112.557 77.6457L114.976 66.9221Z" fill="#38BFDB"/>
<path d="M127.231 65.1479H119.813C116.023 65.1479 111.266 68.9375 111.024 71.7595C110.782 73.9364 112.637 76.0328 112.637 76.0328L104.735 98.77H130.859L131.504 89.3365C132.633 84.66 133.6 77.3228 134.084 73.7752C134.487 70.7113 133.117 67.6474 130.536 66.1155C129.408 65.5511 128.279 65.1479 127.231 65.1479Z" fill="#79D4E7"/>
<path fill-rule="evenodd" clip-rule="evenodd" d="M121.265 69.6631C123.442 69.9857 126.425 67.8087 127.957 66.5186C128.36 66.1961 128.441 65.6317 128.199 65.2286C127.876 65.148 127.554 65.1479 127.231 65.1479H119.814C119.491 65.1479 119.249 65.148 118.927 65.2286C118.604 65.4705 118.443 65.8736 118.443 66.1961C118.362 66.9218 118.927 69.26 121.265 69.6631Z" fill="#FF7254"/>
<path d="M84.014 135.295L83.2077 137.714C82.8852 138.762 81.9983 139.568 80.9501 139.971L77.9669 141.02C77.5637 141.181 77.2412 141.584 77.2412 141.987C77.2412 142.551 77.725 143.035 78.2894 143.035H85.5459C86.5135 143.035 87.3198 142.39 87.481 141.423L88.6098 136.424L84.014 135.295Z" fill="#004CBC"/>
<path d="M86.9164 140.455C85.9489 140.455 85.1426 141.261 85.1426 142.229C85.1426 142.551 85.2232 142.793 85.3038 143.035H85.5457C86.5133 143.035 87.3196 142.39 87.4808 141.423L87.6421 140.616C87.4808 140.536 87.2389 140.455 86.9164 140.455Z" fill="#326FC9"/>
<path d="M71.1944 113.364L68.8562 115.46C68.2918 115.944 67.5661 116.266 66.7598 116.186L63.0509 116.105C62.5671 116.105 62.164 116.347 61.9221 116.831C61.6802 117.395 62.0027 118.121 62.6478 118.282L69.0174 120.459C69.985 120.782 71.1138 120.54 71.7588 119.733L74.9033 116.266L71.1944 113.364Z" fill="#004CBC"/>
<path d="M71.7589 119.814L72.0814 119.411C71.7589 118.766 71.1139 118.363 70.3882 118.443C69.4207 118.524 68.6144 119.33 68.695 120.378V120.459L69.0175 120.54C69.9851 120.782 71.0332 120.54 71.7589 119.814Z" fill="#326FC9"/>
<path d="M116.508 106.752H99.4146C99.4146 106.752 97.9633 111.671 95.9476 118.282C95.867 118.524 95.7863 118.766 95.7057 119.089C93.5287 126.103 90.868 131.505 88.7717 137.149L83.4502 135.94C84.579 129.409 85.3853 125.458 86.5141 118.282C87.0785 114.332 87.8041 110.3 88.6104 106.027C89.4167 103.366 90.5455 101.35 91.9968 99.8184C93.6094 98.2058 95.5445 97.1577 97.7214 96.5126C101.027 95.5451 104.978 95.3032 109.332 95.3032H109.413C111.67 95.3032 114.008 95.3838 116.427 95.3838L116.508 106.752Z" fill="#FFB612"/>
<path d="M131.102 95.2227C130.699 101.673 126.103 106.591 118.927 106.591H115.057V95.2227H131.102Z" fill="#FFB612"/>
<path d="M117.475 105.301L103.607 95.3031C103.607 95.3031 99.5756 98.4476 94.0929 102.64C93.851 102.802 93.6897 102.963 93.4479 103.124C87.562 107.639 80.5473 113.364 74.9033 117.637L70.4688 113.848C76.1127 107.962 80.9504 102.64 86.3525 97.1576C89.0939 94.3356 91.9965 91.433 95.2217 88.4497C97.3986 86.7565 99.5756 85.789 101.591 85.3858C103.849 84.9827 106.026 85.3052 108.203 86.0309C111.509 87.1597 114.734 89.3366 118.281 91.8361L118.362 91.9167C120.216 93.2068 122.071 94.6581 124.087 96.0288L117.475 105.301Z" fill="#FFB612"/>
<path d="M103.607 95.3032L112.638 104.092C114.331 105.704 116.589 106.672 118.927 106.672H109.09L103.607 95.3032Z" fill="#FF9C12"/>
<path fill-rule="evenodd" clip-rule="evenodd" d="M124.006 46.3617C124.006 46.3617 135.133 45.636 133.601 64.2612H114.814C114.734 64.2612 113.766 45.7166 124.006 46.3617Z" fill="black"/>
<path fill-rule="evenodd" clip-rule="evenodd" d="M126.585 65.39L120.538 65.5513L121.828 57.4884L127.069 56.0371L126.585 65.39Z" fill="#FF7254"/>
<path d="M121.263 60.7134L120.86 63.0516C120.86 63.0516 124.731 60.7134 124.811 60.7134H121.263Z" fill="#F25A37"/>
<path fill-rule="evenodd" clip-rule="evenodd" d="M116.506 57.1661C116.748 59.5043 117.796 61.1169 120.618 61.4394H120.699C120.86 61.4394 122.15 61.52 122.554 61.4394C124.005 61.1975 125.456 60.875 126.666 59.7462C126.988 59.5043 127.23 58.698 127.553 58.3755C127.633 58.2949 127.714 58.1336 127.794 58.053C127.875 57.8917 128.036 57.7305 128.117 57.5692C128.198 57.4886 128.278 57.3273 128.278 57.2467C128.762 56.3598 129.084 55.3922 129.165 54.4247C129.326 52.3284 129.084 50.7158 128.439 49.5064C128.036 48.7001 127.472 48.1357 126.827 47.7326C126.424 47.4907 126.021 47.3294 125.537 47.1681C125.295 47.0875 125.134 47.0875 124.892 47.0069C124.65 47.0069 124.489 46.9263 124.247 46.9263C124.247 46.9263 124.247 46.9263 124.166 46.9263H124.085C123.844 46.9263 123.602 46.9263 123.44 46.9263C123.199 46.9263 122.876 46.9263 122.634 46.9263C122.473 46.9263 122.231 46.9263 122.07 47.0069H121.989C121.909 47.0069 121.909 47.0069 121.828 47.0069C121.667 47.0875 121.505 47.0875 121.344 47.1681H121.263C121.102 47.2488 120.941 47.2488 120.78 47.3294C120.699 47.41 120.538 47.41 120.377 47.4907C120.215 47.5713 120.135 47.6519 119.973 47.7326C119.893 47.8132 119.732 47.8938 119.651 47.9744C119.328 48.2163 119.006 48.4582 118.764 48.7807C118.683 48.8613 118.603 48.942 118.522 49.0226C118.441 49.1032 118.441 49.1032 118.361 49.1839C117.151 50.7158 116.506 52.8928 116.426 55.0697C116.426 55.1504 116.426 55.231 116.426 55.3923C116.426 55.9567 116.506 56.6017 116.506 57.1661Z" fill="#FF7254"/>
<path fill-rule="evenodd" clip-rule="evenodd" d="M123.199 46.6843C123.441 47.0068 123.522 48.4581 123.683 49.9901C123.925 52.3283 127.15 55.0697 126.908 59.5849C128.198 58.7786 129.569 55.4728 129.569 54.5859C129.73 52.4896 129.488 50.6351 128.843 49.4257C128.44 48.6194 127.795 47.8938 127.069 47.4906C126.666 47.2487 126.021 47.0068 125.537 46.9262C125.296 46.8456 124.892 46.7649 124.651 46.7649C124.489 46.6843 123.441 46.765 123.199 46.6843Z" fill="black"/>
<path d="M126.504 56.4402C127.306 56.4402 127.955 55.7904 127.955 54.9889C127.955 54.1874 127.306 53.5376 126.504 53.5376C125.703 53.5376 125.053 54.1874 125.053 54.9889C125.053 55.7904 125.703 56.4402 126.504 56.4402Z" fill="#FF7254"/>
<path fill-rule="evenodd" clip-rule="evenodd" d="M123.199 46.8457C122.957 46.8457 122.635 46.8457 122.393 46.8457C122.151 46.8457 121.909 46.9263 121.748 46.9263C121.667 46.9263 121.667 46.9263 121.587 46.9263C121.425 46.9263 121.264 47.007 121.103 47.0876H121.022C119.893 47.4907 119.006 48.1358 118.2 49.1033C119.329 50.8771 126.586 52.9735 126.586 53.0541L126.908 47.7326C125.86 47.007 124.489 46.9263 124.005 46.8457H123.925C123.683 46.9263 123.441 46.9263 123.199 46.8457Z" fill="black"/>
<path d="M121.345 57.0854L119.087 57.1661" stroke="black" stroke-width="0.5" stroke-miterlimit="10" stroke-linecap="round"/>
<path d="M126.587 84.902L122.959 84.9826C121.83 84.9826 120.782 85.6277 120.218 86.5952L119.814 87.4015H121.105L121.185 87.3209V87.4015H121.75H123.04H123.685H124.975H125.539H129.329C129.087 85.9502 127.958 84.8214 126.587 84.902Z" fill="#FF7254"/>
<path d="M142.31 87.3208H120.782C118.605 87.3208 116.751 89.0946 116.751 91.3522V126.345C116.751 128.522 118.525 130.376 120.782 130.376H142.31C144.487 130.376 146.342 128.603 146.342 126.345V91.3522C146.342 89.0946 144.568 87.3208 142.31 87.3208Z" fill="#CBF0F3"/>
<path d="M152.873 87.3208H131.345C129.168 87.3208 127.313 89.0946 127.313 91.3522V126.345C127.313 128.522 129.087 130.376 131.345 130.376H152.873C155.05 130.376 156.904 128.603 156.904 126.345V91.3522C156.904 89.0946 155.13 87.3208 152.873 87.3208Z" fill="#97E0E7"/>
<path d="M133.28 79.1773L130.377 75.6296L128.604 82.9668L132.716 82.6443C132.877 81.5155 133.119 80.3061 133.28 79.1773Z" fill="#38BFDB"/>
<path d="M119.895 87.2399L119.411 88.2075C119.169 88.6106 119.411 89.175 119.895 89.3363C120.298 89.4975 120.701 89.3363 120.943 88.9331L121.911 87.0787L120.459 86.998L119.895 87.2399Z" fill="#FF7254"/>
<path d="M121.669 87.2399L121.185 88.2075C120.943 88.6106 121.185 89.175 121.669 89.3363C122.072 89.4975 122.475 89.3363 122.717 88.9331L123.684 87.0787L122.233 86.998L121.669 87.2399Z" fill="#FF7254"/>
<path d="M123.442 87.2399L122.958 88.2075C122.716 88.6106 122.958 89.175 123.442 89.3363C123.845 89.4975 124.248 89.3363 124.49 88.9331L125.458 87.0787L124.006 86.998L123.442 87.2399Z" fill="#FF7254"/>
<path d="M143.035 81.9993L132.714 68.2925L129.812 75.7103L135.939 82.4831L127.07 82.6443L125.941 87.3208H141.019C143.357 87.3208 144.486 84.0957 143.035 81.9993Z" fill="#79D4E7"/>
<path d="M68.6137 43.7008H88.7708C91.9153 43.7008 94.4148 41.2013 94.4148 38.0568V18.061C94.4148 14.9165 91.9153 12.417 88.7708 12.417H68.6137C65.4692 12.417 62.9697 14.9165 62.9697 18.061V38.0568C62.9697 41.2013 65.4692 43.7008 68.6137 43.7008Z" fill="#004CBC"/>
<path d="M68.6137 43.7008H88.7708C91.9153 43.7008 94.4148 41.2013 94.4148 38.0568V18.061C94.4148 14.9165 91.9153 12.417 88.7708 12.417H68.6137C65.4692 12.417 62.9697 14.9165 62.9697 18.061V38.0568C62.9697 41.2013 65.4692 43.7008 68.6137 43.7008Z" fill="#004CBC"/>
<path d="M87.9652 42.1687V48.3771C87.9652 49.1027 87.1589 49.4253 86.6751 48.9415L79.9023 42.1687H87.9652Z" fill="#004CBC"/>
<path d="M77.3226 19.0283H79.9833C80.6284 19.0283 81.1121 19.5121 81.0315 20.1571L80.4671 30.155C80.4671 30.7194 79.9833 31.2032 79.4189 31.2032H77.887C77.3226 31.2032 76.8388 30.7194 76.8388 30.155L76.2744 20.1571C76.1938 19.5927 76.6776 19.0283 77.3226 19.0283Z" fill="white"/>
<path d="M78.693 36.7664C79.8508 36.7664 80.7894 35.8278 80.7894 34.6701C80.7894 33.5123 79.8508 32.5737 78.693 32.5737C77.5352 32.5737 76.5967 33.5123 76.5967 34.6701C76.5967 35.8278 77.5352 36.7664 78.693 36.7664Z" fill="white"/>
</svg>
