<svg width="195" height="151" viewBox="0 0 195 151" fill="none" xmlns="http://www.w3.org/2000/svg">
<path d="M141.489 108.73C171.042 108.73 195 84.7724 195 55.2191C195 25.6657 171.042 1.70801 141.489 1.70801C111.935 1.70801 87.9775 25.6657 87.9775 55.2191C87.9775 84.7724 111.935 108.73 141.489 108.73Z" fill="#E1F6F8"/>
<path d="M53.5111 107.635C83.0644 107.635 107.022 83.677 107.022 54.1236C107.022 24.5703 83.0644 0.612549 53.5111 0.612549C23.9577 0.612549 0 24.5703 0 54.1236C0 83.677 23.9577 107.635 53.5111 107.635Z" fill="#E1F6F8"/>
<path d="M87.9775 55.2191C87.9775 66.2584 91.3483 76.5393 97.0786 85.0505C103.315 76.2865 107.022 65.5843 107.022 54.0394C107.022 43.0001 103.652 32.7192 97.9213 24.208C91.6854 32.972 87.9775 43.6742 87.9775 55.2191Z" fill="#C2EDF1"/>
<path fill-rule="evenodd" clip-rule="evenodd" d="M151.685 28.2529C151.685 28.2529 140.983 27.4945 142.415 45.3596L160.533 45.5281C160.533 45.5281 161.544 27.5787 151.685 28.2529Z" fill="black"/>
<path fill-rule="evenodd" clip-rule="evenodd" d="M162.554 54.2079L166.768 84.5449C166.852 85.0505 166.431 85.5562 165.925 85.5562H162.133C161.711 85.5562 161.374 85.2191 161.29 84.882L155.981 56.5675C155.897 56.1461 156.15 55.7248 156.487 55.6405L161.374 53.7023C161.964 53.3653 162.554 53.7023 162.554 54.2079Z" fill="#FF9E12"/>
<path d="M144.69 49.0674L126.657 58.7584C125.308 59.6011 124.55 61.1179 124.55 62.719C124.55 65.4999 126.825 67.6909 129.522 67.5224L140.224 67.6066V63.3089L133.23 62.6347L142.583 59.1797L144.69 49.0674Z" fill="#FFB612"/>
<path fill-rule="evenodd" clip-rule="evenodd" d="M164.408 59.6855C164.408 58.8428 164.156 58.0844 163.734 57.4945C163.313 56.8203 163.06 56.0619 162.892 55.3035C162.302 52.1855 160.026 49.4889 156.824 48.3934L155.139 47.8035L148.65 47.7192L146.628 48.5619C142.583 49.4889 139.97 53.9552 141.15 59.1799L143.341 72.9158C143.51 73.5899 144.1 74.1798 144.858 74.1798L160.364 74.4326C161.122 74.4326 161.796 73.8428 161.88 73.0843L162.723 63.1405C163.734 62.2978 164.408 61.0338 164.408 59.6855Z" fill="#FFB612"/>
<path d="M152.78 150.696C172.187 150.696 187.92 150.206 187.92 149.601C187.92 148.996 172.187 148.505 152.78 148.505C133.373 148.505 117.64 148.996 117.64 149.601C117.64 150.206 133.373 150.696 152.78 150.696Z" fill="#E1F6F8"/>
<path fill-rule="evenodd" clip-rule="evenodd" d="M148.903 46.5393L154.718 46.7078L153.538 38.955L148.397 37.5225L148.903 46.5393Z" fill="#FF7254"/>
<path fill-rule="evenodd" clip-rule="evenodd" d="M155.14 47.7191L154.888 45.4438H148.567V48.2247L155.14 47.7191Z" fill="#FFB612"/>
<path d="M141.235 59.7694L144.69 58.5054L142.752 69.2076L141.235 59.7694Z" fill="#FF9E12"/>
<path fill-rule="evenodd" clip-rule="evenodd" d="M158.173 38.2809C158.089 40.5562 157.162 42.1573 154.466 42.6629H154.381C154.213 42.6629 152.949 42.8315 152.527 42.7472C151.095 42.5787 149.662 41.9045 148.482 40.8933C148.145 40.6405 147.893 40.3877 147.64 40.0506C147.555 39.9663 147.471 39.7978 147.387 39.7135C147.303 39.545 147.134 39.4607 147.05 39.2922C146.966 39.2079 146.881 39.1236 146.881 39.0394C146.376 38.1967 145.954 37.2697 145.87 36.3427C145.617 34.3203 145.786 32.7192 146.291 31.5394C146.628 30.781 147.134 30.1911 147.808 29.7697C148.145 29.5169 148.567 29.3484 149.072 29.1798C149.241 29.0956 149.494 29.0956 149.662 29.0113C149.831 28.927 150.084 28.927 150.252 28.927H150.336C150.505 28.927 150.758 28.8428 151.01 28.8428C151.263 28.8428 151.516 28.8428 151.769 28.8428C151.937 28.8428 152.106 28.8428 152.275 28.8428H152.359C152.443 28.8428 152.443 28.8428 152.527 28.8428C152.696 28.8428 152.864 28.927 153.033 28.927H153.117C153.286 28.927 153.37 29.0113 153.539 29.0956C153.623 29.0956 153.791 29.1799 153.876 29.2641C154.044 29.3484 154.128 29.4327 154.297 29.4327C154.381 29.5169 154.55 29.6012 154.634 29.6012C154.971 29.7697 155.224 30.0225 155.561 30.3596C155.645 30.4439 155.73 30.5282 155.814 30.6124C155.898 30.6967 155.898 30.6967 155.982 30.781C157.246 32.2136 158.005 34.236 158.173 36.3427C158.173 36.427 158.173 36.5113 158.173 36.5956C158.173 37.1012 158.173 37.6911 158.173 38.2809Z" fill="#FF7254"/>
<path fill-rule="evenodd" clip-rule="evenodd" d="M158.173 38.2806C158.089 40.5559 157.162 42.157 154.465 42.6626C154.465 42.6626 154.465 42.6626 154.381 42.6626C153.201 42.6626 152.19 42.0728 151.516 41.0615L151.178 40.4717C150.841 39.966 150.926 39.2919 151.263 38.8705L152.19 37.6908C152.442 37.3537 152.78 37.1851 153.201 37.1851L156.74 37.0166C157.33 37.0166 157.836 37.2694 158.089 37.775L158.173 38.2806Z" fill="white"/>
<path fill-rule="evenodd" clip-rule="evenodd" d="M150.168 28.8428C149.999 29.1799 148.398 30.5282 148.398 31.9607C148.314 34.236 148.23 37.1854 146.881 38.9551C146.376 38.1124 145.954 37.1854 145.87 36.2585C145.617 34.236 145.786 32.6349 146.291 31.4551C146.628 30.6967 147.134 30.1068 147.808 29.6855C148.145 29.4327 148.567 29.2641 149.072 29.0956C149.241 29.0113 149.494 29.0113 149.662 28.927C149.746 28.927 149.915 28.8428 150.168 28.8428Z" fill="black"/>
<path d="M152.611 37.7753L148.566 35.5843C147.976 35.2473 147.302 35.5843 147.133 36.1742L146.965 36.8484C146.881 37.2697 147.049 37.6911 147.386 37.8596L151.852 40.809" stroke="white" stroke-width="0.2604" stroke-miterlimit="10"/>
<path d="M147.724 37.7753C148.515 37.7753 149.156 37.1339 149.156 36.3427C149.156 35.5515 148.515 34.9102 147.724 34.9102C146.932 34.9102 146.291 35.5515 146.291 36.3427C146.291 37.1339 146.932 37.7753 147.724 37.7753Z" fill="#FF7254"/>
<path fill-rule="evenodd" clip-rule="evenodd" d="M150.927 28.7585C151.18 28.7585 151.432 28.7585 151.685 28.7585C151.938 28.7585 152.106 28.7585 152.359 28.7585C152.444 28.7585 152.444 28.7585 152.528 28.7585C152.696 28.7585 152.865 28.8428 153.033 28.8428H153.118C154.213 29.0956 155.14 29.7698 155.899 30.6125C154.887 32.3821 148.062 34.8259 148.062 34.9102L147.472 29.7698C148.483 29.0114 149.747 28.8428 150.253 28.7585H150.337C150.505 28.8428 150.674 28.7585 150.927 28.7585Z" fill="black"/>
<path fill-rule="evenodd" clip-rule="evenodd" d="M147.386 139.236L147.724 145.809L145.87 146.82C145.111 147.157 144.521 147.915 144.353 148.758C144.268 149.18 144.606 149.601 145.111 149.601H152.695C153.285 149.601 153.707 149.18 153.707 148.59L153.622 138.983L147.386 139.236Z" fill="#79D4E7"/>
<path fill-rule="evenodd" clip-rule="evenodd" d="M144.606 74.0112C142.33 75.9494 141.066 80.6685 141.319 83.7022L145.701 137.55C145.785 138.477 146.544 139.236 147.555 139.236H153.117C154.128 139.236 154.971 138.393 154.971 137.382V74.0112H144.606Z" fill="#004CBC"/>
<path fill-rule="evenodd" clip-rule="evenodd" d="M168.033 138.898L167.696 145.64L170.14 146.651C170.983 146.988 171.572 147.747 171.657 148.589C171.741 149.011 171.404 149.432 170.898 149.432H162.556C161.966 149.432 161.46 148.927 161.544 148.337L161.629 138.393L168.033 138.898Z" fill="#79D4E7"/>
<path d="M160.954 74.0112C163.735 76.7921 165.505 79.4045 166.6 84.5449L170.561 103.084C170.898 104.77 171.067 106.455 170.982 108.056L169.634 137.635C169.634 138.477 168.876 139.151 168.033 139.151H162.134C161.291 139.151 160.533 138.477 160.533 137.55L160.617 107.972L154.044 90.1067L153.37 74.0112H160.954Z" fill="#004CBC"/>
<path d="M143.342 75.5281L159.184 74.0112H154.887H153.286H144.606C144.184 74.4326 143.763 74.9382 143.342 75.5281Z" fill="#0034B1"/>
<path fill-rule="evenodd" clip-rule="evenodd" d="M138.876 85.9775H139.045C139.382 86.0618 139.719 85.809 139.719 85.4719L145.449 48.899C145.534 48.5619 145.281 48.2248 144.944 48.2248H144.775C144.438 48.1406 144.101 48.3934 144.101 48.7304L138.371 85.3034C138.287 85.6404 138.539 85.8932 138.876 85.9775Z" fill="#008FCD"/>
<path d="M141.235 94.7416L138.202 94.6573C137.19 94.6573 136.348 93.7303 136.348 92.7191L136.769 81.7641C136.769 80.7529 137.696 79.9102 138.707 79.9102L141.741 79.9944C142.752 79.9944 143.595 80.9214 143.595 81.9326L143.173 92.8876C143.173 93.8989 142.247 94.7416 141.235 94.7416Z" fill="#008FCD"/>
<path d="M154.635 91.9605L154.719 87.9156L158.343 87.8313L154.635 91.9605Z" fill="#0034B1"/>
<path fill-rule="evenodd" clip-rule="evenodd" d="M140.224 67.6068L143.258 68.1967C144.1 68.1967 144.774 67.8596 144.859 67.0169L145.196 65.0787C145.196 64.5731 144.943 64.1518 144.437 64.0675L140.14 63.3091L140.224 67.6068Z" fill="#FF7254"/>
<path fill-rule="evenodd" clip-rule="evenodd" d="M142.583 63.3089L143.342 62.3819C143.595 62.1291 143.426 61.7078 143.173 61.5392C143.005 61.455 142.836 61.455 142.668 61.6235L140.14 63.4774L140.982 64.9943L142.331 64.5729L142.583 63.3089Z" fill="#FF7254"/>
<path d="M123.37 84.7975C123.37 84.4605 123.033 73.674 134.494 71.8201" stroke="#FFB612" stroke-width="1.5624" stroke-miterlimit="10" stroke-linecap="round"/>
<path d="M127.836 83.7021C127.836 83.7021 128.257 77.3819 134.915 77.2134" stroke="#FFB612" stroke-width="1.5624" stroke-miterlimit="10" stroke-linecap="round"/>
<path d="M132.725 83.8706C132.725 83.8706 132.809 81.7639 134.831 81.8482" stroke="#FFB612" stroke-width="1.5624" stroke-miterlimit="10" stroke-linecap="round"/>
<path d="M100.45 104.095H18.2031V107.635H100.45V104.095Z" fill="#BAE7EF"/>
<path d="M18.4556 104.265H13.3994V135.36H18.4556V104.265Z" fill="#BAE7EF"/>
<path d="M104.494 104.264H99.4375V135.359H104.494V104.264Z" fill="#BAE7EF"/>
<path d="M106.769 104.432H11.2073C10.0275 104.432 9.10059 103.505 9.10059 102.326V101.904C9.10059 100.725 10.0275 99.7976 11.2073 99.7976H106.769C107.949 99.7976 108.876 100.725 108.876 101.904V102.326C108.96 103.421 107.949 104.432 106.769 104.432Z" fill="#38BFDB"/>
<path d="M59.9155 136.455C88.2122 136.455 111.151 136.002 111.151 135.443C111.151 134.885 88.2122 134.432 59.9155 134.432C31.6187 134.432 8.67969 134.885 8.67969 135.443C8.67969 136.002 31.6187 136.455 59.9155 136.455Z" fill="#E1F6F8"/>
<path fill-rule="evenodd" clip-rule="evenodd" d="M89.7469 72.0732C89.7469 73.7585 89.157 75.3596 88.6514 76.9608C87.9772 78.8147 87.3874 80.5844 86.7132 82.4383C86.7975 82.1012 85.8705 80.5001 85.702 80.163C85.4491 79.5731 85.1963 78.9832 85.0278 78.3091C84.9435 78.0563 84.8593 77.8877 84.775 77.6349C84.2694 76.1181 83.9323 74.517 83.6795 72.9158C83.6795 72.663 83.5952 72.4945 83.5952 72.2417C83.4267 71.1462 83.0053 69.8821 83.4267 68.8709C83.4267 68.7866 83.511 68.6181 83.5952 68.5338C83.6795 68.3653 83.848 68.1125 84.0166 67.9439C85.0278 67.1013 86.6289 67.017 87.7244 67.6911C89.0727 68.6181 89.7469 70.3878 89.7469 72.0732Z" fill="#FF7254"/>
<path fill-rule="evenodd" clip-rule="evenodd" d="M85.1115 78.2246C84.943 78.0561 84.8587 77.8033 84.7744 77.5504C84.2688 76.0336 83.9317 74.4325 83.6789 72.8314C84.016 72.0729 84.2688 70.7246 83.3418 68.7864C83.1733 68.4493 83.0048 68.028 82.752 67.6909C82.752 67.6909 83.089 67.9437 83.5104 68.5336C84.8587 70.1347 87.3025 73.9269 85.1115 78.2246Z" fill="#EB5238"/>
<path fill-rule="evenodd" clip-rule="evenodd" d="M85.5319 91.2022H75.5881C74.7454 91.2022 74.0713 90.5281 74.0713 89.6854V78.9832C74.0713 78.1405 74.7454 77.4663 75.5881 77.4663H85.5319C86.3746 77.4663 87.0488 78.1405 87.0488 78.9832V89.6854C87.0488 90.5281 86.3746 91.2022 85.5319 91.2022Z" fill="#008FCD"/>
<path d="M74.4092 94.7416L75.1676 81.2585C75.2519 80.163 76.1788 79.2361 77.2743 79.2361H83.3417C84.353 79.2361 85.1957 79.9102 85.4485 80.9215L88.3979 94.6574L74.4092 94.7416Z" fill="#BAE7EF"/>
<path d="M80.0558 115.893H76.3479L72.9772 97.0165C72.8929 95.1626 74.3255 93.6458 76.0951 93.6458C77.8648 93.6458 79.2974 95.0783 79.2974 96.848L80.0558 115.893Z" fill="#008FCD"/>
<path d="M88.5674 116.062L84.9438 115.472L84.5225 96.3426C84.691 94.4887 86.3764 93.2247 88.146 93.4775C89.8314 93.7303 91.0112 95.3314 90.7584 97.1011L88.5674 116.062Z" fill="#008FCD"/>
<path d="M75.168 99.7133L88.9882 99.629L86.5443 94.4886L76.432 94.4043L75.168 99.7133Z" fill="#008FCD"/>
<path d="M76.6016 79.3203L76.2645 83.4496L74.7476 86.9046L74.5791 89.6012L77.2757 83.8709C77.36 83.7866 77.36 83.6181 77.36 83.5338L77.7813 79.2361L76.6016 79.3203Z" fill="#008FCD"/>
<path d="M83.6791 79.2361L84.0162 83.3653L86.797 87.663L87.3027 90.1911L82.9207 83.8709C82.8364 83.7866 82.8364 83.6181 82.8364 83.5338L82.415 79.2361H83.6791Z" fill="#008FCD"/>
<path d="M78.1182 79.2358L78.2867 75.2751H81.1519L81.9946 79.2358L81.6575 79.7414C80.8991 80.8369 79.2137 80.8369 78.4552 79.7414L78.1182 79.2358Z" fill="#FFB612"/>
<path fill-rule="evenodd" clip-rule="evenodd" d="M77.8646 76.371L78.623 76.7081C80.8983 77.6351 82.7522 76.4553 83.5106 74.5171L84.269 72.4104C84.9432 70.8093 83.932 68.9553 81.9938 68.1969C79.7185 67.2699 77.2747 67.8598 76.3477 70.0508L75.6736 71.7362C74.9151 73.8429 75.3365 75.4441 77.8646 76.371Z" fill="#FFB612"/>
<path fill-rule="evenodd" clip-rule="evenodd" d="M79.9717 71.4831C80.7301 71.6517 81.6571 70.3034 81.6571 70.3034L81.32 72.2416L84.1009 74.1798C84.1009 74.1798 85.5335 71.3989 84.9436 69.6292C84.0166 67.1011 78.6234 63.6461 75.9268 69.2079C75.9268 69.2921 78.6234 70.9775 79.9717 71.4831Z" fill="#FF7254"/>
<path fill-rule="evenodd" clip-rule="evenodd" d="M77.6116 115.556C77.2745 115.725 76.8532 115.556 76.5161 115.387C76.3476 115.219 76.0105 115.303 75.842 115.472L75.2521 116.82L73.7352 118.674C73.3982 119.18 73.3982 119.769 73.7352 120.359C73.7352 120.359 73.988 120.612 74.1566 120.444L80.3925 116.399C80.7296 116.146 80.8139 115.725 80.6453 115.387L80.0554 114.292L77.6116 115.556Z" fill="#FF7254"/>
<path fill-rule="evenodd" clip-rule="evenodd" d="M87.3872 115.809C87.7243 115.977 88.1456 115.725 88.3984 115.472C88.567 115.303 88.904 115.303 89.0726 115.472L89.831 116.736L91.6007 118.421C92.022 118.927 92.022 119.517 91.8535 120.107C91.8535 120.107 91.6007 120.359 91.4321 120.275L84.7749 116.989C84.4378 116.82 84.2692 116.399 84.3535 115.977L84.7749 114.798L87.3872 115.809Z" fill="#FF7254"/>
<path d="M76.0949 79.4885L68.932 85.893C68.2579 86.4829 68.0051 87.3256 68.1736 88.1683C68.5107 89.7694 70.3646 90.5278 71.7972 89.6851L76.0949 86.7357L76.3477 83.1121L75.168 83.9548L76.0949 79.4885Z" fill="#BAE7EF"/>
<path d="M78.9598 85.7247V83.955C78.9598 83.5337 78.6227 83.2808 78.2856 83.1966L76.3474 83.1123L75.8418 86.5674L78.3699 86.4831C78.707 86.4831 78.9598 86.146 78.9598 85.7247Z" fill="#FFB612"/>
<path d="M84.6053 79.7415L91.7682 86.1459C92.4424 86.7358 92.6952 87.5785 92.5267 88.4212C92.1896 90.0223 90.3357 90.7808 88.9031 89.9381L84.6053 86.9886L84.3525 83.365L85.5323 84.2077L84.6053 79.7415Z" fill="#BAE7EF"/>
<path d="M81.7412 85.9773V84.2077C81.7412 83.7863 82.0783 83.5335 82.4154 83.4493L84.3536 83.365L84.8592 86.82L82.3311 86.7358C82.0783 86.7358 81.7412 86.3987 81.7412 85.9773Z" fill="#FFB612"/>
<path fill-rule="evenodd" clip-rule="evenodd" d="M78.4545 74.011C78.623 73.9268 76.7691 73.4211 76.7691 73.4211C76.7691 73.4211 76.432 75.1065 78.4545 74.011Z" fill="white"/>
<path fill-rule="evenodd" clip-rule="evenodd" d="M78.2024 76.5393C78.9609 76.8764 79.7193 76.7079 79.7193 76.7079L78.1182 77.2135C78.2024 77.2135 78.2024 76.5393 78.2024 76.5393Z" fill="black"/>
<path d="M58.7351 92.3818H31.0947L34.634 64.9943C34.9711 62.3819 38.679 60.4437 41.2913 60.1909L47.8643 60.3595C48.2857 60.6965 54.2688 62.2977 54.6059 64.8257L58.7351 92.3818Z" fill="white"/>
<path d="M16.2635 98.2809C15.5051 98.3652 14.8309 98.8708 14.5781 99.6292C14.5781 99.6292 27.4713 99.7135 27.3871 99.7135C27.3871 99.7135 27.3028 99.545 27.2185 99.3764C26.9657 98.5337 26.2073 97.8596 25.2803 97.9438L20.3084 97.8596C20.3084 97.7753 16.2635 98.2809 16.2635 98.2809Z" fill="#FFB612"/>
<path d="M26.2914 97.9437L20.3926 97.8595L20.9825 96.1741H26.2914V97.9437Z" fill="#EB5238"/>
<path d="M34.2136 64.1519C34.045 64.5732 23.5956 87.9158 20.4777 94.9945C20.1406 95.8371 20.7305 96.8484 21.6574 96.8484L26.1237 97.0169C26.6293 97.0169 27.1349 96.7641 27.3877 96.2585L33.4551 81.4271L34.8035 70.0507L34.2136 64.1519Z" fill="#FF7254"/>
<path d="M41.1229 60.1909L39.0161 92.8874H36.2352C33.5386 92.8874 31.5162 90.4436 31.9375 87.8313L34.0442 69.292L34.1285 68.6179L33.4544 66.8482C33.7072 64.6572 34.4656 61.792 38.4263 60.6965L41.1229 60.1909Z" fill="#FF7254"/>
<path d="M47.6963 60.4438L49.803 93.1404H52.5839C55.8704 93.1404 58.3142 90.1909 57.8086 86.9887L54.7749 68.0281L54.6906 67.691L54.9434 65.7528C54.4378 63.6461 53.8479 61.5393 50.4772 60.8652L47.6963 60.4438Z" fill="#FF7254"/>
<path d="M36.8251 129.713H30.6734L24.269 94.4887C24.1004 91.2864 26.5442 88.6741 29.7465 88.6741C32.7802 88.6741 35.224 91.1179 35.224 94.1516L36.8251 129.713Z" fill="#004CBC"/>
<path d="M30.3374 128.449L26.2925 132.494C25.8711 132.999 25.7869 133.589 25.9554 134.179L26.461 135.527L35.7307 135.696L36.7419 134.263L36.9104 129.123C36.9104 128.786 36.5734 128.617 36.3205 128.786C35.8149 129.039 35.225 129.123 34.7194 128.87L34.2138 128.617L30.3374 128.449Z" fill="#FFB612"/>
<path d="M26.0391 134.263H33.2862C33.7076 134.263 34.1289 134.263 34.5503 134.095L36.8255 133.336L36.7413 134.769C36.7413 135.275 36.2357 135.696 35.73 135.696H26.4604L26.0391 134.263Z" fill="#004CBC"/>
<path d="M34.213 128.533H30.4209V128.449C30.4209 127.606 31.1793 127.016 32.022 127.016H32.7804C33.6231 127.016 34.2973 127.691 34.213 128.449V128.533Z" fill="#FF7254"/>
<path d="M32.2759 129.797H29.495C29.3265 129.797 29.2422 129.713 29.2422 129.544C29.2422 129.376 29.4107 129.292 29.495 129.292H32.2759C32.4444 129.292 32.5287 129.376 32.5287 129.544C32.5287 129.629 32.4444 129.797 32.2759 129.797Z" fill="white"/>
<path d="M31.3481 130.64H28.5673C28.3987 130.64 28.3145 130.556 28.3145 130.387C28.3145 130.219 28.483 130.134 28.5673 130.134H31.3481C31.5167 130.134 31.601 130.219 31.601 130.387C31.601 130.556 31.5167 130.64 31.3481 130.64Z" fill="white"/>
<path d="M30.5064 131.567H27.7255C27.5569 131.567 27.4727 131.483 27.4727 131.314C27.4727 131.146 27.6412 131.062 27.7255 131.062H30.5064C30.6749 131.062 30.7592 131.146 30.7592 131.314C30.7592 131.483 30.6749 131.567 30.5064 131.567Z" fill="white"/>
<path d="M36.8254 131.23C36.8254 131.23 35.7299 132.157 35.8142 133.674L36.8254 133.336V131.23Z" fill="#FF7254"/>
<path d="M26.4612 132.409L31.6016 132.494C32.5286 132.494 33.2028 133.252 33.3713 134.348V134.263H26.1241C25.5342 133.505 26.4612 132.409 26.4612 132.409Z" fill="#FF7254"/>
<path d="M56.7126 130.219L63.1171 130.135L63.707 94.236C63.8755 91.118 61.4317 88.4214 58.2295 88.4214C55.1958 88.4214 52.752 90.8652 52.752 93.8146L56.7126 130.219Z" fill="#004CBC"/>
<path d="M62.865 128.449L66.9099 132.494C67.3313 132.999 67.4156 133.589 67.247 134.179L66.7414 135.527L57.4718 135.696L56.4605 134.263L56.292 129.123C56.292 128.786 56.6291 128.617 56.8819 128.786C57.3875 129.039 57.9774 129.123 58.483 128.87L58.9886 128.617L62.865 128.449Z" fill="#FFB612"/>
<path d="M67.2464 134.263H59.9993C59.5779 134.263 59.1566 134.263 58.7352 134.095L56.46 133.336L56.5442 134.769C56.5442 135.275 57.0498 135.696 57.5555 135.696H66.8251L67.2464 134.263Z" fill="#004CBC"/>
<path d="M59.0735 128.533H62.8657V128.449C62.8657 127.606 62.1072 127.016 61.2645 127.016H60.5061C59.6634 127.016 58.9893 127.691 59.0735 128.449V128.533Z" fill="#FF7254"/>
<path d="M61.0116 129.797H63.7924C63.961 129.797 64.0452 129.713 64.0452 129.544C64.0452 129.376 63.8767 129.292 63.7924 129.292H61.0116C60.843 129.292 60.7587 129.376 60.7587 129.544C60.6745 129.629 60.843 129.797 61.0116 129.797Z" fill="white"/>
<path d="M61.8534 130.64H64.6343C64.8028 130.64 64.8871 130.556 64.8871 130.387C64.8871 130.219 64.7185 130.134 64.6343 130.134H61.8534C61.6849 130.134 61.6006 130.219 61.6006 130.387C61.6006 130.556 61.7691 130.64 61.8534 130.64Z" fill="white"/>
<path d="M62.7811 131.567H65.562C65.7305 131.567 65.8148 131.483 65.8148 131.314C65.8148 131.146 65.6462 131.062 65.562 131.062H62.7811C62.6125 131.062 62.5283 131.146 62.5283 131.314C62.444 131.483 62.6125 131.567 62.7811 131.567Z" fill="white"/>
<path d="M56.376 131.23C56.376 131.23 57.4715 132.157 57.3872 133.674L56.376 133.336V131.23Z" fill="#FF7254"/>
<path d="M66.7411 132.409L61.6007 132.494C60.6738 132.494 59.9996 133.252 59.8311 134.348V134.263H67.0782C67.7524 133.505 66.7411 132.409 66.7411 132.409Z" fill="#FF7254"/>
<path d="M31.3486 88.8425L43.989 92.3818V99.7133H32.1913L31.3486 88.8425Z" fill="#004CBC"/>
<path d="M56.2922 88.8425L43.8203 92.8032V99.7133H55.5338L56.2922 88.8425Z" fill="#004CBC"/>
<path d="M49.6337 91.0337H39.2686V93.7303H49.6337V91.0337Z" fill="#004CBC"/>
<path d="M35.4769 99.7132L35.3926 98.5334L40.7016 99.7132H35.4769Z" fill="black"/>
<path d="M53.258 99.7134L53.1738 98.6179L48.2861 99.7134H53.258Z" fill="black"/>
<path d="M41.8812 53.4495L41.207 60.5281C42.8081 61.9607 45.252 62.2978 47.0216 60.8652L47.5272 60.5281L46.516 53.3652L41.8812 53.4495Z" fill="#FFB612"/>
<path d="M47.949 58.5897L45.5052 58.4212C43.2299 58.2526 41.6288 56.3144 41.7973 54.0392L42.3029 47.8875C42.4715 45.6122 44.4097 44.0111 46.6849 44.1796L49.1287 44.3482C51.404 44.5167 53.0051 46.4549 52.8366 48.7302L52.331 54.8818C52.1624 57.0729 50.14 58.7582 47.949 58.5897Z" fill="#FFB612"/>
<path d="M41.9657 52.9435C42.8965 52.9435 43.651 52.189 43.651 51.2581C43.651 50.3273 42.8965 49.5728 41.9657 49.5728C41.0348 49.5728 40.2803 50.3273 40.2803 51.2581C40.2803 52.189 41.0348 52.9435 41.9657 52.9435Z" fill="#FFB612"/>
<path d="M47.19 58.5056C47.19 58.5056 45.6732 58.2528 44.999 57.073C44.999 57.073 45.3361 59.1797 47.3586 59.7696L47.19 58.5056Z" fill="#FF9200"/>
<path d="M42.1347 49.5732L42.0505 51.5114C42.0505 51.5114 44.8314 50.753 45.0842 47.5507C45.0842 47.5507 47.6123 49.9945 49.2134 48.3934C49.2134 48.3934 55.5336 50.7529 54.2695 46.6237C54.101 45.9496 51.91 46.2867 51.91 46.2867L52.4156 46.1181C53.2583 45.8653 53.7639 44.9384 53.4269 44.0957C53.174 43.3372 52.3313 42.9159 51.5729 43.1687L48.5392 44.0114L45.9269 43.9271C44.5786 43.8429 43.146 44.4328 42.3876 45.5283C41.7977 46.371 41.2921 48.562 41.4606 49.4889L42.1347 49.5732Z" fill="#FC940B"/>
<path fill-rule="evenodd" clip-rule="evenodd" d="M57.8917 86.9886L57.1332 82.3538C56.2905 82.3538 49.4647 82.5223 49.2119 82.6066L49.3805 85.8931V86.3987L57.8917 86.9886Z" fill="#FC4F32"/>
<path fill-rule="evenodd" clip-rule="evenodd" d="M46.0114 75.8653V74.4327C46.0114 74.0113 46.4327 73.7585 46.7698 73.8428L46.6012 74.3484L47.5282 74.4327L47.6967 77.972L46.1799 78.4776L45.2529 77.1293L46.0114 75.8653Z" fill="#FFB612"/>
<path d="M46.4324 82.7755H41.9661C41.5448 82.7755 41.292 82.4385 41.292 82.1014V72.5789C41.292 72.1576 41.6291 71.9048 41.9661 71.9048H46.4324C46.8538 71.9048 47.1066 72.2419 47.1066 72.5789V82.1014C47.1066 82.4385 46.7695 82.7755 46.4324 82.7755Z" fill="black"/>
<path fill-rule="evenodd" clip-rule="evenodd" d="M47.8649 77.8877L40.4492 77.4663V78.7303L41.1234 78.8146V79.9101L41.7133 79.9944L41.8818 80.5C42.1346 81.1742 42.7245 81.6798 43.3986 81.6798L48.0335 82.0168L47.8649 77.8877Z" fill="#FFB612"/>
<path d="M49.2971 77.719H47.7803V82.3538H49.2971V77.719Z" fill="#EB5238"/>
<path d="M54.2685 63.5618L62.9483 78.3932C64.4651 80.9213 62.5269 84.1235 59.5775 83.955L50.1393 83.4493C49.3809 83.4493 48.791 82.7752 48.791 82.0168V78.3932C48.791 77.6348 49.4652 76.9606 50.2236 76.9606L55.6168 77.0449L52.2461 71.5674L54.2685 63.5618Z" fill="#FF7254"/>
<path d="M54.7744 77.1292L58.2295 77.2977" stroke="#FC4F32" stroke-width="0.5" stroke-miterlimit="10" stroke-linecap="round"/>
<path d="M55.8701 77.0452L57.4712 76.5396" stroke="#FC4F32" stroke-width="0.5" stroke-miterlimit="10" stroke-linecap="round"/>
<path d="M47.6113 55.0508C47.6113 55.0508 48.7068 56.062 50.1394 55.3879" stroke="black" stroke-width="0.253" stroke-miterlimit="10" stroke-linecap="round"/>
<path fill-rule="evenodd" clip-rule="evenodd" d="M32.4441 83.955C32.5284 83.618 35.6464 75.4438 35.6464 75.4438L33.3711 89.3483L31.3486 88.8427L32.4441 83.955Z" fill="#FC4F32"/>
<path d="M59.3242 52.1011C59.6613 52.1011 70.1107 53.2809 70.3635 64.6572" stroke="#FFB612" stroke-width="1.518" stroke-miterlimit="10" stroke-linecap="round"/>
<path d="M59.7461 56.5674C59.7461 56.5674 65.8135 57.8314 65.0551 64.3202" stroke="#FFB612" stroke-width="1.518" stroke-miterlimit="10" stroke-linecap="round"/>
<path d="M58.9033 61.2021C58.9033 61.2021 60.9258 61.5392 60.5887 63.5617" stroke="#FFB612" stroke-width="1.518" stroke-miterlimit="10" stroke-linecap="round"/>
</svg>
