<svg width="70" height="70" fill="none" xmlns="http://www.w3.org/2000/svg"><path d="M35 68.055c.532 0 1.364-.2 2.196-.631 18.936-9.91 25.026-14.865 25.026-26.804V15.546c0-3.426-1.464-4.523-4.26-5.687-3.893-1.596-16.34-6.119-20.2-7.45A8.756 8.756 0 0035 1.945c-.932 0-1.864.2-2.729.466-3.893 1.264-16.34 5.886-20.233 7.449-2.763 1.13-4.26 2.261-4.26 5.687V40.62c0 11.939 6.423 16.328 25.026 26.804.865.465 1.663.631 2.196.631z" fill="#D753C9"/><path fill-rule="evenodd" clip-rule="evenodd" d="M32.846 49.045c.604 1.276 1.947 2.216 3.492 2.216a3.898 3.898 0 003.895-3.895V47.3c-.336.134-.47.202-.47.202s-3.291.94-6.917 1.544zM28.076 18.088c-.067-.201-.067-.403-.067-.604a2.407 2.407 0 012.418-2.418c1.074 0 1.947.672 2.283 1.612 5.91-.605 11.617 3.089 13.363 8.998l.605 2.082c.604 2.082 1.678 4.03 3.089 5.708l2.283 2.753.403.403.134.134c.134.135.201.269.269.403 1.208 3.895-13.7 8.999-13.7 8.999s-14.639 4.297-15.847.47a.573.573 0 010-.47c.067-.269.134-.47.134-.739l.269-3.559c.201-2.149-.135-4.365-.806-6.38l-.739-2.014c-2.216-6.044.47-12.49 5.91-15.378z" fill="#fff"/></svg>