<svg width="70" height="70" fill="none" xmlns="http://www.w3.org/2000/svg"><path d="M35.346 68.006c.531 0 1.362-.2 2.193-.631C56.447 57.472 62.528 52.52 62.528 40.59V15.535c0-3.422-1.462-4.519-4.253-5.682C54.386 8.258 41.958 3.74 38.104 2.41a8.737 8.737 0 00-2.758-.466c-.93 0-1.861.2-2.725.466-3.888 1.262-16.316 5.881-20.204 7.443-2.758 1.13-4.254 2.26-4.254 5.683V40.59c0 11.93 6.414 16.316 24.99 26.784.863.465 1.66.631 2.193.631z" fill="#3472F6"/><path d="M25.278 24.792l19.444 18.472L35 52.5V15.556l9.722 9.236-19.444 18.472" stroke="#fff" stroke-width="3" stroke-linecap="round" stroke-linejoin="round"/></svg>