<svg width="70" height="70" fill="none" xmlns="http://www.w3.org/2000/svg"><path d="M35 68.056c.532 0 1.364-.2 2.197-.632 18.935-9.91 25.025-14.865 25.025-26.804V15.546c0-3.425-1.464-4.523-4.26-5.687-3.893-1.596-16.34-6.119-20.2-7.449A8.754 8.754 0 0035 1.944c-.932 0-1.864.2-2.729.466-3.893 1.264-16.34 5.886-20.233 7.45-2.763 1.13-4.26 2.26-4.26 5.686V40.62c0 11.939 6.423 16.328 25.026 26.804.865.465 1.664.632 2.196.632z" fill="#34C759"/><rect x="23.333" y="29.167" width="23.333" height="19.444" rx="2" fill="#fff"/><rect x="29.222" y="19.5" width="11.556" height="17.389" rx="5" stroke="#fff" stroke-width="4"/></svg>