<svg width="283" height="46" viewBox="0 0 283 46" fill="none" xmlns="http://www.w3.org/2000/svg">
<path d="M79.612 31.86C77.668 32.22 76.624 32.328 74.608 32.328C71.044 32.328 67.624 29.844 67.624 24.48C67.624 18.936 70.828 16.2 74.788 16.2C76.516 16.2 77.416 16.236 79.252 16.56L79.576 12.6C77.956 12.276 76.732 12.132 74.932 12.132C68.164 12.132 62.692 16.38 62.692 24.912C62.692 32.544 67.732 36.252 74.356 36.252C76.768 36.252 77.56 36.144 79.612 35.676V31.86ZM99.3404 26.748C99.3404 20.844 95.8124 17.82 90.8444 17.82C86.0204 17.82 81.8444 21.564 81.8444 27.432C81.8444 33.3 85.3724 36.324 90.3404 36.324C95.1644 36.324 99.3404 32.616 99.3404 26.748ZM94.8404 26.856C94.8404 30.492 92.9324 32.436 90.5924 32.436C88.0364 32.436 86.3444 30.78 86.3444 27.288C86.3444 23.616 88.2524 21.708 90.5924 21.708C93.1124 21.708 94.8404 23.4 94.8404 26.856ZM113.605 18.18C112.957 18 112.345 17.928 111.517 17.928C110.113 17.928 108.997 18.54 107.809 20.124V18.072L103.417 18.252V36H107.845V23.328C109.033 22.464 110.185 22.14 111.301 22.14C112.057 22.14 112.561 22.212 113.317 22.392L113.605 18.18ZM132.559 26.748C132.559 20.844 129.031 17.82 124.063 17.82C119.239 17.82 115.063 21.564 115.063 27.432C115.063 33.3 118.591 36.324 123.559 36.324C128.383 36.324 132.559 32.616 132.559 26.748ZM128.059 26.856C128.059 30.492 126.151 32.436 123.811 32.436C121.255 32.436 119.563 30.78 119.563 27.288C119.563 23.616 121.471 21.708 123.811 21.708C126.331 21.708 128.059 23.4 128.059 26.856ZM147.4 36H151.828V24.3C151.828 20.16 149.488 17.928 145.636 17.928C143.836 17.928 142.468 18.36 140.92 19.404V18.072L136.636 18.252V36H141.064V22.572C142.252 22.14 143.08 21.996 144.304 21.996C146.32 21.996 147.4 22.896 147.4 25.236V36ZM170.103 24.336C170.103 20.232 167.763 17.928 162.687 17.928C160.383 17.928 158.475 18.324 156.243 19.26L156.819 22.968C158.727 22.176 160.131 21.888 161.859 21.888C164.811 21.888 165.819 22.932 165.819 24.768V25.56C165.135 25.56 164.307 25.524 163.407 25.524C157.755 25.524 155.271 27.828 155.271 31.212C155.271 34.2 157.251 36.216 160.959 36.216C163.083 36.216 164.559 35.784 165.963 34.884V36H170.103V24.336ZM159.771 30.852C159.771 29.52 160.851 28.62 163.551 28.62C164.235 28.62 165.135 28.656 165.819 28.692V31.968C164.667 32.508 163.659 32.76 162.291 32.76C160.707 32.76 159.771 32.04 159.771 30.852ZM180.246 16.812L185.178 31.536H190.146L194.862 16.812H195.078L195.87 36H200.478L199.362 12.384H192.486L188.022 26.424H187.842L183.414 12.384H176.07L175.098 36H179.418L180.03 16.812H180.246ZM204.704 27.108C204.704 33.3 208.232 36.216 213.812 36.216C216.224 36.216 217.592 35.892 219.5 35.316V31.716C217.772 32.256 216.404 32.508 214.388 32.508C211.184 32.508 209.492 31.212 208.952 28.368H219.896C220.004 27.576 220.04 26.316 220.04 25.128C220.04 20.556 217.268 17.82 212.876 17.82C208.34 17.82 204.704 21.024 204.704 27.108ZM208.952 25.2C209.276 22.608 210.716 21.204 212.552 21.204C214.532 21.204 215.792 22.86 215.792 25.2H208.952ZM228.455 10.836L224.027 11.052V36H228.455V10.836ZM248.817 10.836L244.389 11.052V18.18C243.561 18 242.805 17.928 241.941 17.928C236.541 17.928 232.509 21.6 232.509 27.468C232.509 33.264 235.425 36.216 239.925 36.216C241.689 36.216 243.273 35.676 244.533 34.776V36H248.817V10.836ZM242.013 21.672C242.913 21.672 243.597 21.744 244.425 21.852V31.68C243.273 32.22 242.517 32.4 241.293 32.4C238.773 32.4 237.009 30.924 237.009 27.252C237.009 23.76 238.989 21.672 242.013 21.672ZM252.863 27.108C252.863 33.3 256.391 36.216 261.971 36.216C264.383 36.216 265.751 35.892 267.659 35.316V31.716C265.931 32.256 264.563 32.508 262.547 32.508C259.343 32.508 257.651 31.212 257.111 28.368H268.055C268.163 27.576 268.199 26.316 268.199 25.128C268.199 20.556 265.427 17.82 261.035 17.82C256.499 17.82 252.863 21.024 252.863 27.108ZM257.111 25.2C257.435 22.608 258.875 21.204 260.711 21.204C262.691 21.204 263.951 22.86 263.951 25.2H257.111ZM282.373 18.18C281.725 18 281.113 17.928 280.285 17.928C278.881 17.928 277.765 18.54 276.577 20.124V18.072L272.185 18.252V36H276.613V23.328C277.801 22.464 278.953 22.14 280.069 22.14C280.825 22.14 281.329 22.212 282.085 22.392L282.373 18.18Z" fill="#154273"/>
<path d="M45 9.84646V35.3273C45 40.7622 40.6055 45.1737 35.1914 45.1737H9.80859C4.39453 45.1737 0 40.7622 0 35.3273V9.88176C0 4.4115 4.39453 0 9.80859 0H35.1562C40.6055 0 45 4.4115 45 9.84646Z" fill="url(#paint0_linear)"/>
<path d="M27.8411 24.2962C27.6296 24.7887 27.3475 25.2108 27.0303 25.633L28.0174 26.618C28.6167 26.3717 29.3571 26.5476 29.7449 27.1808C30.0269 27.6381 30.0269 28.2362 29.7449 28.6583C29.2513 29.4674 28.1584 29.5378 27.5238 28.9046C27.1008 28.4824 26.995 27.8844 27.2065 27.3567L26.2194 26.3717C25.3733 27.0753 24.3156 27.5678 23.117 27.6733V29.3971C23.8926 29.6785 24.3861 30.4876 24.2099 31.4022C24.0689 32.0706 23.54 32.5983 22.8702 32.739C21.742 32.9853 20.7196 32.1058 20.7196 31.0153C20.7196 30.2765 21.178 29.6433 21.8478 29.3619V27.6381C20.6844 27.4974 19.6267 27.0401 18.7454 26.3365L17.7582 27.3215C18.005 27.9196 17.8287 28.6583 17.1942 29.0453C16.7358 29.3267 16.1365 29.3267 15.7135 29.0453C14.9026 28.5528 14.8321 27.4622 15.4667 26.829C15.8897 26.4069 16.4891 26.3014 17.0179 26.5124L18.005 25.5274C17.2999 24.6831 16.8064 23.6278 16.7006 22.4317H14.9731C14.6911 23.2056 13.8802 23.6981 12.9636 23.5223C12.2937 23.3815 11.7649 22.8539 11.6239 22.1855C11.3771 21.0598 12.2585 20.0396 13.3514 20.0396C14.0917 20.0396 14.7263 20.4969 15.0084 21.1653H16.7358C16.8769 20.0044 17.3352 18.949 18.0403 18.0696L17.0531 17.0846C16.4538 17.3308 15.7135 17.1549 15.3257 16.5217C15.0436 16.0644 15.0436 15.4664 15.3257 15.0442C15.8192 14.2351 16.9121 14.1648 17.5467 14.798C17.9698 15.2201 18.0755 15.8182 17.864 16.3458L18.8511 17.3308C19.6973 16.6273 20.7549 16.1348 21.9536 16.0292V14.3055C21.178 14.0241 20.6844 13.215 20.8607 12.3003C21.0017 11.6319 21.5305 11.1043 22.2003 10.9635C23.3285 10.7173 24.3509 11.5968 24.3509 12.6873C24.3509 13.426 23.8926 14.0592 23.2227 14.3407V16.0644C24.3861 16.2051 25.4438 16.6624 26.3252 17.366L27.3123 16.381C27.0655 15.783 27.2418 15.0442 27.8764 14.6573C28.3347 14.3758 28.934 14.3758 29.3571 14.6573C30.1679 15.1498 30.2384 16.2403 29.6039 16.8735C29.1808 17.2957 28.5815 17.4012 28.0526 17.1901L27.0655 18.1751C27.4181 18.5973 27.7001 19.0546 27.9116 19.5471C28.0526 19.8989 28.4052 20.1099 28.7577 20.1099H34.9978C35.5267 20.1099 35.9497 19.6878 35.9497 19.1601V12.1948C35.9497 10.471 35.2446 9.90818 33.8344 9.31015C31.9307 8.50105 25.7611 6.21445 23.8573 5.54605C23.399 5.40534 22.9407 5.2998 22.4824 5.2998C22.0241 5.2998 21.5658 5.40534 21.1427 5.54605C19.2389 6.17927 13.0693 8.53622 11.1656 9.31015C9.79064 9.87301 9.05029 10.471 9.05029 12.1948V26.231C9.05029 32.2817 12.2232 34.4979 21.3895 39.8099C21.8125 40.0561 22.2003 40.1265 22.4824 40.1265C22.7292 40.1265 23.1522 40.021 23.5753 39.8099C32.9178 34.7794 35.9145 32.2817 35.9145 26.231V24.6831C35.9145 24.1555 35.4914 23.7333 34.9626 23.7333H28.652C28.2994 23.7685 27.9821 23.9796 27.8411 24.2962Z" fill="white"/>
<defs>
<linearGradient id="paint0_linear" x1="6.84826" y1="38.2916" x2="52.2897" y2="-6.94738" gradientUnits="userSpaceOnUse">
<stop stop-color="#C9005D"/>
<stop offset="0.00040942" stop-color="#C9005D"/>
<stop offset="0.2482" stop-color="#C9005D"/>
<stop offset="0.9831" stop-color="#315BBC"/>
<stop offset="1" stop-color="#315BBC"/>
</linearGradient>
</defs>
</svg>
