<svg width="601" height="116" viewBox="0 0 601 116" fill="none" xmlns="http://www.w3.org/2000/svg">
<path d="M319.5 58.3996H271.5C271.8 57.6996 272.2 56.8996 272.6 56.1996C277.2 48.3996 285.7 43.0996 295.5 43.0996C304.5 43.0996 312.5 47.5996 317.3 54.4996C318.2 55.6996 318.9 56.9996 319.5 58.3996Z" fill="white"/>
<path d="M274.7 58.3995H251.1C253.8 54.7995 258.1 52.4995 262.9 52.4995C266.7 52.4995 270.1 53.8995 272.7 56.1995C273.4 56.8995 274.1 57.5995 274.7 58.3995Z" fill="white"/>
<path d="M346.1 58.3996H315C315.6 56.9996 316.4 55.6996 317.3 54.5996C320.4 50.7996 325.2 48.2996 330.5 48.2996C337.5 48.1996 343.5 52.3996 346.1 58.3996Z" fill="white"/>
<path d="M222.6 30.5998H270.6C270.3 29.8998 269.9 29.0998 269.5 28.3998C264.9 20.5998 256.4 15.2998 246.6 15.2998C237.6 15.2998 229.6 19.7998 224.8 26.6998C223.9 27.8998 223.2 29.1998 222.6 30.5998Z" fill="white"/>
<path d="M196 30.5998H227.1C226.5 29.1998 225.7 27.8998 224.8 26.7998C221.7 22.9998 216.9 20.4998 211.6 20.4998C204.6 20.3998 198.6 24.5998 196 30.5998Z" fill="white"/>
<path d="M552.8 15.3H600.8C600.5 14.6 600.1 13.8 599.7 13.1C595.1 5.3 586.6 0 576.8 0C567.8 0 559.8 4.5 555 11.4C554.1 12.7 553.4 14 552.8 15.3Z" fill="white"/>
<path d="M526.2 15.2999H557.3C556.7 13.9 555.9 12.6 555 11.5C551.9 7.69995 547.1 5.19995 541.8 5.19995C534.8 5.19995 528.8 9.29995 526.2 15.2999Z" fill="white"/>
<path d="M499.4 115.3H451.4C451.7 114.6 452.1 113.8 452.5 113.1C457.1 105.3 465.6 100 475.4 100C484.4 100 492.4 104.5 497.2 111.4C498.1 112.6 498.8 113.9 499.4 115.3Z" fill="white"/>
<path d="M454.6 115.3H431C433.7 111.7 438 109.4 442.8 109.4C446.6 109.4 450 110.8 452.6 113.1C453.3 113.8 454 114.5 454.6 115.3Z" fill="white"/>
<path d="M526 115.3H494.9C495.5 113.9 496.3 112.6 497.2 111.5C500.3 107.7 505.1 105.2 510.4 105.2C517.4 105.1 523.4 109.3 526 115.3Z" fill="white"/>
<path d="M26.6001 15.3H74.6001C74.3001 14.6 73.9001 13.8 73.5001 13.1C68.9001 5.3 60.4001 0 50.6001 0C41.6001 0 33.6001 4.5 28.8001 11.4C27.9001 12.7 27.2001 14 26.6001 15.3Z" fill="white"/>
<path d="M0 15.2999H31.1C30.5 13.9 29.7 12.6 28.8 11.5C25.7 7.69995 20.9 5.19995 15.6 5.19995C8.59998 5.19995 2.6 9.29995 0 15.2999Z" fill="white"/>
</svg>
