<svg width="141" height="129" fill="none" xmlns="http://www.w3.org/2000/svg">
  <path d="M38.54 3.576H1.501v53.697h37.037V3.576z" fill="#E1F6F8"/>
  <path d="M17.017 33.463c.43-1.144.644-2.36.644-3.718 0-2.502-.858-4.862-2.36-6.72-1.215-1.574-1.787-3.647-1.287-5.578a7.203 7.203 0 00.215-1.787c0-4.362-3.79-7.794-8.223-7.294-1.787.215-3.432 1.073-4.576 2.36v46.476h18.948c1-1.86 1.573-3.933 1.716-6.15.214-4.29-1.287-8.222-3.933-11.082-1.501-1.716-2.002-4.29-1.144-6.507z" fill="#C2EDF1"/>
  <path d="M20.02 0v61.42M0 21.378h40.47M0 39.54h40.47" stroke="#fff" stroke-width="1.027" stroke-miterlimit="10"/>
  <path d="M81.01 128.13c33.132 0 59.99-.577 59.99-1.287 0-.711-26.858-1.287-59.99-1.287-33.13 0-59.989.576-59.989 1.287 0 .71 26.858 1.287 59.99 1.287z" fill="#E1F6F8"/>
  <path d="M46.904 77.436H25.67c-1.93 0-3.575 1.573-3.575 3.575v31.032c0 1.93 1.573 3.575 3.575 3.575h21.164c1.93 0 3.575-1.573 3.575-3.575V81.011c0-2.002-1.573-3.575-3.504-3.575z" fill="#CBF0F3"/>
  <path d="M55.27 77.436H35.107c-1.931 0-3.575 1.573-3.575 3.575v31.031c0 1.931 1.573 3.575 3.575 3.575H55.27c1.93 0 3.575-1.573 3.575-3.575V81.011c-.072-2.002-1.645-3.575-3.575-3.575z" fill="#97E0E7"/>
  <path d="M99.243 115.117l.715 3.718 1.43 7.221c.071.501.5.858 1.001.858h1.501c.573 0 1.073-.5 1.073-1.072v-10.725h-5.72z" fill="#008FCD"/>
  <path d="M104.963 115.117h-5.72l.643 3.146 5.077.071v-3.217z" fill="#0069D1"/>
  <path d="M124.769 115.117h5.72v10.725c0 .572-.5 1.072-1.072 1.072h-1.502c-.5 0-.929-.357-1.001-.858l-2.145-10.939zM61.776 115.117h-5.72v10.725a1.1 1.1 0 001.073 1.072h1.501c.501 0 .93-.357 1.002-.858l2.145-10.939z" fill="#004CBC"/>
  <path d="M30.53 115.117v10.725a1.1 1.1 0 001.073 1.072h1.502c.5 0 .93-.357 1-.858l1.43-7.221.716-3.718h-5.72z" fill="#008FCD"/>
  <path d="M35.822 117.405l.429-2.288h-5.72v2.216l5.29.072z" fill="#0069D1"/>
  <path d="M129.774 97.17l6.364-27.671c1.001-4.72-3.146-9.868-7.508-9.868H71.286c-4.361 0-8.723 3.504-9.724 7.865L54.77 97.099h75.004v.071z" fill="#CBF0F3"/>
  <path d="M122.91 59.631H63.707c-4.361 0-8.723 3.504-9.724 7.865L47.19 97.099h75.005l6.793-29.602c1.001-4.361-1.716-7.865-6.078-7.865z" fill="#CBF0F3"/>
  <path d="M59.417 94.595h-15.73c-1.216 0-2.217-.858-2.503-2.002l-2.36-10.153c-.357-1.573.573-2.789 2.146-2.789h14.586c1.573 0 3.074 1.216 3.432 2.789l2.288 9.796a1.92 1.92 0 01-1.86 2.36z" fill="#fff"/>
  <path d="M110.04 94.667H29.386v20.95h80.654v-20.95z" fill="#CBF0F3"/>
  <path d="M88.304 66.496l14.729-7.866-1.716 9.438s-11.226 6.15-15.015 5.506c-4.004-.715-6.292-14.872-6.721-18.233-.072-.429.214-.786.572-.93l4.075-1.215 4.076 13.3z" fill="#79D4E7"/>
  <path d="M80.582 55.556h-.358c-.572 0-1-.43-1.144-.93l-.715-4.147c-.143-.715.143-1.43.715-1.93l1.144-1.002.715 1.502-.357 6.507z" fill="#FF7254"/>
  <path d="M85.444 56.127h-4.005a1.156 1.156 0 01-1.143-1l-.144-.787-1.358-8.08v-.143c-.072-.572.286-1 .858-1h4.004c.572 0 1.073.428 1.144.929v.214l1.359 8.08.143.715c.071.643-.358 1.072-.858 1.072z" fill="#000"/>
  <path d="M85.73 54.554h-4.79l-1.288-7.722h4.79l1.288 7.722z" fill="#38BFDB"/>
  <path d="M79.152 48.548l.572-.43c.286-.214.715-.142.93.215a.76.76 0 01-.144.858l-1.287 1.001-.286-1.072.215-.572z" fill="#FF7254"/>
  <path d="M79.223 50.05l.644-.501c.286-.215.715-.143.93.214a.76.76 0 01-.144.858l-1.287 1.001-.286-1.072.143-.5z" fill="#FF7254"/>
  <path d="M79.366 51.409l.644-.5c.285-.215.715-.144.93.214a.76.76 0 01-.144.858l-1.287 1-.286-1.072.143-.5zM86.445 52.981l-.358 1.073-.286-1.573-1.287-1.073c-.286-.214-.286-.643-.143-.858.215-.286.572-.286.858-.143l.715.572c.43.358.572.858.5 1.359v.643z" fill="#FF7254"/>
  <path d="M101.96 59.345l-8.365 12.441c2.43-1 4.79-2.145 6.22-2.931l2.145-9.51z" fill="#38BFDB"/>
  <path d="M112.828 57.772h-6.578c-3.36 0-7.579 3.36-7.793 5.863-.215 1.93 1.43 3.79 1.43 3.79L92.88 87.588h23.166l.572-8.366c1.001-4.147 1.859-10.653 2.288-13.8.358-2.716-.858-5.433-3.146-6.792-1.001-.5-2.002-.858-2.932-.858z" fill="#79D4E7"/>
  <path fill-rule="evenodd" clip-rule="evenodd" d="M107.537 61.776c1.931.286 4.576-1.645 5.935-2.789a.892.892 0 00.214-1.144c-.286-.071-.572-.071-.858-.071h-6.578c-.286 0-.5 0-.786.072a1.117 1.117 0 00-.429.858c-.072.643.429 2.717 2.502 3.074z" fill="#FF7254"/>
  <path d="M74.504 119.978l-.715 2.145c-.286.929-1.073 1.644-2.002 2.002l-2.646.929c-.357.143-.643.501-.643.858 0 .501.429.93.93.93h6.434c.858 0 1.573-.572 1.716-1.43l1.001-4.433-4.075-1.001z" fill="#004CBC"/>
  <path d="M77.078 124.554c-.858 0-1.573.715-1.573 1.573 0 .286.071.501.143.715h.214c.858 0 1.573-.572 1.716-1.43l.143-.715a1.434 1.434 0 00-.643-.143z" fill="#326FC9"/>
  <path d="M63.135 100.53l-2.073 1.859c-.5.429-1.144.715-1.86.643l-3.288-.071c-.43 0-.787.214-1.002.643-.214.501.072 1.144.644 1.287l5.649 1.931c.858.286 1.859.071 2.43-.644l2.79-3.074-3.29-2.574z" fill="#004CBC"/>
  <path d="M63.636 106.25l.286-.358c-.286-.572-.858-.929-1.502-.858-.858.072-1.573.787-1.501 1.716v.072l.286.071c.858.215 1.787 0 2.43-.643z" fill="#326FC9"/>
  <path d="M103.319 94.667H88.161s-1.287 4.361-3.075 10.224a9.1 9.1 0 00-.214.716c-1.93 6.22-4.29 11.011-6.15 16.016l-4.718-1.073c1-5.791 1.716-9.295 2.717-15.659.5-3.503 1.144-7.078 1.859-10.868.715-2.36 1.716-4.147 3.003-5.505 1.43-1.43 3.146-2.36 5.076-2.932 2.932-.858 6.435-1.072 10.296-1.072h.072c2.002 0 4.075.071 6.221.071l.071 10.082z" fill="#FFB612"/>
  <path d="M116.26 84.442c-.357 5.72-4.433 10.082-10.796 10.082h-3.432V84.442h14.228z" fill="#FFB612"/>
  <path d="M104.177 93.38l-12.298-8.866s-3.575 2.788-8.437 6.507c-.215.142-.358.285-.572.428-5.22 4.005-11.44 9.081-16.446 12.871l-3.932-3.361c5.005-5.22 9.295-9.939 14.086-14.8 2.43-2.503 5.005-5.077 7.865-7.723 1.93-1.501 3.86-2.36 5.648-2.717 2.002-.357 3.933-.071 5.864.572 2.931 1.001 5.791 2.932 8.937 5.148l.072.072c1.644 1.144 3.289 2.43 5.076 3.646l-5.863 8.223z" fill="#FFB612"/>
  <path d="M91.879 84.514l8.008 7.793c1.501 1.43 3.503 2.288 5.577 2.288h-8.723l-4.862-10.081z" fill="#FF9C12"/>
  <path fill-rule="evenodd" clip-rule="evenodd" d="M109.969 41.112s9.867-.643 8.508 15.873h-16.66c-.071 0-.929-16.445 8.152-15.873z" fill="#000"/>
  <path fill-rule="evenodd" clip-rule="evenodd" d="M112.257 57.986l-5.363.143 1.144-7.15 4.648-1.288-.429 8.294z" fill="#FF7254"/>
  <path d="M107.538 53.84l-.358 2.073s3.432-2.074 3.504-2.074h-3.146z" fill="#F25A37"/>
  <path fill-rule="evenodd" clip-rule="evenodd" d="M103.319 50.693c.215 2.074 1.144 3.504 3.647 3.79h.071c.143 0 1.287.071 1.645 0 1.287-.215 2.574-.501 3.646-1.502.286-.215.501-.93.787-1.215.071-.072.143-.215.214-.286.072-.143.215-.286.286-.43a.539.539 0 00.143-.286c.429-.786.715-1.644.787-2.502.143-1.86-.072-3.29-.644-4.362a3.839 3.839 0 00-1.43-1.573c-.357-.214-.715-.357-1.144-.5-.214-.072-.357-.072-.572-.143-.214 0-.357-.072-.572-.072h-1.43c-.143 0-.357 0-.5.072H108.038c-.143.071-.286.071-.429.143h-.071c-.143.071-.286.071-.429.143-.072.071-.215.071-.358.143-.143.071-.214.143-.357.214-.072.072-.215.143-.286.215-.286.214-.572.429-.787.715l-.214.214-.143.143c-1.073 1.359-1.645 3.29-1.716 5.22v.286c0 .5.071 1.072.071 1.573z" fill="#FF7254"/>
  <path fill-rule="evenodd" clip-rule="evenodd" d="M109.254 41.398c.214.285.286 1.572.429 2.931.214 2.074 3.074 4.505 2.86 8.509 1.144-.715 2.359-3.647 2.359-4.433.143-1.86-.071-3.504-.643-4.577-.358-.715-.93-1.358-1.573-1.716a4.434 4.434 0 00-1.359-.5 3.037 3.037 0 00-.786-.143c-.143-.072-1.073 0-1.287-.072z" fill="#000"/>
  <path d="M112.185 50.05a1.287 1.287 0 100-2.575 1.287 1.287 0 000 2.574z" fill="#FF7254"/>
  <path fill-rule="evenodd" clip-rule="evenodd" d="M109.254 41.541h-.715c-.215 0-.429.072-.572.072h-.143c-.143 0-.286.071-.429.142h-.072c-1.001.358-1.787.93-2.502 1.788 1.001 1.573 7.436 3.432 7.436 3.504l.286-4.72c-.93-.643-2.145-.715-2.574-.786h-.072a.99.99 0 01-.643 0z" fill="#000"/>
  <path d="M107.609 50.622l-2.002.072" stroke="#000" stroke-width=".5" stroke-miterlimit="10" stroke-linecap="round"/>
  <path d="M112.256 75.29l-3.217.072c-1.001 0-1.931.572-2.431 1.43l-.358.715h1.144l.072-.071v.071H114.687c-.214-1.287-1.215-2.288-2.431-2.216z" fill="#FF7254"/>
  <path d="M126.199 77.436h-19.091c-1.93 0-3.575 1.573-3.575 3.575v31.032c0 1.93 1.573 3.575 3.575 3.575h19.091c1.93 0 3.575-1.573 3.575-3.575V81.011a3.54 3.54 0 00-3.575-3.575z" fill="#CBF0F3"/>
  <path d="M135.566 77.436h-19.091c-1.931 0-3.575 1.573-3.575 3.575v31.032c0 1.93 1.573 3.575 3.575 3.575h19.091c1.93 0 3.575-1.573 3.575-3.575V81.011a3.54 3.54 0 00-3.575-3.575z" fill="#97E0E7"/>
  <path d="M118.191 70.213l-2.574-3.146-1.573 6.507 3.646-.286c.143-1.001.358-2.073.501-3.075z" fill="#38BFDB"/>
  <path d="M106.322 77.364l-.429.858c-.215.358 0 .858.429 1.001.357.143.715 0 .929-.357l.858-1.645-1.287-.071-.5.214z" fill="#FF7254"/>
  <path d="M107.895 77.364l-.43.858c-.214.357.001.858.43 1 .357.144.715 0 .929-.357l.858-1.644-1.287-.072-.5.215z" fill="#FF7254"/>
  <path d="M109.468 77.364l-.429.858c-.215.357 0 .858.429 1 .357.144.715 0 .929-.357l.858-1.644-1.287-.072-.5.215z" fill="#FF7254"/>
  <path d="M126.842 72.716L117.69 60.56l-2.574 6.578 5.434 6.006-7.865.143-1.001 4.147h13.371c2.073 0 3.074-2.86 1.787-4.72z" fill="#79D4E7"/>
  <path d="M60.847 38.753h17.875a4.974 4.974 0 005.006-5.005V16.016a4.974 4.974 0 00-5.006-5.005H60.847a4.974 4.974 0 00-5.005 5.005v17.732a4.974 4.974 0 005.005 5.005z" fill="#004CBC"/>
  <path d="M60.847 38.753h17.875a4.974 4.974 0 005.006-5.005V16.016a4.974 4.974 0 00-5.006-5.005H60.847a4.974 4.974 0 00-5.005 5.005v17.732a4.974 4.974 0 005.005 5.005z" fill="#004CBC"/>
  <path d="M78.007 37.395V42.9c0 .644-.715.93-1.144.5l-6.006-6.005h7.15z" fill="#004CBC"/>
  <path d="M68.57 16.874h2.359c.572 0 1 .429.93 1.001l-.501 8.866c0 .5-.43.93-.93.93H69.07c-.5 0-.93-.43-.93-.93l-.5-8.866c-.072-.5.357-1.001.93-1.001zM69.785 32.604a1.859 1.859 0 100-3.718 1.859 1.859 0 000 3.718z" fill="#fff"/>
</svg>