<svg width="747" height="429" fill="none" xmlns="http://www.w3.org/2000/svg">
  <path d="M558.991 59.482H375.36V387.18h183.631V59.482zM416.015 53.48V27.557h32.197V0h34.38v26.74h33.833v26.74h-100.41z" fill="#E1F6F8"/>
  <path d="M558.991 49.932H375.088c-3.275 0-6.003 2.729-6.003 6.003s2.728 6.003 6.003 6.003h183.903c3.274 0 6.003-2.729 6.003-6.003-.273-3.274-2.729-6.003-6.003-6.003zM187.91 387.179h189.633V140.247l-92.77-105.322-96.863 105.322v246.932zM557.354 387.179h189.633V140.247l-92.77-105.322-96.863 105.322v246.932zM166.082 121.42v-18.008c0-4.639-3.82-8.459-8.459-8.459h-22.101V76.4c0-4.639-3.82-8.458-8.458-8.458h-7.913c-7.913 0-14.188-6.276-14.188-14.189v-6.548a17.7 17.7 0 00-17.736-17.736 17.7 17.7 0 00-17.735 17.736v6.548c0 7.913-6.276 14.189-14.189 14.189h-7.912c-4.639 0-8.459 3.82-8.459 8.458v18.554H16.831c-4.638 0-8.458 3.82-8.458 8.459v18.008H-11v265.759h197.273V121.42h-20.191z" fill="#E1F6F8"/>
  <path d="M99.233 91.679H75.768v39.563h23.465V91.679z" fill="#fff"/>
  <path d="M88.864 90.86h-2.728v41.747h2.728V90.86z" fill="#E1F6F8"/>
  <path d="M105.236 110.233H69.219v2.729h36.017v-2.729z" fill="#E1F6F8"/>
  <path d="M422.837 253.208c4.638-5.184 6.003-12.278 3.82-18.827-1.092-3.274-1.91-6.821-1.91-10.368 0-7.094 2.456-13.643 6.548-18.827 3.547-4.639 5.185-10.369 3.82-16.098-.545-2.456-.818-5.458-.273-8.186 1.365-9.004 9.005-16.371 18.009-17.463 12.551-1.364 23.192 8.459 23.192 20.737 0 1.637-.273 3.547-.545 5.184-1.365 5.457 0 11.46 3.547 15.826 4.093 5.184 6.548 11.733 6.548 19.1 0 3.547-.545 7.094-1.91 10.368-2.455 6.276-1.091 13.37 3.547 18.554 7.367 8.186 11.733 19.373 11.187 31.378-1.091 21.828-18.827 39.564-40.382 40.928-25.102 1.637-46.112-18.281-46.112-43.111 0-11.459 4.093-21.555 10.914-29.195z" fill="#fff"/>
  <path d="M451.645 405.693h7.368V297.098h-7.368v108.595z" fill="#fff"/>
  <path d="M198.713 199.382c.546 5.457-3.82 6.822-5.184 7.094-1.364.273-2.456-.272-3.547-1.091-3.274-1.91-5.457-10.641-8.731-12.551-5.184-2.729-11.733-3.002-17.736-1.637-1.91.272-3.82.818-5.457.272-1.91-.545-3.547-2.455-4.093-4.365-.545-1.91-.272-4.093.273-6.276.546-2.183 4.093-5.457 4.912-7.367 2.728-7.64-.546-15.007 3.547-22.101 3.001-5.184 8.458-8.731 14.461-9.277 6.003-.546 12.005 1.637 16.371 5.457 2.456 2.183 5.457 6.549 5.184 9.823-.273 2.183-.818 4.638-1.91 6.548-2.728 5.73-4.638 12.006-5.184 18.009-.273 5.73 6.549 11.187 7.094 17.462z" fill="#79D3E6"/>
  <path fill-rule="evenodd" clip-rule="evenodd" d="M182.888 180.283h-3.274c-9.277 0-14.189-6.822-14.189-14.462l.273-8.731c0-6.821 6.003-11.733 13.916-11.733 9.277 0 16.917 5.457 17.189 14.462v6.821c0 8.731-3.82 13.643-13.915 13.643z" fill="#FFB512"/>
  <path d="M182.342 437.037L137.321 276.6l38.745-4.366 20.464 161.529-3.274 6.549-10.914-3.275z" fill="#008ECC"/>
  <path d="M246.735 406.478c0 40.109 32.47 72.579 72.579 72.579 40.11 0 72.579-32.47 72.579-72.579 0-40.11-32.469-72.579-72.579-72.579-39.836 0-72.579 32.469-72.579 72.579zm8.732 0c0-35.198 28.649-63.848 63.847-63.848s63.848 28.65 63.848 63.848-28.65 63.848-63.848 63.848c-35.198.272-63.847-28.377-63.847-63.848zM32.819 406.478c0 40.109 32.47 72.579 72.579 72.579 40.109 0 72.579-32.47 72.579-72.579 0-40.11-32.47-72.579-72.579-72.579-40.11 0-72.58 32.469-72.58 72.579zm8.73 0c0-35.198 28.65-63.848 63.849-63.848 35.198 0 63.847 28.65 63.847 63.848s-28.649 63.848-63.847 63.848c-35.198.272-63.848-28.377-63.848-63.848z" fill="#FFB512"/>
  <path d="M173.611 285.604l-23.193 1.364c-16.371 0-23.192-19.1-16.917-36.835l49.66 10.914c-.273.273-.819 24.557-9.55 24.557z" fill="#008ECC"/>
  <path d="M298.032 309.615h-4.911c-4.639 0-8.186-3.82-8.186-8.186 0-4.638 3.82-8.185 8.186-8.185h4.911v16.371z" fill="#002782"/>
  <path d="M290.665 300.611c-1.091-1.092-2.456-1.092-3.547 0l-7.367 7.912c.818 1.637 1.637 2.729 2.183 4.366l8.731-8.731c1.091-1.092 1.091-2.729 0-3.547z" fill="#002782"/>
  <path d="M157.24 299.247l38.745 115.144 89.769-87.041" stroke="#002782" stroke-width="1.658" stroke-miterlimit="10"/>
  <path d="M176.066 286.968h-34.379c-3.001 0-5.73 2.456-5.73 5.73v3.82a7.336 7.336 0 007.367 7.367h3.547c3.547 0 6.822-.818 9.823-2.456l7.367-4.092c1.091-.546 2.456-.819 3.547-.819h6.821c3.002 0 5.457-2.456 5.457-5.457 0-2.456-1.637-4.093-3.82-4.093z" fill="#000"/>
  <path d="M198.168 435.4l-92.498-14.461c-7.094-.819-12.278-6.821-12.278-13.643 0-7.64 6.276-13.915 13.915-13.915h93.316c11.733 0 21.283 9.55 21.283 21.282 0 12.279-11.187 22.102-23.738 20.737z" fill="#002782"/>
  <path d="M183.161 374.008h18.827c9.004 0 18.008-3.274 24.557-9.55l52.387-53.206" stroke="#002782" stroke-width="1.658" stroke-miterlimit="10"/>
  <path d="M328.319 406.478l-26.194-31.924-36.835-102.32h7.64" stroke="#002782" stroke-width="1.658" stroke-miterlimit="10" stroke-linecap="round" stroke-linejoin="round"/>
  <path d="M160.787 308.25l-54.844 95.772" stroke="#002782" stroke-width="1.658" stroke-miterlimit="10"/>
  <path d="M145.78 334.445l-10.641-10.369H64.742" stroke="#002782" stroke-width="1.658" stroke-miterlimit="10" stroke-linecap="round" stroke-linejoin="round"/>
  <path d="M203.352 414.664l10.368-27.831" stroke="#007BC6" stroke-width=".89" stroke-miterlimit="10" stroke-linecap="round"/>
  <path d="M221.906 390.652h-16.098c-1.637 0-3.275-1.364-3.275-3.274 0-1.637 1.365-3.274 3.275-3.274h16.098c1.637 0 3.274 1.364 3.274 3.274-.273 1.637-1.637 3.274-3.274 3.274zM182.888 261.32l-35.471 25.648 68.486 18.827-16.644 70.123 15.826.819 28.104-66.576c5.457-14.189 3.001-25.649-11.46-31.379l-48.841-17.462z" fill="#008ECC"/>
  <path d="M145.234 252.043s-10.914 22.101 18.281 29.195l64.667 17.19-21.01 71.488M200.624 369.916h17.189" stroke="#0069D0" stroke-width=".706" stroke-miterlimit="10"/>
  <path fill-rule="evenodd" clip-rule="evenodd" d="M212.356 375.918c1.637 0 3.275-1.909 3.82-3.547.273-1.091 1.91-1.637 3.002-1.091l5.73 3.82 6.002 3.001c2.729 1.092 4.093 3.82 4.366 6.822 0 .818-.546 1.637-1.364 1.637h-30.56c-1.91 0-3.547-1.637-3.82-3.547l-.273-6.822 13.097-.273z" fill="#000"/>
  <path d="M139.777 245.494l-16.644-3.274c-7.367-1.91-12.005-9.277-10.095-16.644l7.367-30.014c1.91-7.367 9.277-12.005 16.644-10.095l14.734 3.547c4.911 1.091 7.64 6.548 5.457 11.187l-17.463 45.293z" fill="#FF7254"/>
  <path fill-rule="evenodd" clip-rule="evenodd" d="M133.501 250.133l49.114 10.914 1.364-25.103c.273 1.092 13.643-10.095 12.006-17.462-4.912-22.647-12.824-31.105-22.92-32.47-15.007-2.183-18.554 10.642-28.922 45.567l-10.642 18.554z" fill="#004CBB"/>
  <path d="M184.525 237.036c-3.001-2.729-2.728-4.093-3.547-4.639-2.183-1.637-24.83-21.009-24.83-21.009s9.55 26.739 19.1 48.022l7.64 2.183 1.637-24.557z" fill="#000"/>
  <path d="M245.917 406.478c0-40.655 33.016-73.67 73.671-73.67" stroke="#002782" stroke-width="1.78" stroke-miterlimit="10" stroke-linecap="round"/>
  <path d="M32 406.478c0-40.655 33.015-73.67 73.67-73.67 40.656 0 73.671 33.015 73.671 73.67" stroke="#002782" stroke-width="1.658" stroke-miterlimit="10" stroke-linecap="round"/>
  <path fill-rule="evenodd" clip-rule="evenodd" d="M253.284 258.591l3.274-1.364c2.456-1.092 5.184-.819 7.367.545l7.913 7.095c1.091.818 1.364 2.182 1.364 3.547a3.923 3.923 0 01-5.184 3.274l-17.19-3.001 2.456-10.096z" fill="#FFB512"/>
  <path d="M186.708 214.934h-3.547v-6.275c0-7.913-6.549-14.461-14.461-14.461h-8.186c-5.457 0-10.368 3.001-13.097 7.639l-.273.546-3.547 1.364-1.364-3.274 2.455-.818c3.548-5.457 9.55-8.732 15.826-8.732h8.186c9.822 0 18.008 8.186 18.008 18.009v6.002z" fill="#FF7254"/>
  <path d="M188.072 216.845l-7.367-14.734c-3.547-6.549-11.46-9.277-18.281-6.003-7.368 3.547-10.096 13.097-5.458 19.918l9.823 14.462 21.283-13.643z" fill="#004CBB"/>
  <path d="M203.079 241.947l-15.28-25.921-20.737 14.461 14.734 20.464c4.093 5.73 10.096 9.55 16.917 10.914l53.479 7.367 4.093-12.005-53.206-15.28z" fill="#FFB512"/>
  <path fill-rule="evenodd" clip-rule="evenodd" d="M187.254 168.55l7.367-.273s-1.365 3.001-4.366 3.001c-2.183 0-3.001-2.728-3.001-2.728z" fill="#fff"/>
  <path d="M168.426 167.186s6.276-16.371 15.007-21.556c0 0 3.547-.818 8.186 3.275 0 0 1.637 1.364 3.274 3.547 1.092 1.637 2.183 4.365 2.183 6.821 0 0-.819-5.73-5.73-6.549-7.094-1.364-15.553 6.822-22.92 14.462z" fill="#008ECC"/>
  <path d="M182.888 180.282c.546 0-9.823-6.003-6.276-22.919 1.91-9.005 9.004-12.006 9.004-12.006s-18.827-5.184-21.282 11.733c-2.456 14.734 1.637 25.375 18.554 23.192z" fill="#79D3E6"/>
</svg>