<svg width="222" height="143" fill="none" xmlns="http://www.w3.org/2000/svg">
  <path d="M165.497 17.61H111.13v97.019h54.367V17.61zM123.167 15.833V8.16h9.532V0h10.179v7.917h10.016v7.916h-29.727z" fill="#E1F6F8"/>
  <path d="M165.496 14.783H111.05c-.97 0-1.778.808-1.778 1.777 0 .97.808 1.777 1.778 1.777h54.446c.97 0 1.778-.808 1.778-1.777-.081-.97-.808-1.777-1.778-1.777zM55.633 114.63h56.144V41.522L84.311 10.34 55.633 41.522v73.108zM165.012 114.63h56.143V41.522L193.689 10.34l-28.677 31.182v73.108zM49.17 35.948v-5.332a2.517 2.517 0 00-2.504-2.504h-6.543V22.62a2.517 2.517 0 00-2.504-2.504h-2.343a4.172 4.172 0 01-4.2-4.2v-1.94a5.24 5.24 0 00-5.251-5.25 5.24 5.24 0 00-5.251 5.25v1.94c0 2.342-1.858 4.2-4.2 4.2H14.03a2.517 2.517 0 00-2.505 2.504v5.493H4.983a2.517 2.517 0 00-2.504 2.505v5.331h-5.736v78.682h58.405V35.948h-5.977z" fill="#E1F6F8"/>
  <path d="M29.38 27.143h-6.948v11.713h6.947V27.143z" fill="#fff"/>
  <path d="M26.31 26.9h-.808v12.36h.808V26.9z" fill="#E1F6F8"/>
  <path d="M31.157 32.636H20.492v.808h10.664v-.808z" fill="#E1F6F8"/>
  <path d="M125.186 74.966c1.374-1.535 1.778-3.635 1.131-5.574-.323-.97-.565-2.02-.565-3.07 0-2.1.727-4.039 1.939-5.574 1.05-1.373 1.534-3.07 1.131-4.766-.162-.727-.243-1.615-.081-2.423.404-2.666 2.666-4.847 5.331-5.17a6.183 6.183 0 016.867 6.139c0 .485-.081 1.05-.162 1.535-.404 1.615 0 3.393 1.05 4.685 1.212 1.535 1.939 3.474 1.939 5.655 0 1.05-.161 2.1-.565 3.07-.727 1.858-.323 3.958 1.05 5.493a13.019 13.019 0 013.312 9.29c-.323 6.462-5.574 11.713-11.956 12.117-7.432.485-13.652-5.412-13.652-12.764 0-3.392 1.212-6.381 3.231-8.643z" fill="#fff"/>
  <path d="M133.716 120.111h2.181v-32.15h-2.181v32.15z" fill="#fff"/>
  <path d="M58.831 59.03c.162 1.615-1.13 2.02-1.534 2.1-.404.08-.727-.08-1.05-.323-.97-.566-1.616-3.15-2.586-3.716-1.534-.808-3.473-.889-5.25-.485-.566.081-1.131.243-1.616.081-.565-.161-1.05-.727-1.212-1.292-.161-.566-.08-1.212.081-1.858.162-.647 1.212-1.616 1.454-2.181.808-2.262-.161-4.444 1.05-6.544a5.58 5.58 0 014.282-2.746c1.777-.162 3.554.484 4.847 1.615.727.647 1.615 1.939 1.535 2.908-.081.647-.243 1.374-.566 1.94-.808 1.695-1.373 3.553-1.535 5.33-.08 1.697 1.939 3.313 2.1 5.17z" fill="#79D3E6"/>
  <path d="M66.344 142.882c26.055 0 47.177-.434 47.177-.97 0-.535-21.122-.969-47.177-.969s-47.176.434-47.176.969c0 .536 21.121.97 47.176.97z" fill="#E0F5F7"/>
  <path fill-rule="evenodd" clip-rule="evenodd" d="M54.146 53.375h-.97c-2.746 0-4.2-2.02-4.2-4.281l.081-2.585c0-2.02 1.777-3.474 4.12-3.474 2.746 0 5.008 1.616 5.09 4.282v2.02c0 2.584-1.132 4.038-4.12 4.038z" fill="#FFB512"/>
  <path d="M53.985 129.39l-13.33-47.5 11.472-1.292 6.058 47.823-.97 1.939-3.23-.97z" fill="#008ECC"/>
  <path fill-rule="evenodd" clip-rule="evenodd" d="M56.974 129.391c.484 0 .969-.566 1.13-1.05.081-.324.566-.485.89-.324l2.584 1.131 1.777.889c.808.323 1.212 1.131 1.293 2.02 0 .242-.162.484-.404.484h-9.048c-.565 0-1.05-.484-1.13-1.05l-.081-2.019 2.989-.081z" fill="#000"/>
  <path d="M73.05 120.343c0 11.875 9.612 21.488 21.487 21.488 11.875 0 21.488-9.613 21.488-21.488s-9.613-21.488-21.488-21.488c-11.794 0-21.488 9.613-21.488 21.488zm2.584 0c0-10.421 8.482-18.903 18.903-18.903s18.903 8.482 18.903 18.903-8.482 18.903-18.903 18.903c-10.42.081-18.903-8.401-18.903-18.903zM9.716 120.343c0 11.875 9.613 21.488 21.488 21.488s21.488-9.613 21.488-21.488-9.613-21.488-21.488-21.488-21.488 9.613-21.488 21.488zm2.585 0c0-10.421 8.482-18.903 18.903-18.903s18.903 8.482 18.903 18.903-8.482 18.903-18.903 18.903c-10.42.081-18.903-8.401-18.903-18.903z" fill="#FFB512"/>
  <path d="M51.4 84.557l-6.867.404c-4.847 0-6.866-5.655-5.008-10.906l14.702 3.231c-.08.081-.242 7.27-2.827 7.27z" fill="#008ECC"/>
  <path d="M88.236 91.666h-1.454c-1.373 0-2.423-1.131-2.423-2.424 0-1.373 1.13-2.423 2.423-2.423h1.454v4.847z" fill="#002782"/>
  <path d="M86.055 89c-.323-.323-.727-.323-1.05 0l-2.181 2.342c.242.485.484.808.646 1.293l2.585-2.585c.323-.323.323-.808 0-1.05z" fill="#002782"/>
  <path d="M46.553 88.596l11.47 34.09 26.578-25.77" stroke="#002782" stroke-width="1.658" stroke-miterlimit="10"/>
  <path d="M52.127 84.96H41.948c-.888 0-1.696.728-1.696 1.697v1.131c0 1.212.97 2.181 2.18 2.181h1.051c1.05 0 2.02-.242 2.908-.727l2.181-1.211a2.488 2.488 0 011.05-.243h2.02a1.62 1.62 0 001.616-1.615c0-.727-.485-1.212-1.131-1.212z" fill="#000"/>
  <path d="M58.67 128.906l-27.385-4.281c-2.1-.243-3.635-2.02-3.635-4.039a4.137 4.137 0 014.12-4.12h27.627a6.309 6.309 0 016.301 6.301c0 3.635-3.312 6.543-7.028 6.139z" fill="#002782"/>
  <path d="M54.227 110.73h5.574c2.666 0 5.332-.969 7.27-2.827l15.51-15.753" stroke="#002782" stroke-width="1.658" stroke-miterlimit="10"/>
  <path d="M97.203 120.343l-7.755-9.452-10.905-30.293h2.261" stroke="#002782" stroke-width="1.658" stroke-miterlimit="10" stroke-linecap="round" stroke-linejoin="round"/>
  <path d="M47.603 91.262l-16.237 28.354" stroke="#002782" stroke-width="1.658" stroke-miterlimit="10"/>
  <path d="M43.16 99.016l-3.15-3.07H19.167" stroke="#002782" stroke-width="1.658" stroke-miterlimit="10" stroke-linecap="round" stroke-linejoin="round"/>
  <path d="M60.205 122.767l3.07-8.24" stroke="#007BC6" stroke-width=".89" stroke-miterlimit="10" stroke-linecap="round"/>
  <path d="M65.698 115.658h-4.766c-.485 0-.97-.404-.97-.97 0-.485.404-.969.97-.969h4.766c.485 0 .97.404.97.969-.081.485-.485.97-.97.97zM59.397 134.157h-4.766c-.485 0-.97-.404-.97-.97 0-.485.404-.969.97-.969h4.766c.485 0 .97.404.97.969 0 .566-.404.97-.97.97zM54.146 77.367l-10.501 7.594 20.276 5.574-4.928 20.761 4.685.242L72 91.828c1.616-4.202.889-7.594-3.393-9.29l-14.46-5.17z" fill="#008ECC"/>
  <path d="M42.998 74.62s-3.23 6.544 5.413 8.644l19.145 5.09-6.22 21.164M59.397 109.519h5.09" stroke="#0069D0" stroke-width=".706" stroke-miterlimit="10"/>
  <path fill-rule="evenodd" clip-rule="evenodd" d="M62.87 111.296c.486 0 .97-.566 1.132-1.051.08-.323.565-.484.888-.323l1.697 1.131 1.777.889c.808.323 1.212 1.131 1.292 2.019 0 .243-.161.485-.403.485h-9.048c-.566 0-1.05-.485-1.13-1.05l-.082-2.02 3.878-.08z" fill="#000"/>
  <path d="M41.383 72.682l-4.928-.97c-2.181-.565-3.554-2.746-2.989-4.927l2.181-8.886c.566-2.181 2.747-3.555 4.928-2.99l4.362 1.05c1.454.324 2.262 1.94 1.616 3.313l-5.17 13.41z" fill="#FF7254"/>
  <path fill-rule="evenodd" clip-rule="evenodd" d="M39.525 74.055l14.54 3.232.404-7.432c.081.323 4.04-2.99 3.555-5.17-1.454-6.705-3.797-9.21-6.786-9.613-4.443-.647-5.493 3.15-8.563 13.49l-3.15 5.493z" fill="#004CBB"/>
  <path d="M54.63 70.177c-.888-.807-.807-1.211-1.05-1.373-.645-.484-7.35-6.22-7.35-6.22s2.827 7.917 5.654 14.218l2.262.646.485-7.27z" fill="#000"/>
  <path d="M72.807 120.343c0-12.036 9.775-21.81 21.811-21.81" stroke="#002782" stroke-width="1.78" stroke-miterlimit="10" stroke-linecap="round"/>
  <path d="M9.474 120.343c0-12.036 9.774-21.81 21.811-21.81 12.036 0 21.811 9.774 21.811 21.81" stroke="#002782" stroke-width="1.658" stroke-miterlimit="10" stroke-linecap="round"/>
  <path fill-rule="evenodd" clip-rule="evenodd" d="M74.988 76.56l.97-.405a2.318 2.318 0 012.18.162l2.343 2.1c.323.243.404.647.404 1.05a1.162 1.162 0 01-1.535.97l-5.09-.889.728-2.989z" fill="#FFB512"/>
  <path d="M55.277 63.634h-1.05v-1.858c0-2.343-1.939-4.281-4.281-4.281h-2.424c-1.615 0-3.07.888-3.877 2.262l-.081.161-1.05.404-.404-.97.727-.242c1.05-1.615 2.827-2.585 4.685-2.585h2.424c2.908 0 5.331 2.424 5.331 5.332v1.777z" fill="#FF7254"/>
  <path d="M55.681 64.2L53.5 59.837c-1.05-1.938-3.393-2.746-5.413-1.777-2.18 1.05-2.988 3.878-1.615 5.897l2.908 4.282 6.301-4.04z" fill="#004CBB"/>
  <path d="M60.124 71.632L55.6 63.957l-6.14 4.282 4.363 6.059a8.056 8.056 0 005.008 3.23l15.834 2.182 1.211-3.554-15.752-4.524z" fill="#FFB512"/>
  <path fill-rule="evenodd" clip-rule="evenodd" d="M55.439 49.902l2.181-.081s-.404.888-1.293.888c-.646 0-.888-.807-.888-.807z" fill="#fff"/>
  <path d="M49.865 49.498s1.858-4.847 4.443-6.382c0 0 1.05-.242 2.423.97 0 0 .485.403.97 1.05.323.484.646 1.292.646 2.02 0 0-.242-1.697-1.697-1.94-2.1-.404-4.604 2.02-6.785 4.282z" fill="#008ECC"/>
  <path d="M54.146 53.375c.162 0-2.908-1.778-1.858-6.786.566-2.666 2.666-3.554 2.666-3.554s-5.574-1.535-6.301 3.473c-.727 4.362.485 7.513 5.493 6.867z" fill="#79D3E6"/>
</svg>