<svg width="334" height="257" fill="none" xmlns="http://www.w3.org/2000/svg">
  <path d="M91.195 8.46H3.553v127.063h87.642V8.459z" fill="#E1F6F8"/>
  <path d="M40.268 79.182c1.015-2.707 1.523-5.583 1.523-8.798 0-5.922-2.03-11.505-5.584-15.904-2.876-3.722-4.23-8.629-3.045-13.197.338-1.354.507-2.707.507-4.23 0-10.32-8.967-18.442-19.457-17.257-4.23.507-8.121 2.538-10.828 5.583v109.975H48.22c2.369-4.399 3.722-9.306 4.06-14.551.508-10.151-3.045-19.457-9.305-26.225-3.553-4.06-4.738-10.151-2.707-15.396z" fill="#C2EDF1"/>
  <path d="M47.374 0v145.336M0 50.588h95.763M0 93.563h95.763" stroke="#fff" stroke-width="1.027" stroke-miterlimit="10"/>
  <path d="M110.99 183.235H60.74c-4.568 0-8.46 3.722-8.46 8.459v73.43c0 4.568 3.722 8.459 8.46 8.459h50.081c4.568 0 8.459-3.722 8.459-8.459v-73.43c0-4.737-3.722-8.459-8.29-8.459z" fill="#CBF0F3"/>
  <path d="M130.785 183.235H83.073c-4.568 0-8.46 3.722-8.46 8.459v73.43c0 4.568 3.723 8.459 8.46 8.459h47.712c4.568 0 8.46-3.722 8.46-8.459v-73.43c-.169-4.737-3.892-8.459-8.46-8.459z" fill="#97E0E7"/>
  <path d="M307.083 229.932l15.058-65.477c2.369-11.167-7.444-23.349-17.765-23.349H168.684c-10.321 0-20.641 8.291-23.01 18.612l-16.073 70.045h177.482v.169z" fill="#CBF0F3"/>
  <path d="M290.84 141.106H150.75c-10.321 0-20.642 8.291-23.011 18.612l-16.073 70.045h177.483l16.073-70.045c2.368-10.321-4.061-18.612-14.382-18.612z" fill="#CBF0F3"/>
  <path d="M140.598 223.841h-37.222c-2.876 0-5.245-2.03-5.922-4.737l-5.583-24.026c-.846-3.722 1.354-6.598 5.076-6.598h34.515c3.722 0 7.275 2.876 8.121 6.598l5.414 23.18c.677 2.876-1.522 5.583-4.399 5.583z" fill="#fff"/>
  <path d="M260.386 224.01H69.538v49.573h190.848V224.01z" fill="#CBF0F3"/>
  <path d="M208.952 157.349l34.854-18.612-4.061 22.334s-26.563 14.55-35.53 13.028c-9.475-1.692-14.889-35.192-15.904-43.144-.169-1.015.507-1.861 1.353-2.2l9.644-2.876 9.644 31.47z" fill="#79D4E7"/>
  <path d="M190.679 131.462h-.846c-1.353 0-2.368-1.015-2.707-2.199l-1.692-9.813c-.338-1.692.339-3.384 1.692-4.569l2.707-2.368 1.692 3.553-.846 15.396z" fill="#FF7254"/>
  <path d="M202.184 132.816h-9.475c-1.353 0-2.537-1.015-2.707-2.369l-.338-1.861-3.215-19.119v-.338c-.169-1.354.677-2.369 2.031-2.369h9.474c1.354 0 2.538 1.015 2.707 2.2v.507l3.215 19.119.339 1.692c.169 1.523-.846 2.538-2.031 2.538z" fill="#000"/>
  <path d="M202.861 129.094h-11.336l-3.045-18.273h11.336l3.045 18.273z" fill="#38BFDB"/>
  <path d="M187.296 114.881l1.353-1.015c.677-.507 1.692-.338 2.2.508.338.676.169 1.522-.339 2.03l-3.045 2.369-.677-2.538.508-1.354z" fill="#FF7254"/>
  <path d="M187.465 118.435l1.523-1.185c.676-.507 1.692-.338 2.199.508.339.677.169 1.523-.338 2.03l-3.046 2.369-.676-2.538.338-1.184z" fill="#FF7254"/>
  <path d="M187.803 121.649l1.523-1.184c.677-.508 1.692-.339 2.199.507.339.677.169 1.523-.338 2.031l-3.046 2.368-.676-2.538.338-1.184zM204.553 125.371l-.846 2.538-.677-3.722-3.045-2.538c-.677-.508-.677-1.523-.339-2.03.508-.677 1.354-.677 2.031-.339l1.692 1.354c1.015.846 1.353 2.03 1.184 3.215v1.522z" fill="#FF7254"/>
  <path d="M241.268 140.429l-19.796 29.44c5.753-2.369 11.336-5.076 14.72-6.937l5.076-22.503z" fill="#38BFDB"/>
  <path d="M266.985 136.708h-15.566c-7.952 0-17.934 7.952-18.442 13.873-.507 4.568 3.384 8.967 3.384 8.967l-16.581 47.713h54.819l1.353-19.796c2.369-9.813 4.399-25.21 5.414-32.654.846-6.429-2.03-12.859-7.444-16.073-2.369-1.185-4.738-2.03-6.937-2.03z" fill="#79D4E7"/>
  <path fill-rule="evenodd" clip-rule="evenodd" d="M254.464 146.182c4.569.677 10.829-3.891 14.043-6.598.846-.677 1.015-1.861.508-2.707-.677-.169-1.354-.169-2.03-.169h-15.566c-.677 0-1.184 0-1.861.169-.677.507-1.015 1.353-1.015 2.03-.17 1.523 1.015 6.429 5.921 7.275z" fill="#FF7254"/>
  <path d="M149.396 237.884l-4.906 4.399c-1.184 1.015-2.707 1.692-4.399 1.523l-7.783-.17c-1.015 0-1.861.508-2.369 1.523-.507 1.184.17 2.707 1.523 3.046l13.366 4.568c2.031.676 4.399.169 5.753-1.523l6.598-7.275-7.783-6.091z" fill="#004CBC"/>
  <path d="M150.581 251.419l.677-.846c-.677-1.353-2.031-2.199-3.553-2.03-2.031.169-3.722 1.861-3.553 4.061v.169l.676.169c2.031.507 4.23 0 5.753-1.523z" fill="#326FC9"/>
  <path d="M244.482 224.01h-35.868s-3.046 10.321-7.275 24.195a20.87 20.87 0 00-.508 1.691c-4.568 14.72-10.152 26.056-14.551 37.899l-11.166-2.537c2.368-13.705 4.06-21.995 6.429-37.053 1.184-8.291 2.707-16.75 4.399-25.718 1.692-5.583 4.061-9.813 7.106-13.027 3.384-3.384 7.445-5.584 12.013-6.937 6.937-2.031 15.227-2.538 24.363-2.538h.17c4.737 0 9.643.169 14.719.169l.169 23.856z" fill="#FFB612"/>
  <path d="M275.106 199.816c-.846 13.535-10.49 23.856-25.548 23.856h-8.121v-23.856h33.669z" fill="#FFB612"/>
  <path d="M246.513 220.965l-29.101-20.98s-8.46 6.598-19.965 15.396c-.507.339-.846.677-1.353 1.015-12.351 9.475-27.071 21.488-38.914 30.455l-9.306-7.952c11.844-12.351 21.995-23.518 33.331-35.023 5.752-5.922 11.843-12.012 18.611-18.273 4.568-3.553 9.136-5.583 13.366-6.429 4.738-.846 9.306-.169 13.874 1.354 6.937 2.368 13.705 6.937 21.149 12.182l.169.169c3.892 2.707 7.783 5.752 12.013 8.629l-13.874 19.457z" fill="#FFB612"/>
  <path d="M217.411 199.985l18.95 18.442c3.553 3.384 8.29 5.414 13.197 5.414h-20.642l-11.505-23.856z" fill="#FF9C12"/>
  <path fill-rule="evenodd" clip-rule="evenodd" d="M260.217 97.285s23.349-1.522 20.134 37.561H240.93c-.17 0-2.2-38.914 19.287-37.56z" fill="#000"/>
  <path fill-rule="evenodd" clip-rule="evenodd" d="M265.632 137.215l-12.689.338 2.707-16.919 10.997-3.046-1.015 19.627z" fill="#FF7254"/>
  <path d="M254.465 127.402l-.846 4.906s8.121-4.906 8.291-4.906h-7.445z" fill="#F25A37"/>
  <path fill-rule="evenodd" clip-rule="evenodd" d="M244.483 119.957c.507 4.907 2.707 8.29 8.628 8.967h.17c.338 0 3.045.169 3.891 0 3.046-.507 6.091-1.184 8.629-3.553.677-.507 1.184-2.199 1.861-2.876.169-.169.338-.508.508-.677.169-.338.507-.677.676-1.015.169-.169.339-.508.339-.677 1.015-1.861 1.692-3.891 1.861-5.921.338-4.399-.169-7.783-1.523-10.321a9.088 9.088 0 00-3.384-3.722c-.846-.508-1.692-.846-2.707-1.185-.507-.169-.846-.169-1.353-.338-.508 0-.846-.17-1.354-.17H257.341c-.338 0-.846 0-1.184.17h-.508c-.338.17-.676.17-1.015.338h-.169c-.338.17-.677.17-1.015.339-.169.169-.508.169-.846.338-.339.17-.508.339-.846.508-.169.169-.508.338-.677.507-.677.508-1.353 1.015-1.861 1.692l-.508.508-.338.338c-2.538 3.215-3.891 7.783-4.061 12.351v.677c0 1.184.17 2.538.17 3.722z" fill="#FF7254"/>
  <path fill-rule="evenodd" clip-rule="evenodd" d="M258.526 97.962c.507.677.676 3.723 1.015 6.937.507 4.907 7.275 10.659 6.767 20.134 2.707-1.692 5.584-8.629 5.584-10.49.338-4.399-.169-8.29-1.523-10.828-.846-1.692-2.199-3.215-3.722-4.06-.846-.508-2.2-1.016-3.215-1.185-.507-.17-1.353-.338-1.861-.338-.338-.17-2.538 0-3.045-.17z" fill="#000"/>
  <path d="M265.463 118.435a3.045 3.045 0 10-.001-6.091 3.045 3.045 0 00.001 6.091z" fill="#FF7254"/>
  <path fill-rule="evenodd" clip-rule="evenodd" d="M258.526 98.3h-1.692c-.508 0-1.015.17-1.354.17h-.338c-.339 0-.677.17-1.015.338h-.169c-2.369.846-4.23 2.2-5.922 4.23 2.369 3.722 17.596 8.121 17.596 8.291l.677-11.167c-2.2-1.523-5.076-1.692-6.091-1.861h-.17c-.507.169-1.015.169-1.522 0z" fill="#000"/>
  <path d="M254.634 119.788l-4.737.169" stroke="#000" stroke-width=".5" stroke-miterlimit="10" stroke-linecap="round"/>
  <path d="M265.631 178.159l-7.614.17c-2.368 0-4.568 1.353-5.752 3.383l-.846 1.692h2.707l.169-.169v.169h17.089c-.508-3.045-2.877-5.414-5.753-5.245z" fill="#FF7254"/>
  <path d="M298.623 183.235h-45.174c-4.568 0-8.46 3.723-8.46 8.46v73.429c0 4.568 3.723 8.46 8.46 8.46h45.174c4.568 0 8.46-3.722 8.46-8.46v-73.429c0-4.737-3.722-8.46-8.46-8.46z" fill="#CBF0F3"/>
  <path d="M320.787 183.235h-45.174c-4.568 0-8.459 3.723-8.459 8.46v73.429c0 4.568 3.722 8.46 8.459 8.46h45.174c4.569 0 8.46-3.722 8.46-8.46v-73.429c0-4.737-3.722-8.46-8.46-8.46z" fill="#97E0E7"/>
  <path d="M279.674 166.147l-6.091-7.445-3.723 15.397 8.629-.677c.339-2.369.846-4.907 1.185-7.275z" fill="#38BFDB"/>
  <path d="M251.588 183.066l-1.015 2.03c-.508.846 0 2.03 1.015 2.369.846.338 1.692 0 2.2-.846l2.03-3.892-3.046-.169-1.184.508z" fill="#FF7254"/>
  <path d="M255.31 183.066l-1.015 2.03c-.507.846 0 2.03 1.015 2.369.846.338 1.692 0 2.2-.846l2.03-3.892-3.045-.169-1.185.508z" fill="#FF7254"/>
  <path d="M259.032 183.066l-1.015 2.03c-.507.846 0 2.03 1.015 2.369.846.338 1.692 0 2.2-.846l2.03-3.892-3.045-.169-1.185.508z" fill="#FF7254"/>
  <path d="M300.146 172.068l-21.656-28.762-6.091 15.565 12.858 14.212-18.611.339-2.369 9.813h31.639c4.907 0 7.276-6.768 4.23-11.167z" fill="#79D4E7"/>
  <path d="M143.982 91.702h42.298c6.598 0 11.843-5.245 11.843-11.843v-41.96c0-6.598-5.245-11.843-11.843-11.843h-42.298c-6.599 0-11.843 5.245-11.843 11.843v41.96c0 6.598 5.244 11.843 11.843 11.843z" fill="#004CBC"/>
  <path d="M143.982 91.702h42.298c6.598 0 11.843-5.245 11.843-11.843v-41.96c0-6.598-5.245-11.843-11.843-11.843h-42.298c-6.599 0-11.843 5.245-11.843 11.843v41.96c0 6.598 5.244 11.843 11.843 11.843z" fill="#004CBC"/>
  <path d="M184.588 88.487v13.028c0 1.523-1.692 2.2-2.707 1.184l-14.212-14.212h16.919z" fill="#004CBC"/>
  <path d="M162.254 39.93h5.584c1.353 0 2.368 1.015 2.199 2.368l-1.184 20.98c0 1.185-1.015 2.2-2.2 2.2h-3.214c-1.185 0-2.2-1.015-2.2-2.2l-1.184-20.98c-.169-1.184.846-2.368 2.199-2.368zM165.131 77.152a4.4 4.4 0 100-8.799 4.4 4.4 0 000 8.799z" fill="#fff"/>
</svg>