<svg width="1227" height="429" viewBox="0 0 1227 429" fill="none" xmlns="http://www.w3.org/2000/svg">
<path d="M984.195 180.459H896.553V307.523H984.195V180.459Z" fill="#E1F6F8"/>
<path d="M933.268 251.182C934.283 248.475 934.79 245.599 934.79 242.384C934.79 236.462 932.76 230.879 929.207 226.48C926.331 222.758 924.977 217.851 926.162 213.283C926.5 211.929 926.669 210.576 926.669 209.053C926.669 198.732 917.702 190.611 907.212 191.796C902.982 192.303 899.091 194.333 896.384 197.379V307.354H941.22C943.588 302.955 944.942 298.048 945.28 292.803C945.788 282.652 942.235 273.346 935.975 266.578C932.422 262.518 931.237 256.427 933.268 251.182Z" fill="#C2EDF1"/>
<path d="M940.374 172V317.336" stroke="white" stroke-width="1.027" stroke-miterlimit="10"/>
<path d="M893 222.588H988.763" stroke="white" stroke-width="1.027" stroke-miterlimit="10"/>
<path d="M893 265.563H988.763" stroke="white" stroke-width="1.027" stroke-miterlimit="10"/>
<path d="M1003.99 355.235H953.74C949.172 355.235 945.28 358.957 945.28 363.694V437.124C945.28 441.692 949.002 445.583 953.74 445.583H1003.82C1008.39 445.583 1012.28 441.861 1012.28 437.124V363.694C1012.28 358.957 1008.56 355.235 1003.99 355.235Z" fill="#CBF0F3"/>
<path d="M1023.79 355.235H976.073C971.505 355.235 967.613 358.957 967.613 363.694V437.124C967.613 441.692 971.336 445.583 976.073 445.583H1023.79C1028.35 445.583 1032.24 441.861 1032.24 437.124V363.694C1032.08 358.957 1028.35 355.235 1023.79 355.235Z" fill="#97E0E7"/>
<path d="M1200.08 401.932L1215.14 336.455C1217.51 325.288 1207.7 313.106 1197.38 313.106H1061.68C1051.36 313.106 1041.04 321.397 1038.67 331.718L1022.6 401.763H1200.08V401.932Z" fill="#CBF0F3"/>
<path d="M1183.84 313.106H1043.75C1033.43 313.106 1023.11 321.397 1020.74 331.718L1004.67 401.763H1182.15L1198.22 331.718C1200.59 321.397 1194.16 313.106 1183.84 313.106Z" fill="#CBF0F3"/>
<path d="M1033.6 395.841H996.376C993.5 395.841 991.131 393.811 990.454 391.104L984.871 367.078C984.025 363.356 986.225 360.48 989.947 360.48H1024.46C1028.18 360.48 1031.74 363.356 1032.58 367.078L1038 390.258C1038.67 393.134 1036.47 395.841 1033.6 395.841Z" fill="white"/>
<path d="M1153.39 396.01H962.538V445.583H1153.39V396.01Z" fill="#CBF0F3"/>
<path d="M1101.95 329.349L1136.81 310.737L1132.75 333.071C1132.75 333.071 1106.18 347.621 1097.21 346.099C1087.74 344.407 1082.33 310.907 1081.31 302.955C1081.14 301.94 1081.82 301.094 1082.66 300.755L1092.31 297.879L1101.95 329.349Z" fill="#79D4E7"/>
<path d="M1083.68 303.462H1082.83C1081.48 303.462 1080.46 302.447 1080.13 301.263L1078.43 291.45C1078.1 289.758 1078.77 288.066 1080.13 286.881L1082.83 284.513L1084.53 288.066L1083.68 303.462Z" fill="#FF7254"/>
<path d="M1095.18 304.816H1085.71C1084.36 304.816 1083.17 303.801 1083 302.447L1082.66 300.586L1079.45 281.467V281.129C1079.28 279.775 1080.13 278.76 1081.48 278.76H1090.95C1092.31 278.76 1093.49 279.775 1093.66 280.96V281.467L1096.88 300.586L1097.21 302.278C1097.38 303.801 1096.37 304.816 1095.18 304.816Z" fill="black"/>
<path d="M1095.86 301.094H1084.53L1081.48 282.821H1092.82L1095.86 301.094Z" fill="#38BFDB"/>
<path d="M1080.3 286.881L1081.65 285.866C1082.33 285.359 1083.34 285.528 1083.85 286.374C1084.19 287.05 1084.02 287.896 1083.51 288.404L1080.46 290.773L1079.79 288.235L1080.3 286.881Z" fill="#FF7254"/>
<path d="M1080.46 290.435L1081.99 289.25C1082.66 288.743 1083.68 288.912 1084.19 289.758C1084.53 290.435 1084.36 291.281 1083.85 291.788L1080.8 294.157L1080.13 291.619L1080.46 290.435Z" fill="#FF7254"/>
<path d="M1080.8 293.649L1082.33 292.465C1083 291.957 1084.02 292.126 1084.53 292.972C1084.86 293.649 1084.69 294.495 1084.19 295.003L1081.14 297.371L1080.46 294.833L1080.8 293.649Z" fill="#FF7254"/>
<path d="M1097.55 297.371L1096.71 299.909L1096.03 296.187L1092.98 293.649C1092.31 293.141 1092.31 292.126 1092.65 291.619C1093.15 290.942 1094 290.942 1094.68 291.28L1096.37 292.634C1097.38 293.48 1097.72 294.664 1097.55 295.849V297.371Z" fill="#FF7254"/>
<path d="M1134.27 312.429L1114.47 341.869C1120.22 339.5 1125.81 336.793 1129.19 334.932L1134.27 312.429Z" fill="#38BFDB"/>
<path d="M1159.98 308.708H1144.42C1136.47 308.708 1126.49 316.66 1125.98 322.581C1125.47 327.149 1129.36 331.548 1129.36 331.548L1112.78 379.261H1167.6L1168.95 359.465C1171.32 349.652 1173.35 334.255 1174.37 326.811C1175.21 320.382 1172.34 313.952 1166.92 310.738C1164.55 309.553 1162.18 308.708 1159.98 308.708Z" fill="#79D4E7"/>
<path fill-rule="evenodd" clip-rule="evenodd" d="M1147.46 318.182C1152.03 318.859 1158.29 314.291 1161.51 311.584C1162.35 310.907 1162.52 309.723 1162.01 308.877C1161.34 308.708 1160.66 308.708 1159.98 308.708H1144.42C1143.74 308.708 1143.23 308.708 1142.56 308.877C1141.88 309.384 1141.54 310.23 1141.54 310.907C1141.37 312.43 1142.56 317.336 1147.46 318.182Z" fill="#FF7254"/>
<path d="M1042.4 409.884L1037.49 414.283C1036.31 415.298 1034.78 415.975 1033.09 415.806L1025.31 415.636C1024.29 415.636 1023.45 416.144 1022.94 417.159C1022.43 418.343 1023.11 419.866 1024.46 420.205L1037.83 424.773C1039.86 425.449 1042.23 424.942 1043.58 423.25L1050.18 415.975L1042.4 409.884Z" fill="#004CBC"/>
<path d="M1043.58 423.419L1044.26 422.573C1043.58 421.22 1042.23 420.374 1040.7 420.543C1038.67 420.712 1036.98 422.404 1037.15 424.604V424.773L1037.83 424.942C1039.86 425.449 1042.06 424.942 1043.58 423.419Z" fill="#326FC9"/>
<path d="M1137.48 396.01H1101.61C1101.61 396.01 1098.57 406.331 1094.34 420.205C1094.17 420.712 1094 421.22 1093.83 421.896C1089.26 436.616 1083.68 447.952 1079.28 459.795L1068.11 457.258C1070.48 443.553 1072.17 435.263 1074.54 420.205C1075.73 411.914 1077.25 403.455 1078.94 394.487C1080.63 388.904 1083 384.674 1086.05 381.46C1089.43 378.076 1093.49 375.876 1098.06 374.523C1105 372.492 1113.29 371.985 1122.42 371.985H1122.59C1127.33 371.985 1132.24 372.154 1137.31 372.154L1137.48 396.01Z" fill="#FFB612"/>
<path d="M1168.11 371.816C1167.26 385.351 1157.62 395.672 1142.56 395.672H1134.44V371.816H1168.11Z" fill="#FFB612"/>
<path d="M1139.51 392.965L1110.41 371.985C1110.41 371.985 1101.95 378.583 1090.45 387.381C1089.94 387.72 1089.6 388.058 1089.09 388.396C1076.74 397.871 1062.02 409.884 1050.18 418.851L1040.87 410.899C1052.72 398.548 1062.87 387.381 1074.2 375.876C1079.96 369.954 1086.05 363.864 1092.82 357.603C1097.38 354.05 1101.95 352.02 1106.18 351.174C1110.92 350.328 1115.49 351.005 1120.06 352.528C1126.99 354.896 1133.76 359.465 1141.2 364.71L1141.37 364.879C1145.27 367.586 1149.16 370.631 1153.39 373.508L1139.51 392.965Z" fill="#FFB612"/>
<path d="M1110.41 371.985L1129.36 390.427C1132.91 393.811 1137.65 395.841 1142.56 395.841H1121.92L1110.41 371.985Z" fill="#FF9C12"/>
<path fill-rule="evenodd" clip-rule="evenodd" d="M1153.22 269.285C1153.22 269.285 1176.57 267.763 1173.35 306.846H1133.93C1133.76 306.846 1131.73 267.932 1153.22 269.285Z" fill="black"/>
<path fill-rule="evenodd" clip-rule="evenodd" d="M1158.63 309.215L1145.94 309.553L1148.65 292.634L1159.65 289.588L1158.63 309.215Z" fill="#FF7254"/>
<path d="M1147.47 299.402L1146.62 304.308C1146.62 304.308 1154.74 299.402 1154.91 299.402H1147.47Z" fill="#F25A37"/>
<path fill-rule="evenodd" clip-rule="evenodd" d="M1137.48 291.957C1137.99 296.864 1140.19 300.247 1146.11 300.924H1146.28C1146.62 300.924 1149.33 301.093 1150.17 300.924C1153.22 300.417 1156.26 299.74 1158.8 297.371C1159.48 296.864 1159.99 295.172 1160.66 294.495C1160.83 294.326 1161 293.987 1161.17 293.818C1161.34 293.48 1161.68 293.141 1161.85 292.803C1162.02 292.634 1162.18 292.295 1162.18 292.126C1163.2 290.265 1163.88 288.235 1164.05 286.205C1164.38 281.806 1163.88 278.422 1162.52 275.884C1161.68 274.192 1160.49 273.008 1159.14 272.162C1158.29 271.654 1157.45 271.316 1156.43 270.977C1155.92 270.808 1155.59 270.808 1155.08 270.639C1154.57 270.639 1154.23 270.47 1153.73 270.47C1153.73 270.47 1153.73 270.47 1153.56 270.47H1153.39C1152.88 270.47 1152.37 270.47 1152.03 270.47C1151.53 270.47 1150.85 270.47 1150.34 270.47C1150 270.47 1149.5 270.47 1149.16 270.639H1148.99C1148.82 270.639 1148.82 270.639 1148.65 270.639C1148.31 270.808 1147.97 270.808 1147.63 270.977H1147.46C1147.13 271.146 1146.79 271.146 1146.45 271.316C1146.28 271.485 1145.94 271.485 1145.6 271.654C1145.27 271.823 1145.1 271.992 1144.76 272.162C1144.59 272.331 1144.25 272.5 1144.08 272.669C1143.4 273.177 1142.73 273.684 1142.22 274.361C1142.05 274.53 1141.88 274.7 1141.71 274.869C1141.54 275.038 1141.54 275.038 1141.37 275.207C1138.84 278.422 1137.48 282.99 1137.31 287.558C1137.31 287.727 1137.31 287.896 1137.31 288.235C1137.31 289.419 1137.48 290.773 1137.48 291.957Z" fill="#FF7254"/>
<path fill-rule="evenodd" clip-rule="evenodd" d="M1151.53 269.962C1152.03 270.639 1152.2 273.685 1152.54 276.899C1153.05 281.806 1159.82 287.558 1159.31 297.033C1162.02 295.341 1164.89 288.404 1164.89 286.543C1165.23 282.144 1164.72 278.253 1163.37 275.715C1162.52 274.023 1161.17 272.5 1159.65 271.654C1158.8 271.147 1157.45 270.639 1156.43 270.47C1155.92 270.301 1155.08 270.132 1154.57 270.132C1154.23 269.962 1152.03 270.132 1151.53 269.962Z" fill="black"/>
<path d="M1158.46 290.435C1160.14 290.435 1161.51 289.071 1161.51 287.389C1161.51 285.707 1160.14 284.344 1158.46 284.344C1156.78 284.344 1155.42 285.707 1155.42 287.389C1155.42 289.071 1156.78 290.435 1158.46 290.435Z" fill="#FF7254"/>
<path fill-rule="evenodd" clip-rule="evenodd" d="M1151.53 270.301C1151.02 270.301 1150.34 270.301 1149.83 270.301C1149.33 270.301 1148.82 270.47 1148.48 270.47C1148.31 270.47 1148.31 270.47 1148.14 270.47C1147.8 270.47 1147.47 270.639 1147.13 270.808H1146.96C1144.59 271.654 1142.73 273.008 1141.04 275.038C1143.4 278.76 1158.63 283.159 1158.63 283.329L1159.31 272.162C1157.11 270.639 1154.23 270.47 1153.22 270.301H1153.05C1152.54 270.47 1152.03 270.47 1151.53 270.301Z" fill="black"/>
<path d="M1147.63 291.788L1142.9 291.957" stroke="black" stroke-width="0.5" stroke-miterlimit="10" stroke-linecap="round"/>
<path d="M1158.63 350.159L1151.02 350.329C1148.65 350.329 1146.45 351.682 1145.26 353.712L1144.42 355.404H1147.13L1147.3 355.235V355.404H1148.48H1151.19H1152.54H1155.25H1156.43H1164.38C1163.88 352.359 1161.51 349.99 1158.63 350.159Z" fill="#FF7254"/>
<path d="M1191.62 355.235H1146.45C1141.88 355.235 1137.99 358.958 1137.99 363.695V437.124C1137.99 441.692 1141.71 445.584 1146.45 445.584H1191.62C1196.19 445.584 1200.08 441.862 1200.08 437.124V363.695C1200.08 358.958 1196.36 355.235 1191.62 355.235Z" fill="#CBF0F3"/>
<path d="M1213.79 355.235H1168.61C1164.04 355.235 1160.15 358.958 1160.15 363.695V437.124C1160.15 441.692 1163.88 445.584 1168.61 445.584H1213.79C1218.36 445.584 1222.25 441.862 1222.25 437.124V363.695C1222.25 358.958 1218.52 355.235 1213.79 355.235Z" fill="#97E0E7"/>
<path d="M1172.67 338.147L1166.58 330.702L1162.86 346.099L1171.49 345.422C1171.83 343.053 1172.34 340.515 1172.67 338.147Z" fill="#38BFDB"/>
<path d="M1144.59 355.066L1143.57 357.096C1143.07 357.942 1143.57 359.126 1144.59 359.465C1145.43 359.803 1146.28 359.465 1146.79 358.619L1148.82 354.727L1145.77 354.558L1144.59 355.066Z" fill="#FF7254"/>
<path d="M1148.31 355.066L1147.3 357.096C1146.79 357.942 1147.3 359.126 1148.31 359.465C1149.16 359.803 1150 359.465 1150.51 358.619L1152.54 354.727L1149.49 354.558L1148.31 355.066Z" fill="#FF7254"/>
<path d="M1152.03 355.066L1151.02 357.096C1150.51 357.942 1151.02 359.126 1152.03 359.465C1152.88 359.803 1153.72 359.465 1154.23 358.619L1156.26 354.727L1153.22 354.558L1152.03 355.066Z" fill="#FF7254"/>
<path d="M1193.15 344.068L1171.49 315.306L1165.4 330.871L1178.26 345.083L1159.65 345.422L1157.28 355.235H1188.92C1193.82 355.235 1196.19 348.467 1193.15 344.068Z" fill="#79D4E7"/>
<path d="M1036.98 263.702H1079.28C1085.88 263.702 1091.12 258.457 1091.12 251.859V209.899C1091.12 203.301 1085.88 198.056 1079.28 198.056H1036.98C1030.38 198.056 1025.14 203.301 1025.14 209.899V251.859C1025.14 258.457 1030.38 263.702 1036.98 263.702Z" fill="#004CBC"/>
<path d="M1036.98 263.702H1079.28C1085.88 263.702 1091.12 258.457 1091.12 251.859V209.899C1091.12 203.301 1085.88 198.056 1079.28 198.056H1036.98C1030.38 198.056 1025.14 203.301 1025.14 209.899V251.859C1025.14 258.457 1030.38 263.702 1036.98 263.702Z" fill="#004CBC"/>
<path d="M1077.59 260.487V273.515C1077.59 275.038 1075.9 275.715 1074.88 274.699L1060.67 260.487H1077.59Z" fill="#004CBC"/>
<path d="M1055.25 211.93H1060.84C1062.19 211.93 1063.21 212.945 1063.04 214.298L1061.85 235.278C1061.85 236.463 1060.84 237.478 1059.65 237.478H1056.44C1055.25 237.478 1054.24 236.463 1054.24 235.278L1053.05 214.298C1052.89 213.114 1053.9 211.93 1055.25 211.93Z" fill="white"/>
<path d="M1058.13 249.152C1060.56 249.152 1062.53 247.182 1062.53 244.753C1062.53 242.323 1060.56 240.354 1058.13 240.354C1055.7 240.354 1053.73 242.323 1053.73 244.753C1053.73 247.182 1055.7 249.152 1058.13 249.152Z" fill="white"/>
<path d="M558.991 59.4824H375.36V387.179H558.991V59.4824Z" fill="#E1F6F8"/>
<path d="M416.015 53.4793V27.5582H448.212V0H482.592V26.7396H516.425V53.4793H416.015Z" fill="#E1F6F8"/>
<path d="M558.991 49.9321H375.088C371.813 49.9321 369.085 52.6607 369.085 55.9349C369.085 59.2092 371.813 61.9377 375.088 61.9377H558.991C562.265 61.9377 564.994 59.2092 564.994 55.9349C564.721 52.6607 562.265 49.9321 558.991 49.9321Z" fill="#E1F6F8"/>
<path d="M187.91 387.179H377.543V140.247L284.773 34.9253L187.91 140.247V387.179Z" fill="#E1F6F8"/>
<path d="M557.354 387.179H746.987V140.247L654.217 34.9253L557.354 140.247V387.179Z" fill="#E1F6F8"/>
<path d="M166.082 121.42V103.412C166.082 98.773 162.262 94.9531 157.623 94.9531H135.522V76.3991C135.522 71.7605 131.702 67.9406 127.064 67.9406H119.151C111.238 67.9406 104.963 61.665 104.963 53.7522V47.2037C104.963 37.381 97.0499 29.4683 87.2272 29.4683C77.4045 29.4683 69.4917 37.381 69.4917 47.2037V53.7522C69.4917 61.665 63.2161 67.9406 55.3034 67.9406H47.3906C42.7521 67.9406 38.9322 71.7605 38.9322 76.3991V94.9531H16.831C12.1925 94.9531 8.37258 98.773 8.37258 103.412V121.42H-11V387.179H186.273V121.42H166.082Z" fill="#E1F6F8"/>
<path d="M99.233 91.6787H75.7676V131.242H99.233V91.6787Z" fill="white"/>
<path d="M88.8643 90.8604H86.1357V132.607H88.8643V90.8604Z" fill="#E1F6F8"/>
<path d="M105.236 110.233H69.2189V112.962H105.236V110.233Z" fill="#E1F6F8"/>
<path d="M422.837 253.208C427.475 248.024 428.84 240.93 426.657 234.381C425.565 231.107 424.747 227.56 424.747 224.013C424.747 216.919 427.203 210.37 431.295 205.186C434.842 200.547 436.48 194.817 435.115 189.088C434.57 186.632 434.297 183.63 434.842 180.902C436.207 171.898 443.847 164.531 452.851 163.439C465.402 162.075 476.043 171.898 476.043 184.176C476.043 185.813 475.77 187.723 475.498 189.36C474.133 194.817 475.498 200.82 479.045 205.186C483.138 210.37 485.593 216.919 485.593 224.286C485.593 227.833 485.048 231.38 483.683 234.654C481.228 240.93 482.592 248.024 487.23 253.208C494.597 261.394 498.963 272.581 498.417 284.586C497.326 306.414 479.59 324.15 458.035 325.514C432.933 327.151 411.923 307.233 411.923 282.403C411.923 270.944 416.016 260.848 422.837 253.208Z" fill="white"/>
<path d="M451.645 405.693L459.013 405.693L459.013 297.098L451.645 297.098L451.645 405.693Z" fill="white"/>
<path d="M198.713 199.382C199.259 204.839 194.893 206.204 193.529 206.476C192.165 206.749 191.073 206.204 189.982 205.385C186.708 203.475 184.525 194.744 181.251 192.834C176.067 190.105 169.518 189.832 163.515 191.197C161.605 191.469 159.695 192.015 158.058 191.469C156.148 190.924 154.511 189.014 153.965 187.104C153.42 185.194 153.693 183.011 154.238 180.828C154.784 178.645 158.331 175.371 159.15 173.461C161.878 165.821 158.604 158.454 162.697 151.36C165.698 146.176 171.155 142.629 177.158 142.083C183.161 141.537 189.163 143.72 193.529 147.54C195.985 149.723 198.986 154.089 198.713 157.363C198.44 159.546 197.895 162.001 196.803 163.911C194.075 169.641 192.165 175.917 191.619 181.92C191.346 187.65 198.168 193.107 198.713 199.382Z" fill="#79D3E6"/>
<path fill-rule="evenodd" clip-rule="evenodd" d="M182.888 180.283H179.614C170.337 180.283 165.425 173.461 165.425 165.821L165.698 157.09C165.698 150.269 171.701 145.357 179.614 145.357C188.891 145.357 196.531 150.814 196.803 159.819V166.64C196.803 175.371 192.983 180.283 182.888 180.283Z" fill="#FFB512"/>
<path d="M182.342 437.037L137.321 276.6L176.066 272.234L196.53 433.763L193.256 440.312L182.342 437.037Z" fill="#008ECC"/>
<path d="M246.735 406.478C246.735 446.587 279.205 479.057 319.314 479.057C359.424 479.057 391.893 446.587 391.893 406.478C391.893 366.368 359.424 333.899 319.314 333.899C279.478 333.899 246.735 366.368 246.735 406.478ZM255.467 406.478C255.467 371.28 284.116 342.63 319.314 342.63C354.512 342.63 383.162 371.28 383.162 406.478C383.162 441.676 354.512 470.326 319.314 470.326C284.116 470.598 255.467 441.949 255.467 406.478Z" fill="#FFB512"/>
<path d="M32.8186 406.478C32.8186 446.587 65.2881 479.057 105.398 479.057C145.507 479.057 177.977 446.587 177.977 406.478C177.977 366.368 145.507 333.899 105.398 333.899C65.2881 333.899 32.8186 366.368 32.8186 406.478ZM41.5499 406.478C41.5499 371.28 70.1995 342.63 105.398 342.63C140.596 342.63 169.245 371.28 169.245 406.478C169.245 441.676 140.596 470.326 105.398 470.326C70.1995 470.598 41.5499 441.949 41.5499 406.478Z" fill="#FFB512"/>
<path d="M173.611 285.604L150.418 286.968C134.047 286.968 127.226 267.868 133.501 250.133L183.161 261.047C182.888 261.32 182.342 285.604 173.611 285.604Z" fill="#008ECC"/>
<path d="M298.032 309.615H293.121C288.482 309.615 284.935 305.795 284.935 301.429C284.935 296.791 288.755 293.244 293.121 293.244H298.032V309.615Z" fill="#002782"/>
<path d="M290.665 300.611C289.574 299.519 288.209 299.519 287.118 300.611L279.751 308.523C280.569 310.16 281.388 311.252 281.934 312.889L290.665 304.158C291.756 303.066 291.756 301.429 290.665 300.611Z" fill="#002782"/>
<path d="M157.24 299.247L195.985 414.391L285.754 327.35" stroke="#002782" stroke-width="1.6577" stroke-miterlimit="10"/>
<path d="M176.066 286.968H141.687C138.686 286.968 135.957 289.424 135.957 292.698V296.518C135.957 300.611 139.231 303.885 143.324 303.885H146.871C150.418 303.885 153.693 303.067 156.694 301.429L164.061 297.337C165.152 296.791 166.517 296.518 167.608 296.518H174.429C177.431 296.518 179.886 294.062 179.886 291.061C179.886 288.605 178.249 286.968 176.066 286.968Z" fill="black"/>
<path d="M198.168 435.4L105.67 420.939C98.5761 420.12 93.3919 414.118 93.3919 407.296C93.3919 399.656 99.6675 393.381 107.307 393.381H200.623C212.356 393.381 221.906 402.931 221.906 414.663C221.906 426.942 210.719 436.765 198.168 435.4Z" fill="#002782"/>
<path d="M183.161 374.008H201.988C210.992 374.008 219.996 370.734 226.545 364.458L278.932 311.252" stroke="#002782" stroke-width="1.6577" stroke-miterlimit="10"/>
<path d="M328.319 406.478L302.125 374.554L265.29 272.234H272.93" stroke="#002782" stroke-width="1.6577" stroke-miterlimit="10" stroke-linecap="round" stroke-linejoin="round"/>
<path d="M160.787 308.25L105.943 404.022" stroke="#002782" stroke-width="1.6577" stroke-miterlimit="10"/>
<path d="M145.78 334.445L135.139 324.076H64.7424" stroke="#002782" stroke-width="1.6577" stroke-miterlimit="10" stroke-linecap="round" stroke-linejoin="round"/>
<path d="M203.352 414.664L213.72 386.833" stroke="#007BC6" stroke-width="0.8902" stroke-miterlimit="10" stroke-linecap="round"/>
<path d="M221.906 390.652H205.808C204.171 390.652 202.533 389.288 202.533 387.378C202.533 385.741 203.898 384.104 205.808 384.104H221.906C223.543 384.104 225.18 385.468 225.18 387.378C224.907 389.015 223.543 390.652 221.906 390.652Z" fill="#008ECC"/>
<path d="M182.888 261.32L147.417 286.968L215.903 305.795L199.259 375.918L215.085 376.737L243.189 310.161C248.646 295.972 246.19 284.512 231.729 278.782L182.888 261.32Z" fill="#008ECC"/>
<path d="M145.234 252.043C145.234 252.043 134.32 274.144 163.515 281.238L228.182 298.428L207.172 369.916" stroke="#0069D0" stroke-width="0.7055" stroke-miterlimit="10"/>
<path d="M200.624 369.916H217.813" stroke="#0069D0" stroke-width="0.7055" stroke-miterlimit="10"/>
<path fill-rule="evenodd" clip-rule="evenodd" d="M212.356 375.918C213.993 375.918 215.631 374.009 216.176 372.371C216.449 371.28 218.086 370.734 219.178 371.28L224.908 375.1L230.91 378.101C233.639 379.193 235.003 381.921 235.276 384.923C235.276 385.741 234.73 386.56 233.912 386.56H203.352C201.442 386.56 199.805 384.923 199.532 383.013L199.259 376.191L212.356 375.918Z" fill="black"/>
<path d="M139.777 245.494L123.133 242.22C115.766 240.31 111.128 232.943 113.038 225.576L120.405 195.562C122.315 188.195 129.682 183.557 137.049 185.467L151.783 189.014C156.694 190.105 159.423 195.562 157.24 200.201L139.777 245.494Z" fill="#FF7254"/>
<path fill-rule="evenodd" clip-rule="evenodd" d="M133.501 250.133L182.615 261.047L183.979 235.944C184.252 237.036 197.622 225.849 195.985 218.482C191.073 195.835 183.161 187.377 173.065 186.012C158.058 183.829 154.511 196.654 144.143 231.579L133.501 250.133Z" fill="#004CBB"/>
<path d="M184.525 237.036C181.524 234.307 181.797 232.943 180.978 232.397C178.795 230.76 156.148 211.388 156.148 211.388C156.148 211.388 165.698 238.127 175.248 259.41L182.888 261.593L184.525 237.036Z" fill="black"/>
<path d="M245.917 406.478C245.917 365.823 278.933 332.808 319.588 332.808" stroke="#002782" stroke-width="1.7804" stroke-miterlimit="10" stroke-linecap="round"/>
<path d="M32 406.478C32 365.823 65.0153 332.808 105.67 332.808C146.326 332.808 179.341 365.823 179.341 406.478" stroke="#002782" stroke-width="1.6577" stroke-miterlimit="10" stroke-linecap="round"/>
<path fill-rule="evenodd" clip-rule="evenodd" d="M253.284 258.591L256.558 257.227C259.014 256.135 261.742 256.408 263.925 257.772L271.838 264.867C272.929 265.685 273.202 267.049 273.202 268.414C272.929 270.869 270.474 272.506 268.018 271.688L250.828 268.687L253.284 258.591Z" fill="#FFB512"/>
<path d="M186.708 214.934H183.161V208.659C183.161 200.746 176.612 194.198 168.7 194.198H160.514C155.057 194.198 150.146 197.199 147.417 201.837L147.144 202.383L143.597 203.747L142.233 200.473L144.688 199.655C148.236 194.198 154.238 190.923 160.514 190.923H168.7C178.522 190.923 186.708 199.109 186.708 208.932V214.934Z" fill="#FF7254"/>
<path d="M188.072 216.845L180.705 202.111C177.158 195.562 169.245 192.834 162.424 196.108C155.056 199.655 152.328 209.205 156.966 216.026L166.789 230.488L188.072 216.845Z" fill="#004CBB"/>
<path d="M203.079 241.947L187.799 216.026L167.062 230.487L181.796 250.951C185.889 256.681 191.892 260.501 198.713 261.865L252.192 269.232L256.285 257.227L203.079 241.947Z" fill="#FFB512"/>
<path fill-rule="evenodd" clip-rule="evenodd" d="M187.254 168.55L194.621 168.277C194.621 168.277 193.256 171.278 190.255 171.278C188.072 171.278 187.254 168.55 187.254 168.55Z" fill="white"/>
<path d="M168.426 167.186C168.426 167.186 174.702 150.815 183.433 145.63C183.433 145.63 186.98 144.812 191.619 148.905C191.619 148.905 193.256 150.269 194.893 152.452C195.985 154.089 197.076 156.817 197.076 159.273C197.076 159.273 196.257 153.543 191.346 152.724C184.252 151.36 175.793 159.546 168.426 167.186Z" fill="#008ECC"/>
<path d="M182.888 180.282C183.434 180.282 173.065 174.279 176.612 157.363C178.522 148.358 185.616 145.357 185.616 145.357C185.616 145.357 166.789 140.173 164.334 157.09C161.878 171.824 165.971 182.465 182.888 180.282Z" fill="#79D3E6"/>
</svg>
