<svg width="43" height="39" viewBox="0 0 43 39" fill="none" xmlns="http://www.w3.org/2000/svg">
<path d="M43 5.15328V32.981C43 33.9395 42.2321 34.7743 41.28 34.7743L35.5671 35.1969C33.1407 35.1969 28.8919 35.2793 26.916 35.9183C23.2405 37.083 22.8105 39 21.5 39C20.1895 39 19.7493 37.083 16.0738 35.9183C14.0979 35.2896 9.85929 35.1969 7.42262 35.1969L1.70976 34.7743C0.767857 34.7743 0 33.9395 0 32.981V5.15328C0 4.19477 0.337857 3.09197 2.04762 3.09197H4.09524V28.8584C4.09524 30.5795 5.00643 30.7135 7.43286 30.7135C9.85929 30.7135 14.0979 31.0743 16.084 31.703C19.7595 32.8779 20.1895 34.5166 21.5102 34.5166C22.8207 34.5166 23.261 32.8676 26.9262 31.703C28.9021 31.0743 33.151 30.7135 35.5774 30.7135C38.0038 30.7135 38.915 30.5795 38.915 28.8584C38.915 27.1372 38.915 3.09197 38.915 3.09197H40.9626C42.4574 3.09197 43 4.19477 43 5.15328ZM15.3776 28.2709C16.1967 28.4461 16.9543 28.6934 17.6198 28.9511C19.9131 30.0127 20.4045 31.167 21.5 31.167C22.5955 31.167 23.0869 30.0127 25.3802 28.9511C26.0457 28.6934 26.8136 28.4461 27.6224 28.2709C30.2433 27.704 35.8333 27.8277 35.8333 27.8277V0H29.6905C24.8069 0 23.691 1.5666 23.5374 3.20534L22.0631 19.2423C21.9607 19.8813 21.4488 19.768 21.4488 19.768L19.8414 3.82373C19.6571 1.96855 18.6026 0 13.3095 0H7.16667V27.8277C7.16667 27.8277 12.7464 27.704 15.3776 28.2709Z" fill="#154273"/>
</svg>

