<svg class="plot-9e1b856ca2f26" fill="currentColor" font-family="system-ui, sans-serif" font-size="10" text-anchor="middle" width="640" height="400" viewBox="0 0 640 400"  xmlns="http://www.w3.org/2000/svg">

<style>
        line[stroke-opacity] {
            stroke-opacity: 1;
            stroke: #949494;
        }
</style>

<!-- replace the below code -->
<style>
        .plot-7f5d0ce998717 {
          display: block;
          background: white;
          height: auto;
          height: intrinsic;
          max-width: 100%;
        }
        .plot-7f5d0ce998717 text,
        .plot-7f5d0ce998717 tspan {
          white-space: pre;
        }
      </style><g aria-label="y-axis" aria-description="↑ Aantal waarschuwingen via CoronaMelder" transform="translate(40,0)" fill="none" text-anchor="end" font-variant="tabular-nums"><g class="tick" opacity="1" transform="translate(0,320)"><line stroke="currentColor" x2="-6"></line><line stroke="currentColor" x2="580" stroke-opacity="0.1"></line><text fill="currentColor" x="-9" dy="0.32em">0K</text></g><g class="tick" opacity="1" transform="translate(0,286.6666666666667)"><line stroke="currentColor" x2="-6"></line><line stroke="currentColor" x2="580" stroke-opacity="0.1"></line><text fill="currentColor" x="-9" dy="0.32em">50K</text></g><g class="tick" opacity="1" transform="translate(0,253.33333333333334)"><line stroke="currentColor" x2="-6"></line><line stroke="currentColor" x2="580" stroke-opacity="0.1"></line><text fill="currentColor" x="-9" dy="0.32em">100K</text></g><g class="tick" opacity="1" transform="translate(0,220.00000000000003)"><line stroke="currentColor" x2="-6"></line><line stroke="currentColor" x2="580" stroke-opacity="0.1"></line><text fill="currentColor" x="-9" dy="0.32em">150K</text></g><g class="tick" opacity="1" transform="translate(0,186.66666666666666)"><line stroke="currentColor" x2="-6"></line><line stroke="currentColor" x2="580" stroke-opacity="0.1"></line><text fill="currentColor" x="-9" dy="0.32em">200K</text></g><g class="tick" opacity="1" transform="translate(0,153.33333333333334)"><line stroke="currentColor" x2="-6"></line><line stroke="currentColor" x2="580" stroke-opacity="0.1"></line><text fill="currentColor" x="-9" dy="0.32em">250K</text></g><g class="tick" opacity="1" transform="translate(0,120.00000000000001)"><line stroke="currentColor" x2="-6"></line><line stroke="currentColor" x2="580" stroke-opacity="0.1"></line><text fill="currentColor" x="-9" dy="0.32em">300K</text></g><g class="tick" opacity="1" transform="translate(0,86.66666666666667)"><line stroke="currentColor" x2="-6"></line><line stroke="currentColor" x2="580" stroke-opacity="0.1"></line><text fill="currentColor" x="-9" dy="0.32em">350K</text></g><g class="tick" opacity="1" transform="translate(0,53.33333333333335)"><line stroke="currentColor" x2="-6"></line><line stroke="currentColor" x2="580" stroke-opacity="0.1"></line><text fill="currentColor" x="-9" dy="0.32em">400K</text></g><g class="tick" opacity="1" transform="translate(0,20)"><line stroke="currentColor" x2="-6"></line><line stroke="currentColor" x2="580" stroke-opacity="0.1"></line><text fill="currentColor" x="-9" dy="0.32em">450K</text></g><text fill="currentColor" transform="translate(20,20)" dy="-1em" text-anchor="start">↑ Aantal waarschuwingen via CoronaMelder</text></g><g aria-label="x-axis" aria-description="Maand →" transform="translate(0,320)" fill="none" text-anchor="middle"><g class="tick" opacity="1" transform="translate(59,0)"><line stroke="currentColor" y2="6"></line><text fill="currentColor" dy="0.32em" transform="translate(0, 11.82842712474619) rotate(-45)" text-anchor="end">okt. 2020</text></g><g class="tick" opacity="1" transform="translate(91,0)"><line stroke="currentColor" y2="6"></line><text fill="currentColor" dy="0.32em" transform="translate(0, 11.82842712474619) rotate(-45)" text-anchor="end">nov. 2020</text></g><g class="tick" opacity="1" transform="translate(123,0)"><line stroke="currentColor" y2="6"></line><text fill="currentColor" dy="0.32em" transform="translate(0, 11.82842712474619) rotate(-45)" text-anchor="end">dec. 2020</text></g><g class="tick" opacity="1" transform="translate(155,0)"><line stroke="currentColor" y2="6"></line><text fill="currentColor" dy="0.32em" transform="translate(0, 11.82842712474619) rotate(-45)" text-anchor="end">jan. 2021</text></g><g class="tick" opacity="1" transform="translate(187,0)"><line stroke="currentColor" y2="6"></line><text fill="currentColor" dy="0.32em" transform="translate(0, 11.82842712474619) rotate(-45)" text-anchor="end">feb. 2021</text></g><g class="tick" opacity="1" transform="translate(219,0)"><line stroke="currentColor" y2="6"></line><text fill="currentColor" dy="0.32em" transform="translate(0, 11.82842712474619) rotate(-45)" text-anchor="end">mrt. 2021</text></g><g class="tick" opacity="1" transform="translate(251,0)"><line stroke="currentColor" y2="6"></line><text fill="currentColor" dy="0.32em" transform="translate(0, 11.82842712474619) rotate(-45)" text-anchor="end">apr. 2021</text></g><g class="tick" opacity="1" transform="translate(283,0)"><line stroke="currentColor" y2="6"></line><text fill="currentColor" dy="0.32em" transform="translate(0, 11.82842712474619) rotate(-45)" text-anchor="end">mei 2021</text></g><g class="tick" opacity="1" transform="translate(315,0)"><line stroke="currentColor" y2="6"></line><text fill="currentColor" dy="0.32em" transform="translate(0, 11.82842712474619) rotate(-45)" text-anchor="end">jun. 2021</text></g><g class="tick" opacity="1" transform="translate(347,0)"><line stroke="currentColor" y2="6"></line><text fill="currentColor" dy="0.32em" transform="translate(0, 11.82842712474619) rotate(-45)" text-anchor="end">jul. 2021</text></g><g class="tick" opacity="1" transform="translate(379,0)"><line stroke="currentColor" y2="6"></line><text fill="currentColor" dy="0.32em" transform="translate(0, 11.82842712474619) rotate(-45)" text-anchor="end">aug. 2021</text></g><g class="tick" opacity="1" transform="translate(411,0)"><line stroke="currentColor" y2="6"></line><text fill="currentColor" dy="0.32em" transform="translate(0, 11.82842712474619) rotate(-45)" text-anchor="end">sep. 2021</text></g><g class="tick" opacity="1" transform="translate(443,0)"><line stroke="currentColor" y2="6"></line><text fill="currentColor" dy="0.32em" transform="translate(0, 11.82842712474619) rotate(-45)" text-anchor="end">okt. 2021</text></g><g class="tick" opacity="1" transform="translate(475,0)"><line stroke="currentColor" y2="6"></line><text fill="currentColor" dy="0.32em" transform="translate(0, 11.82842712474619) rotate(-45)" text-anchor="end">nov. 2021</text></g><g class="tick" opacity="1" transform="translate(507,0)"><line stroke="currentColor" y2="6"></line><text fill="currentColor" dy="0.32em" transform="translate(0, 11.82842712474619) rotate(-45)" text-anchor="end">dec. 2021</text></g><g class="tick" opacity="1" transform="translate(539,0)"><line stroke="currentColor" y2="6"></line><text fill="currentColor" dy="0.32em" transform="translate(0, 11.82842712474619) rotate(-45)" text-anchor="end">jan. 2022</text></g><g class="tick" opacity="1" transform="translate(571,0)"><line stroke="currentColor" y2="6"></line><text fill="currentColor" dy="0.32em" transform="translate(0, 11.82842712474619) rotate(-45)" text-anchor="end">feb. 2022</text></g><g class="tick" opacity="1" transform="translate(603,0)"><line stroke="currentColor" y2="6"></line><text fill="currentColor" dy="0.32em" transform="translate(0, 11.82842712474619) rotate(-45)" text-anchor="end">mrt. 2022 *</text></g><text fill="currentColor" transform="translate(330,80)" dy="-0.32em" text-anchor="middle">Maand →</text></g><g aria-label="bar" fill="#ec025f"><rect x="44" width="29" y="304.8353333333333" height="15.164666666666676"><title>22.747</title></rect><rect x="76" width="29" y="289.46999999999997" height="30.53000000000003"><title>45.795</title></rect><rect x="108" width="29" y="263.9066666666667" height="56.093333333333305"><title>84.140</title></rect><rect x="140" width="29" y="249.03133333333335" height="70.96866666666665"><title>106.453</title></rect><rect x="172" width="29" y="241.12133333333335" height="78.87866666666665"><title>118.318</title></rect><rect x="204" width="29" y="227.92800000000003" height="92.07199999999997"><title>138.108</title></rect><rect x="236" width="29" y="213.32066666666668" height="106.67933333333332"><title>160.019</title></rect><rect x="268" width="29" y="202.652" height="117.34800000000001"><title>176.022</title></rect><rect x="300" width="29" y="200.84933333333333" height="119.15066666666667"><title>178.726</title></rect><rect x="332" width="29" y="190.26933333333332" height="129.73066666666668"><title>194.596</title></rect><rect x="364" width="29" y="187.97066666666666" height="132.02933333333334"><title>198.044</title></rect><rect x="396" width="29" y="186.36666666666667" height="133.63333333333333"><title>200.450</title></rect><rect x="428" width="29" y="181.06133333333332" height="138.93866666666668"><title>208.408</title></rect><rect x="460" width="29" y="162.82333333333335" height="157.17666666666665"><title>235.765</title></rect><rect x="492" width="29" y="148.26533333333336" height="171.73466666666664"><title>257.602</title></rect><rect x="524" width="29" y="116.54533333333333" height="203.45466666666667"><title>305.182</title></rect><rect x="556" width="29" y="78.45266666666664" height="241.54733333333337"><title>362.321</title></rect><rect x="588" width="29" y="42.997333333333316" height="277.0026666666667"><title>415.504</title></rect></g><g aria-label="rule" stroke="currentColor"><line x1="40" x2="620" y1="320" y2="320"></line></g>
      
    </svg>
