<svg class="plot-9e1b856ca2f26" fill="currentColor" font-family="system-ui, sans-serif" font-size="10" text-anchor="middle" width="640" height="400" viewBox="0 0 640 400"  xmlns="http://www.w3.org/2000/svg">
 <style>
        .plot-0661a1d7d5407 {
          display: block;
          background: white;
          height: auto;
          height: intrinsic;
          max-width: 100%;
        }
        .plot-0661a1d7d5407 text,
        .plot-0661a1d7d5407 tspan {
          white-space: pre;
        }
        rect:last-of-type,
        g[text-anchor="middle"] .tick:last-of-type {
            opacity: 1;
        }

      </style><g transform="translate(40,0)" fill="none" text-anchor="end" font-variant="tabular-nums"><g class="tick" opacity="1" transform="translate(0,320)"><line stroke="currentColor" x2="-6"></line><line stroke="currentColor" x2="580" stroke-opacity="0.1"></line><text fill="currentColor" x="-9" dy="0.32em">0k</text></g><g class="tick" opacity="1" transform="translate(0,273.5277114256769)"><line stroke="currentColor" x2="-6"></line><line stroke="currentColor" x2="580" stroke-opacity="0.1"></line><text fill="currentColor" x="-9" dy="0.32em">50k</text></g><g class="tick" opacity="1" transform="translate(0,227.05542285135374)"><line stroke="currentColor" x2="-6"></line><line stroke="currentColor" x2="580" stroke-opacity="0.1"></line><text fill="currentColor" x="-9" dy="0.32em">100k</text></g><g class="tick" opacity="1" transform="translate(0,180.5831342770306)"><line stroke="currentColor" x2="-6"></line><line stroke="currentColor" x2="580" stroke-opacity="0.1"></line><text fill="currentColor" x="-9" dy="0.32em">150k</text></g><g class="tick" opacity="1" transform="translate(0,134.11084570270748)"><line stroke="currentColor" x2="-6"></line><line stroke="currentColor" x2="580" stroke-opacity="0.1"></line><text fill="currentColor" x="-9" dy="0.32em">200k</text></g><g class="tick" opacity="1" transform="translate(0,87.63855712838436)"><line stroke="currentColor" x2="-6"></line><line stroke="currentColor" x2="580" stroke-opacity="0.1"></line><text fill="currentColor" x="-9" dy="0.32em">250k</text></g><g class="tick" opacity="1" transform="translate(0,41.16626855406123)"><line stroke="currentColor" x2="-6"></line><line stroke="currentColor" x2="580" stroke-opacity="0.1"></line><text fill="currentColor" x="-9" dy="0.32em">300k</text></g><text fill="currentColor" transform="translate(-40,20)" dy="-1em" text-anchor="start">↑ Benaderd voor BCO (duizend)</text></g><g transform="translate(0,320)" fill="none" text-anchor="middle" font-variant="tabular-nums"><g class="tick" opacity="1" transform="translate(40,0)"><line stroke="currentColor" y2="6"></line><text fill="currentColor" dy="0.32em" transform="translate(0, 11.82842712474619) rotate(-45)" text-anchor="end">aug. 2020</text></g><g class="tick" opacity="1" transform="translate(71.16117850953206,0)"><line stroke="currentColor" y2="6"></line><text fill="currentColor" dy="0.32em" transform="translate(0, 11.82842712474619) rotate(-45)" text-anchor="end">sep. 2020</text></g><g class="tick" opacity="1" transform="translate(101.31715771230502,0)"><line stroke="currentColor" y2="6"></line><text fill="currentColor" dy="0.32em" transform="translate(0, 11.82842712474619) rotate(-45)" text-anchor="end">okt. 2020</text></g><g class="tick" opacity="1" transform="translate(132.47833622183708,0)"><line stroke="currentColor" y2="6"></line><text fill="currentColor" dy="0.32em" transform="translate(0, 11.82842712474619) rotate(-45)" text-anchor="end">nov. 2020</text></g><g class="tick" opacity="1" transform="translate(162.63431542461004,0)"><line stroke="currentColor" y2="6"></line><text fill="currentColor" dy="0.32em" transform="translate(0, 11.82842712474619) rotate(-45)" text-anchor="end">dec. 2020</text></g><g class="tick" opacity="1" transform="translate(193.79549393414212,0)"><line stroke="currentColor" y2="6"></line><text fill="currentColor" dy="0.32em" transform="translate(0, 11.82842712474619) rotate(-45)" text-anchor="end">jan. 2021</text></g><g class="tick" opacity="1" transform="translate(224.95667244367417,0)"><line stroke="currentColor" y2="6"></line><text fill="currentColor" dy="0.32em" transform="translate(0, 11.82842712474619) rotate(-45)" text-anchor="end">feb. 2021</text></g><g class="tick" opacity="1" transform="translate(253.10225303292896,0)"><line stroke="currentColor" y2="6"></line><text fill="currentColor" dy="0.32em" transform="translate(0, 11.82842712474619) rotate(-45)" text-anchor="end">mrt. 2021</text></g><g class="tick" opacity="1" transform="translate(284.263431542461,0)"><line stroke="currentColor" y2="6"></line><text fill="currentColor" dy="0.32em" transform="translate(0, 11.82842712474619) rotate(-45)" text-anchor="end">apr. 2021</text></g><g class="tick" opacity="1" transform="translate(314.41941074523396,0)"><line stroke="currentColor" y2="6"></line><text fill="currentColor" dy="0.32em" transform="translate(0, 11.82842712474619) rotate(-45)" text-anchor="end">mei 2021</text></g><g class="tick" opacity="1" transform="translate(345.58058925476604,0)"><line stroke="currentColor" y2="6"></line><text fill="currentColor" dy="0.32em" transform="translate(0, 11.82842712474619) rotate(-45)" text-anchor="end">jun. 2021</text></g><g class="tick" opacity="1" transform="translate(375.736568457539,0)"><line stroke="currentColor" y2="6"></line><text fill="currentColor" dy="0.32em" transform="translate(0, 11.82842712474619) rotate(-45)" text-anchor="end">jul. 2021</text></g><g class="tick" opacity="1" transform="translate(406.89774696707104,0)"><line stroke="currentColor" y2="6"></line><text fill="currentColor" dy="0.32em" transform="translate(0, 11.82842712474619) rotate(-45)" text-anchor="end">aug. 2021</text></g><g class="tick" opacity="1" transform="translate(438.0589254766031,0)"><line stroke="currentColor" y2="6"></line><text fill="currentColor" dy="0.32em" transform="translate(0, 11.82842712474619) rotate(-45)" text-anchor="end">sep. 2021</text></g><g class="tick" opacity="1" transform="translate(468.21490467937605,0)"><line stroke="currentColor" y2="6"></line><text fill="currentColor" dy="0.32em" transform="translate(0, 11.82842712474619) rotate(-45)" text-anchor="end">okt. 2021</text></g><g class="tick" opacity="1" transform="translate(499.3760831889081,0)"><line stroke="currentColor" y2="6"></line><text fill="currentColor" dy="0.32em" transform="translate(0, 11.82842712474619) rotate(-45)" text-anchor="end">nov. 2021</text></g><g class="tick" opacity="1" transform="translate(529.532062391681,0)"><line stroke="currentColor" y2="6"></line><text fill="currentColor" dy="0.32em" transform="translate(0, 11.82842712474619) rotate(-45)" text-anchor="end">dec. 2021</text></g><g class="tick" opacity="1" transform="translate(560.6932409012131,0)"><line stroke="currentColor" y2="6"></line><text fill="currentColor" dy="0.32em" transform="translate(0, 11.82842712474619) rotate(-45)" text-anchor="end">jan. 2022</text></g><g class="tick" opacity="1" transform="translate(591.8544194107452,0)"><line stroke="currentColor" y2="6"></line><text fill="currentColor" dy="0.32em" transform="translate(0, 11.82842712474619) rotate(-45)" text-anchor="end">feb. 2022 *</text></g><g class="tick" opacity="1" transform="translate(620,0)"><line stroke="currentColor" y2="6"></line><text fill="currentColor" dy="0.32em" transform="translate(0, 11.82842712474619) rotate(-45)" text-anchor="end">mrt. 2022 *</text></g><text fill="currentColor" transform="translate(640,80)" dy="-0.32em" text-anchor="end">Maand →</text></g><g fill="#157CCA" stroke="white" stroke-width="3"><rect x="40.5" y="319.97490496416987" width="30.161178509532064" height="0.02509503583013384"><title>0.027</title></rect><rect x="71.66117850953206" y="319.61242111329017" width="29.155979202772954" height="0.3875788867098322"><title>0.417</title></rect><rect x="101.81715771230502" y="298.85789703599744" width="30.161178509532064" height="21.14210296400256"><title>22.747</title></rect><rect x="132.97833622183708" y="277.43603089477745" width="29.155979202772954" height="42.563969105222554"><title>45.795</title></rect><rect x="163.13431542461004" y="241.79643278712908" width="30.16117850953208" height="78.20356721287092"><title>84.140</title></rect><rect x="194.29549393414212" y="221.05770928795158" width="30.16117850953205" height="98.94229071204842"><title>106.453</title></rect><rect x="225.45667244367417" y="210.02983520926472" width="27.14558058925479" height="109.97016479073528"><title>118.318</title></rect><rect x="253.60225303292896" y="191.63610339154764" width="30.16117850953202" height="128.36389660845236"><title>138.108</title></rect><rect x="284.763431542461" y="171.27101709250775" width="29.155979202772983" height="148.72898290749225"><title>160.019</title></rect><rect x="314.91941074523396" y="156.3970964114099" width="30.16117850953208" height="163.6029035885901"><title>176.022</title></rect><rect x="346.08058925476604" y="150.16609195936465" width="29.155979202772983" height="169.83390804063535"><title>182.726</title></rect><rect x="376.236568457539" y="139.13357065182032" width="30.16117850953202" height="180.86642934817968"><title>194.596</title></rect><rect x="407.39774696707104" y="135.92884163173503" width="30.16117850953208" height="184.07115836826497"><title>198.044</title></rect><rect x="438.5589254766031" y="133.6925951055386" width="29.155979202772926" height="186.3074048944614"><title>200.450</title></rect><rect x="468.71490467937605" y="126.29606565604932" width="30.16117850953208" height="193.70393434395066"><title>208.408</title></rect><rect x="499.8760831889081" y="100.86921768549418" width="29.155979202772926" height="219.13078231450584"><title>235.765</title></rect><rect x="530.032062391681" y="80.57291037354429" width="30.16117850953208" height="239.4270896264557"><title>257.602</title></rect><rect x="561.1932409012131" y="36.34988056621837" width="30.16117850953208" height="283.65011943378164"><title>305.182</title></rect><rect x="592.3544194107452" y="20" width="27.14558058925479" height="300"><title>322.773</title></rect></g><g fill="#ec025f" stroke="white" stroke-width="3"><rect x="40.5" y="319.9860583134277" width="30.161178509532064" height="0.013941686572309209"><title>NaN</title></rect><rect x="71.66117850953206" y="319.7862274725581" width="29.155979202772954" height="0.213772527441904"><title>NaN</title></rect><rect x="101.81715771230502" y="310.34677621734164" width="30.161178509532064" height="9.653223782658358"><title>NaN</title></rect><rect x="132.97833622183708" y="300.88222992629494" width="29.155979202772954" height="19.11777007370506"><title>NaN</title></rect><rect x="163.13431542461004" y="300.3292096922605" width="30.16117850953208" height="19.67079030773948"><title>NaN</title></rect><rect x="194.29549393414212" y="301.04860071939106" width="30.16117850953205" height="18.95139928060894"><title>NaN</title></rect><rect x="225.45667244367417" y="300.9296316606408" width="27.14558058925479" height="19.07036833935922"><title>NaN</title></rect><rect x="253.60225303292896" y="300.69727021776913" width="30.16117850953202" height="19.30272978223087"><title>NaN</title></rect><rect x="284.763431542461" y="263.51943935831065" width="29.155979202772983" height="56.48056064168935"><title>NaN</title></rect><rect x="314.91941074523396" y="301.2512198975751" width="30.16117850953208" height="18.748780102424917"><title>NaN</title></rect><rect x="346.08058925476604" y="301.08670799602197" width="29.155979202772983" height="18.91329200397803"><title>NaN</title></rect><rect x="376.236568457539" y="308.6960805271816" width="30.16117850953202" height="11.303919472818393"><title>NaN</title></rect><rect x="407.39774696707104" y="301.31070442695017" width="30.16117850953208" height="18.689295573049833"><title>NaN</title></rect><rect x="438.5589254766031" y="298.56233328066475" width="29.155979202772926" height="21.437666719335255"><title>NaN</title></rect><rect x="468.71490467937605" y="159.62134379269642" width="30.16117850953208" height="160.37865620730358"><title>NaN</title></rect><rect x="499.8760831889081" y="205.8454703460327" width="29.155979202772926" height="114.1545296539673"><title>NaN</title></rect><rect x="530.032062391681" y="177.03729865880976" width="30.16117850953208" height="142.96270134119024"><title>NaN</title></rect><rect x="561.1932409012131" y="224.75411512115326" width="30.16117850953208" height="95.24588487884674"><title>NaN</title></rect><rect x="592.3544194107452" y="132.10881951092566" width="27.14558058925479" height="187.89118048907434"><title>NaN</title></rect></g><g stroke="currentColor"><line x1="40" x2="620" y1="320" y2="320"></line></g>
</svg>
