<svg class="plot-9e1b856ca2f26" fill="currentColor" font-family="system-ui, sans-serif" font-size="10" text-anchor="middle" width="640" height="400" viewBox="0 0 640 400" xmlns="http://www.w3.org/2000/svg">
   
<style>
        line[stroke-opacity] {
            stroke-opacity: 1;
            stroke: #949494;
        }
</style>

<!-- replace the below code -->
<style>
        .plot-e844a83769bd8 {
          display: block;
          background: white;
          height: auto;
          height: intrinsic;
          max-width: 100%;
        }
        .plot-e844a83769bd8 text,
        .plot-e844a83769bd8 tspan {
          white-space: pre;
        }
      </style><g aria-label="y-axis" aria-description="↑ Aantal testaanvragen" transform="translate(40,0)" fill="none" text-anchor="end" font-variant="tabular-nums"><g class="tick" opacity="1" transform="translate(0,320)"><line stroke="currentColor" x2="-6"></line><line stroke="currentColor" x2="580" stroke-opacity="0.1"></line><text fill="currentColor" x="-9" dy="0.32em">0K</text></g><g class="tick" opacity="1" transform="translate(0,295)"><line stroke="currentColor" x2="-6"></line><line stroke="currentColor" x2="580" stroke-opacity="0.1"></line><text fill="currentColor" x="-9" dy="0.32em">1K</text></g><g class="tick" opacity="1" transform="translate(0,270)"><line stroke="currentColor" x2="-6"></line><line stroke="currentColor" x2="580" stroke-opacity="0.1"></line><text fill="currentColor" x="-9" dy="0.32em">2K</text></g><g class="tick" opacity="1" transform="translate(0,245)"><line stroke="currentColor" x2="-6"></line><line stroke="currentColor" x2="580" stroke-opacity="0.1"></line><text fill="currentColor" x="-9" dy="0.32em">3K</text></g><g class="tick" opacity="1" transform="translate(0,220.00000000000003)"><line stroke="currentColor" x2="-6"></line><line stroke="currentColor" x2="580" stroke-opacity="0.1"></line><text fill="currentColor" x="-9" dy="0.32em">4K</text></g><g class="tick" opacity="1" transform="translate(0,194.99999999999997)"><line stroke="currentColor" x2="-6"></line><line stroke="currentColor" x2="580" stroke-opacity="0.1"></line><text fill="currentColor" x="-9" dy="0.32em">5K</text></g><g class="tick" opacity="1" transform="translate(0,170)"><line stroke="currentColor" x2="-6"></line><line stroke="currentColor" x2="580" stroke-opacity="0.1"></line><text fill="currentColor" x="-9" dy="0.32em">6K</text></g><g class="tick" opacity="1" transform="translate(0,144.99999999999997)"><line stroke="currentColor" x2="-6"></line><line stroke="currentColor" x2="580" stroke-opacity="0.1"></line><text fill="currentColor" x="-9" dy="0.32em">7K</text></g><g class="tick" opacity="1" transform="translate(0,120.00000000000001)"><line stroke="currentColor" x2="-6"></line><line stroke="currentColor" x2="580" stroke-opacity="0.1"></line><text fill="currentColor" x="-9" dy="0.32em">8K</text></g><g class="tick" opacity="1" transform="translate(0,95)"><line stroke="currentColor" x2="-6"></line><line stroke="currentColor" x2="580" stroke-opacity="0.1"></line><text fill="currentColor" x="-9" dy="0.32em">9K</text></g><g class="tick" opacity="1" transform="translate(0,69.99999999999999)"><line stroke="currentColor" x2="-6"></line><line stroke="currentColor" x2="580" stroke-opacity="0.1"></line><text fill="currentColor" x="-9" dy="0.32em">10K</text></g><g class="tick" opacity="1" transform="translate(0,45.000000000000014)"><line stroke="currentColor" x2="-6"></line><line stroke="currentColor" x2="580" stroke-opacity="0.1"></line><text fill="currentColor" x="-9" dy="0.32em">11K</text></g><g class="tick" opacity="1" transform="translate(0,20)"><line stroke="currentColor" x2="-6"></line><line stroke="currentColor" x2="580" stroke-opacity="0.1"></line><text fill="currentColor" x="-9" dy="0.32em">12K</text></g><text fill="currentColor" transform="translate(20,20)" dy="-1em" text-anchor="start">↑ Aantal testaanvragen</text></g><g aria-label="x-axis" aria-description="Maand →" transform="translate(0,320)" fill="none" text-anchor="middle"><g class="tick" opacity="1" transform="translate(60,0)"><line stroke="currentColor" y2="6"></line><text fill="currentColor" dy="0.32em" transform="translate(0, 11.82842712474619) rotate(-45)" text-anchor="end">dec. 2020</text></g><g class="tick" opacity="1" transform="translate(96,0)"><line stroke="currentColor" y2="6"></line><text fill="currentColor" dy="0.32em" transform="translate(0, 11.82842712474619) rotate(-45)" text-anchor="end">jan. 2021</text></g><g class="tick" opacity="1" transform="translate(132,0)"><line stroke="currentColor" y2="6"></line><text fill="currentColor" dy="0.32em" transform="translate(0, 11.82842712474619) rotate(-45)" text-anchor="end">feb. 2021</text></g><g class="tick" opacity="1" transform="translate(168,0)"><line stroke="currentColor" y2="6"></line><text fill="currentColor" dy="0.32em" transform="translate(0, 11.82842712474619) rotate(-45)" text-anchor="end">mrt. 2021</text></g><g class="tick" opacity="1" transform="translate(204,0)"><line stroke="currentColor" y2="6"></line><text fill="currentColor" dy="0.32em" transform="translate(0, 11.82842712474619) rotate(-45)" text-anchor="end">apr. 2021</text></g><g class="tick" opacity="1" transform="translate(240,0)"><line stroke="currentColor" y2="6"></line><text fill="currentColor" dy="0.32em" transform="translate(0, 11.82842712474619) rotate(-45)" text-anchor="end">mei 2021</text></g><g class="tick" opacity="1" transform="translate(276,0)"><line stroke="currentColor" y2="6"></line><text fill="currentColor" dy="0.32em" transform="translate(0, 11.82842712474619) rotate(-45)" text-anchor="end">jun. 2021</text></g><g class="tick" opacity="1" transform="translate(312,0)"><line stroke="currentColor" y2="6"></line><text fill="currentColor" dy="0.32em" transform="translate(0, 11.82842712474619) rotate(-45)" text-anchor="end">jul. 2021</text></g><g class="tick" opacity="1" transform="translate(348,0)"><line stroke="currentColor" y2="6"></line><text fill="currentColor" dy="0.32em" transform="translate(0, 11.82842712474619) rotate(-45)" text-anchor="end">aug. 2021</text></g><g class="tick" opacity="1" transform="translate(384,0)"><line stroke="currentColor" y2="6"></line><text fill="currentColor" dy="0.32em" transform="translate(0, 11.82842712474619) rotate(-45)" text-anchor="end">sep. 2021</text></g><g class="tick" opacity="1" transform="translate(420,0)"><line stroke="currentColor" y2="6"></line><text fill="currentColor" dy="0.32em" transform="translate(0, 11.82842712474619) rotate(-45)" text-anchor="end">okt. 2021</text></g><g class="tick" opacity="1" transform="translate(456,0)"><line stroke="currentColor" y2="6"></line><text fill="currentColor" dy="0.32em" transform="translate(0, 11.82842712474619) rotate(-45)" text-anchor="end">nov. 2021</text></g><g class="tick" opacity="1" transform="translate(492,0)"><line stroke="currentColor" y2="6"></line><text fill="currentColor" dy="0.32em" transform="translate(0, 11.82842712474619) rotate(-45)" text-anchor="end">dec. 2021</text></g><g class="tick" opacity="1" transform="translate(528,0)"><line stroke="currentColor" y2="6"></line><text fill="currentColor" dy="0.32em" transform="translate(0, 11.82842712474619) rotate(-45)" text-anchor="end">jan. 2022</text></g><g class="tick" opacity="1" transform="translate(564,0)"><line stroke="currentColor" y2="6"></line><text fill="currentColor" dy="0.32em" transform="translate(0, 11.82842712474619) rotate(-45)" text-anchor="end">feb. 2022</text></g><g class="tick" opacity="1" transform="translate(600,0)"><line stroke="currentColor" y2="6"></line><text fill="currentColor" dy="0.32em" transform="translate(0, 11.82842712474619) rotate(-45)" text-anchor="end">mrt. 2022 *</text></g><text fill="currentColor" transform="translate(330,80)" dy="-0.32em" text-anchor="middle">Maand →</text></g><g aria-label="bar" fill="#157CCA" stroke="white" stroke-width="3"><rect x="44" width="32" y="229.075" height="90.92500000000001"><title>3.637</title></rect><rect x="80" width="32" y="268.52500000000003" height="51.474999999999966"><title>2.059</title></rect><rect x="116" width="32" y="296.12499999999994" height="23.875000000000057"><title>0.955</title></rect><rect x="152" width="32" y="282.15" height="37.85000000000002"><title>1.514</title></rect><rect x="188" width="32" y="272.775" height="47.22500000000002"><title>1.889</title></rect><rect x="224" width="32" y="294.17500000000007" height="25.824999999999932"><title>1.033</title></rect><rect x="260" width="32" y="314.125" height="5.875"><title>0.235</title></rect><rect x="296" width="32" y="294.85" height="25.149999999999977"><title>1.006</title></rect><rect x="332" width="32" y="315.3" height="4.699999999999989"><title>0.188</title></rect><rect x="368" width="32" y="316.35" height="3.6499999999999773"><title>0.146</title></rect><rect x="404" width="32" y="306.32500000000005" height="13.674999999999955"><title>0.547</title></rect><rect x="440" width="32" y="267.7" height="52.30000000000001"><title>2.092</title></rect><rect x="476" width="32" y="276.42499999999995" height="43.575000000000045"><title>1.743</title></rect><rect x="512" width="32" y="203.27500000000003" height="116.72499999999997"><title>4.669</title></rect><rect x="548" width="32" y="142.475" height="177.525"><title>7.101</title></rect><rect x="584" width="32" y="32.650000000000006" height="287.35"><title>11.494</title></rect></g><g aria-label="bar" fill="#ec025f" stroke="white" stroke-width="3"><rect x="44" width="32" y="293.325" height="26.67500000000001"><title>1.067</title></rect><rect x="80" width="32" y="304.025" height="15.975000000000023"><title>0.639</title></rect><rect x="116" width="32" y="311.25" height="8.75"><title>0.350</title></rect><rect x="152" width="32" y="303.475" height="16.524999999999977"><title>0.661</title></rect><rect x="188" width="32" y="300.47499999999997" height="19.525000000000034"><title>0.781</title></rect><rect x="224" width="32" y="308.8" height="11.199999999999989"><title>0.448</title></rect><rect x="260" width="32" y="317.9" height="2.1000000000000227"><title>0.084</title></rect><rect x="296" width="32" y="311.8" height="8.199999999999989"><title>0.328</title></rect><rect x="332" width="32" y="318.7" height="1.3000000000000114"><title>0.052</title></rect><rect x="368" width="32" y="319.925" height="0.07499999999998863"><title>0.003</title></rect><rect x="404" width="32" y="317.35" height="2.6499999999999773"><title>0.106</title></rect><rect x="440" width="32" y="307.825" height="12.175000000000011"><title>0.487</title></rect><rect x="476" width="32" y="307.65" height="12.350000000000023"><title>0.494</title></rect><rect x="512" width="32" y="292.1" height="27.899999999999977"><title>1.116</title></rect><rect x="548" width="32" y="294.575" height="25.42500000000001"><title>1.017</title></rect><rect x="584" width="32" y="290.225" height="29.774999999999977"><title>1.191</title></rect></g><g aria-label="rule" stroke="currentColor"><line x1="40" x2="620" y1="320" y2="320"></line></g>
      
</svg>
