<svg class="plot-9e1b856ca2f26" fill="currentColor" font-family="system-ui, sans-serif" font-size="10" text-anchor="middle" width="640" height="400" viewBox="0 0 640 400"  xmlns="http://www.w3.org/2000/svg">

<style>
        .plot-f470163f554f1 {
          display: block;
          background: white;
          height: auto;
          height: intrinsic;
          max-width: 100%;
        }
        .plot-f470163f554f1 text,
        .plot-f470163f554f1 tspan {
          white-space: pre;
        }
      </style><g aria-label="y-axis" aria-description="↑ Aantal waarschuwingen via CoronaMelder" transform="translate(40,0)" fill="none" text-anchor="end" font-variant="tabular-nums"><g class="tick" opacity="1" transform="translate(0,320)"><line stroke="currentColor" x2="-6"></line><line stroke="currentColor" x2="580" stroke-opacity="0.1"></line><text fill="currentColor" x="-9" dy="0.32em">0K</text></g><g class="tick" opacity="1" transform="translate(0,277.01636243803193)"><line stroke="currentColor" x2="-6"></line><line stroke="currentColor" x2="580" stroke-opacity="0.1"></line><text fill="currentColor" x="-9" dy="0.32em">50K</text></g><g class="tick" opacity="1" transform="translate(0,234.03272487606384)"><line stroke="currentColor" x2="-6"></line><line stroke="currentColor" x2="580" stroke-opacity="0.1"></line><text fill="currentColor" x="-9" dy="0.32em">100K</text></g><g class="tick" opacity="1" transform="translate(0,191.04908731409574)"><line stroke="currentColor" x2="-6"></line><line stroke="currentColor" x2="580" stroke-opacity="0.1"></line><text fill="currentColor" x="-9" dy="0.32em">150K</text></g><g class="tick" opacity="1" transform="translate(0,148.0654497521277)"><line stroke="currentColor" x2="-6"></line><line stroke="currentColor" x2="580" stroke-opacity="0.1"></line><text fill="currentColor" x="-9" dy="0.32em">200K</text></g><g class="tick" opacity="1" transform="translate(0,105.08181219015962)"><line stroke="currentColor" x2="-6"></line><line stroke="currentColor" x2="580" stroke-opacity="0.1"></line><text fill="currentColor" x="-9" dy="0.32em">250K</text></g><g class="tick" opacity="1" transform="translate(0,62.09817462819156)"><line stroke="currentColor" x2="-6"></line><line stroke="currentColor" x2="580" stroke-opacity="0.1"></line><text fill="currentColor" x="-9" dy="0.32em">300K</text></g><text fill="currentColor" transform="translate(-40,20)" dy="-1em" text-anchor="start">↑ Aantal waarschuwingen via CoronaMelder</text></g><g aria-label="x-axis" aria-description="Maand →" transform="translate(0,320)" fill="none" text-anchor="middle"><g class="tick" opacity="1" transform="translate(59,0)"><line stroke="currentColor" y2="6"></line><text fill="currentColor" dy="0.32em" transform="translate(0, 11.82842712474619) rotate(-45)" text-anchor="end">okt. 2020</text></g><g class="tick" opacity="1" transform="translate(91,0)"><line stroke="currentColor" y2="6"></line><text fill="currentColor" dy="0.32em" transform="translate(0, 11.82842712474619) rotate(-45)" text-anchor="end">nov. 2020</text></g><g class="tick" opacity="1" transform="translate(123,0)"><line stroke="currentColor" y2="6"></line><text fill="currentColor" dy="0.32em" transform="translate(0, 11.82842712474619) rotate(-45)" text-anchor="end">dec. 2020</text></g><g class="tick" opacity="1" transform="translate(155,0)"><line stroke="currentColor" y2="6"></line><text fill="currentColor" dy="0.32em" transform="translate(0, 11.82842712474619) rotate(-45)" text-anchor="end">jan. 2021</text></g><g class="tick" opacity="1" transform="translate(187,0)"><line stroke="currentColor" y2="6"></line><text fill="currentColor" dy="0.32em" transform="translate(0, 11.82842712474619) rotate(-45)" text-anchor="end">feb. 2021</text></g><g class="tick" opacity="1" transform="translate(219,0)"><line stroke="currentColor" y2="6"></line><text fill="currentColor" dy="0.32em" transform="translate(0, 11.82842712474619) rotate(-45)" text-anchor="end">mrt. 2021</text></g><g class="tick" opacity="1" transform="translate(251,0)"><line stroke="currentColor" y2="6"></line><text fill="currentColor" dy="0.32em" transform="translate(0, 11.82842712474619) rotate(-45)" text-anchor="end">apr. 2021</text></g><g class="tick" opacity="1" transform="translate(283,0)"><line stroke="currentColor" y2="6"></line><text fill="currentColor" dy="0.32em" transform="translate(0, 11.82842712474619) rotate(-45)" text-anchor="end">mei 2021</text></g><g class="tick" opacity="1" transform="translate(315,0)"><line stroke="currentColor" y2="6"></line><text fill="currentColor" dy="0.32em" transform="translate(0, 11.82842712474619) rotate(-45)" text-anchor="end">jun. 2021</text></g><g class="tick" opacity="1" transform="translate(347,0)"><line stroke="currentColor" y2="6"></line><text fill="currentColor" dy="0.32em" transform="translate(0, 11.82842712474619) rotate(-45)" text-anchor="end">jul. 2021</text></g><g class="tick" opacity="1" transform="translate(379,0)"><line stroke="currentColor" y2="6"></line><text fill="currentColor" dy="0.32em" transform="translate(0, 11.82842712474619) rotate(-45)" text-anchor="end">aug. 2021</text></g><g class="tick" opacity="1" transform="translate(411,0)"><line stroke="currentColor" y2="6"></line><text fill="currentColor" dy="0.32em" transform="translate(0, 11.82842712474619) rotate(-45)" text-anchor="end">sep. 2021</text></g><g class="tick" opacity="1" transform="translate(443,0)"><line stroke="currentColor" y2="6"></line><text fill="currentColor" dy="0.32em" transform="translate(0, 11.82842712474619) rotate(-45)" text-anchor="end">okt. 2021</text></g><g class="tick" opacity="1" transform="translate(475,0)"><line stroke="currentColor" y2="6"></line><text fill="currentColor" dy="0.32em" transform="translate(0, 11.82842712474619) rotate(-45)" text-anchor="end">nov. 2021</text></g><g class="tick" opacity="1" transform="translate(507,0)"><line stroke="currentColor" y2="6"></line><text fill="currentColor" dy="0.32em" transform="translate(0, 11.82842712474619) rotate(-45)" text-anchor="end">dec. 2021</text></g><g class="tick" opacity="1" transform="translate(539,0)"><line stroke="currentColor" y2="6"></line><text fill="currentColor" dy="0.32em" transform="translate(0, 11.82842712474619) rotate(-45)" text-anchor="end">jan. 2022</text></g><g class="tick" opacity="1" transform="translate(571,0)"><line stroke="currentColor" y2="6"></line><text fill="currentColor" dy="0.32em" transform="translate(0, 11.82842712474619) rotate(-45)" text-anchor="end">feb. 2022</text></g><g class="tick" opacity="1" transform="translate(603,0)"><line stroke="currentColor" y2="6"></line><text fill="currentColor" dy="0.32em" transform="translate(0, 11.82842712474619) rotate(-45)" text-anchor="end">mrt. 2022 *</text></g><text fill="currentColor" transform="translate(640,80)" dy="-0.32em" text-anchor="end">Maand →</text></g><g aria-label="bar" fill="#ec025f"><rect x="44" width="29" y="300.4450239275583" height="19.55497607244172"><title>22.747</title></rect><rect x="76" width="29" y="280.6312863569934" height="39.36871364300657"><title>45.795</title></rect><rect x="108" width="29" y="247.66713471072015" height="72.33286528927985"><title>84.140</title></rect><rect x="140" width="29" y="228.48525661231628" height="91.51474338768372"><title>106.453</title></rect><rect x="172" width="29" y="218.28523941886124" height="101.71476058113876"><title>118.318</title></rect><rect x="204" width="29" y="201.27231567183424" height="118.72768432816576"><title>138.108</title></rect><rect x="236" width="29" y="182.43602601942862" height="137.56397398057138"><title>160.019</title></rect><rect x="268" width="29" y="168.6786829813451" height="151.3213170186549"><title>176.022</title></rect><rect x="300" width="29" y="166.3541278619939" height="153.6458721380061"><title>178.726</title></rect><rect x="332" width="29" y="152.7111212998252" height="167.2888787001748"><title>194.596</title></rect><rect x="364" width="29" y="149.74696965355187" height="170.25303034644813"><title>198.044</title></rect><rect x="396" width="29" y="147.67859701407" height="172.32140298593"><title>200.450</title></rect><rect x="428" width="29" y="140.83732125970718" height="179.16267874029282"><title>208.408</title></rect><rect x="460" width="29" y="117.31925380405195" height="202.68074619594805"><title>235.765</title></rect><rect x="492" width="29" y="98.54657993523801" height="221.45342006476199"><title>257.602</title></rect><rect x="524" width="29" y="57.64335043126917" height="262.35664956873086"><title>305.182</title></rect><rect x="556" width="29" y="20" height="300"><title>348.970</title></rect><rect x="588" width="29" y="20" height="300"><title>348.970</title></rect></g><g aria-label="rule" stroke="currentColor"><line x1="40" x2="620" y1="320" y2="320"></line></g>
      
    </svg>
