<svg class="plot-9e1b856ca2f26" fill="currentColor" font-family="system-ui, sans-serif" font-size="10" text-anchor="middle" width="640" height="400" viewBox="0 0 640 400" xmlns="http://www.w3.org/2000/svg">
    
<style>
        .plot-008b722f4df31 {
          display: block;
          background: white;
          height: auto;
          height: intrinsic;
          max-width: 100%;
        }
        .plot-008b722f4df31 text,
        .plot-008b722f4df31 tspan {
          white-space: pre;
        }
      </style><g aria-label="y-axis" aria-description="↑ Aantal testaanvragen" transform="translate(40,0)" fill="none" text-anchor="end" font-variant="tabular-nums"><g class="tick" opacity="1" transform="translate(0,320)"><line stroke="currentColor" x2="-6"></line><line stroke="currentColor" x2="580" stroke-opacity="0.1"></line><text fill="currentColor" x="-9" dy="0.32em">0K</text></g><g class="tick" opacity="1" transform="translate(0,289.20234062211273)"><line stroke="currentColor" x2="-6"></line><line stroke="currentColor" x2="580" stroke-opacity="0.1"></line><text fill="currentColor" x="-9" dy="0.32em">5K</text></g><g class="tick" opacity="1" transform="translate(0,258.40468124422546)"><line stroke="currentColor" x2="-6"></line><line stroke="currentColor" x2="580" stroke-opacity="0.1"></line><text fill="currentColor" x="-9" dy="0.32em">10K</text></g><g class="tick" opacity="1" transform="translate(0,227.60702186633816)"><line stroke="currentColor" x2="-6"></line><line stroke="currentColor" x2="580" stroke-opacity="0.1"></line><text fill="currentColor" x="-9" dy="0.32em">15K</text></g><g class="tick" opacity="1" transform="translate(0,196.8093624884509)"><line stroke="currentColor" x2="-6"></line><line stroke="currentColor" x2="580" stroke-opacity="0.1"></line><text fill="currentColor" x="-9" dy="0.32em">20K</text></g><g class="tick" opacity="1" transform="translate(0,166.0117031105636)"><line stroke="currentColor" x2="-6"></line><line stroke="currentColor" x2="580" stroke-opacity="0.1"></line><text fill="currentColor" x="-9" dy="0.32em">25K</text></g><g class="tick" opacity="1" transform="translate(0,135.21404373267632)"><line stroke="currentColor" x2="-6"></line><line stroke="currentColor" x2="580" stroke-opacity="0.1"></line><text fill="currentColor" x="-9" dy="0.32em">30K</text></g><g class="tick" opacity="1" transform="translate(0,104.41638435478905)"><line stroke="currentColor" x2="-6"></line><line stroke="currentColor" x2="580" stroke-opacity="0.1"></line><text fill="currentColor" x="-9" dy="0.32em">35K</text></g><g class="tick" opacity="1" transform="translate(0,73.61872497690176)"><line stroke="currentColor" x2="-6"></line><line stroke="currentColor" x2="580" stroke-opacity="0.1"></line><text fill="currentColor" x="-9" dy="0.32em">40K</text></g><g class="tick" opacity="1" transform="translate(0,42.821065599014474)"><line stroke="currentColor" x2="-6"></line><line stroke="currentColor" x2="580" stroke-opacity="0.1"></line><text fill="currentColor" x="-9" dy="0.32em">45K</text></g><text fill="currentColor" transform="translate(-40,20)" dy="-1em" text-anchor="start">↑ Aantal testaanvragen</text></g><g aria-label="x-axis" aria-description="Maand →" transform="translate(0,320)" fill="none" text-anchor="middle"><g class="tick" opacity="1" transform="translate(66,0)"><line stroke="currentColor" y2="6"></line><text fill="currentColor" dy="0.32em" transform="translate(0, 11.82842712474619) rotate(-45)" text-anchor="end">okt. 2020</text></g><g class="tick" opacity="1" transform="translate(99,0)"><line stroke="currentColor" y2="6"></line><text fill="currentColor" dy="0.32em" transform="translate(0, 11.82842712474619) rotate(-45)" text-anchor="end">nov. 2020</text></g><g class="tick" opacity="1" transform="translate(132,0)"><line stroke="currentColor" y2="6"></line><text fill="currentColor" dy="0.32em" transform="translate(0, 11.82842712474619) rotate(-45)" text-anchor="end">dec. 2020</text></g><g class="tick" opacity="1" transform="translate(165,0)"><line stroke="currentColor" y2="6"></line><text fill="currentColor" dy="0.32em" transform="translate(0, 11.82842712474619) rotate(-45)" text-anchor="end">jan. 2021</text></g><g class="tick" opacity="1" transform="translate(198,0)"><line stroke="currentColor" y2="6"></line><text fill="currentColor" dy="0.32em" transform="translate(0, 11.82842712474619) rotate(-45)" text-anchor="end">feb. 2021</text></g><g class="tick" opacity="1" transform="translate(231,0)"><line stroke="currentColor" y2="6"></line><text fill="currentColor" dy="0.32em" transform="translate(0, 11.82842712474619) rotate(-45)" text-anchor="end">mrt. 2021</text></g><g class="tick" opacity="1" transform="translate(264,0)"><line stroke="currentColor" y2="6"></line><text fill="currentColor" dy="0.32em" transform="translate(0, 11.82842712474619) rotate(-45)" text-anchor="end">apr. 2021</text></g><g class="tick" opacity="1" transform="translate(297,0)"><line stroke="currentColor" y2="6"></line><text fill="currentColor" dy="0.32em" transform="translate(0, 11.82842712474619) rotate(-45)" text-anchor="end">mei 2021</text></g><g class="tick" opacity="1" transform="translate(330,0)"><line stroke="currentColor" y2="6"></line><text fill="currentColor" dy="0.32em" transform="translate(0, 11.82842712474619) rotate(-45)" text-anchor="end">jun. 2021</text></g><g class="tick" opacity="1" transform="translate(363,0)"><line stroke="currentColor" y2="6"></line><text fill="currentColor" dy="0.32em" transform="translate(0, 11.82842712474619) rotate(-45)" text-anchor="end">jul. 2021</text></g><g class="tick" opacity="1" transform="translate(396,0)"><line stroke="currentColor" y2="6"></line><text fill="currentColor" dy="0.32em" transform="translate(0, 11.82842712474619) rotate(-45)" text-anchor="end">aug. 2021</text></g><g class="tick" opacity="1" transform="translate(429,0)"><line stroke="currentColor" y2="6"></line><text fill="currentColor" dy="0.32em" transform="translate(0, 11.82842712474619) rotate(-45)" text-anchor="end">sep. 2021</text></g><g class="tick" opacity="1" transform="translate(462,0)"><line stroke="currentColor" y2="6"></line><text fill="currentColor" dy="0.32em" transform="translate(0, 11.82842712474619) rotate(-45)" text-anchor="end">okt. 2021</text></g><g class="tick" opacity="1" transform="translate(495,0)"><line stroke="currentColor" y2="6"></line><text fill="currentColor" dy="0.32em" transform="translate(0, 11.82842712474619) rotate(-45)" text-anchor="end">nov. 2021</text></g><g class="tick" opacity="1" transform="translate(528,0)"><line stroke="currentColor" y2="6"></line><text fill="currentColor" dy="0.32em" transform="translate(0, 11.82842712474619) rotate(-45)" text-anchor="end">dec. 2021</text></g><g class="tick" opacity="1" transform="translate(561,0)"><line stroke="currentColor" y2="6"></line><text fill="currentColor" dy="0.32em" transform="translate(0, 11.82842712474619) rotate(-45)" text-anchor="end">jan. 2022</text></g><g class="tick" opacity="1" transform="translate(594,0)"><line stroke="currentColor" y2="6"></line><text fill="currentColor" dy="0.32em" transform="translate(0, 11.82842712474619) rotate(-45)" text-anchor="end">feb. 2022</text></g><text fill="currentColor" transform="translate(330,80)" dy="-0.32em" text-anchor="middle">Maand →</text></g><g aria-label="bar" fill="#157CCA" stroke="white" stroke-width="3"><rect x="51" width="30" y="234.4564213119803" height="85.54357868801969"><title>13.888</title></rect><rect x="84" width="30" y="229.2885740683708" height="90.71142593162921"><title>14.727</title></rect><rect x="117" width="30" y="20" height="300"><title>48.705</title></rect><rect x="150" width="30" y="180.60979365568218" height="139.39020634431782"><title>22.630</title></rect><rect x="183" width="30" y="234.40098552510008" height="85.59901447489992"><title>13.897</title></rect><rect x="216" width="30" y="152.7810286418232" height="167.2189713581768"><title>27.148</title></rect><rect x="249" width="30" y="130.7052663997536" height="189.2947336002464"><title>30.732</title></rect><rect x="282" width="30" y="200.56051740067755" height="119.43948259932245"><title>19.391</title></rect><rect x="315" width="30" y="295.32491530643676" height="24.675084693563235"><title>4.006</title></rect><rect x="348" width="30" y="246.17185093932864" height="73.82814906067136"><title>11.986</title></rect><rect x="381" width="30" y="307.92731752386817" height="12.072682476131831"><title>1.960</title></rect><rect x="414" width="30" y="309.8059747459193" height="10.194025254080714"><title>1.655</title></rect><rect x="447" width="30" y="288.45703726516786" height="31.542962734832145"><title>5.121</title></rect><rect x="480" width="30" y="208.40776101016323" height="111.59223898983677"><title>18.117</title></rect><rect x="513" width="30" y="243.68955959347088" height="76.31044040652912"><title>12.389</title></rect><rect x="546" width="30" y="194.51185709886045" height="125.48814290113955"><title>20.373</title></rect><rect x="579" width="30" y="209.95380351093317" height="110.04619648906683"><title>17.866</title></rect></g><g aria-label="bar" fill="#ec025f" stroke="white" stroke-width="3"><rect x="51" width="30" y="310.03387742531567" height="9.966122574684334"><title>1.618</title></rect><rect x="84" width="30" y="310.1693871265784" height="9.830612873421614"><title>1.596</title></rect><rect x="117" width="30" y="297.3021250384971" height="22.69787496150292"><title>3.685</title></rect><rect x="150" width="30" y="307.55774561133353" height="12.44225438866647"><title>2.020</title></rect><rect x="183" width="30" y="314.08684939944567" height="5.9131506005543315"><title>0.960</title></rect><rect x="216" width="30" y="310.5635971666153" height="9.436402833384705"><title>1.532</title></rect><rect x="249" width="30" y="308.4878349245457" height="11.512165075454277"><title>1.869</title></rect><rect x="282" width="30" y="313.76655374191563" height="6.233446258084371"><title>1.012</title></rect><rect x="315" width="30" y="318.6449029873729" height="1.355097012627084"><title>0.220</title></rect><rect x="348" width="30" y="313.7727132737912" height="6.227286726208774"><title>1.011</title></rect><rect x="381" width="30" y="318.848167539267" height="1.151832460732976"><title>0.187</title></rect><rect x="414" width="30" y="319.125346473668" height="0.874653526331997"><title>0.142</title></rect><rect x="447" width="30" y="316.4336310440406" height="3.5663689559593763"><title>0.579</title></rect><rect x="480" width="30" y="306.7878041268864" height="13.212195873113615"><title>2.145</title></rect><rect x="513" width="30" y="309.33785032337545" height="10.662149676624551"><title>1.731</title></rect><rect x="546" width="30" y="290.45272559285496" height="29.54727440714504"><title>4.797</title></rect><rect x="579" width="30" y="286.6646134893748" height="33.3353865106252"><title>5.412</title></rect></g><g aria-label="rule" stroke="currentColor"><line x1="40" x2="620" y1="320" y2="320"></line></g>
      
</svg>
