<svg class="plot-9e1b856ca2f26" fill="currentColor" font-family="system-ui, sans-serif" font-size="10" text-anchor="middle" width="640" height="400" viewBox="0 0 640 400" xmlns="http://www.w3.org/2000/svg">
  
<style>
        line[stroke-opacity] {
            stroke-opacity: 1;
            stroke: #949494;
        }
</style>

<!-- replace the below code -->
<style>
        .plot-58ec31d5466c {
          display: block;
          background: white;
          height: auto;
          height: intrinsic;
          max-width: 100%;
        }
        .plot-58ec31d5466c text,
        .plot-58ec31d5466c tspan {
          white-space: pre;
        }
      </style><g aria-label="y-axis" aria-description="↑ Aantal testaanvragen" transform="translate(40,0)" fill="none" text-anchor="end" font-variant="tabular-nums"><g class="tick" opacity="1" transform="translate(0,320)"><line stroke="currentColor" x2="-6"></line><line stroke="currentColor" x2="580" stroke-opacity="0.1"></line><text fill="currentColor" x="-9" dy="0.32em">0K</text></g><g class="tick" opacity="1" transform="translate(0,282.5)"><line stroke="currentColor" x2="-6"></line><line stroke="currentColor" x2="580" stroke-opacity="0.1"></line><text fill="currentColor" x="-9" dy="0.32em">2K</text></g><g class="tick" opacity="1" transform="translate(0,245)"><line stroke="currentColor" x2="-6"></line><line stroke="currentColor" x2="580" stroke-opacity="0.1"></line><text fill="currentColor" x="-9" dy="0.32em">4K</text></g><g class="tick" opacity="1" transform="translate(0,207.5)"><line stroke="currentColor" x2="-6"></line><line stroke="currentColor" x2="580" stroke-opacity="0.1"></line><text fill="currentColor" x="-9" dy="0.32em">6K</text></g><g class="tick" opacity="1" transform="translate(0,170)"><line stroke="currentColor" x2="-6"></line><line stroke="currentColor" x2="580" stroke-opacity="0.1"></line><text fill="currentColor" x="-9" dy="0.32em">8K</text></g><g class="tick" opacity="1" transform="translate(0,132.5)"><line stroke="currentColor" x2="-6"></line><line stroke="currentColor" x2="580" stroke-opacity="0.1"></line><text fill="currentColor" x="-9" dy="0.32em">10K</text></g><g class="tick" opacity="1" transform="translate(0,95)"><line stroke="currentColor" x2="-6"></line><line stroke="currentColor" x2="580" stroke-opacity="0.1"></line><text fill="currentColor" x="-9" dy="0.32em">12K</text></g><g class="tick" opacity="1" transform="translate(0,57.5)"><line stroke="currentColor" x2="-6"></line><line stroke="currentColor" x2="580" stroke-opacity="0.1"></line><text fill="currentColor" x="-9" dy="0.32em">14K</text></g><g class="tick" opacity="1" transform="translate(0,20)"><line stroke="currentColor" x2="-6"></line><line stroke="currentColor" x2="580" stroke-opacity="0.1"></line><text fill="currentColor" x="-9" dy="0.32em">16K</text></g><text fill="currentColor" transform="translate(20,20)" dy="-1em" text-anchor="start">↑ Aantal testaanvragen</text></g><g aria-label="x-axis" aria-description="Maand →" transform="translate(0,320)" fill="none" text-anchor="middle"><g class="tick" opacity="1" transform="translate(66,0)"><line stroke="currentColor" y2="6"></line><text fill="currentColor" dy="0.32em" transform="translate(0, 11.82842712474619) rotate(-45)" text-anchor="end">dec. 2020</text></g><g class="tick" opacity="1" transform="translate(99,0)"><line stroke="currentColor" y2="6"></line><text fill="currentColor" dy="0.32em" transform="translate(0, 11.82842712474619) rotate(-45)" text-anchor="end">jan. 2021</text></g><g class="tick" opacity="1" transform="translate(132,0)"><line stroke="currentColor" y2="6"></line><text fill="currentColor" dy="0.32em" transform="translate(0, 11.82842712474619) rotate(-45)" text-anchor="end">feb. 2021</text></g><g class="tick" opacity="1" transform="translate(165,0)"><line stroke="currentColor" y2="6"></line><text fill="currentColor" dy="0.32em" transform="translate(0, 11.82842712474619) rotate(-45)" text-anchor="end">mrt. 2021</text></g><g class="tick" opacity="1" transform="translate(198,0)"><line stroke="currentColor" y2="6"></line><text fill="currentColor" dy="0.32em" transform="translate(0, 11.82842712474619) rotate(-45)" text-anchor="end">apr. 2021</text></g><g class="tick" opacity="1" transform="translate(231,0)"><line stroke="currentColor" y2="6"></line><text fill="currentColor" dy="0.32em" transform="translate(0, 11.82842712474619) rotate(-45)" text-anchor="end">mei 2021</text></g><g class="tick" opacity="1" transform="translate(264,0)"><line stroke="currentColor" y2="6"></line><text fill="currentColor" dy="0.32em" transform="translate(0, 11.82842712474619) rotate(-45)" text-anchor="end">jun. 2021</text></g><g class="tick" opacity="1" transform="translate(297,0)"><line stroke="currentColor" y2="6"></line><text fill="currentColor" dy="0.32em" transform="translate(0, 11.82842712474619) rotate(-45)" text-anchor="end">jul. 2021</text></g><g class="tick" opacity="1" transform="translate(330,0)"><line stroke="currentColor" y2="6"></line><text fill="currentColor" dy="0.32em" transform="translate(0, 11.82842712474619) rotate(-45)" text-anchor="end">aug. 2021</text></g><g class="tick" opacity="1" transform="translate(363,0)"><line stroke="currentColor" y2="6"></line><text fill="currentColor" dy="0.32em" transform="translate(0, 11.82842712474619) rotate(-45)" text-anchor="end">sep. 2021</text></g><g class="tick" opacity="1" transform="translate(396,0)"><line stroke="currentColor" y2="6"></line><text fill="currentColor" dy="0.32em" transform="translate(0, 11.82842712474619) rotate(-45)" text-anchor="end">okt. 2021</text></g><g class="tick" opacity="1" transform="translate(429,0)"><line stroke="currentColor" y2="6"></line><text fill="currentColor" dy="0.32em" transform="translate(0, 11.82842712474619) rotate(-45)" text-anchor="end">nov. 2021</text></g><g class="tick" opacity="1" transform="translate(462,0)"><line stroke="currentColor" y2="6"></line><text fill="currentColor" dy="0.32em" transform="translate(0, 11.82842712474619) rotate(-45)" text-anchor="end">dec. 2021</text></g><g class="tick" opacity="1" transform="translate(495,0)"><line stroke="currentColor" y2="6"></line><text fill="currentColor" dy="0.32em" transform="translate(0, 11.82842712474619) rotate(-45)" text-anchor="end">jan. 2022</text></g><g class="tick" opacity="1" transform="translate(528,0)"><line stroke="currentColor" y2="6"></line><text fill="currentColor" dy="0.32em" transform="translate(0, 11.82842712474619) rotate(-45)" text-anchor="end">feb. 2022</text></g><g class="tick" opacity="1" transform="translate(561,0)"><line stroke="currentColor" y2="6"></line><text fill="currentColor" dy="0.32em" transform="translate(0, 11.82842712474619) rotate(-45)" text-anchor="end">mrt. 2022</text></g><g class="tick" opacity="1" transform="translate(594,0)"><line stroke="currentColor" y2="6"></line><text fill="currentColor" dy="0.32em" transform="translate(0, 11.82842712474619) rotate(-45)" text-anchor="end">apr. 2022 *</text></g><text fill="currentColor" transform="translate(330,80)" dy="-0.32em" text-anchor="middle">Maand →</text></g><g aria-label="bar" fill="#157CCA" stroke="white" stroke-width="3"><rect x="51" width="30" y="251.80624999999998" height="68.19375000000002"><title>3.637</title></rect><rect x="84" width="30" y="281.39375" height="38.60624999999999"><title>2.059</title></rect><rect x="117" width="30" y="302.09375" height="17.90625"><title>0.955</title></rect><rect x="150" width="30" y="291.6125" height="28.38749999999999"><title>1.514</title></rect><rect x="183" width="30" y="284.58125" height="35.41874999999999"><title>1.889</title></rect><rect x="216" width="30" y="300.63125" height="19.368749999999977"><title>1.033</title></rect><rect x="249" width="30" y="315.59375" height="4.40625"><title>0.235</title></rect><rect x="282" width="30" y="301.1375" height="18.86250000000001"><title>1.006</title></rect><rect x="315" width="30" y="316.475" height="3.5249999999999773"><title>0.188</title></rect><rect x="348" width="30" y="317.2625" height="2.7375000000000114"><title>0.146</title></rect><rect x="381" width="30" y="309.74375" height="10.256250000000023"><title>0.547</title></rect><rect x="414" width="30" y="280.775" height="39.22500000000002"><title>2.092</title></rect><rect x="447" width="30" y="287.31874999999997" height="32.681250000000034"><title>1.743</title></rect><rect x="480" width="30" y="232.45625" height="87.54374999999999"><title>4.669</title></rect><rect x="513" width="30" y="186.85625000000002" height="133.14374999999998"><title>7.101</title></rect><rect x="546" width="30" y="29.075" height="290.925"><title>15.516</title></rect><rect x="579" width="30" y="304.2875" height="15.712499999999977"><title>0.838</title></rect></g><g aria-label="bar" fill="#ec025f" stroke="white" stroke-width="3"><rect x="51" width="30" y="299.99375" height="20.006250000000023"><title>1.067</title></rect><rect x="84" width="30" y="308.01875" height="11.981249999999989"><title>0.639</title></rect><rect x="117" width="30" y="313.4375" height="6.5625"><title>0.350</title></rect><rect x="150" width="30" y="307.60625000000005" height="12.393749999999955"><title>0.661</title></rect><rect x="183" width="30" y="305.35625" height="14.643750000000011"><title>0.781</title></rect><rect x="216" width="30" y="311.59999999999997" height="8.400000000000034"><title>0.448</title></rect><rect x="249" width="30" y="318.425" height="1.5749999999999886"><title>0.084</title></rect><rect x="282" width="30" y="313.85" height="6.149999999999977"><title>0.328</title></rect><rect x="315" width="30" y="319.02500000000003" height="0.9749999999999659"><title>0.052</title></rect><rect x="348" width="30" y="319.94375" height="0.05624999999997726"><title>0.003</title></rect><rect x="381" width="30" y="318.0125" height="1.9875000000000114"><title>0.106</title></rect><rect x="414" width="30" y="310.86875" height="9.131250000000023"><title>0.487</title></rect><rect x="447" width="30" y="310.7375" height="9.262499999999989"><title>0.494</title></rect><rect x="480" width="30" y="299.075" height="20.92500000000001"><title>1.116</title></rect><rect x="513" width="30" y="300.93125000000003" height="19.068749999999966"><title>1.017</title></rect><rect x="546" width="30" y="289.8125" height="30.1875"><title>1.610</title></rect><rect x="579" width="30" y="318.10625" height="1.8937500000000114"><title>0.101</title></rect></g><g aria-label="rule" stroke="currentColor"><line x1="40" x2="620" y1="320" y2="320"></line></g>
      
</svg>
