<svg class="plot-9e1b856ca2f26" fill="currentColor" font-family="system-ui, sans-serif" font-size="10" text-anchor="middle" width="640" height="400" viewBox="0 0 640 400" xmlns="http://www.w3.org/2000/svg">
    
    
<style>
        line[stroke-opacity] {
            stroke-opacity: 1;
            stroke: #949494;
        }
</style>

<!-- replace the below code -->
<style>
        .plot-5381a165423f2 {
          display: block;
          background: white;
          height: auto;
          height: intrinsic;
          max-width: 100%;
        }
        .plot-5381a165423f2 text,
        .plot-5381a165423f2 tspan {
          white-space: pre;
        }
      </style><g aria-label="y-axis" aria-description="↑ Aantal testaanvragen" transform="translate(40,0)" fill="none" text-anchor="end" font-variant="tabular-nums"><g class="tick" opacity="1" transform="translate(0,320)"><line stroke="currentColor" x2="-6"></line><line stroke="currentColor" x2="580" stroke-opacity="0.1"></line><text fill="currentColor" x="-9" dy="0.32em">0K</text></g><g class="tick" opacity="1" transform="translate(0,290)"><line stroke="currentColor" x2="-6"></line><line stroke="currentColor" x2="580" stroke-opacity="0.1"></line><text fill="currentColor" x="-9" dy="0.32em">5K</text></g><g class="tick" opacity="1" transform="translate(0,260)"><line stroke="currentColor" x2="-6"></line><line stroke="currentColor" x2="580" stroke-opacity="0.1"></line><text fill="currentColor" x="-9" dy="0.32em">10K</text></g><g class="tick" opacity="1" transform="translate(0,230)"><line stroke="currentColor" x2="-6"></line><line stroke="currentColor" x2="580" stroke-opacity="0.1"></line><text fill="currentColor" x="-9" dy="0.32em">15K</text></g><g class="tick" opacity="1" transform="translate(0,200)"><line stroke="currentColor" x2="-6"></line><line stroke="currentColor" x2="580" stroke-opacity="0.1"></line><text fill="currentColor" x="-9" dy="0.32em">20K</text></g><g class="tick" opacity="1" transform="translate(0,170)"><line stroke="currentColor" x2="-6"></line><line stroke="currentColor" x2="580" stroke-opacity="0.1"></line><text fill="currentColor" x="-9" dy="0.32em">25K</text></g><g class="tick" opacity="1" transform="translate(0,140)"><line stroke="currentColor" x2="-6"></line><line stroke="currentColor" x2="580" stroke-opacity="0.1"></line><text fill="currentColor" x="-9" dy="0.32em">30K</text></g><g class="tick" opacity="1" transform="translate(0,110.00000000000001)"><line stroke="currentColor" x2="-6"></line><line stroke="currentColor" x2="580" stroke-opacity="0.1"></line><text fill="currentColor" x="-9" dy="0.32em">35K</text></g><g class="tick" opacity="1" transform="translate(0,79.99999999999999)"><line stroke="currentColor" x2="-6"></line><line stroke="currentColor" x2="580" stroke-opacity="0.1"></line><text fill="currentColor" x="-9" dy="0.32em">40K</text></g><g class="tick" opacity="1" transform="translate(0,49.99999999999999)"><line stroke="currentColor" x2="-6"></line><line stroke="currentColor" x2="580" stroke-opacity="0.1"></line><text fill="currentColor" x="-9" dy="0.32em">45K</text></g><g class="tick" opacity="1" transform="translate(0,20)"><line stroke="currentColor" x2="-6"></line><line stroke="currentColor" x2="580" stroke-opacity="0.1"></line><text fill="currentColor" x="-9" dy="0.32em">50K</text></g><text fill="currentColor" transform="translate(20,20)" dy="-1em" text-anchor="start">↑ Aantal testaanvragen</text></g><g aria-label="x-axis" aria-description="Maand →" transform="translate(0,320)" fill="none" text-anchor="middle"><g class="tick" opacity="1" transform="translate(61,0)"><line stroke="currentColor" y2="6"></line><text fill="currentColor" dy="0.32em" transform="translate(0, 11.82842712474619) rotate(-45)" text-anchor="end">okt. 2020</text></g><g class="tick" opacity="1" transform="translate(91,0)"><line stroke="currentColor" y2="6"></line><text fill="currentColor" dy="0.32em" transform="translate(0, 11.82842712474619) rotate(-45)" text-anchor="end">nov. 2020</text></g><g class="tick" opacity="1" transform="translate(121,0)"><line stroke="currentColor" y2="6"></line><text fill="currentColor" dy="0.32em" transform="translate(0, 11.82842712474619) rotate(-45)" text-anchor="end">dec. 2020</text></g><g class="tick" opacity="1" transform="translate(151,0)"><line stroke="currentColor" y2="6"></line><text fill="currentColor" dy="0.32em" transform="translate(0, 11.82842712474619) rotate(-45)" text-anchor="end">jan. 2021</text></g><g class="tick" opacity="1" transform="translate(181,0)"><line stroke="currentColor" y2="6"></line><text fill="currentColor" dy="0.32em" transform="translate(0, 11.82842712474619) rotate(-45)" text-anchor="end">feb. 2021</text></g><g class="tick" opacity="1" transform="translate(211,0)"><line stroke="currentColor" y2="6"></line><text fill="currentColor" dy="0.32em" transform="translate(0, 11.82842712474619) rotate(-45)" text-anchor="end">mrt. 2021</text></g><g class="tick" opacity="1" transform="translate(241,0)"><line stroke="currentColor" y2="6"></line><text fill="currentColor" dy="0.32em" transform="translate(0, 11.82842712474619) rotate(-45)" text-anchor="end">apr. 2021</text></g><g class="tick" opacity="1" transform="translate(271,0)"><line stroke="currentColor" y2="6"></line><text fill="currentColor" dy="0.32em" transform="translate(0, 11.82842712474619) rotate(-45)" text-anchor="end">mei 2021</text></g><g class="tick" opacity="1" transform="translate(301,0)"><line stroke="currentColor" y2="6"></line><text fill="currentColor" dy="0.32em" transform="translate(0, 11.82842712474619) rotate(-45)" text-anchor="end">jun. 2021</text></g><g class="tick" opacity="1" transform="translate(331,0)"><line stroke="currentColor" y2="6"></line><text fill="currentColor" dy="0.32em" transform="translate(0, 11.82842712474619) rotate(-45)" text-anchor="end">jul. 2021</text></g><g class="tick" opacity="1" transform="translate(361,0)"><line stroke="currentColor" y2="6"></line><text fill="currentColor" dy="0.32em" transform="translate(0, 11.82842712474619) rotate(-45)" text-anchor="end">aug. 2021</text></g><g class="tick" opacity="1" transform="translate(391,0)"><line stroke="currentColor" y2="6"></line><text fill="currentColor" dy="0.32em" transform="translate(0, 11.82842712474619) rotate(-45)" text-anchor="end">sep. 2021</text></g><g class="tick" opacity="1" transform="translate(421,0)"><line stroke="currentColor" y2="6"></line><text fill="currentColor" dy="0.32em" transform="translate(0, 11.82842712474619) rotate(-45)" text-anchor="end">okt. 2021</text></g><g class="tick" opacity="1" transform="translate(451,0)"><line stroke="currentColor" y2="6"></line><text fill="currentColor" dy="0.32em" transform="translate(0, 11.82842712474619) rotate(-45)" text-anchor="end">nov. 2021</text></g><g class="tick" opacity="1" transform="translate(481,0)"><line stroke="currentColor" y2="6"></line><text fill="currentColor" dy="0.32em" transform="translate(0, 11.82842712474619) rotate(-45)" text-anchor="end">dec. 2021</text></g><g class="tick" opacity="1" transform="translate(511,0)"><line stroke="currentColor" y2="6"></line><text fill="currentColor" dy="0.32em" transform="translate(0, 11.82842712474619) rotate(-45)" text-anchor="end">jan. 2022</text></g><g class="tick" opacity="1" transform="translate(541,0)"><line stroke="currentColor" y2="6"></line><text fill="currentColor" dy="0.32em" transform="translate(0, 11.82842712474619) rotate(-45)" text-anchor="end">feb. 2022</text></g><g class="tick" opacity="1" transform="translate(571,0)"><line stroke="currentColor" y2="6"></line><text fill="currentColor" dy="0.32em" transform="translate(0, 11.82842712474619) rotate(-45)" text-anchor="end">mrt. 2022</text></g><g class="tick" opacity="1" transform="translate(601,0)"><line stroke="currentColor" y2="6"></line><text fill="currentColor" dy="0.32em" transform="translate(0, 11.82842712474619) rotate(-45)" text-anchor="end">apr. 2022</text></g><text fill="currentColor" transform="translate(330,80)" dy="-0.32em" text-anchor="middle">Maand →</text></g><g aria-label="bar" fill="#157CCA" stroke="white" stroke-width="3"><rect x="47" width="27" y="236.67200000000003" height="83.32799999999997"><title>13.888</title></rect><rect x="77" width="27" y="231.638" height="88.362"><title>14.727</title></rect><rect x="107" width="27" y="27.77000000000001" height="292.23"><title>48.705</title></rect><rect x="137" width="27" y="184.22" height="135.78"><title>22.630</title></rect><rect x="167" width="27" y="236.61799999999997" height="83.38200000000003"><title>13.897</title></rect><rect x="197" width="27" y="157.112" height="162.888"><title>27.148</title></rect><rect x="227" width="27" y="135.608" height="184.392"><title>30.732</title></rect><rect x="257" width="27" y="203.654" height="116.346"><title>19.391</title></rect><rect x="287" width="27" y="295.964" height="24.036"><title>4.006</title></rect><rect x="317" width="27" y="248.08399999999997" height="71.91600000000003"><title>11.986</title></rect><rect x="347" width="27" y="308.24" height="11.759999999999991"><title>1.960</title></rect><rect x="377" width="27" y="310.07" height="9.930000000000007"><title>1.655</title></rect><rect x="407" width="27" y="289.274" height="30.726"><title>5.121</title></rect><rect x="437" width="27" y="211.298" height="108.702"><title>18.117</title></rect><rect x="467" width="27" y="245.666" height="74.334"><title>12.389</title></rect><rect x="497" width="27" y="197.762" height="122.238"><title>20.373</title></rect><rect x="527" width="27" y="184.772" height="135.228"><title>22.538</title></rect><rect x="557" width="27" y="100.328" height="219.672"><title>36.612</title></rect><rect x="587" width="27" y="306.584" height="13.415999999999997"><title>2.236</title></rect></g><g aria-label="bar" fill="#ec025f" stroke="white" stroke-width="3"><rect x="47" width="27" y="310.29200000000003" height="9.70799999999997"><title>1.618</title></rect><rect x="77" width="27" y="310.42400000000004" height="9.575999999999965"><title>1.596</title></rect><rect x="107" width="27" y="297.89" height="22.110000000000014"><title>3.685</title></rect><rect x="137" width="27" y="307.88" height="12.120000000000005"><title>2.020</title></rect><rect x="167" width="27" y="314.24" height="5.759999999999991"><title>0.960</title></rect><rect x="197" width="27" y="310.808" height="9.192000000000007"><title>1.532</title></rect><rect x="227" width="27" y="308.786" height="11.213999999999999"><title>1.869</title></rect><rect x="257" width="27" y="313.928" height="6.072000000000003"><title>1.012</title></rect><rect x="287" width="27" y="318.68" height="1.3199999999999932"><title>0.220</title></rect><rect x="317" width="27" y="313.934" height="6.065999999999974"><title>1.011</title></rect><rect x="347" width="27" y="318.878" height="1.122000000000014"><title>0.187</title></rect><rect x="377" width="27" y="319.148" height="0.8519999999999754"><title>0.142</title></rect><rect x="407" width="27" y="316.526" height="3.4739999999999895"><title>0.579</title></rect><rect x="437" width="27" y="307.13" height="12.870000000000005"><title>2.145</title></rect><rect x="467" width="27" y="309.61400000000003" height="10.385999999999967"><title>1.731</title></rect><rect x="497" width="27" y="291.21799999999996" height="28.78200000000004"><title>4.797</title></rect><rect x="527" width="27" y="277.094" height="42.906000000000006"><title>7.151</title></rect><rect x="557" width="27" y="226.90400000000002" height="93.09599999999998"><title>15.516</title></rect><rect x="587" width="27" y="314.54600000000005" height="5.453999999999951"><title>0.909</title></rect></g><g aria-label="rule" stroke="currentColor"><line x1="40" x2="620" y1="320" y2="320"></line></g>
      
</svg>
