<svg class="plot-9e1b856ca2f26" fill="currentColor" font-family="system-ui, sans-serif" font-size="10" text-anchor="middle" width="640" height="400" viewBox="0 0 640 400" xmlns="http://www.w3.org/2000/svg">
   
<style>
        line[stroke-opacity] {
            stroke-opacity: 1;
            stroke: #949494;
        }
</style>

<!-- replace the below code -->
<style>
        .plot-a37ba2e5f0785 {
          display: block;
          background: white;
          height: auto;
          height: intrinsic;
          max-width: 100%;
        }
        .plot-a37ba2e5f0785 text,
        .plot-a37ba2e5f0785 tspan {
          white-space: pre;
        }
      </style><g aria-label="y-axis" aria-description="↑ Aantal testaanvragen" transform="translate(40,0)" fill="none" text-anchor="end" font-variant="tabular-nums"><g class="tick" opacity="1" transform="translate(0,320)"><line stroke="currentColor" x2="-6"></line><line stroke="currentColor" x2="580" stroke-opacity="0.1"></line><text fill="currentColor" x="-9" dy="0.32em">0K</text></g><g class="tick" opacity="1" transform="translate(0,277.14285714285717)"><line stroke="currentColor" x2="-6"></line><line stroke="currentColor" x2="580" stroke-opacity="0.1"></line><text fill="currentColor" x="-9" dy="0.32em">2K</text></g><g class="tick" opacity="1" transform="translate(0,234.2857142857143)"><line stroke="currentColor" x2="-6"></line><line stroke="currentColor" x2="580" stroke-opacity="0.1"></line><text fill="currentColor" x="-9" dy="0.32em">4K</text></g><g class="tick" opacity="1" transform="translate(0,191.42857142857142)"><line stroke="currentColor" x2="-6"></line><line stroke="currentColor" x2="580" stroke-opacity="0.1"></line><text fill="currentColor" x="-9" dy="0.32em">6K</text></g><g class="tick" opacity="1" transform="translate(0,148.57142857142858)"><line stroke="currentColor" x2="-6"></line><line stroke="currentColor" x2="580" stroke-opacity="0.1"></line><text fill="currentColor" x="-9" dy="0.32em">8K</text></g><g class="tick" opacity="1" transform="translate(0,105.71428571428571)"><line stroke="currentColor" x2="-6"></line><line stroke="currentColor" x2="580" stroke-opacity="0.1"></line><text fill="currentColor" x="-9" dy="0.32em">10K</text></g><g class="tick" opacity="1" transform="translate(0,62.857142857142875)"><line stroke="currentColor" x2="-6"></line><line stroke="currentColor" x2="580" stroke-opacity="0.1"></line><text fill="currentColor" x="-9" dy="0.32em">12K</text></g><g class="tick" opacity="1" transform="translate(0,20)"><line stroke="currentColor" x2="-6"></line><line stroke="currentColor" x2="580" stroke-opacity="0.1"></line><text fill="currentColor" x="-9" dy="0.32em">14K</text></g><text fill="currentColor" transform="translate(20,20)" dy="-1em" text-anchor="start">↑ Aantal testaanvragen</text></g><g aria-label="x-axis" aria-description="Maand →" transform="translate(0,320)" fill="none" text-anchor="middle"><g class="tick" opacity="1" transform="translate(60,0)"><line stroke="currentColor" y2="6"></line><text fill="currentColor" dy="0.32em" transform="translate(0, 11.82842712474619) rotate(-45)" text-anchor="end">dec. 2020</text></g><g class="tick" opacity="1" transform="translate(96,0)"><line stroke="currentColor" y2="6"></line><text fill="currentColor" dy="0.32em" transform="translate(0, 11.82842712474619) rotate(-45)" text-anchor="end">jan. 2021</text></g><g class="tick" opacity="1" transform="translate(132,0)"><line stroke="currentColor" y2="6"></line><text fill="currentColor" dy="0.32em" transform="translate(0, 11.82842712474619) rotate(-45)" text-anchor="end">feb. 2021</text></g><g class="tick" opacity="1" transform="translate(168,0)"><line stroke="currentColor" y2="6"></line><text fill="currentColor" dy="0.32em" transform="translate(0, 11.82842712474619) rotate(-45)" text-anchor="end">mrt. 2021</text></g><g class="tick" opacity="1" transform="translate(204,0)"><line stroke="currentColor" y2="6"></line><text fill="currentColor" dy="0.32em" transform="translate(0, 11.82842712474619) rotate(-45)" text-anchor="end">apr. 2021</text></g><g class="tick" opacity="1" transform="translate(240,0)"><line stroke="currentColor" y2="6"></line><text fill="currentColor" dy="0.32em" transform="translate(0, 11.82842712474619) rotate(-45)" text-anchor="end">mei 2021</text></g><g class="tick" opacity="1" transform="translate(276,0)"><line stroke="currentColor" y2="6"></line><text fill="currentColor" dy="0.32em" transform="translate(0, 11.82842712474619) rotate(-45)" text-anchor="end">jun. 2021</text></g><g class="tick" opacity="1" transform="translate(312,0)"><line stroke="currentColor" y2="6"></line><text fill="currentColor" dy="0.32em" transform="translate(0, 11.82842712474619) rotate(-45)" text-anchor="end">jul. 2021</text></g><g class="tick" opacity="1" transform="translate(348,0)"><line stroke="currentColor" y2="6"></line><text fill="currentColor" dy="0.32em" transform="translate(0, 11.82842712474619) rotate(-45)" text-anchor="end">aug. 2021</text></g><g class="tick" opacity="1" transform="translate(384,0)"><line stroke="currentColor" y2="6"></line><text fill="currentColor" dy="0.32em" transform="translate(0, 11.82842712474619) rotate(-45)" text-anchor="end">sep. 2021</text></g><g class="tick" opacity="1" transform="translate(420,0)"><line stroke="currentColor" y2="6"></line><text fill="currentColor" dy="0.32em" transform="translate(0, 11.82842712474619) rotate(-45)" text-anchor="end">okt. 2021</text></g><g class="tick" opacity="1" transform="translate(456,0)"><line stroke="currentColor" y2="6"></line><text fill="currentColor" dy="0.32em" transform="translate(0, 11.82842712474619) rotate(-45)" text-anchor="end">nov. 2021</text></g><g class="tick" opacity="1" transform="translate(492,0)"><line stroke="currentColor" y2="6"></line><text fill="currentColor" dy="0.32em" transform="translate(0, 11.82842712474619) rotate(-45)" text-anchor="end">dec. 2021</text></g><g class="tick" opacity="1" transform="translate(528,0)"><line stroke="currentColor" y2="6"></line><text fill="currentColor" dy="0.32em" transform="translate(0, 11.82842712474619) rotate(-45)" text-anchor="end">jan. 2022</text></g><g class="tick" opacity="1" transform="translate(564,0)"><line stroke="currentColor" y2="6"></line><text fill="currentColor" dy="0.32em" transform="translate(0, 11.82842712474619) rotate(-45)" text-anchor="end">feb. 2022</text></g><g class="tick" opacity="1" transform="translate(600,0)"><line stroke="currentColor" y2="6"></line><text fill="currentColor" dy="0.32em" transform="translate(0, 11.82842712474619) rotate(-45)" text-anchor="end">mrt. 2022 *</text></g><text fill="currentColor" transform="translate(330,80)" dy="-0.32em" text-anchor="middle">Maand →</text></g><g aria-label="bar" fill="#157CCA" stroke="white" stroke-width="3"><rect x="44" width="32" y="242.06428571428572" height="77.93571428571428"><title>3.637</title></rect><rect x="80" width="32" y="275.87857142857143" height="44.12142857142857"><title>2.059</title></rect><rect x="116" width="32" y="299.5357142857143" height="20.464285714285722"><title>0.955</title></rect><rect x="152" width="32" y="287.5571428571429" height="32.44285714285712"><title>1.514</title></rect><rect x="188" width="32" y="279.5214285714286" height="40.4785714285714"><title>1.889</title></rect><rect x="224" width="32" y="297.8642857142857" height="22.1357142857143"><title>1.033</title></rect><rect x="260" width="32" y="314.9642857142857" height="5.035714285714278"><title>0.235</title></rect><rect x="296" width="32" y="298.4428571428572" height="21.55714285714282"><title>1.006</title></rect><rect x="332" width="32" y="315.97142857142853" height="4.0285714285714675"><title>0.188</title></rect><rect x="368" width="32" y="316.87142857142857" height="3.1285714285714334"><title>0.146</title></rect><rect x="404" width="32" y="308.27857142857147" height="11.721428571428532"><title>0.547</title></rect><rect x="440" width="32" y="275.1714285714286" height="44.82857142857142"><title>2.092</title></rect><rect x="476" width="32" y="282.65" height="37.35000000000002"><title>1.743</title></rect><rect x="512" width="32" y="219.95000000000002" height="100.04999999999998"><title>4.669</title></rect><rect x="548" width="32" y="167.8357142857143" height="152.1642857142857"><title>7.101</title></rect><rect x="584" width="32" y="21.3285714285714" height="298.6714285714286"><title>13.938</title></rect></g><g aria-label="bar" fill="#ec025f" stroke="white" stroke-width="3"><rect x="44" width="32" y="297.1357142857143" height="22.8642857142857"><title>1.067</title></rect><rect x="80" width="32" y="306.3071428571429" height="13.692857142857122"><title>0.639</title></rect><rect x="116" width="32" y="312.5" height="7.5"><title>0.350</title></rect><rect x="152" width="32" y="305.8357142857143" height="14.164285714285711"><title>0.661</title></rect><rect x="188" width="32" y="303.2642857142857" height="16.735714285714323"><title>0.781</title></rect><rect x="224" width="32" y="310.4" height="9.600000000000023"><title>0.448</title></rect><rect x="260" width="32" y="318.2" height="1.8000000000000114"><title>0.084</title></rect><rect x="296" width="32" y="312.97142857142853" height="7.0285714285714675"><title>0.328</title></rect><rect x="332" width="32" y="318.8857142857143" height="1.1142857142856997"><title>0.052</title></rect><rect x="368" width="32" y="319.93571428571425" height="0.06428571428574514"><title>0.003</title></rect><rect x="404" width="32" y="317.72857142857146" height="2.271428571428544"><title>0.106</title></rect><rect x="440" width="32" y="309.56428571428575" height="10.435714285714255"><title>0.487</title></rect><rect x="476" width="32" y="309.4142857142857" height="10.585714285714289"><title>0.494</title></rect><rect x="512" width="32" y="296.0857142857143" height="23.91428571428571"><title>1.116</title></rect><rect x="548" width="32" y="298.2071428571429" height="21.792857142857088"><title>1.017</title></rect><rect x="584" width="32" y="289.01428571428573" height="30.985714285714266"><title>1.446</title></rect></g><g aria-label="rule" stroke="currentColor"><line x1="40" x2="620" y1="320" y2="320"></line></g>
      
</svg>
