<svg class="plot-9e1b856ca2f26" fill="currentColor" font-family="system-ui, sans-serif" font-size="10" text-anchor="middle" width="640" height="400" viewBox="0 0 640 400"  xmlns="http://www.w3.org/2000/svg"><style>
        .plot-9e1b856ca2f26 {
          display: block;
          background: white;
          height: auto;
          height: intrinsic;
          max-width: 100%;
        }
        .plot-9e1b856ca2f26 text,
        .plot-9e1b856ca2f26 tspan {
          white-space: pre;
        }

        rect:last-of-type,
        g[text-anchor="middle"] .tick:last-of-type {
            opacity: 1;
        }
      </style><g transform="translate(40,0)" fill="none" text-anchor="end" font-variant="tabular-nums"><g class="tick" opacity="1" transform="translate(0,320)"><line stroke="currentColor" x2="-6"></line><line stroke="currentColor" x2="580" stroke-opacity="0.1"></line><text fill="currentColor" x="-9" dy="0.32em">0K</text></g><g class="tick" opacity="1" transform="translate(0,273.5277114256769)"><line stroke="currentColor" x2="-6"></line><line stroke="currentColor" x2="580" stroke-opacity="0.1"></line><text fill="currentColor" x="-9" dy="0.32em">50K</text></g><g class="tick" opacity="1" transform="translate(0,227.05542285135374)"><line stroke="currentColor" x2="-6"></line><line stroke="currentColor" x2="580" stroke-opacity="0.1"></line><text fill="currentColor" x="-9" dy="0.32em">100K</text></g><g class="tick" opacity="1" transform="translate(0,180.5831342770306)"><line stroke="currentColor" x2="-6"></line><line stroke="currentColor" x2="580" stroke-opacity="0.1"></line><text fill="currentColor" x="-9" dy="0.32em">150K</text></g><g class="tick" opacity="1" transform="translate(0,134.11084570270748)"><line stroke="currentColor" x2="-6"></line><line stroke="currentColor" x2="580" stroke-opacity="0.1"></line><text fill="currentColor" x="-9" dy="0.32em">200K</text></g><g class="tick" opacity="1" transform="translate(0,87.63855712838436)"><line stroke="currentColor" x2="-6"></line><line stroke="currentColor" x2="580" stroke-opacity="0.1"></line><text fill="currentColor" x="-9" dy="0.32em">250K</text></g><g class="tick" opacity="1" transform="translate(0,41.16626855406123)"><line stroke="currentColor" x2="-6"></line><line stroke="currentColor" x2="580" stroke-opacity="0.1"></line><text fill="currentColor" x="-9" dy="0.32em">300K</text></g><text fill="currentColor" transform="translate(-40,20)" dy="-1em" text-anchor="start">↑ Notificaties verstuurd</text></g><g transform="translate(0,320)" fill="none" text-anchor="middle"><g class="tick" opacity="1" transform="translate(61,0)"><line stroke="currentColor" y2="6"></line><text fill="currentColor" dy="0.32em" transform="translate(0, 11.82842712474619) rotate(-45)" text-anchor="end">aug. 2020</text></g><g class="tick" opacity="1" transform="translate(91,0)"><line stroke="currentColor" y2="6"></line><text fill="currentColor" dy="0.32em" transform="translate(0, 11.82842712474619) rotate(-45)" text-anchor="end">sep. 2020</text></g><g class="tick" opacity="1" transform="translate(121,0)"><line stroke="currentColor" y2="6"></line><text fill="currentColor" dy="0.32em" transform="translate(0, 11.82842712474619) rotate(-45)" text-anchor="end">okt. 2020</text></g><g class="tick" opacity="1" transform="translate(151,0)"><line stroke="currentColor" y2="6"></line><text fill="currentColor" dy="0.32em" transform="translate(0, 11.82842712474619) rotate(-45)" text-anchor="end">nov. 2020</text></g><g class="tick" opacity="1" transform="translate(181,0)"><line stroke="currentColor" y2="6"></line><text fill="currentColor" dy="0.32em" transform="translate(0, 11.82842712474619) rotate(-45)" text-anchor="end">dec. 2020</text></g><g class="tick" opacity="1" transform="translate(211,0)"><line stroke="currentColor" y2="6"></line><text fill="currentColor" dy="0.32em" transform="translate(0, 11.82842712474619) rotate(-45)" text-anchor="end">jan. 2021</text></g><g class="tick" opacity="1" transform="translate(241,0)"><line stroke="currentColor" y2="6"></line><text fill="currentColor" dy="0.32em" transform="translate(0, 11.82842712474619) rotate(-45)" text-anchor="end">feb. 2021</text></g><g class="tick" opacity="1" transform="translate(271,0)"><line stroke="currentColor" y2="6"></line><text fill="currentColor" dy="0.32em" transform="translate(0, 11.82842712474619) rotate(-45)" text-anchor="end">mrt. 2021</text></g><g class="tick" opacity="1" transform="translate(301,0)"><line stroke="currentColor" y2="6"></line><text fill="currentColor" dy="0.32em" transform="translate(0, 11.82842712474619) rotate(-45)" text-anchor="end">apr. 2021</text></g><g class="tick" opacity="1" transform="translate(331,0)"><line stroke="currentColor" y2="6"></line><text fill="currentColor" dy="0.32em" transform="translate(0, 11.82842712474619) rotate(-45)" text-anchor="end">mei 2021</text></g><g class="tick" opacity="1" transform="translate(361,0)"><line stroke="currentColor" y2="6"></line><text fill="currentColor" dy="0.32em" transform="translate(0, 11.82842712474619) rotate(-45)" text-anchor="end">jun. 2021</text></g><g class="tick" opacity="1" transform="translate(391,0)"><line stroke="currentColor" y2="6"></line><text fill="currentColor" dy="0.32em" transform="translate(0, 11.82842712474619) rotate(-45)" text-anchor="end">jul. 2021</text></g><g class="tick" opacity="1" transform="translate(421,0)"><line stroke="currentColor" y2="6"></line><text fill="currentColor" dy="0.32em" transform="translate(0, 11.82842712474619) rotate(-45)" text-anchor="end">aug. 2021</text></g><g class="tick" opacity="1" transform="translate(451,0)"><line stroke="currentColor" y2="6"></line><text fill="currentColor" dy="0.32em" transform="translate(0, 11.82842712474619) rotate(-45)" text-anchor="end">sep. 2021</text></g><g class="tick" opacity="1" transform="translate(481,0)"><line stroke="currentColor" y2="6"></line><text fill="currentColor" dy="0.32em" transform="translate(0, 11.82842712474619) rotate(-45)" text-anchor="end">okt. 2021</text></g><g class="tick" opacity="1" transform="translate(511,0)"><line stroke="currentColor" y2="6"></line><text fill="currentColor" dy="0.32em" transform="translate(0, 11.82842712474619) rotate(-45)" text-anchor="end">nov. 2021</text></g><g class="tick" opacity="1" transform="translate(541,0)"><line stroke="currentColor" y2="6"></line><text fill="currentColor" dy="0.32em" transform="translate(0, 11.82842712474619) rotate(-45)" text-anchor="end">dec. 2021</text></g><g class="tick" opacity="1" transform="translate(571,0)"><line stroke="currentColor" y2="6"></line><text fill="currentColor" dy="0.32em" transform="translate(0, 11.82842712474619) rotate(-45)" text-anchor="end">jan. 2022</text></g><g class="tick" opacity="1" transform="translate(601,0)"><line stroke="currentColor" y2="6"></line><text fill="currentColor" dy="0.32em" transform="translate(0, 11.82842712474619) rotate(-45)" text-anchor="end">feb. 2022 *</text></g><text fill="currentColor" transform="translate(640,80)" dy="-0.32em" text-anchor="end">Maand →</text></g><g fill="#ec025f" stroke-width="3"><rect x="47" width="27" y="319.97490496416987" height="0.02509503583013384"></rect><rect x="77" width="27" y="319.61242111329017" height="0.3875788867098322"></rect><rect x="107" width="27" y="298.85789703599744" height="21.14210296400256"></rect><rect x="137" width="27" y="277.43603089477745" height="42.563969105222554"></rect><rect x="167" width="27" y="241.79643278712908" height="78.20356721287092"></rect><rect x="197" width="27" y="221.05770928795158" height="98.94229071204842"></rect><rect x="227" width="27" y="210.02983520926472" height="109.97016479073528"></rect><rect x="257" width="27" y="191.63610339154764" height="128.36389660845236"></rect><rect x="287" width="27" y="171.27101709250775" height="148.72898290749225"></rect><rect x="317" width="27" y="156.3970964114099" height="163.6029035885901"></rect><rect x="347" width="27" y="153.8838750453105" height="166.1161249546895"></rect><rect x="377" width="27" y="139.13357065182032" height="180.86642934817968"></rect><rect x="407" width="27" y="135.92884163173503" height="184.07115836826497"></rect><rect x="437" width="27" y="133.6925951055386" height="186.3074048944614"></rect><rect x="467" width="27" y="126.29606565604932" height="193.70393434395066"></rect><rect x="497" width="27" y="100.86921768549418" height="219.13078231450584"></rect><rect x="527" width="27" y="80.57291037354429" height="239.4270896264557"></rect><rect x="557" width="27" y="36.34988056621837" height="283.65011943378164"></rect><rect x="587" width="27" y="20" height="300"></rect></g><g stroke="currentColor"><line x1="40" x2="620" y1="320" y2="320"></line></g></svg>
