<svg class="plot-9e1b856ca2f26" fill="currentColor" font-family="system-ui, sans-serif" font-size="10" text-anchor="middle" width="640" height="400" viewBox="0 0 640 400" xmlns="http://www.w3.org/2000/svg">
   
   <style>
        .plot-fe2a770fbf61f {
          display: block;
          background: white;
          height: auto;
          height: intrinsic;
          max-width: 100%;
        }
        .plot-fe2a770fbf61f text,
        .plot-fe2a770fbf61f tspan {
          white-space: pre;
        }
      </style><g aria-label="y-axis" aria-description="↑ Aantal testaanvragen" transform="translate(40,0)" fill="none" text-anchor="end" font-variant="tabular-nums"><g class="tick" opacity="1" transform="translate(0,320)"><line stroke="currentColor" x2="-6"></line><line stroke="currentColor" x2="580" stroke-opacity="0.1"></line><text fill="currentColor" x="-9" dy="0.32em">0K</text></g><g class="tick" opacity="1" transform="translate(0,287.0293438839432)"><line stroke="currentColor" x2="-6"></line><line stroke="currentColor" x2="580" stroke-opacity="0.1"></line><text fill="currentColor" x="-9" dy="0.32em">5K</text></g><g class="tick" opacity="1" transform="translate(0,254.05868776788657)"><line stroke="currentColor" x2="-6"></line><line stroke="currentColor" x2="580" stroke-opacity="0.1"></line><text fill="currentColor" x="-9" dy="0.32em">10K</text></g><g class="tick" opacity="1" transform="translate(0,221.08803165182985)"><line stroke="currentColor" x2="-6"></line><line stroke="currentColor" x2="580" stroke-opacity="0.1"></line><text fill="currentColor" x="-9" dy="0.32em">15K</text></g><g class="tick" opacity="1" transform="translate(0,188.11737553577316)"><line stroke="currentColor" x2="-6"></line><line stroke="currentColor" x2="580" stroke-opacity="0.1"></line><text fill="currentColor" x="-9" dy="0.32em">20K</text></g><g class="tick" opacity="1" transform="translate(0,155.14671941971645)"><line stroke="currentColor" x2="-6"></line><line stroke="currentColor" x2="580" stroke-opacity="0.1"></line><text fill="currentColor" x="-9" dy="0.32em">25K</text></g><g class="tick" opacity="1" transform="translate(0,122.17606330365972)"><line stroke="currentColor" x2="-6"></line><line stroke="currentColor" x2="580" stroke-opacity="0.1"></line><text fill="currentColor" x="-9" dy="0.32em">30K</text></g><g class="tick" opacity="1" transform="translate(0,89.205407187603)"><line stroke="currentColor" x2="-6"></line><line stroke="currentColor" x2="580" stroke-opacity="0.1"></line><text fill="currentColor" x="-9" dy="0.32em">35K</text></g><g class="tick" opacity="1" transform="translate(0,56.23475107154633)"><line stroke="currentColor" x2="-6"></line><line stroke="currentColor" x2="580" stroke-opacity="0.1"></line><text fill="currentColor" x="-9" dy="0.32em">40K</text></g><g class="tick" opacity="1" transform="translate(0,23.264094955489604)"><line stroke="currentColor" x2="-6"></line><line stroke="currentColor" x2="580" stroke-opacity="0.1"></line><text fill="currentColor" x="-9" dy="0.32em">45K</text></g><text fill="currentColor" transform="translate(-40,20)" dy="-1em" text-anchor="start">↑ Aantal testaanvragen</text></g><g aria-label="x-axis" aria-description="Maand →" transform="translate(0,320)" fill="none" text-anchor="middle"><g class="tick" opacity="1" transform="translate(64,0)"><line stroke="currentColor" y2="6"></line><text fill="currentColor" dy="0.32em" transform="translate(0, 11.82842712474619) rotate(-45)" text-anchor="end">dec. 2020</text></g><g class="tick" opacity="1" transform="translate(102,0)"><line stroke="currentColor" y2="6"></line><text fill="currentColor" dy="0.32em" transform="translate(0, 11.82842712474619) rotate(-45)" text-anchor="end">jan. 2021</text></g><g class="tick" opacity="1" transform="translate(140,0)"><line stroke="currentColor" y2="6"></line><text fill="currentColor" dy="0.32em" transform="translate(0, 11.82842712474619) rotate(-45)" text-anchor="end">feb. 2021</text></g><g class="tick" opacity="1" transform="translate(178,0)"><line stroke="currentColor" y2="6"></line><text fill="currentColor" dy="0.32em" transform="translate(0, 11.82842712474619) rotate(-45)" text-anchor="end">mrt. 2021</text></g><g class="tick" opacity="1" transform="translate(216,0)"><line stroke="currentColor" y2="6"></line><text fill="currentColor" dy="0.32em" transform="translate(0, 11.82842712474619) rotate(-45)" text-anchor="end">apr. 2021</text></g><g class="tick" opacity="1" transform="translate(254,0)"><line stroke="currentColor" y2="6"></line><text fill="currentColor" dy="0.32em" transform="translate(0, 11.82842712474619) rotate(-45)" text-anchor="end">mei 2021</text></g><g class="tick" opacity="1" transform="translate(292,0)"><line stroke="currentColor" y2="6"></line><text fill="currentColor" dy="0.32em" transform="translate(0, 11.82842712474619) rotate(-45)" text-anchor="end">jun. 2021</text></g><g class="tick" opacity="1" transform="translate(330,0)"><line stroke="currentColor" y2="6"></line><text fill="currentColor" dy="0.32em" transform="translate(0, 11.82842712474619) rotate(-45)" text-anchor="end">jul. 2021</text></g><g class="tick" opacity="1" transform="translate(368,0)"><line stroke="currentColor" y2="6"></line><text fill="currentColor" dy="0.32em" transform="translate(0, 11.82842712474619) rotate(-45)" text-anchor="end">aug. 2021</text></g><g class="tick" opacity="1" transform="translate(406,0)"><line stroke="currentColor" y2="6"></line><text fill="currentColor" dy="0.32em" transform="translate(0, 11.82842712474619) rotate(-45)" text-anchor="end">sep. 2021</text></g><g class="tick" opacity="1" transform="translate(444,0)"><line stroke="currentColor" y2="6"></line><text fill="currentColor" dy="0.32em" transform="translate(0, 11.82842712474619) rotate(-45)" text-anchor="end">okt. 2021</text></g><g class="tick" opacity="1" transform="translate(482,0)"><line stroke="currentColor" y2="6"></line><text fill="currentColor" dy="0.32em" transform="translate(0, 11.82842712474619) rotate(-45)" text-anchor="end">nov. 2021</text></g><g class="tick" opacity="1" transform="translate(520,0)"><line stroke="currentColor" y2="6"></line><text fill="currentColor" dy="0.32em" transform="translate(0, 11.82842712474619) rotate(-45)" text-anchor="end">dec. 2021</text></g><g class="tick" opacity="1" transform="translate(558,0)"><line stroke="currentColor" y2="6"></line><text fill="currentColor" dy="0.32em" transform="translate(0, 11.82842712474619) rotate(-45)" text-anchor="end">jan. 2022</text></g><g class="tick" opacity="1" transform="translate(596,0)"><line stroke="currentColor" y2="6"></line><text fill="currentColor" dy="0.32em" transform="translate(0, 11.82842712474619) rotate(-45)" text-anchor="end">feb. 2022</text></g><text fill="currentColor" transform="translate(330,80)" dy="-0.32em" text-anchor="middle">Maand →</text></g><g aria-label="bar" fill="#157CCA" stroke="white" stroke-width="3"><rect x="47" width="34" y="20" height="300"><title>45.495</title></rect><rect x="85" width="34" y="176.86778766897461" height="143.13221233102539"><title>21.706</title></rect><rect x="123" width="34" y="235.8259149357072" height="84.1740850642928"><title>12.765</title></rect><rect x="161" width="34" y="153.5575337949225" height="166.4424662050775"><title>25.241</title></rect><rect x="199" width="34" y="130.234091658424" height="189.765908341576"><title>28.778</title></rect><rect x="237" width="34" y="198.39103198153646" height="121.60896801846354"><title>18.442</title></rect><rect x="275" width="34" y="293.78173425651164" height="26.21826574348836"><title>3.976</title></rect><rect x="313" width="34" y="246.48862512363993" height="73.51137487636007"><title>11.148</title></rect><rect x="351" width="34" y="307.52390372568414" height="12.476096274315864"><title>1.892</title></rect><rect x="389" width="34" y="309.7131552917903" height="10.286844708209685"><title>1.560</title></rect><rect x="427" width="34" y="289.7527200791296" height="30.247279920870426"><title>4.587</title></rect><rect x="465" width="34" y="210.6297395318167" height="109.37026046818329"><title>16.586</title></rect><rect x="503" width="34" y="242.9607649192219" height="77.0392350807781"><title>11.683</title></rect><rect x="541" width="34" y="198.44378503132208" height="121.55621496867792"><title>18.434</title></rect><rect x="579" width="34" y="198.44378503132208" height="121.55621496867792"><title>18.434</title></rect></g><g aria-label="bar" fill="#ec025f" stroke="white" stroke-width="3"><rect x="47" width="34" y="312.9640619848335" height="7.035938015166494"><title>1.067</title></rect><rect x="85" width="34" y="315.78635014836794" height="4.213649851632056"><title>0.639</title></rect><rect x="123" width="34" y="317.69205407187604" height="2.3079459281239565"><title>0.350</title></rect><rect x="161" width="34" y="315.64127926145727" height="4.358720738542729"><title>0.661</title></rect><rect x="199" width="34" y="314.8499835146719" height="5.150016485328081"><title>0.781</title></rect><rect x="237" width="34" y="317.0458292120013" height="2.9541707879986916"><title>0.448</title></rect><rect x="275" width="34" y="319.4460929772502" height="0.5539070227497973"><title>0.084</title></rect><rect x="313" width="34" y="317.83712495878666" height="2.16287504121334"><title>0.328</title></rect><rect x="351" width="34" y="319.657105176393" height="0.3428948236070255"><title>0.052</title></rect><rect x="389" width="34" y="319.98021760633037" height="0.019782393669629528"><title>0.003</title></rect><rect x="427" width="34" y="319.30102209033964" height="0.698977909660357"><title>0.106</title></rect><rect x="465" width="34" y="316.78865809429607" height="3.2113419057039323"><title>0.487</title></rect><rect x="503" width="34" y="316.7424991757336" height="3.257500824266401"><title>0.494</title></rect><rect x="541" width="34" y="312.64094955489617" height="7.359050445103833"><title>1.116</title></rect><rect x="579" width="34" y="314.4543356412793" height="5.545664358720728"><title>0.841</title></rect></g><g aria-label="rule" stroke="currentColor"><line x1="40" x2="620" y1="320" y2="320"></line></g>
      
</svg>
