<svg xmlns="http://www.w3.org/2000/svg" viewBox="0 0 500 150">
  <defs>
    <style>
      .cls-2{fill:#fff}
    </style>
  </defs>
  <g id="Layer_2" data-name="Layer 2">
    <g id="Layer_1-2" data-name="Layer 1">
      <path fill="#b6b6b6" d="M464.7 0H27.8a50.3 50.3 0 00-7.4.7 24.3 24.3 0 00-7 2.3 23.9 23.9 0 00-6 4.3 23.6 23.6 0 00-4.3 6 24.5 24.5 0 00-2.4 7.1A47.2 47.2 0 00.1 28L0 31.3v90.9a47.5 47.5 0 00.7 7.4 24.3 24.3 0 002.3 7A23.8 23.8 0 0013.4 147a24.7 24.7 0 007 2.3 50.2 50.2 0 007.4.7H472.1a49.4 49.4 0 007.4-.7 25.2 25.2 0 007-2.3 23 23 0 006-4.4 23.4 23.4 0 004.5-6 24.5 24.5 0 002.3-7 50 50 0 00.6-7.4v-3.4-83.5-4-3.4a49.8 49.8 0 00-.6-7.4 24.8 24.8 0 00-2.3-7A24 24 0 00486.6 3a24.9 24.9 0 00-7-2.3A49.4 49.4 0 00472 0h-3.4z"/>
      <path d="M31.3 146.8h-3.4a47.3 47.3 0 01-7-.6 22 22 0 01-6-2 20.7 20.7 0 01-9-9 21.4 21.4 0 01-2-6.1 45 45 0 01-.6-7V31.4 28a44.4 44.4 0 01.6-7 21.2 21.2 0 012-6.2 20 20 0 013.8-5.1 20.8 20.8 0 015.2-3.8 21.8 21.8 0 016-2 47.6 47.6 0 017-.6H472.1a45.3 45.3 0 016.9.6 21.7 21.7 0 016.2 2 20.6 20.6 0 018.9 9 21.4 21.4 0 012 6.1 48 48 0 01.6 7v94.2a45.6 45.6 0 01-.6 6.8 21 21 0 01-2 6.2 20.8 20.8 0 01-9 8.9 21.5 21.5 0 01-6.1 2 46.7 46.7 0 01-7 .6H31.4z"/>
      <path d="M185.6 101.3H168l-4.3 11.7H156l17.2-43.9h7.3l17.6 43.9H190zm-15.4-6h13.1l-4.7-12.6-1.8-5.8a196 196 0 01-1.9 5.7zM201.2 88.3l-.2-8h7a34.8 34.8 0 01.5 4.2 13.3 13.3 0 0110-4.8 11.3 11.3 0 0110.5 6.9 20.9 20.9 0 011.8 9 22.3 22.3 0 01-2 9.8 14 14 0 01-5.5 6.1 15.6 15.6 0 01-8.1 2 19.9 19.9 0 01-6.6-1V126l-7.5.6zm19.7 16.7c1.5-2 2.3-5 2.3-9q0-5.5-2-8a6 6 0 00-5-2.5 8 8 0 00-4 1 15 15 0 00-3.5 2.8v17.5a11.3 11.3 0 002.6.9 14.2 14.2 0 003 .3 7.8 7.8 0 006.6-3zM235.3 88.3l-.2-8h7a32.9 32.9 0 01.5 4.2q4.4-4.8 10-4.8a11.3 11.3 0 0110.6 6.9 20.9 20.9 0 011.7 9 22.4 22.4 0 01-2 9.8 14 14 0 01-5.4 6.1 15.6 15.6 0 01-8.2 2 19.9 19.9 0 01-6.5-1V126l-7.5.6zM255 105q2.3-3 2.3-9 0-5.5-2-8a6 6 0 00-5-2.5 8.1 8.1 0 00-4 1 15 15 0 00-3.4 2.8v17.5a11.7 11.7 0 002.6.9 14.2 14.2 0 003 .3 7.8 7.8 0 006.5-3zM278.6 111a18.2 18.2 0 01-7.4-7.7 25.2 25.2 0 01-2.6-11.8 24.7 24.7 0 013-12.6 19.3 19.3 0 018.1-7.8 25.5 25.5 0 0111.6-2.5 30.3 30.3 0 017.2.8 30.7 30.7 0 016.4 2.3l-1.9 5.7a26.6 26.6 0 00-11.4-2.8 16 16 0 00-8 2 13.3 13.3 0 00-5.3 5.7 20.1 20.1 0 00-2 9.2 22.2 22.2 0 001.5 8.3 12.3 12.3 0 004.7 5.7 14 14 0 008 2.2 26.6 26.6 0 004.3-.4 22 22 0 004.1-1v-9h-10.1v-5.8h17.4V110a38.8 38.8 0 01-8 2.7 36.8 36.8 0 01-8.1 1 23.2 23.2 0 01-11.5-2.8zM332.8 113a28.7 28.7 0 01-.6-4.3 14.4 14.4 0 01-4.5 3.5 13.4 13.4 0 01-6.2 1.4 11.8 11.8 0 01-5.1-1.1 8.4 8.4 0 01-3.7-3.3 10.2 10.2 0 01-1.4-5.5 9.3 9.3 0 013.4-7.5q3.5-2.9 11.5-2.9a41.8 41.8 0 015.9.5V93q0-4.3-1.9-6a7.4 7.4 0 00-5.3-1.9 21 21 0 00-5 .7 26.9 26.9 0 00-4.9 1.7l-1.2-5.4a28.7 28.7 0 015.3-1.7 30.7 30.7 0 016.9-.8 18 18 0 017.2 1.3 9.4 9.4 0 014.6 4.4 18 18 0 011.7 8.5v13l.2 6.1zm-4.5-6a12 12 0 003.8-2.8v-6a48.4 48.4 0 00-5-.3q-4.7 0-6.4 1.5a5 5 0 00-1.8 4 4.6 4.6 0 001.3 3.6 5 5 0 003.5 1.1 10.5 10.5 0 004.6-1.1zM345.3 105.2V66.6l7.4-.6v37.8a4.7 4.7 0 00.7 3 2.8 2.8 0 002.3.9 8.1 8.1 0 002-.3l.9 5.3a12.9 12.9 0 01-2.6.7 17.7 17.7 0 01-3 .3q-7.7 0-7.7-8.5zM363.9 105.2V66.6l7.4-.6v37.8a4.7 4.7 0 00.7 3 2.8 2.8 0 002.3.9 8.1 8.1 0 002-.3l.9 5.3a12.8 12.8 0 01-2.6.7 17.7 17.7 0 01-3 .3q-7.7 0-7.7-8.5zM407.8 97.6h-21.4q.5 10.3 9.8 10.3a21 21 0 004.7-.6 28.2 28.2 0 004.6-1.5l1.6 5.2a28 28 0 01-12.3 2.6 18 18 0 01-8.8-2 12.6 12.6 0 01-5.3-5.6 20.1 20.1 0 01-1.8-9 21 21 0 011.9-9.3 13.9 13.9 0 015.3-6 15 15 0 017.8-2 13.2 13.2 0 017.8 2.1 12.9 12.9 0 014.6 5.8 20.5 20.5 0 011.5 8zm-7.3-4.7a9.4 9.4 0 00-2-5.9 6 6 0 00-4.7-2 6.3 6.3 0 00-4.8 2 10.4 10.4 0 00-2.4 5.9zM413.4 88.5c0-1.7 0-4.5-.2-8.2h7l.3 3.3.3 3a27.1 27.1 0 012.5-3.5 10.4 10.4 0 013-2.4 7.8 7.8 0 013.8-1 10.3 10.3 0 013 .4l-1 6.5a8.6 8.6 0 00-7 1A18.9 18.9 0 00421 92v21h-7.5zM437 126.4a18.5 18.5 0 01-2.8-.7l1.4-5.4a19.3 19.3 0 001.9.4 13.1 13.1 0 002.2.2q5 0 7.4-6.4l.5-1.2-12-33h8l6 18.5a58.5 58.5 0 012 7.2q.8-3.6 2-7.1l6-18.6h7.6l-12 33.1a34 34 0 01-3.6 7.6 12.8 12.8 0 01-4.7 4.3 13.8 13.8 0 01-6.4 1.4 20.4 20.4 0 01-3.6-.3zM156 27.4h13.3l-.4 3.2h-9v6.2h8.5v3H160v7h9.5l-.3 3.2H156zM173.8 27.4h4.5l11.2 17.5-.2-4.6v-13h3.7V50h-4.3l-11.4-17.8.1 5.4V50h-3.6zM203.3 30.6h-7l.3-3.2h17.7l-.4 3.2h-6.7V50h-3.9zM217.6 27.4h7.4a15 15 0 016.3 1.2 8.7 8.7 0 014 3.5 11.3 11.3 0 011.4 5.8 13.2 13.2 0 01-1.5 6.3 10.5 10.5 0 01-4.1 4.3 12.7 12.7 0 01-6.4 1.5h-7.1zm6.8 19.5a8.4 8.4 0 004.5-1.1 7 7 0 002.8-3.1 10.8 10.8 0 001-4.6 7.6 7.6 0 00-2-5.7c-1.4-1.3-3.4-2-6-2h-3.3V47zM241 27.4h13.3l-.3 3.2h-9v6.2h8.5v3H245v7h9.5l-.4 3.2H241zM262.6 49a9 9 0 01-3.9-3.9 13.2 13.2 0 01-1.3-6.1 13.7 13.7 0 011.4-6.3 9.8 9.8 0 013.9-4.2 11.6 11.6 0 015.8-1.4 14.2 14.2 0 013.5.4 12.7 12.7 0 013 1.2l-1 3a11.7 11.7 0 00-5.3-1.5 7.2 7.2 0 00-4 1 6.6 6.6 0 00-2.4 3 11.4 11.4 0 00-.8 4.5 11.2 11.2 0 00.8 4.4 6.4 6.4 0 002.4 3 7.7 7.7 0 004.3 1.1 13.3 13.3 0 005.5-1.3l1 2.9a14.7 14.7 0 01-3.2 1.1 16.2 16.2 0 01-3.7.4 12.7 12.7 0 01-6-1.3zM278.8 27.4h3.9v11.4l2-2.7 6.6-8.7h4.4l-7.9 10 8.5 12.6H292l-6.6-10-2.6 2.9V50h-4zM299.2 27.4h13.4l-.4 3.2h-9v6.2h8.5v3h-8.5v7h9.5l-.3 3.2h-13.2zM317 27.4h4.6l11.2 17.5-.2-4.6v-13h3.6V50H332l-11.4-17.8c.2 2 .2 3.8.2 5.4V50h-3.6zM364.9 38.8a5.4 5.4 0 011.9 2 5.5 5.5 0 01.7 2.9 6 6 0 01-1 3.3 6.2 6.2 0 01-2.7 2.2 10.7 10.7 0 01-4.4.8H352V27.4h7a8.7 8.7 0 015.5 1.4 4.6 4.6 0 011.7 3.8 5 5 0 01-1 3.4 6.2 6.2 0 01-3 1.9 7.3 7.3 0 012.7 1zm-9-2.2h2.4a4.5 4.5 0 002.2-.5 3.6 3.6 0 001.4-1.3 3.4 3.4 0 00.5-1.8 2.4 2.4 0 00-1-2 5.2 5.2 0 00-3-.7H356zm6.5 9.5a3.8 3.8 0 000-5.6 6.3 6.3 0 00-3.9-1H356v7.6h3a5.6 5.6 0 003.5-1zM371.7 27.4H385l-.4 3.2h-9v6.2h8.5v3h-8.5v7h9.5l-.3 3.2h-13zM389.6 27.4h3.9V50h-4z" class="cls-2"/>
      <rect id="形状_1_拷贝_25" width="95" height="95" x="32.8" y="27.5" fill="#c8102e" data-name="形状 1 拷贝 25" rx="26.7"/>
      <path d="M51.6 75H54v12.4h-2.5v-5h-5.7v5h-2.5V75h2.5v5h5.7zm14.2 7.1c0 2-1 3.1-2.9 3.1s-2.8-1-2.8-3.2v-7h-2.5v7.1c0 3.5 2 5.5 5.3 5.5s5.4-2 5.4-5.6v-7h-2.5zm29 1.4L92.2 75H90l-2.8 8.5-2.8-8.5h-2.6L86 87.4h2l2.9-8.1 2.8 8.1H96l4.4-12.4h-2.7zm10-1.4h4.6v-2.3h-4.6v-2.5h6.6V75h-9.1v12.4h9.4v-2.2h-7zm9.9 5.3h2.5V75h-2.5zm-41.4-2.6L72 87.4h-2.5L75 75h2.2l5.5 12.4H80L79 84.8zm1-2.2H78l-1.9-4.4zM80.3 59.2a15.8 15.8 0 01-15.8-15.8h2.2a13.6 13.6 0 0027.1 0h2.3a15.8 15.8 0 01-15.8 15.8z" class="cls-2"/>
    </g>
  </g>
</svg>
