<svg xmlns="http://www.w3.org/2000/svg" width="850.4" height="255.1" viewBox="0 0 850.4 255.1">
  <g data-name="Group 8">
    <g data-name="Group 3">
      <g data-name="Group 2">
        <g data-name="Group 1">
          <path fill="#b4b5b5" d="M790.4 0h-743a83.3 83.3 0 00-12.7 1.2 42 42 0 00-12 4 40.5 40.5 0 00-10.1 7.4 39.4 39.4 0 00-7.4 10.2 41.5 41.5 0 00-4 12A81.6 81.6 0 00.1 47.4L0 53.2V202l.1 5.8a81.6 81.6 0 001.1 12.6 41.4 41.4 0 004 12 39 39 0 007.4 10.1 39.5 39.5 0 0010.2 7.4 42.2 42.2 0 0012 4 84.6 84.6 0 0012.6 1.1 260.8 260.8 0 0012.6.1H803a83.5 83.5 0 0012.6-1.2 42.9 42.9 0 0012-4 39.5 39.5 0 0010.2-7.4 40.3 40.3 0 007.5-10.1 41.6 41.6 0 003.9-12 85 85 0 001.1-12.6V202 60v-6.8-5.8a85 85 0 00-1.1-12.6 41.7 41.7 0 00-4-12 40.7 40.7 0 00-17.6-17.6 42.6 42.6 0 00-12-4A82.2 82.2 0 00803 .1h-5.8l-6.8-.1z" data-name="Path 1"/>
          <path fill="#1a1311" d="M53.2 249.6h-5.7a79.8 79.8 0 01-11.8-1 37 37 0 01-10.4-3.5 34 34 0 01-8.8-6.4 33.5 33.5 0 01-6.5-8.8 36 36 0 01-3.4-10.5 78.2 78.2 0 01-1-11.8l-.1-5.7V53.2v-5.7a78 78 0 011.1-11.8 36.2 36.2 0 013.5-10.4 33.8 33.8 0 016.3-8.8 35 35 0 018.9-6.5 36.7 36.7 0 0110.4-3.4 79.1 79.1 0 0111.8-1H802.9a78 78 0 0111.7 1 37.4 37.4 0 0110.6 3.5 35.2 35.2 0 0115.2 15.2 36.3 36.3 0 013.3 10.4 81.8 81.8 0 011.1 11.9v5.6l.1 6.8V207.7a80 80 0 01-1.1 11.7 36.1 36.1 0 01-3.4 10.5 34.5 34.5 0 01-6.4 8.7 34.1 34.1 0 01-8.9 6.5 37 37 0 01-10.5 3.4 79 79 0 01-11.7 1l-5.7.1h-6.8z" data-name="Path 2"/>
        </g>
      </g>
    </g>
    <g data-name="Group 7">
      <g fill="#fff" data-name="Group 4">
        <path d="M315.4 172.4h-29.5l-7.2 19.8h-13l28.9-73.8h12.3l29.5 73.8h-13.6zm-25.8-10h22l-7.9-21.1q-1.6-4.4-3.2-9.7l-3 9.6z" data-name="Path 3"/>
        <path d="M342.3 150.7q0-6.1-.4-13.4h11.8a59.4 59.4 0 01.9 7q7.3-8 16.8-8a19 19 0 0117.7 11.5q2.9 6 2.9 15.2a37.6 37.6 0 01-3.3 16.4 23.5 23.5 0 01-9.2 10.3 26.2 26.2 0 01-13.6 3.5 33.6 33.6 0 01-11-1.8V214l-12.6 1.1zm33 28q3.9-5.1 3.9-15 0-9.2-3.2-13.4a10.1 10.1 0 00-8.5-4.1 13.7 13.7 0 00-6.8 1.7 25.5 25.5 0 00-5.9 4.6V182a19 19 0 004.4 1.5 23.5 23.5 0 005 .5q7.3 0 11.1-5.1z" data-name="Path 4"/>
        <path d="M400 150.7q0-6.1-.4-13.4h11.8a59.2 59.2 0 011 7q7.3-8 16.7-8a19 19 0 0117.8 11.5q2.8 6 2.8 15.2a37.6 37.6 0 01-3.3 16.4 23.5 23.5 0 01-9.1 10.3 26.2 26.2 0 01-13.7 3.5 33.6 33.6 0 01-11-1.8V214l-12.6 1.1zm33 28q4-5.1 4-15 0-9.2-3.3-13.4a10.1 10.1 0 00-8.4-4.1 13.7 13.7 0 00-6.8 1.7 25.4 25.4 0 00-6 4.6V182a19 19 0 004.5 1.5 23.5 23.5 0 004.9.5q7.3 0 11.2-5.1z" data-name="Path 5"/>
        <path d="M473.4 188.7a30.5 30.5 0 01-12.5-13q-4.3-8.3-4.3-19.8 0-12.4 5-21a32.4 32.4 0 0113.7-13 42.8 42.8 0 0119.5-4.4 51.3 51.3 0 0112.1 1.4 52.6 52.6 0 0110.8 3.8l-3.2 9.7a44.5 44.5 0 00-19.2-4.8 26.8 26.8 0 00-13.4 3.3 22.3 22.3 0 00-9 9.6 33.8 33.8 0 00-3.2 15.4 37.1 37.1 0 002.4 14 20.7 20.7 0 007.8 9.6q5.3 3.6 13.4 3.6a44.4 44.4 0 007.4-.6 38.1 38.1 0 006.8-1.8v-14.9h-17V156h29.2v31a65.5 65.5 0 01-13.2 4.6 62.2 62.2 0 01-13.8 1.6q-11.1 0-19.3-4.5z" data-name="Path 6"/>
        <path d="M565 192.2a48 48 0 01-.8-7.3 24.2 24.2 0 01-7.6 5.9 22.5 22.5 0 01-10.5 2.4 19.8 19.8 0 01-8.6-1.9 14.4 14.4 0 01-6.2-5.6 17.2 17.2 0 01-2.3-9.1 15.7 15.7 0 015.8-12.8q5.7-4.7 19.1-4.7a69.7 69.7 0 0110 .7v-1q0-7.3-3-10.3t-9-3a34.9 34.9 0 00-8.6 1.2 45.3 45.3 0 00-8 2.8l-2-9.2a48.1 48.1 0 018.8-2.8 51.3 51.3 0 0111.6-1.3 30.4 30.4 0 0112.2 2.2 15.9 15.9 0 017.7 7.4q2.8 5.3 2.8 14.2v21.8q0 3.4.4 10.4zm-7.5-10.2a20 20 0 006.4-4.7v-10.2a80.7 80.7 0 00-8.4-.5q-7.8 0-10.7 2.5a8.4 8.4 0 00-3 6.8q0 4 2.1 6a8.4 8.4 0 006 2 17.6 17.6 0 007.6-2z" data-name="Path 7"/>
        <path d="M587.4 179V114l12.5-1v63.6q0 3.6 1.2 5a4.6 4.6 0 003.8 1.5 14.1 14.1 0 003.3-.6l1.5 9a21.5 21.5 0 01-4.3 1.2 29.6 29.6 0 01-4.9.4q-13 0-13-14.2z" data-name="Path 8"/>
        <path d="M618.7 179V114l12.5-1v63.6q0 3.6 1.2 5a4.6 4.6 0 003.8 1.5 14.1 14.1 0 003.3-.6l1.5 9a21.5 21.5 0 01-4.4 1.2 29.5 29.5 0 01-4.8.4q-13 0-13-14.2z" data-name="Path 9"/>
        <path d="M693.1 166.3h-36q1 17.3 16.5 17.3a34.9 34.9 0 008-1 47 47 0 007.7-2.5l2.7 8.6a46.8 46.8 0 01-20.7 4.5q-8.7 0-14.7-3.3a21.3 21.3 0 01-9-9.5 33.9 33.9 0 01-3-15 35.4 35.4 0 013.1-15.7 23.3 23.3 0 019-10 25 25 0 0113.2-3.5 22.2 22.2 0 0113 3.7 21.8 21.8 0 017.7 9.7A34.5 34.5 0 01693 163zm-12.3-8q-.3-6.5-3.3-9.8a10 10 0 00-7.8-3.3 10.6 10.6 0 00-8 3.3q-3.2 3.3-4.2 9.8z" data-name="Path 10"/>
        <path d="M703.2 151q0-4.5-.4-13.7h11.8l.6 5.4q.3 3.1.3 5.2a46.1 46.1 0 014.3-6 17.6 17.6 0 015-4.1 13.1 13.1 0 016.4-1.6 17.9 17.9 0 015 .7l-1.6 10.8a14 14 0 00-4-.5 13.4 13.4 0 00-7.8 2.3 31 31 0 00-7 7.4v35.3h-12.6z" data-name="Path 11"/>
        <path d="M743.7 214.6a30.6 30.6 0 01-4.5-1l2.3-9.2 3.2.7a21.8 21.8 0 003.7.3q8.3 0 12.5-10.7l.8-2-20.2-55.4h13.4l10.2 30.9a100.4 100.4 0 013.2 12.2q1.4-6 3.4-12l10.3-31.1h12.7l-20.2 55.6a57 57 0 01-6.2 12.7 21.6 21.6 0 01-7.8 7.2 23.3 23.3 0 01-10.9 2.3 34 34 0 01-5.9-.5z" data-name="Path 12"/>
      </g>
      <g fill="#fff" data-name="Group 5">
        <path d="M265.6 46.7h22.7l-.6 5.5h-15.4v10.6h14.5v5.1h-14.5v11.8h16.2l-.6 5.5h-22.3z" data-name="Path 13"/>
        <path d="M304 65.6l-12-18.9h7.5l8.1 13.9 8.5-13.9h7.4l-11.9 18.6 12.8 19.9h-7.6L307.6 70l-9.3 15.2H291z" data-name="Path 14"/>
        <path d="M329.3 46.7h10.4q7.3 0 11.2 3t3.9 8.6A12.6 12.6 0 01353 65a11.5 11.5 0 01-4.8 4.4 16 16 0 01-7.2 1.5 27.9 27.9 0 01-5-.5v14.8h-6.7zM346 64a7 7 0 002.1-5.4q0-3.6-2.1-5.2t-6.4-1.5H336v13.6a26.3 26.3 0 003.8.4q4 0 6.2-1.9z" data-name="Path 15"/>
        <path d="M361.3 46.7h6.7v32.8h15.9l-.6 5.7h-22z" data-name="Path 16"/>
        <path d="M394 83.3a16 16 0 01-6.5-6.8 22 22 0 01-2.2-10.1 22.7 22.7 0 012.4-10.7 16.7 16.7 0 016.8-7 21.4 21.4 0 0110.6-2.5 19.8 19.8 0 0110 2.4 15.9 15.9 0 016.4 6.8 22 22 0 012.2 10 22.8 22.8 0 01-2.4 10.8 16.8 16.8 0 01-6.8 7 21.2 21.2 0 01-10.5 2.5 19.8 19.8 0 01-10-2.4zm17.2-4.7a11.3 11.3 0 004.2-5.2 19.2 19.2 0 001.4-7.5 20.8 20.8 0 00-1.3-7.4 11 11 0 00-3.9-5.1 11.6 11.6 0 00-6.9-2 11.7 11.7 0 00-6.8 2 12 12 0 00-4.3 5.2 18.1 18.1 0 00-1.4 7.3 19.8 19.8 0 001.4 7.4 11.4 11.4 0 004 5.3 11.6 11.6 0 006.8 1.9 12 12 0 006.8-2z" data-name="Path 17"/>
        <path d="M431.1 46.7h12q6.7 0 10 2.7a9 9 0 013.4 7.5 11.4 11.4 0 01-1.2 5.4 11.9 11.9 0 01-3 3.7 13.4 13.4 0 01-3.7 2.2l11.8 17h-7.7l-10-15.3h-5v15.3h-6.6zM441.5 65a9.3 9.3 0 004.3-1 7 7 0 003-2.6 7.5 7.5 0 001-4 4.9 4.9 0 00-1.9-4.2 9 9 0 00-5.3-1.3h-4.8v13.1z" data-name="Path 18"/>
        <path d="M465.6 46.7h22.7l-.6 5.5h-15.4v10.6h14.5v5.1h-14.5v11.8h16.2l-.6 5.5h-22.3z" data-name="Path 19"/>
        <path d="M513 46.7h6.6v38.5H513z" data-name="Path 20"/>
        <path d="M537.2 52.3h-12l.6-5.6h30l-.6 5.6h-11.4v32.9h-6.6z" data-name="Path 21"/>
        <path d="M584.6 83.3a16 16 0 01-6.5-6.8 22 22 0 01-2.2-10.1 22.7 22.7 0 012.4-10.7 16.7 16.7 0 016.8-7 21.4 21.4 0 0110.6-2.5 19.8 19.8 0 0110 2.4 15.9 15.9 0 016.4 6.8 22 22 0 012.2 10 22.8 22.8 0 01-2.4 10.8 16.8 16.8 0 01-6.8 7 21.2 21.2 0 01-10.5 2.5 19.8 19.8 0 01-10-2.4zm17.2-4.7a11.3 11.3 0 004.2-5.2 19.2 19.2 0 001.4-7.5 20.8 20.8 0 00-1.3-7.4 11 11 0 00-3.9-5.1 11.6 11.6 0 00-6.9-2 11.8 11.8 0 00-6.8 2 12 12 0 00-4.2 5.2 18.1 18.1 0 00-1.5 7.3 19.8 19.8 0 001.4 7.4 11.4 11.4 0 004 5.3 11.6 11.6 0 006.8 1.9 12 12 0 006.8-2z" data-name="Path 22"/>
        <path d="M621.7 46.7h7.7l19 29.8-.2-7.8v-22h6.1v38.5H647l-19.3-30.3q.3 5.2.3 9.1v21.2h-6.2z" data-name="Path 23"/>
      </g>
      <g data-name="Group 6">
        <path fill="#ac0022" d="M101.4 46.4c-33.5 0-45.7 12.2-45.7 45.7v71c0 33.4 12.2 45.6 45.7 45.6h71c33.4 0 45.6-12.2 45.6-45.7V92c0-33.4-12.2-45.6-45.6-45.6z" data-name="形状 1 拷贝 25"/>
        <path fill="#fff" d="M87.9 127.6h4.3v21.2h-4.3v-8.6H78v8.6h-4.3v-21.2h4.3v8.5H88zm24.2 12.1c0 3.5-1.7 5.3-4.8 5.3-3.1 0-4.9-1.9-4.9-5.4v-12h-4.3v12.1c0 6 3.3 9.4 9.1 9.4 5.9 0 9.2-3.5 9.2-9.6v-12h-4.3zm49.8 2.5l-4.9-14.6h-3.5l-4.8 14.6-4.7-14.6h-4.6l7.4 21.2h3.6l4.8-14 4.9 14h3.6l7.3-21.2h-4.4zm16.8-2.5h7.9v-3.9h-7.9v-4.3h11.4v-4h-15.6v21.3h16v-3.9h-11.8zm17 9h4.2v-21.1h-4.2zm-70.8-4.3l-2 4.4h-4.3l9.3-21.2h3.8l9.4 21.2h-4.6l-1.9-4.4zm1.6-3.9h6.5l-3.2-7.6z" data-name="Path 25"/>
        <path fill="#fff" d="M136.9 100.6a27 27 0 01-27-27h3.8a23.2 23.2 0 0046.4 0h3.8a27 27 0 01-27 27z" data-name="Path 26"/>
      </g>
    </g>
  </g>
</svg>
