<svg xmlns="http://www.w3.org/2000/svg" viewBox="0 0 500 150">
  <defs>
    <style>
      .cls-2{fill:#fff}
    </style>
  </defs>
  <g id="Layer_2" data-name="Layer 2">
    <g id="Layer_1-2" data-name="Layer 1">
      <path fill="#b6b6b6" d="M464.7 0H27.8a49 49 0 00-7.4.7 24.7 24.7 0 00-7 2.3 23.8 23.8 0 00-6 4.4 23.2 23.2 0 00-4.4 6 24.4 24.4 0 00-2.3 7 48.1 48.1 0 00-.6 7.4L0 31.3v90.9a48 48 0 00.7 7.4 24.4 24.4 0 002.3 7 23 23 0 004.4 6 23.2 23.2 0 006 4.4 24.8 24.8 0 007 2.3 49.8 49.8 0 007.4.7h444.4a49.2 49.2 0 007.4-.7 25.2 25.2 0 007-2.3 23.2 23.2 0 006-4.4 23.7 23.7 0 004.4-6 24.4 24.4 0 002.3-7 50 50 0 00.7-7.4v-3.4-83.5-4-3.5a50 50 0 00-.7-7.4 24.5 24.5 0 00-2.3-7A24 24 0 00486.6 3a25 25 0 00-7-2.3 48.3 48.3 0 00-7.4-.6h-3.5l-4-.1z"/>
      <path d="M31.3 146.8h-3.4a47 47 0 01-7-.7 21.8 21.8 0 01-6-2 20 20 0 01-5.2-3.8 19.7 19.7 0 01-3.8-5.1 21.2 21.2 0 01-2-6.2 46 46 0 01-.6-7V31.4v-3.4a45.8 45.8 0 01.6-6.9 21.3 21.3 0 012-6.1 19.9 19.9 0 013.8-5.2 20.6 20.6 0 015.2-3.8 21.6 21.6 0 016-2 46.6 46.6 0 017-.6H472.1a45.8 45.8 0 016.9.6 22 22 0 016.2 2 20.7 20.7 0 018.9 9 21.3 21.3 0 012 6 48.1 48.1 0 01.6 7V122.2a47.1 47.1 0 01-.6 6.9 21.2 21.2 0 01-2 6.2 20.3 20.3 0 01-3.8 5.1 20 20 0 01-5.1 3.8 21.7 21.7 0 01-6.2 2 46.4 46.4 0 01-7 .6h-7.3z"/>
      <path d="M185.6 101.3H168l-4.3 11.7H156l17.2-43.9h7.3l17.6 43.9H190zm-15.4-6h13.1l-4.6-12.6-2-5.7-1.8 5.7zM201.2 88.3l-.2-8h7a34.8 34.8 0 01.5 4.2 13.2 13.2 0 0110-4.8 11.3 11.3 0 0110.6 6.9 20.9 20.9 0 011.7 9 22.4 22.4 0 01-2 9.8 14 14 0 01-5.4 6.2 15.6 15.6 0 01-8.2 2 20 20 0 01-6.5-1V126l-7.5.7zm19.7 16.7q2.2-3 2.2-9 0-5.4-1.8-7.9a6 6 0 00-5-2.5 8.1 8.1 0 00-4.1 1 15.2 15.2 0 00-3.5 2.8V107a11.4 11.4 0 002.6.9 14 14 0 003 .3 7.8 7.8 0 006.6-3zM235.3 88.3l-.2-8h7a34.9 34.9 0 01.5 4.2 13.2 13.2 0 0110-4.8 11.3 11.3 0 0110.6 6.9 20.9 20.9 0 011.7 9 22.4 22.4 0 01-2 9.8 14 14 0 01-5.4 6.2 15.6 15.6 0 01-8.1 2 20 20 0 01-6.6-1V126l-7.5.7zM255 105q2.3-3 2.3-9 0-5.4-2-7.9a6 6 0 00-5-2.5 8.1 8.1 0 00-4 1 15.2 15.2 0 00-3.5 2.8V107a11.4 11.4 0 002.6.9 14 14 0 003 .3 7.8 7.8 0 006.6-3zM278.6 111a18.1 18.1 0 01-7.4-7.7 25.2 25.2 0 01-2.6-11.9 24.6 24.6 0 013-12.5 19.3 19.3 0 018.1-7.7 25.5 25.5 0 0111.6-2.6 30.6 30.6 0 017.2.8 31.3 31.3 0 016.4 2.3l-1.9 5.7a26.5 26.5 0 00-11.4-2.8 16 16 0 00-8 2 13.3 13.3 0 00-5.3 5.7 20.1 20.1 0 00-2 9.1 22 22 0 001.6 8.3 12.3 12.3 0 004.6 5.8 14 14 0 008 2.1 26.5 26.5 0 004.3-.3 22.8 22.8 0 004.1-1.1v-8.9h-10.1v-5.8h17.4V110a38.8 38.8 0 01-8 2.7 37 37 0 01-8.1 1 23.3 23.3 0 01-11.5-2.8zM332.7 113a28.5 28.5 0 01-.5-4.3 14.4 14.4 0 01-4.5 3.5 13.4 13.4 0 01-6.2 1.4 11.8 11.8 0 01-5.1-1.1 8.6 8.6 0 01-3.7-3.3 10.2 10.2 0 01-1.4-5.5 9.3 9.3 0 013.4-7.5q3.5-2.9 11.4-2.9a41.5 41.5 0 016 .5V93q0-4.3-1.9-6a7.4 7.4 0 00-5.3-1.9 20.7 20.7 0 00-5 .7 27 27 0 00-4.9 1.7l-1.1-5.4a28.7 28.7 0 015.2-1.7 30.6 30.6 0 017-.8 18 18 0 017.1 1.3 9.5 9.5 0 014.7 4.4 18 18 0 011.6 8.5v13l.3 6.1zm-4.4-6a12 12 0 003.8-2.8v-6a48.1 48.1 0 00-5-.4q-4.6 0-6.4 1.5a5 5 0 00-1.8 4 4.6 4.6 0 001.3 3.6 5 5 0 003.5 1.2 10.5 10.5 0 004.6-1.2zM345.3 105.2V66.6l7.4-.6v37.8a4.7 4.7 0 00.7 3 2.8 2.8 0 002.3.8 8.4 8.4 0 002-.3l.8 5.4a12.7 12.7 0 01-2.6.7 17.4 17.4 0 01-2.9.2q-7.7 0-7.7-8.4zM363.9 105.2V66.6l7.4-.6v37.8a4.7 4.7 0 00.7 3 2.8 2.8 0 002.3.8 8.4 8.4 0 002-.3l.8 5.4a12.7 12.7 0 01-2.5.7 17.4 17.4 0 01-3 .2q-7.7 0-7.7-8.4zM407.8 97.6h-21.4q.5 10.3 9.8 10.3a20.8 20.8 0 004.7-.6 28.1 28.1 0 004.6-1.5l1.6 5.1a27.8 27.8 0 01-12.3 2.7 18 18 0 01-8.8-2 12.6 12.6 0 01-5.3-5.6 20.1 20.1 0 01-1.8-9 21 21 0 011.9-9.2 13.9 13.9 0 015.3-6 14.9 14.9 0 017.8-2 13.2 13.2 0 017.8 2.1 13 13 0 014.6 5.8 20.6 20.6 0 011.5 8zm-7.3-4.7a9.3 9.3 0 00-2-5.9 6 6 0 00-4.7-2 6.3 6.3 0 00-4.7 2 10.4 10.4 0 00-2.5 5.9zM413.4 88.5l-.2-8.2h7l.3 3.3.3 3a27.4 27.4 0 012.5-3.6 10.5 10.5 0 013-2.3 7.8 7.8 0 013.8-1 10.6 10.6 0 013 .4l-1 6.5a8.3 8.3 0 00-2.4-.4 8 8 0 00-4.6 1.4 18.5 18.5 0 00-4.2 4.4v21h-7.5zM437 126.4a18.2 18.2 0 01-2.8-.7l1.4-5.4a19.4 19.4 0 001.9.4 12.9 12.9 0 002.2.2q5 0 7.4-6.4l.5-1.2-12-33h8l6 18.4a59.4 59.4 0 012 7.3q.8-3.6 2-7.1l6-18.6h7.6l-12 33.1a34 34 0 01-3.7 7.6 12.8 12.8 0 01-4.6 4.3 13.9 13.9 0 01-6.5 1.4 20.2 20.2 0 01-3.5-.3zM156 27.4h13.3l-.4 3.2h-9v6.2h8.5v3H160v7h9.5l-.3 3.2H156zM173.8 27.4h4.5l11.2 17.5-.2-4.6v-13h3.7V50h-4.4l-11.3-17.8.1 5.4V50h-3.6zM203.3 30.6h-7l.3-3.2h17.6l-.3 3.2h-6.7V50h-3.9zM217.6 27.4h7.4a15 15 0 016.3 1.2 8.7 8.7 0 014 3.6 11.3 11.3 0 011.4 5.7 13.1 13.1 0 01-1.5 6.3 10.5 10.5 0 01-4.1 4.3 12.7 12.7 0 01-6.4 1.5h-7.1zm6.8 19.5a8.5 8.5 0 004.5-1.1 7 7 0 002.8-3.1 10.8 10.8 0 001-4.6 7.6 7.6 0 00-2-5.7q-2-2-6-2h-3.2V47zM241 27.4h13.3l-.3 3.2h-9v6.2h8.5v3h-8.6v7h9.6L254 50h-13zM262.6 49a9 9 0 01-3.9-3.9 13.1 13.1 0 01-1.3-6.1 13.8 13.8 0 011.4-6.4 9.8 9.8 0 013.9-4.1 11.5 11.5 0 015.8-1.4 14.3 14.3 0 013.5.4 13.2 13.2 0 013 1.2l-1 3a11.7 11.7 0 00-5.3-1.5 7 7 0 00-4 1 6.5 6.5 0 00-2.4 3 11.4 11.4 0 00-.9 4.6 11.2 11.2 0 00.8 4.4 6.4 6.4 0 002.5 3 7.7 7.7 0 004.3 1 13.3 13.3 0 005.5-1.3l.9 2.9a14.5 14.5 0 01-3 1.1 16 16 0 01-3.8.4 12.7 12.7 0 01-6-1.3zM278.8 27.4h3.9v11.4l2-2.7 6.6-8.7h4.4l-7.9 10 8.5 12.6H292l-6.6-10-2.6 2.9V50h-4zM299.2 27.4h13.4l-.4 3.2h-9v6.2h8.5v3H303v7h9.6l-.4 3.2h-13zM317 27.4h4.6l11.2 17.5-.2-4.6v-13h3.6V50H332l-11.4-17.8.2 5.4V50h-3.6zM364.9 38.8a5.5 5.5 0 011.9 2 5.6 5.6 0 01.7 2.8 6 6 0 01-1 3.3 6.2 6.2 0 01-2.7 2.3 10.7 10.7 0 01-4.4.8H352V27.4h7.1a8.7 8.7 0 015.4 1.4 4.6 4.6 0 011.8 3.8 5 5 0 01-1.2 3.3 6 6 0 01-3 2 7.3 7.3 0 012.8 1zm-9-2.2h2.4a4.6 4.6 0 002.1-.5 3.6 3.6 0 001.5-1.3 3.4 3.4 0 00.5-1.8 2.3 2.3 0 00-1-2 5.2 5.2 0 00-3-.7h-2.6zm6.5 9.5a3.8 3.8 0 00-.1-5.6 6.3 6.3 0 00-3.8-1h-2.7v7.6h3a5.6 5.6 0 003.6-1zM371.7 27.4H385l-.3 3.2h-9v6.2h8.4v3h-8.5v7h9.5l-.3 3.2h-13zM389.6 27.4h3.9V50h-4z" class="cls-2"/>
      <path fill="#c8102e" fill-rule="evenodd" d="M100.9 27.4H59.4c-19.5 0-26.7 7.2-26.7 26.7v41.5c0 19.6 7.2 26.7 26.7 26.7H101c19.6 0 26.7-7.1 26.7-26.7V54.1c0-19.5-7.2-26.7-26.7-26.7z"/>
      <path d="M51.6 75H54v12.4h-2.5v-5h-5.7v5h-2.5V75h2.5v5h5.7zm14.2 7.1c0 2-1 3.1-2.9 3.1-1.8 0-2.8-1-2.8-3.2v-7h-2.5v7.1c0 3.5 2 5.5 5.3 5.5 3.4 0 5.4-2 5.4-5.6v-7h-2.5zm29 1.4L92.2 75h-2l-2.9 8.5-2.7-8.5h-2.7L86 87.4h2l3-8.1 2.7 8.1H96l4.4-12.4h-2.7zm10-1.4h4.6v-2.3h-4.6v-2.5h6.6V75h-9.1v12.4h9.4v-2.2h-7zm9.9 5.3h2.5V75h-2.5zm-41.4-2.6L72 87.4h-2.5L75 75h2.3l5.4 12.4h-2.6L79 84.8zm1-2.2H78l-1.9-4.4zM80.3 59.2a15.8 15.8 0 01-15.9-15.8h2.3a13.6 13.6 0 1027.1 0h2.3a15.8 15.8 0 01-15.8 15.8z" class="cls-2"/>
    </g>
  </g>
</svg>
