<svg id="图层_1" data-name="图层 1" xmlns="http://www.w3.org/2000/svg" viewBox="0 0 850.4 255.1"><defs><style>.cls-3{fill:#fff}</style></defs><path d="M790.4 0H47.3a82.7 82.7 0 00-12.6 1.2 42 42 0 00-12 4 40.3 40.3 0 00-10.2 7.4 39.2 39.2 0 00-7.4 10.2 41.7 41.7 0 00-4 12 80.6 80.6 0 00-1 12.6L0 53.2V202l.1 5.8a80.6 80.6 0 001.1 12.6 41.5 41.5 0 004 12 39 39 0 007.4 10.2 39.8 39.8 0 0010.2 7.4 42.3 42.3 0 0012 4 84 84 0 0012.6 1.1H803a82.7 82.7 0 0012.6-1.1 43 43 0 0012-4 39.6 39.6 0 0010.2-7.4 40.3 40.3 0 007.4-10.2 41.4 41.4 0 004-12 84.5 84.5 0 001.1-12.6V202 60.1v-6.8-5.8a84.5 84.5 0 00-1.2-12.6 41.6 41.6 0 00-3.9-12 40.8 40.8 0 00-17.6-17.7 42.6 42.6 0 00-12-4 81.5 81.5 0 00-12.6-1l-5.8-.2h-6.8z" fill="#c3c4c4"/><path d="M53.2 249.6h-5.7a80.1 80.1 0 01-11.8-1 37.2 37.2 0 01-10.4-3.5 34 34 0 01-8.8-6.4A33.4 33.4 0 0110 230a35.8 35.8 0 01-3.5-10.4 77.5 77.5 0 01-1-11.8V53.2v-5.6a77.8 77.8 0 011-11.8 36.2 36.2 0 013.5-10.5 33.8 33.8 0 016.3-8.8 35.3 35.3 0 018.9-6.4 36.5 36.5 0 0110.4-3.5 78.8 78.8 0 0111.8-1H802.9a77 77 0 0111.7 1 37.5 37.5 0 0110.5 3.5 35.4 35.4 0 0115.2 15.2 36.4 36.4 0 013.4 10.4 82.6 82.6 0 011.1 11.9V207.7a80.1 80.1 0 01-1 11.7 36.3 36.3 0 01-3.5 10.5 34.6 34.6 0 01-6.4 8.7 34 34 0 01-8.8 6.5 36.7 36.7 0 01-10.5 3.4 79.3 79.3 0 01-11.7 1h-12.5z" fill="#24272a"/><path class="cls-3" d="M315.4 172.4h-29.5l-7.2 19.8h-13l28.9-73.7h12.2l29.6 73.7h-13.6zm-25.8-10h22l-7.9-21q-1.6-4.5-3.2-9.7l-3 9.5zM342.3 150.7q0-6.1-.4-13.4h11.8a58.5 58.5 0 01.9 7q7.3-8 16.8-8a19 19 0 0117.7 11.5q2.9 6 2.9 15.2a37.6 37.6 0 01-3.3 16.4 23.5 23.5 0 01-9.2 10.4 26.2 26.2 0 01-13.6 3.5 33.7 33.7 0 01-11-2v22.8l-12.6 1zm33 28q3.8-5 3.8-15c0-6.1-1-10.6-3.2-13.4a10.1 10.1 0 00-8.4-4.1 13.7 13.7 0 00-6.8 1.7 25.8 25.8 0 00-6 4.6V182a19 19 0 004.5 1.4 23.2 23.2 0 005 .6q7.3 0 11.1-5.2zM400 150.7q0-6.1-.4-13.4h11.8a60.6 60.6 0 011 7q7.2-8 16.7-8a19 19 0 0117.7 11.5q3 6 3 15.2a37.6 37.6 0 01-3.4 16.4 23.6 23.6 0 01-9.1 10.4 26.2 26.2 0 01-13.7 3.5 33.7 33.7 0 01-11-2v22.8l-12.6 1zm33 28q3.9-5 3.9-15 0-9.2-3.2-13.4a10.1 10.1 0 00-8.5-4.1 13.7 13.7 0 00-6.7 1.7 25.3 25.3 0 00-6 4.6V182a18.8 18.8 0 004.5 1.4 23.4 23.4 0 005 .5q7.2 0 11-5.1zM473.4 188.7a30.5 30.5 0 01-12.5-12.9q-4.3-8.4-4.3-19.9 0-12.3 5-21a32.4 32.4 0 0113.7-13 42.7 42.7 0 0119.4-4.4 51.6 51.6 0 0112.2 1.4 53.5 53.5 0 0110.7 3.8l-3.2 9.7a44.6 44.6 0 00-19.1-4.8 26.8 26.8 0 00-13.5 3.3 22.3 22.3 0 00-9 9.7 33.9 33.9 0 00-3.2 15.3 37 37 0 002.5 14 20.6 20.6 0 007.8 9.7q5.3 3.6 13.4 3.6a44.2 44.2 0 007.3-.7 37.6 37.6 0 006.9-1.7v-15h-17V156h29.2v31a65.2 65.2 0 01-13.2 4.6 62.3 62.3 0 01-13.8 1.6q-11.1 0-19.3-4.5zM565 192.2a47.6 47.6 0 01-.9-7.3 24.3 24.3 0 01-7.5 5.9 22.5 22.5 0 01-10.5 2.4 19.7 19.7 0 01-8.6-1.9 14.3 14.3 0 01-6.2-5.6 17.1 17.1 0 01-2.3-9 15.7 15.7 0 015.7-12.8q5.8-4.8 19.2-4.8a69 69 0 0110 .7v-1q0-7.3-3-10.3t-9-3a35 35 0 00-8.6 1.2 45 45 0 00-8 2.8l-2-9.2a48.1 48.1 0 018.9-2.8 51.2 51.2 0 0111.6-1.3 30.5 30.5 0 0112 2.2 16 16 0 017.9 7.4q2.8 5.3 2.8 14.2v21.8c0 2.3 0 5.7.4 10.4zm-7.5-10.2a20 20 0 006.4-4.7v-10.2a81 81 0 00-8.4-.5q-7.8 0-10.7 2.5a8.4 8.4 0 00-3 6.8q0 4 2.1 6a8.4 8.4 0 005.9 2 17.6 17.6 0 007.7-1.9zM587.4 179v-64.9l12.5-1v63.7c0 2.3.4 4 1.2 5a4.6 4.6 0 003.8 1.4 13.8 13.8 0 003.3-.5l1.5 9a21.3 21.3 0 01-4.3 1.1 30.2 30.2 0 01-4.9.4q-13 0-13-14.2zM618.7 179v-64.9l12.5-1v63.7c0 2.3.4 4 1.2 5a4.6 4.6 0 003.8 1.4 13.7 13.7 0 003.3-.5l1.5 9a21.4 21.4 0 01-4.4 1.1 30.2 30.2 0 01-4.8.4q-13 0-13-14.2zM693.1 166.3h-36q1 17.3 16.5 17.3a34.8 34.8 0 008-1 47.9 47.9 0 007.7-2.5l2.7 8.6a46.8 46.8 0 01-20.7 4.5q-8.7 0-14.7-3.3a21.3 21.3 0 01-9-9.5 34 34 0 01-3-15 35.4 35.4 0 013.2-15.7 23.4 23.4 0 018.9-10 25 25 0 0113.2-3.5q7.8 0 13 3.7a21.8 21.8 0 017.7 9.7 34.5 34.5 0 012.5 13.4zm-12.3-8c-.2-4.3-1.3-7.6-3.3-9.8a10 10 0 00-7.8-3.3 10.6 10.6 0 00-8 3.3q-3.2 3.3-4.2 9.8zM703.2 151q0-4.5-.4-13.7h11.8a119 119 0 011 10.6 46.3 46.3 0 014.3-6 17.6 17.6 0 014.9-4 13.2 13.2 0 016.4-1.6 17.9 17.9 0 015 .6l-1.6 10.9a14 14 0 00-4-.6 13.5 13.5 0 00-7.8 2.3 31.3 31.3 0 00-7 7.4v35.3h-12.6zM743.8 214.6a30 30 0 01-4.6-1l2.3-9.2a31 31 0 003.2.7 21.8 21.8 0 003.7.3q8.3 0 12.5-10.7l.8-2-20.2-55.4h13.4l10.2 31a101.2 101.2 0 013.2 12.1q1.4-6 3.4-11.9l10.3-31.2h12.7l-20.2 55.6a56.8 56.8 0 01-6.2 12.7 21.6 21.6 0 01-7.8 7.2 23.3 23.3 0 01-10.9 2.3 33.2 33.2 0 01-5.9-.5z"/><path d="M172.3 46.4h-71c-33.3 0-45.6 12.3-45.6 45.7v71c0 33.4 12.2 45.7 45.7 45.7h71c33.4 0 45.7-12.3 45.7-45.7V92c-.1-33.4-12.3-45.7-45.8-45.7z" fill="#ce0e2d" fill-rule="evenodd"/><path class="cls-3" d="M87.9 127.6h4.3v21.2h-4.3v-8.6H78v8.6h-4.3v-21.2h4.3v8.6H88zm24.2 12.1c0 3.5-1.7 5.3-4.8 5.3s-4.9-1.9-4.9-5.4v-12h-4.3v12.1c0 6 3.4 9.4 9.1 9.4s9.2-3.5 9.2-9.6v-12h-4.3zm49.8 2.5l-4.8-14.6h-3.6l-4.8 14.6-4.7-14.6h-4.6l7.4 21.2h3.6l4.8-14 4.8 14h3.6l7.4-21.2h-4.5zm16.8-2.5h7.9v-3.9h-7.9v-4.3h11.4v-3.9h-15.6v21.2h16v-3.9h-11.8zm17 9h4.2v-21.1h-4.3zm-70.8-4.3l-1.9 4.4h-4.4l9.3-21.2h3.8l9.4 21.2h-4.6l-1.9-4.4zm1.6-3.8h6.5l-3.2-7.6zM136.9 100.6a27 27 0 01-27-27h3.8a23.2 23.2 0 0046.4 0h3.8a27 27 0 01-27 27zM274.4 83.3a16 16 0 01-6.5-6.8 22 22 0 01-2.2-10.1 22.7 22.7 0 012.4-10.7 16.7 16.7 0 016.8-7 21.5 21.5 0 0110.6-2.5 19.8 19.8 0 0110 2.4 15.8 15.8 0 016.4 6.8 22.1 22.1 0 012.2 10.1 22.9 22.9 0 01-2.4 10.8 16.9 16.9 0 01-6.9 7 21.2 21.2 0 01-10.4 2.5 19.8 19.8 0 01-10-2.5zm17.2-4.7a11.3 11.3 0 004.2-5.1 19.3 19.3 0 001.4-7.5 21 21 0 00-1.2-7.4 11 11 0 00-4-5.2 11.6 11.6 0 00-7-2 11.8 11.8 0 00-6.8 2 12 12 0 00-4.2 5.3 18.2 18.2 0 00-1.4 7.2 19.7 19.7 0 001.4 7.5 11.3 11.3 0 004 5.2 11.5 11.5 0 006.8 1.9 12 12 0 006.8-1.9zM319 52.3h-12l.7-5.6h30l-.7 5.6h-11.3v33H319zM373.2 85.2h-7.5l-11.5-17h-4.5v17H343V46.7h6.7v16h3.5l8-11.6a13.3 13.3 0 013.5-3.8 8 8 0 014.5-1.1 10.3 10.3 0 014 .7l-1.4 5.2a5.4 5.4 0 00-2.1-.4 3.4 3.4 0 00-2 .5 7.4 7.4 0 00-1.7 2l-7 10zM378 46.7h10.4q7.4 0 11.2 3c2.6 2 4 4.9 4 8.6a12.6 12.6 0 01-1.8 6.7 11.5 11.5 0 01-4.9 4.4 16 16 0 01-7.1 1.5 28.3 28.3 0 01-5-.5v14.8H378zM394.8 64a7 7 0 002.2-5.4c0-2.4-.8-4.1-2.2-5.2a10.9 10.9 0 00-6.4-1.5h-3.6v13.6a25.9 25.9 0 003.8.4c2.8 0 4.8-.6 6.2-1.9zM436.3 85.2V64.1q0-4 .3-9.2l-19.4 30.3H410V46.7h6.1v22c0 2.4 0 5-.2 7.9l19-29.9h7.6v38.5zM478.6 85.2V64.1c0-2.7 0-5.7.3-9.2l-19.4 30.3h-7.4V46.7h6.2v22c0 2.4 0 5-.2 7.9l19-29.9h7.6v38.5zm-15-41.8a8.3 8.3 0 01-3.2-2.9 9.6 9.6 0 01-1.4-3.8h4.8c.5 2.9 2.2 4.3 5 4.3s4.5-1.4 5-4.3h4.8a9.6 9.6 0 01-1.4 3.8 8.2 8.2 0 01-3.2 2.9 11.2 11.2 0 01-5.2 1 11 11 0 01-5.2-1zM502 52.3h-11.9l.6-5.6h30l-.6 5.6h-11.4v33h-6.6zM526.1 46.7h22.7l-.6 5.5h-15.4v10.6h14.5V68h-14.5v11.8H549l-.6 5.5h-22.3zM595 66.2a9.2 9.2 0 013.2 3.3 9.5 9.5 0 011.1 4.8 10 10 0 01-1.6 5.7 10.5 10.5 0 01-4.7 3.8 18.2 18.2 0 01-7.4 1.4H573V46.7h12q6.1 0 9.2 2.4a7.8 7.8 0 013 6.5 8.6 8.6 0 01-2 5.7 10.4 10.4 0 01-5 3.2 12.3 12.3 0 014.7 1.7zm-15.5-3.7h4.2a7.8 7.8 0 003.6-.9 6 6 0 002.5-2.2 5.8 5.8 0 00.8-3 4 4 0 00-1.7-3.6 8.8 8.8 0 00-5-1.2h-4.4zm11.2 16.1a6.4 6.4 0 00-.2-9.5q-2.3-1.7-6.5-1.7h-4.5v12.9h5q4.2 0 6.2-1.7z"/></svg>