<svg id="图层_1" data-name="图层 1" xmlns="http://www.w3.org/2000/svg" viewBox="0 0 850.39 255.12"><defs><style>.cls-1{fill:#b6b6b6;}.cls-2{fill:#fff;}.cls-3{fill:#c8102e;fill-rule:evenodd;}</style></defs><title>Turkish-Badge-Black</title><path class="cls-1" d="M790.4,0H60c-2.31,0-4.59,0-6.89,0-1.93,0-3.84,0-5.79.08A82.74,82.74,0,0,0,34.73,1.22a41.94,41.94,0,0,0-12,4,40.31,40.31,0,0,0-10.19,7.42,39.18,39.18,0,0,0-7.42,10.2,41.7,41.7,0,0,0-3.94,12A80.61,80.61,0,0,0,.1,47.38C0,49.31,0,51.25,0,53.18V202c0,1.95,0,3.84.1,5.8a80.61,80.61,0,0,0,1.12,12.6,41.5,41.5,0,0,0,3.94,12,39,39,0,0,0,7.42,10.17A39.83,39.83,0,0,0,22.77,250a42.29,42.29,0,0,0,12,4,84,84,0,0,0,12.62,1.11c1.95,0,3.86.07,5.79.07H797.22c1.92,0,3.89,0,5.81-.07a82.73,82.73,0,0,0,12.59-1.11,42.93,42.93,0,0,0,12-4,39.61,39.61,0,0,0,10.18-7.42,40.29,40.29,0,0,0,7.44-10.17,41.41,41.41,0,0,0,3.9-12,84.46,84.46,0,0,0,1.17-12.6c0-2,0-3.85,0-5.8,0-2.29,0-4.57,0-6.89v-135c0-2.3,0-4.59,0-6.87,0-1.93,0-3.87,0-5.8a84.46,84.46,0,0,0-1.17-12.6,41.61,41.61,0,0,0-3.9-12A40.75,40.75,0,0,0,827.63,5.17a42.56,42.56,0,0,0-12-3.95A81.48,81.48,0,0,0,803,.11c-1.92,0-3.89-.07-5.81-.08-2.26,0-4.56,0-6.82,0Z"/><path d="M53.17,249.62c-1.92,0-3.79,0-5.7-.06a80.14,80.14,0,0,1-11.76-1,37.19,37.19,0,0,1-10.43-3.45,34.09,34.09,0,0,1-8.8-6.4,33.42,33.42,0,0,1-6.42-8.79,35.78,35.78,0,0,1-3.42-10.44,77.48,77.48,0,0,1-1-11.8c0-1.33-.09-5.75-.09-5.75V53.18s0-4.36.09-5.63a77.77,77.77,0,0,1,1-11.79A36.21,36.21,0,0,1,10.05,25.3a33.83,33.83,0,0,1,6.39-8.81,35.27,35.27,0,0,1,8.83-6.43A36.51,36.51,0,0,1,35.68,6.63a78.76,78.76,0,0,1,11.81-1l5.68-.08h744l5.75.08a77.09,77.09,0,0,1,11.7,1,37.45,37.45,0,0,1,10.52,3.44,35.35,35.35,0,0,1,15.21,15.24,36.43,36.43,0,0,1,3.37,10.38,82.64,82.64,0,0,1,1.09,11.88c0,1.79,0,3.7,0,5.61,0,2.36,0,4.61,0,6.87V195.1c0,2.29,0,4.52,0,6.77,0,2,0,3.92,0,5.85a80.12,80.12,0,0,1-1.07,11.67,36.27,36.27,0,0,1-3.4,10.52,34.64,34.64,0,0,1-6.4,8.72,34.07,34.07,0,0,1-8.81,6.44,36.72,36.72,0,0,1-10.5,3.46,79.34,79.34,0,0,1-11.77,1c-1.84,0-3.77.06-5.65.06l-6.82,0Z"/><path class="cls-2" d="M315.4,105H285.89l-7.23,19.74h-13L294.59,51h12.26l29.56,73.73H322.77ZM289.6,95h22l-7.89-21.12q-1.62-4.38-3.2-9.67-1.43,4.68-3.1,9.57Z"/><path class="cls-2" d="M342.27,83.27q0-6.1-.41-13.43h11.8a58.73,58.73,0,0,1,.92,7q7.32-8,16.79-8A18.93,18.93,0,0,1,389.1,80.35q2.88,6,2.88,15.18A37.59,37.59,0,0,1,388.69,112a23.44,23.44,0,0,1-9.18,10.33,26.16,26.16,0,0,1-13.64,3.51,33.7,33.7,0,0,1-11-1.88v22.69l-12.56,1.07Zm33,28.06q3.84-5.16,3.84-15.08c0-6.14-1-10.59-3.18-13.36a10.14,10.14,0,0,0-8.47-4.14,13.71,13.71,0,0,0-6.77,1.72,26,26,0,0,0-5.9,4.63v29.41a18.6,18.6,0,0,0,4.38,1.45,23.21,23.21,0,0,0,4.94.54Q371.47,116.5,375.31,111.33Z"/><path class="cls-2" d="M400,83.27q0-6.1-.4-13.43h11.8a60.88,60.88,0,0,1,.92,7q7.32-8,16.79-8a18.93,18.93,0,0,1,17.73,11.53q2.88,6,2.87,15.18A37.6,37.6,0,0,1,446.45,112a23.5,23.5,0,0,1-9.18,10.33,26.18,26.18,0,0,1-13.64,3.51,33.7,33.7,0,0,1-11-1.88v22.69L400,147.69Zm33.05,28.06q3.84-5.16,3.84-15.08,0-9.21-3.18-13.36a10.14,10.14,0,0,0-8.47-4.14,13.69,13.69,0,0,0-6.77,1.72,25.61,25.61,0,0,0-5.9,4.63v29.41A18.36,18.36,0,0,0,417,116a23.35,23.35,0,0,0,4.94.54Q429.24,116.5,433.07,111.33Z"/><path class="cls-2" d="M473.44,121.25a30.51,30.51,0,0,1-12.51-12.89q-4.38-8.4-4.38-19.85,0-12.41,5-21.09a32.44,32.44,0,0,1,13.71-13,42.8,42.8,0,0,1,19.46-4.35,51,51,0,0,1,12.14,1.4,52.31,52.31,0,0,1,10.76,3.84L514.46,65a44.63,44.63,0,0,0-19.14-4.78,26.89,26.89,0,0,0-13.46,3.28,22.36,22.36,0,0,0-9,9.65,33.91,33.91,0,0,0-3.2,15.36,37,37,0,0,0,2.47,14,20.64,20.64,0,0,0,7.78,9.67q5.32,3.57,13.41,3.56a44.21,44.21,0,0,0,7.33-.61,37.63,37.63,0,0,0,6.86-1.78V98.38h-17V88.62h29.26v31a65.22,65.22,0,0,1-13.26,4.53,62.27,62.27,0,0,1-13.81,1.58Q481.58,125.76,473.44,121.25Z"/><path class="cls-2" d="M565,124.74a47.59,47.59,0,0,1-.86-7.27,24.39,24.39,0,0,1-7.56,5.87,22.46,22.46,0,0,1-10.51,2.42,19.72,19.72,0,0,1-8.62-1.86,14.29,14.29,0,0,1-6.18-5.6,17.12,17.12,0,0,1-2.29-9.13,15.67,15.67,0,0,1,5.75-12.74q5.75-4.77,19.18-4.76a70.38,70.38,0,0,1,10,.71V91.31q0-7.28-3.1-10.25c-2.07-2-5-3-8.9-3a35,35,0,0,0-8.61,1.17,45.84,45.84,0,0,0-8,2.8l-2-9.16a48.1,48.1,0,0,1,8.86-2.8,51.75,51.75,0,0,1,11.6-1.27A30.28,30.28,0,0,1,565.85,71a15.88,15.88,0,0,1,7.78,7.42q2.8,5.27,2.8,14.17v21.83c0,2.27.14,5.72.41,10.33Zm-7.53-10.18a20,20,0,0,0,6.41-4.68V99.71a78.68,78.68,0,0,0-8.39-.56q-7.78,0-10.76,2.52a8.42,8.42,0,0,0-3,6.79q0,4.07,2.16,6a8.41,8.41,0,0,0,5.88,2A17.58,17.58,0,0,0,557.5,114.56Z"/><path class="cls-2" d="M587.43,111.56V46.69l12.51-1v63.65c0,2.34.4,4,1.2,5a4.61,4.61,0,0,0,3.79,1.45,14.21,14.21,0,0,0,3.31-.55l1.47,9a21.25,21.25,0,0,1-4.35,1.15,30.18,30.18,0,0,1-4.86.43Q587.42,125.76,587.43,111.56Z"/><path class="cls-2" d="M618.72,111.56V46.69l12.51-1v63.65c0,2.34.4,4,1.2,5a4.63,4.63,0,0,0,3.79,1.45,14.14,14.14,0,0,0,3.31-.55l1.48,9a21.36,21.36,0,0,1-4.36,1.15,30.18,30.18,0,0,1-4.86.43Q618.73,125.76,618.72,111.56Z"/><path class="cls-2" d="M693.11,98.89H657.19q.85,17.25,16.43,17.25a34.78,34.78,0,0,0,7.92-.94,47.87,47.87,0,0,0,7.76-2.52l2.74,8.6a46.67,46.67,0,0,1-20.71,4.48q-8.75,0-14.76-3.31a21.2,21.2,0,0,1-9-9.51,34,34,0,0,1-3-15,35.33,35.33,0,0,1,3.2-15.67,23.39,23.39,0,0,1,8.93-10,25,25,0,0,1,13.2-3.46,22.26,22.26,0,0,1,13,3.64,21.81,21.81,0,0,1,7.73,9.69,34.52,34.52,0,0,1,2.52,13.38Zm-12.26-8q-.36-6.57-3.31-9.85a10.09,10.09,0,0,0-7.89-3.28,10.59,10.59,0,0,0-8,3.3q-3.18,3.32-4.15,9.83Z"/><path class="cls-2" d="M703.24,83.63q0-4.53-.41-13.79h11.75c.21,1.53.4,3.35.59,5.47s.31,3.84.38,5.16a46.32,46.32,0,0,1,4.3-6.08,17.6,17.6,0,0,1,4.94-4,13.16,13.16,0,0,1,6.43-1.55,17.87,17.87,0,0,1,5,.61l-1.58,10.89a14,14,0,0,0-4.07-.56A13.39,13.39,0,0,0,722.82,82a31.24,31.24,0,0,0-7.07,7.45v35.26H703.24Z"/><path class="cls-2" d="M743.75,147.21a31.08,31.08,0,0,1-4.53-1.1l2.29-9.16a30.93,30.93,0,0,0,3.2.69,21.81,21.81,0,0,0,3.66.33q8.36,0,12.52-10.74l.81-2L741.46,69.84h13.48l10.18,30.94a100.28,100.28,0,0,1,3.2,12.16q1.42-6,3.36-11.91L782,69.84h12.67l-20.2,55.61a56.76,56.76,0,0,1-6.16,12.72,21.49,21.49,0,0,1-7.81,7.18,23.29,23.29,0,0,1-10.86,2.34A34.22,34.22,0,0,1,743.75,147.21Z"/><path class="cls-3" d="M172.35,46.43h-71C68,46.43,55.72,58.65,55.72,92.09v71c0,33.43,12.23,45.66,45.66,45.66h71c33.43,0,45.68-12.23,45.68-45.66v-71C218,58.65,205.78,46.43,172.35,46.43Z"/><path class="cls-2" d="M87.86,127.59h4.3v21.22h-4.3v-8.62H78.14v8.62H73.83V127.59h4.31v8.56h9.72Zm24.25,12.14c0,3.45-1.71,5.29-4.82,5.29s-4.85-1.89-4.85-5.44v-12H98.13v12.13c0,6,3.32,9.39,9.1,9.39s9.18-3.48,9.18-9.56v-12h-4.3Zm49.75,2.45-4.81-14.59h-3.52l-4.81,14.59L144,127.6h-4.58l7.39,21.2h3.57l4.82-13.93,4.82,13.93h3.6L171,127.6h-4.47Zm16.88-2.51h7.83v-3.86h-7.83v-4.34h11.37V127.6H174.5v21.19h16v-3.86H178.74Zm16.91,9.11h4.25V127.59h-4.25Zm-70.73-4.41L123,148.79H118.6l9.34-21.2h3.8l9.31,21.2h-4.51l-1.91-4.42Zm1.6-3.82H133L129.77,133Z"/><path class="cls-2" d="M136.87,100.57a27,27,0,0,1-27-27h3.82a23.2,23.2,0,0,0,46.39,0h3.82A27,27,0,0,1,136.87,100.57Z"/><path class="cls-2" d="M266.13,181.15a3.72,3.72,0,0,1-1.09-2.76,3.65,3.65,0,0,1,1.09-2.74,3.8,3.8,0,0,1,2.79-1.06,3.91,3.91,0,0,1,2.79,1.07,3.65,3.65,0,0,1,1.11,2.73,4,4,0,0,1-.51,2,3.73,3.73,0,0,1-1.41,1.38,4,4,0,0,1-2,.49A3.74,3.74,0,0,1,266.13,181.15Zm-.48,5.21h6.54V215h-6.54Z"/><path class="cls-2" d="M280.21,208.16V174.27l6.54-.53V207a4.17,4.17,0,0,0,.62,2.59,2.42,2.42,0,0,0,2,.76,7.57,7.57,0,0,0,1.73-.29l.77,4.7a11.06,11.06,0,0,1-2.27.6,15.4,15.4,0,0,1-2.54.22Q280.22,215.57,280.21,208.16Z"/><path class="cls-2" d="M319.94,201.54H301.18q.45,9,8.58,9a18,18,0,0,0,4.13-.49,25,25,0,0,0,4.06-1.32l1.43,4.49a24.37,24.37,0,0,1-10.81,2.34,15.81,15.81,0,0,1-7.71-1.72,11.12,11.12,0,0,1-4.72-5,17.65,17.65,0,0,1-1.58-7.82,18.61,18.61,0,0,1,1.67-8.19,12.16,12.16,0,0,1,4.67-5.23,13,13,0,0,1,6.89-1.81,11.58,11.58,0,0,1,6.8,1.9,11.46,11.46,0,0,1,4,5.06,18.18,18.18,0,0,1,1.31,7Zm-6.4-4.17a8.23,8.23,0,0,0-1.73-5.15,5.28,5.28,0,0,0-4.12-1.71,5.5,5.5,0,0,0-4.16,1.73,9.16,9.16,0,0,0-2.17,5.13Z"/><path class="cls-2" d="M343.61,176.55h6.65v19.38q1.86-2.31,3.56-4.57L365,176.55h7.41l-13.34,17L373.52,215H366l-11.17-17-4.57,4.86V215h-6.65Z"/><path class="cls-2" d="M378.24,176.55h22.68l-.64,5.48H384.89v10.6H399.4v5.13H384.89v11.75H401.1l-.55,5.53H378.24Z"/><path class="cls-2" d="M428,212a13,13,0,0,1-8.24,3.46l-.53,1.41a9.64,9.64,0,0,1,4,1.75,4,4,0,0,1,1.37,3.27,4.53,4.53,0,0,1-1.82,3.84,8.86,8.86,0,0,1-5.36,1.37,12.45,12.45,0,0,1-6.14-1.52l1.2-3.08a12.14,12.14,0,0,0,2.44.92,9.57,9.57,0,0,0,2.26.3,4.57,4.57,0,0,0,2.22-.47,1.53,1.53,0,0,0,.84-1.41,1.88,1.88,0,0,0-1.4-1.78,20.65,20.65,0,0,0-4.5-1l1.38-3.59a28.82,28.82,0,0,1-5.27-.86,24.68,24.68,0,0,1-4.7-1.71l2.07-5.24a25.54,25.54,0,0,0,4.95,1.83,19.39,19.39,0,0,0,4.94.72,7.39,7.39,0,0,0,5-1.47,4.87,4.87,0,0,0,1.7-3.84,4.63,4.63,0,0,0-1-3,8.74,8.74,0,0,0-2.61-2.11c-1.07-.57-2.59-1.3-4.58-2.16a31.76,31.76,0,0,1-5.14-2.73,11.24,11.24,0,0,1-3.3-3.4,9.08,9.08,0,0,1-1.23-4.83,10,10,0,0,1,1.59-5.67,10.16,10.16,0,0,1,4.5-3.68,16.46,16.46,0,0,1,6.69-1.28,26,26,0,0,1,5.7.65,18.49,18.49,0,0,1,4.7,1.64l-1.28,5.37a21.15,21.15,0,0,0-9.06-2.32,8.27,8.27,0,0,0-4.54,1.11,3.76,3.76,0,0,0-1.71,3.41,4.12,4.12,0,0,0,.86,2.61,8.39,8.39,0,0,0,2.53,2q1.67.92,5,2.4a30.59,30.59,0,0,1,5.21,2.83,10.34,10.34,0,0,1,3.14,3.43,10,10,0,0,1,1.11,4.9A10.71,10.71,0,0,1,428,212Z"/><path class="cls-2" d="M438,176.55h22.64l-.58,5.48H444.63v10.71H459v5.13H444.63V215H438Z"/><path class="cls-2" d="M467,176.55h22.68L489,182H473.63v10.6h14.51v5.13H473.63v11.75h16.21l-.56,5.53H467Z"/><path class="cls-2" d="M497.12,176.55h12.65a25.53,25.53,0,0,1,10.7,2,14.88,14.88,0,0,1,6.81,6.07,19.33,19.33,0,0,1,2.35,9.85,22.35,22.35,0,0,1-2.46,10.61,17.83,17.83,0,0,1-7.07,7.28A21.55,21.55,0,0,1,509.21,215H497.12Zm11.67,33.26a14.45,14.45,0,0,0,7.68-1.93,12.1,12.1,0,0,0,4.71-5.32,18.47,18.47,0,0,0,1.56-7.8q0-6.44-3.4-9.7t-10.13-3.27h-5.45v28Z"/><path class="cls-2" d="M537.36,172.22a3.74,3.74,0,0,1-1.09-2.76,3.65,3.65,0,0,1,1.09-2.74,3.8,3.8,0,0,1,2.79-1.06,3.85,3.85,0,0,1,2.79,1.07,3.66,3.66,0,0,1,1.12,2.73,4,4,0,0,1-.52,2,3.73,3.73,0,0,1-1.41,1.38,4,4,0,0,1-2,.49A3.74,3.74,0,0,1,537.36,172.22Zm-.53,4.33h6.64V215h-6.64Z"/><path class="cls-2" d="M553.14,176.55h7.63l19,29.83q-.24-4.26-.24-7.84v-22h6.17V215h-7.39L559,184.74q.29,5.16.29,9.14V215h-6.17Z"/></svg>