<svg id="图层_1" data-name="图层 1" xmlns="http://www.w3.org/2000/svg" viewBox="0 0 850.39 255.12"><defs><style>.cls-1{fill:#b6b6b6;}.cls-2{fill:#c8102e;fill-rule:evenodd;}.cls-3{fill:#fff;}</style></defs><title>Badge-Black</title><path class="cls-1" d="M790.4,0H53.14c-1.93,0-3.84,0-5.79.08A82.76,82.76,0,0,0,34.73,1.21a41.61,41.61,0,0,0-12,3.94,40.56,40.56,0,0,0-10.19,7.42A39.4,39.4,0,0,0,5.16,22.78a41.63,41.63,0,0,0-3.94,12A80.84,80.84,0,0,0,.1,47.37C0,49.3,0,51.23,0,53.16V202c0,2,0,3.85.1,5.81a80.82,80.82,0,0,0,1.12,12.6,41.59,41.59,0,0,0,3.94,12,38.82,38.82,0,0,0,7.42,10.16A39.36,39.36,0,0,0,22.77,250a42.32,42.32,0,0,0,12,4A85.36,85.36,0,0,0,47.35,255c1.95,0,3.86.07,5.79.07H797.22c1.92,0,3.89,0,5.81-.07a84,84,0,0,0,12.59-1.11,43,43,0,0,0,12-4,39.15,39.15,0,0,0,10.18-7.42,40.06,40.06,0,0,0,7.44-10.16,41.51,41.51,0,0,0,3.9-12,84.71,84.71,0,0,0,1.17-12.6c0-2,0-3.85,0-5.81,0-2.28,0-4.56,0-6.88V60c0-2.31,0-4.6,0-6.88,0-1.93,0-3.86,0-5.79a84.72,84.72,0,0,0-1.17-12.61,41.55,41.55,0,0,0-3.9-12A40.7,40.7,0,0,0,827.63,5.15a42.23,42.23,0,0,0-12-3.94A81.48,81.48,0,0,0,803,.09c-1.92,0-3.89-.07-5.81-.08Z" transform="translate(0 0)"/><path d="M53.17,249.61c-1.92,0-3.79,0-5.7-.07a80.05,80.05,0,0,1-11.76-1,37.19,37.19,0,0,1-10.43-3.45,34.09,34.09,0,0,1-8.8-6.4,33.31,33.31,0,0,1-6.42-8.8,35.72,35.72,0,0,1-3.42-10.43,77.58,77.58,0,0,1-1-11.8c0-1.33-.09-5.75-.09-5.75V53.16s0-4.35.09-5.63a77.64,77.64,0,0,1,1-11.78,36.18,36.18,0,0,1,3.42-10.47,33.94,33.94,0,0,1,6.39-8.8A35.31,35.31,0,0,1,25.27,10,36.8,36.8,0,0,1,35.68,6.62a78.76,78.76,0,0,1,11.81-1l5.68-.08h744l5.75.08a78.28,78.28,0,0,1,11.7,1,37.46,37.46,0,0,1,10.52,3.45A35.35,35.35,0,0,1,840.37,25.3a36.33,36.33,0,0,1,3.37,10.38,82.64,82.64,0,0,1,1.09,11.88c0,1.78,0,3.7,0,5.6,0,2.36,0,4.61,0,6.88V195.09c0,2.28,0,4.52,0,6.77,0,2,0,3.92,0,5.85a80.25,80.25,0,0,1-1.07,11.67,36.11,36.11,0,0,1-3.4,10.51,34.69,34.69,0,0,1-6.4,8.73,34,34,0,0,1-8.81,6.43,37,37,0,0,1-10.5,3.47,79.27,79.27,0,0,1-11.77,1c-1.84,0-3.77.07-5.65.07H53.17Z" transform="translate(0 0)"/><path class="cls-2" d="M172.35,46.41h-71C68,46.41,55.72,58.64,55.72,92.07v71c0,33.43,12.23,45.66,45.66,45.66h71c33.43,0,45.68-12.23,45.68-45.66v-71C218,58.64,205.78,46.41,172.35,46.41Z" transform="translate(0 0)"/><path class="cls-3" d="M315.4,172.42H285.89l-7.23,19.75h-13l28.9-73.73h12.26l29.56,73.73H322.77Zm-25.8-10h22l-7.89-21.12q-1.62-4.36-3.2-9.66-1.43,4.68-3.1,9.56Z" transform="translate(0 0)"/><path class="cls-3" d="M342.27,150.7q0-6.1-.41-13.44h11.8a58.9,58.9,0,0,1,.92,7q7.32-8,16.79-8a18.94,18.94,0,0,1,17.73,11.52q2.88,6,2.88,15.19a37.55,37.55,0,0,1-3.29,16.43,23.44,23.44,0,0,1-9.18,10.33,26.16,26.16,0,0,1-13.64,3.52,33.45,33.45,0,0,1-11-1.89V214l-12.56,1.07Zm33,28.06q3.84-5.16,3.84-15.09c0-6.14-1-10.59-3.18-13.35a10.12,10.12,0,0,0-8.47-4.15,13.72,13.72,0,0,0-6.77,1.73,25.76,25.76,0,0,0-5.9,4.63v29.41a19.57,19.57,0,0,0,4.38,1.45,23.19,23.19,0,0,0,4.94.53Q371.47,183.92,375.31,178.76Z" transform="translate(0 0)"/><path class="cls-3" d="M400,150.7q0-6.1-.4-13.44h11.8a61.05,61.05,0,0,1,.92,7q7.32-8,16.79-8a18.94,18.94,0,0,1,17.73,11.52q2.88,6,2.87,15.19a37.55,37.55,0,0,1-3.28,16.43,23.5,23.5,0,0,1-9.18,10.33,26.19,26.19,0,0,1-13.64,3.52,33.45,33.45,0,0,1-11-1.89V214L400,215.11Zm33.05,28.06q3.84-5.16,3.84-15.09,0-9.21-3.18-13.35a10.12,10.12,0,0,0-8.47-4.15,13.72,13.72,0,0,0-6.77,1.73,25.34,25.34,0,0,0-5.9,4.63v29.41a19.31,19.31,0,0,0,4.37,1.45,23.33,23.33,0,0,0,4.94.53Q429.24,183.92,433.07,178.76Z" transform="translate(0 0)"/><path class="cls-3" d="M473.44,188.68a30.48,30.48,0,0,1-12.51-12.9q-4.38-8.4-4.38-19.84,0-12.42,5-21.09a32.4,32.4,0,0,1,13.71-13,42.8,42.8,0,0,1,19.46-4.35,51.56,51.56,0,0,1,12.14,1.4,52.31,52.31,0,0,1,10.76,3.84l-3.2,9.67a44.49,44.49,0,0,0-19.14-4.78,26.79,26.79,0,0,0-13.46,3.28,22.33,22.33,0,0,0-9,9.64,33.92,33.92,0,0,0-3.2,15.37,37,37,0,0,0,2.47,14,20.69,20.69,0,0,0,7.78,9.67q5.32,3.55,13.41,3.56a44.21,44.21,0,0,0,7.33-.61,38.46,38.46,0,0,0,6.86-1.78V165.81h-17V156h29.26v31a65.84,65.84,0,0,1-13.26,4.53,62.25,62.25,0,0,1-13.81,1.57Q481.58,193.18,473.44,188.68Z" transform="translate(0 0)"/><path class="cls-3" d="M565,192.17a47.73,47.73,0,0,1-.86-7.28,24.26,24.26,0,0,1-7.56,5.88,22.45,22.45,0,0,1-10.51,2.41,19.86,19.86,0,0,1-8.62-1.85,14.35,14.35,0,0,1-6.18-5.6A17.14,17.14,0,0,1,529,176.6a15.68,15.68,0,0,1,5.75-12.75q5.75-4.75,19.18-4.76a68.93,68.93,0,0,1,10,.72v-1.07q0-7.28-3.1-10.26t-8.9-3a35,35,0,0,0-8.61,1.17,45,45,0,0,0-8,2.8l-2-9.16a48.1,48.1,0,0,1,8.86-2.8,51.17,51.17,0,0,1,11.6-1.27,30.46,30.46,0,0,1,12.11,2.16,15.9,15.9,0,0,1,7.78,7.43q2.8,5.26,2.8,14.17v21.83q0,3.41.41,10.33ZM557.5,182a20.11,20.11,0,0,0,6.41-4.68V167.13a81.42,81.42,0,0,0-8.39-.56q-7.78,0-10.76,2.52a8.42,8.42,0,0,0-3,6.79q0,4.08,2.16,6a8.41,8.41,0,0,0,5.88,2A17.71,17.71,0,0,0,557.5,182Z" transform="translate(0 0)"/><path class="cls-3" d="M587.43,179V114.11l12.51-1v63.65q0,3.51,1.2,5a4.61,4.61,0,0,0,3.79,1.45,14.19,14.19,0,0,0,3.3-.56l1.48,9a22,22,0,0,1-4.35,1.14,29.09,29.09,0,0,1-4.86.43Q587.42,193.18,587.43,179Z" transform="translate(0 0)"/><path class="cls-3" d="M618.72,179V114.11l12.51-1v63.65q0,3.51,1.2,5a4.63,4.63,0,0,0,3.79,1.45,14.26,14.26,0,0,0,3.31-.56l1.48,9a22.08,22.08,0,0,1-4.36,1.14,29.09,29.09,0,0,1-4.86.43Q618.73,193.18,618.72,179Z" transform="translate(0 0)"/><path class="cls-3" d="M693.11,166.32H657.19q.85,17.25,16.43,17.25a35.35,35.35,0,0,0,7.92-.94,47.87,47.87,0,0,0,7.76-2.52l2.74,8.6a46.81,46.81,0,0,1-20.71,4.47q-8.75,0-14.76-3.3a21.28,21.28,0,0,1-9-9.52,34,34,0,0,1-3-15,35.36,35.36,0,0,1,3.2-15.67,23.31,23.31,0,0,1,8.93-10,25,25,0,0,1,13.2-3.46q7.78,0,13,3.64a21.71,21.71,0,0,1,7.73,9.69A34.48,34.48,0,0,1,693.11,163Zm-12.26-8q-.36-6.57-3.31-9.85a10.12,10.12,0,0,0-7.89-3.28,10.56,10.56,0,0,0-8,3.31q-3.18,3.3-4.15,9.82Z" transform="translate(0 0)"/><path class="cls-3" d="M703.24,151.05q0-4.53-.41-13.79h11.75c.21,1.53.4,3.35.59,5.47s.31,3.85.38,5.17a45.66,45.66,0,0,1,4.3-6.08,17.26,17.26,0,0,1,4.94-4,13,13,0,0,1,6.43-1.55,17.87,17.87,0,0,1,5,.61l-1.58,10.89a13.67,13.67,0,0,0-4.07-.56,13.38,13.38,0,0,0-7.74,2.26,31.43,31.43,0,0,0-7.07,7.45v35.27H703.24Z" transform="translate(0 0)"/><path class="cls-3" d="M743.75,214.63a31.22,31.22,0,0,1-4.53-1.09l2.29-9.16c.84.23,1.91.46,3.2.68a21.87,21.87,0,0,0,3.66.34q8.36,0,12.52-10.74l.81-2-20.24-55.36h13.48l10.18,30.94a100.76,100.76,0,0,1,3.2,12.16q1.42-6,3.36-11.91L782,137.26h12.67l-20.2,55.62a56.76,56.76,0,0,1-6.16,12.72,21.54,21.54,0,0,1-7.81,7.17,23.29,23.29,0,0,1-10.86,2.34A34.22,34.22,0,0,1,743.75,214.63Z" transform="translate(0 0)"/><path class="cls-3" d="M87.86,127.57h4.3v21.22h-4.3v-8.62H78.14v8.62H73.83V127.57h4.31v8.56h9.72Zm24.25,12.15c0,3.45-1.71,5.29-4.82,5.29s-4.85-1.89-4.85-5.44v-12H98.13v12.14c0,6,3.32,9.39,9.1,9.39s9.18-3.49,9.18-9.57v-12h-4.3Zm49.75,2.44-4.81-14.59h-3.52l-4.81,14.59L144,127.58h-4.58l7.39,21.21h3.57l4.82-13.93,4.82,13.93h3.6L171,127.58h-4.47Zm16.88-2.5h7.83V135.8h-7.83v-4.35h11.37v-3.86H174.5v21.19h16v-3.87H178.74Zm16.91,9.1h4.25V127.57h-4.25Zm-70.73-4.4L123,148.78H118.6l9.34-21.21h3.8l9.31,21.21h-4.51l-1.91-4.42Zm1.6-3.82H133l-3.26-7.6Z" transform="translate(0 0)"/><path class="cls-3" d="M136.87,100.56a27,27,0,0,1-27-27h3.82a23.2,23.2,0,1,0,46.39,0h3.82A27,27,0,0,1,136.87,100.56Z" transform="translate(0 0)"/><path class="cls-3" d="M270.63,46.7h12.66a25.56,25.56,0,0,1,10.7,2,14.85,14.85,0,0,1,6.8,6.07,19.23,19.23,0,0,1,2.35,9.85,22.35,22.35,0,0,1-2.46,10.61,17.7,17.7,0,0,1-7.07,7.28,21.51,21.51,0,0,1-10.88,2.63h-12.1ZM282.3,80A14.36,14.36,0,0,0,290,78a12,12,0,0,0,4.71-5.32,18.32,18.32,0,0,0,1.57-7.8q0-6.44-3.4-9.7t-10.13-3.27h-5.45V80Z" transform="translate(0 0)"/><path class="cls-3" d="M310.56,46.7h22.68l-.64,5.48H317.21V62.79h14.51v5.13H317.21V79.67h16.21l-.56,5.52h-22.3Zm6.7-2.87,6.94-8.16,7,.64-9.78,8.11Z" transform="translate(0 0)"/><path class="cls-3" d="M346.06,83.45a15.26,15.26,0,0,1-6.51-6.6,22.33,22.33,0,0,1-2.25-10.4,23.46,23.46,0,0,1,2.34-10.8,16.6,16.6,0,0,1,6.59-7,19.53,19.53,0,0,1,9.89-2.45,24.32,24.32,0,0,1,6,.73,22.58,22.58,0,0,1,5.21,2l-1.73,5a19.89,19.89,0,0,0-9.2-2.47,12.08,12.08,0,0,0-6.68,1.78,11.1,11.1,0,0,0-4.18,5.08,19.62,19.62,0,0,0-1.42,7.76,19,19,0,0,0,1.36,7.47,10.82,10.82,0,0,0,4.21,5A13.16,13.16,0,0,0,357,80.44a22.64,22.64,0,0,0,9.43-2.24l1.52,5a24.8,24.8,0,0,1-5.25,1.9,27.14,27.14,0,0,1-6.34.68A21.49,21.49,0,0,1,346.06,83.45Z" transform="translate(0 0)"/><path class="cls-3" d="M379.84,83.31a16.09,16.09,0,0,1-6.46-6.79,22.08,22.08,0,0,1-2.24-10.17,22.78,22.78,0,0,1,2.38-10.65,16.7,16.7,0,0,1,6.86-7A21.43,21.43,0,0,1,391,46.17a19.77,19.77,0,0,1,10,2.41,16,16,0,0,1,6.41,6.76,22.12,22.12,0,0,1,2.2,10.1,22.88,22.88,0,0,1-2.4,10.77,16.82,16.82,0,0,1-6.86,7,21.21,21.21,0,0,1-10.46,2.48A19.82,19.82,0,0,1,379.84,83.31Zm17.22-4.72a11.43,11.43,0,0,0,4.18-5.16,19.23,19.23,0,0,0,1.38-7.51,20.75,20.75,0,0,0-1.23-7.39,11,11,0,0,0-3.9-5.17,11.62,11.62,0,0,0-6.91-1.93,11.76,11.76,0,0,0-6.86,2,12,12,0,0,0-4.23,5.23,18.2,18.2,0,0,0-1.41,7.25,19.77,19.77,0,0,0,1.33,7.47,11.39,11.39,0,0,0,4.07,5.21,11.56,11.56,0,0,0,6.78,1.91A11.92,11.92,0,0,0,397.06,78.59Z" transform="translate(0 0)"/><path class="cls-3" d="M423.86,84.11a12.26,12.26,0,0,1-5.45-4.79,14.08,14.08,0,0,1-1.92-7.5V46.7h6.6V70.79c0,3.08.76,5.42,2.3,7s3.79,2.4,6.79,2.4,5.36-.82,6.79-2.47,2.14-4,2.14-7.15V46.7h6.59V71.77a14.46,14.46,0,0,1-1.87,7.55,12.11,12.11,0,0,1-5.37,4.79,19.38,19.38,0,0,1-8.28,1.64A19.63,19.63,0,0,1,423.86,84.11Z" transform="translate(0 0)"/><path class="cls-3" d="M452.09,46.7h7.28l9.84,27c.18.51.4,1.22.66,2.12s.48,1.72.64,2.45c.62-2.14,1.09-3.67,1.41-4.57l9.62-27h6.76L473.49,85.19H466.9Z" transform="translate(0 0)"/><path class="cls-3" d="M493.21,46.7h12.05q6.58,0,10,2.63a9,9,0,0,1,3.39,7.53,11.33,11.33,0,0,1-1.23,5.38,11.86,11.86,0,0,1-3,3.79,13.45,13.45,0,0,1-3.72,2.18l11.83,17h-7.71l-10-15.25h-4.89V85.19h-6.65Zm10.43,18.21a9.29,9.29,0,0,0,4.27-.94,7,7,0,0,0,2.9-2.66,7.53,7.53,0,0,0,1-4A4.87,4.87,0,0,0,510,53.1a8.91,8.91,0,0,0-5.34-1.35h-4.81V64.91Z" transform="translate(0 0)"/><path class="cls-3" d="M527.75,46.7h22.67l-.64,5.48H534.39V62.79h14.52v5.13H534.39V79.67h16.22l-.56,5.52h-22.3Z" transform="translate(0 0)"/><path class="cls-3" d="M583.84,79.61l-.54,5.58H554.67v-4.3l19.84-28.71H555.82l.56-5.48H583L582.45,51l-19.8,28.65Z" transform="translate(0 0)"/><path class="cls-3" d="M610,85a25.82,25.82,0,0,1-5.61-1.94l2.08-5.24a25.69,25.69,0,0,0,4.94,1.84,19.87,19.87,0,0,0,5,.71,7.34,7.34,0,0,0,4.94-1.47,4.84,4.84,0,0,0,1.7-3.84,4.63,4.63,0,0,0-1-3,8.66,8.66,0,0,0-2.62-2.12c-1.06-.57-2.59-1.3-4.57-2.16A31.9,31.9,0,0,1,609.63,65a11.09,11.09,0,0,1-3.29-3.4,9,9,0,0,1-1.24-4.83,10,10,0,0,1,1.6-5.67,10.07,10.07,0,0,1,4.49-3.68,16.48,16.48,0,0,1,6.7-1.28,26,26,0,0,1,5.7.65,18.41,18.41,0,0,1,4.69,1.64L627,53.83a21.05,21.05,0,0,0-9.07-2.32,8.21,8.21,0,0,0-4.53,1.11A3.77,3.77,0,0,0,611.69,56a4.07,4.07,0,0,0,.87,2.61,8.5,8.5,0,0,0,2.52,2q1.67.91,5,2.4a30.46,30.46,0,0,1,5.2,2.83,10.24,10.24,0,0,1,3.14,3.43,9.9,9.9,0,0,1,1.12,4.91A11.62,11.62,0,0,1,628,80.45a10.07,10.07,0,0,1-4.61,3.93,17.28,17.28,0,0,1-7.13,1.35A27.76,27.76,0,0,1,610,85Z" transform="translate(0 0)"/><path class="cls-3" d="M643.7,84.11a12.32,12.32,0,0,1-5.45-4.79,14.08,14.08,0,0,1-1.91-7.5V46.7h6.59V70.79q0,4.62,2.3,7c1.53,1.6,3.8,2.4,6.79,2.4s5.37-.82,6.79-2.47,2.14-4,2.14-7.15V46.7h6.6V71.77a14.46,14.46,0,0,1-1.88,7.55,12.11,12.11,0,0,1-5.37,4.79A19.38,19.38,0,0,1,652,85.75,19.67,19.67,0,0,1,643.7,84.11Z" transform="translate(0 0)"/><path class="cls-3" d="M676.93,46.7h12q6.6,0,10,2.63a9,9,0,0,1,3.39,7.53,11.32,11.32,0,0,1-1.22,5.38,12,12,0,0,1-3,3.79,13.6,13.6,0,0,1-3.72,2.18l11.83,17h-7.71l-10-15.25h-4.89V85.19h-6.65Zm10.42,18.21a9.33,9.33,0,0,0,4.28-.94,7,7,0,0,0,2.9-2.66,7.53,7.53,0,0,0,1-4,4.89,4.89,0,0,0-1.83-4.24,8.91,8.91,0,0,0-5.34-1.35h-4.81V64.91Z" transform="translate(0 0)"/></svg>