<svg width="771" height="317" viewBox="0 0 771 317" fill="none" xmlns="http://www.w3.org/2000/svg">
<path d="M421.159 281.135H261.275V121.032L339.601 39.5521L421.159 121.032V281.135Z" fill="#E1F6F8"/>
<path d="M790.167 -37.5489C790.548 -40.5948 790.738 -43.6408 790.548 -46.6868C789.407 -71.6257 769.255 -92.1859 744.35 -93.7089C715.643 -95.4222 691.689 -72.7679 691.689 -44.2119C691.689 -41.7371 691.879 -39.4526 692.259 -37.1682C695.301 -16.6079 689.978 4.33318 677.051 20.5149C665.264 35.1736 658.419 54.0205 658.99 74.5808C660.321 118.557 696.822 154.157 740.928 154.347C786.555 154.537 823.437 117.605 823.437 72.1059C823.437 52.4975 816.593 34.6025 805.186 20.3245C792.068 4.14279 787.316 -16.9886 790.167 -37.5489Z" fill="#E1F6F8"/>
<path d="M734.845 -39.0724V232.209" stroke="#BAE7EF" stroke-width="0.9539" stroke-miterlimit="10"/>
<path d="M712.982 -10.5162L734.845 11.3766" stroke="#BAE7EF" stroke-width="0.9539" stroke-miterlimit="10"/>
<path d="M734.845 50.9747L771.156 14.8038" stroke="#BAE7EF" stroke-width="0.9539" stroke-miterlimit="10"/>
<path d="M734.845 88.8582L689.028 42.9783" stroke="#BAE7EF" stroke-width="0.9539" stroke-miterlimit="10"/>
<path d="M270.78 121.603L237.321 21.2763L135.801 -40.9757L34.2807 21.2763L0.820923 121.603H6.71441V281.706H264.887L264.697 121.603H270.78Z" fill="#E1F6F8"/>
<path d="M103.102 91.1437H58.2351V161.201H103.102V91.1437Z" fill="white"/>
<path d="M202.341 91.1437H157.475V161.201H202.341V91.1437Z" fill="white"/>
<path d="M80.8584 91.1439V161.772" stroke="#E1F6F8" stroke-width="1.0301" stroke-miterlimit="10"/>
<path d="M58.2351 126.934H103.292" stroke="#E1F6F8" stroke-width="1.0301" stroke-miterlimit="10"/>
<path d="M641.689 105.421C641.309 105.421 640.928 105.23 640.738 104.849L637.316 97.2346C637.126 96.6634 637.316 96.0923 637.887 95.7116C638.457 95.5212 639.027 95.7116 639.408 96.2827L642.83 103.898C643.02 104.469 642.83 105.04 642.259 105.421C642.069 105.421 641.879 105.421 641.689 105.421Z" fill="#FAC47D"/>
<path d="M639.218 107.134C638.838 107.134 638.458 106.944 638.267 106.563L632.754 97.2345C632.374 96.6634 632.564 96.0923 633.134 95.7116C633.705 95.3308 634.275 95.5212 634.655 96.0923L640.169 105.421C640.549 105.992 640.359 106.563 639.788 106.944C639.598 107.134 639.408 107.134 639.218 107.134Z" fill="#FAC47D"/>
<path d="M636.366 108.848C635.986 108.848 635.606 108.658 635.416 108.277L629.902 98.9485C629.522 98.3774 629.712 97.8063 630.283 97.4256C630.853 97.0448 631.423 97.2352 631.804 97.8063L637.317 107.135C637.697 107.706 637.507 108.277 636.937 108.658C636.746 108.848 636.556 108.848 636.366 108.848Z" fill="#FAC47D"/>
<path d="M633.705 110.561C633.325 110.561 632.944 110.371 632.754 109.99L628.952 103.137C628.572 102.565 628.762 101.994 629.332 101.614C629.903 101.233 630.473 101.423 630.853 101.994L634.655 108.848C635.036 109.419 634.846 109.99 634.275 110.371C634.085 110.561 633.895 110.561 633.705 110.561Z" fill="#FAC47D"/>
<path d="M644.922 112.845L644.732 105.23L639.599 101.423L631.424 107.324L635.987 116.462L644.922 112.845Z" fill="#FAC47D"/>
<path d="M643.4 109.038C642.64 109.038 642.069 108.467 642.069 107.705V99.3287C642.069 98.5672 642.64 97.996 643.4 97.996C644.161 97.996 644.731 98.5672 644.731 99.3287V107.705C644.731 108.467 644.161 109.038 643.4 109.038Z" fill="#FAC47D"/>
<path d="M626.673 150.73L612.985 202.13C612.414 204.224 613.935 206.319 616.216 206.319C617.737 206.319 619.068 205.367 619.448 203.844L633.137 152.443C633.707 150.349 632.186 148.255 629.905 148.255C628.384 148.255 627.053 149.207 626.673 150.73Z" fill="#FF7254"/>
<path d="M778.192 150.73L764.504 202.13C763.933 204.224 765.454 206.319 767.736 206.319C769.256 206.319 770.587 205.367 770.968 203.844L784.656 152.443C785.226 150.349 783.705 148.255 781.424 148.255C779.903 148.255 778.572 149.207 778.192 150.73Z" fill="#FF7254"/>
<path d="M583.516 182.903H809.75C812.602 182.903 814.693 185.568 813.933 188.423C813.362 190.327 811.651 191.66 809.75 191.66H583.516C580.665 191.66 578.574 188.995 579.334 186.139C579.714 184.235 581.615 182.903 583.516 182.903Z" fill="#FFB612"/>
<path d="M591.501 153.014H817.735C820.587 153.014 822.678 155.679 821.917 158.535C821.347 160.438 819.636 161.771 817.735 161.771H591.501C588.65 161.771 586.558 159.106 587.319 156.25C587.699 154.346 589.6 153.014 591.501 153.014Z" fill="#FFB612"/>
<path d="M587.508 168.054H813.742C816.594 168.054 818.685 170.719 817.924 173.574C817.354 175.478 815.643 176.811 813.742 176.811H587.508C584.656 176.811 582.565 174.145 583.326 171.29C583.706 169.386 585.607 168.054 587.508 168.054Z" fill="#FFB612"/>
<path d="M566.026 280.183H559.942L577.052 216.408H583.136L566.026 280.183Z" fill="#008FCD"/>
<path d="M630.475 280.183H636.368L619.258 216.408H613.365L630.475 280.183Z" fill="#008FCD"/>
<path d="M724.769 280.183H718.686L735.796 216.408H741.879L724.769 280.183Z" fill="#008FCD"/>
<path d="M786.746 280.183H792.83L775.72 216.408H769.636L786.746 280.183Z" fill="#008FCD"/>
<path d="M804.617 210.126H554.239C550.817 210.126 548.156 207.46 548.156 204.034C548.156 200.607 550.817 197.942 554.239 197.942H804.617C808.039 197.942 810.701 200.607 810.701 204.034C810.701 207.46 808.039 210.126 804.617 210.126Z" fill="#FFB612"/>
<path d="M804.617 210.126H750.245C746.822 210.126 744.161 207.46 744.161 204.034C744.161 200.607 746.822 197.942 750.245 197.942H804.617C808.039 197.942 810.7 200.607 810.7 204.034C810.7 207.46 808.039 210.126 804.617 210.126Z" fill="#FF7254"/>
<path d="M786.557 210.126H569.829V216.408H786.557V210.126Z" fill="#008FCD"/>
<path d="M665.646 136.262L691.501 115.321L694.923 135.5C694.923 135.5 674.01 154.347 663.554 154.347C653.288 154.347 635.988 116.463 635.988 116.463L644.923 109.99L665.646 136.262Z" fill="#79D4E7"/>
<path d="M686.937 141.972L688.458 122.745L678.191 148.255C681.233 146.161 684.275 144.067 686.937 141.972Z" fill="#38BFDB"/>
<path d="M683.324 178.714H735.605L737.126 152.252L737.886 134.738C738.076 130.169 736.936 125.6 734.274 121.792C730.472 116.272 724.198 113.035 717.544 113.035H700.434C687.316 113.035 686.746 121.602 685.986 136.07L684.655 161.39L683.324 178.714Z" fill="#79D4E7"/>
<path d="M737.316 152.253L738.076 134.738C738.076 134.167 738.076 133.596 738.076 133.025C737.316 133.025 736.556 133.215 735.985 133.406C731.803 134.167 728.381 136.452 725.149 139.117C722.867 140.83 720.776 143.115 718.685 145.018C708.989 154.537 697.963 162.342 686.746 169.767C685.795 170.338 684.845 170.909 683.894 171.671L683.324 178.715H735.605L737.316 152.253Z" fill="#38BFDB"/>
<path d="M682.373 198.323L683.894 175.288C658.419 175.288 619.446 172.051 621.157 196.8C624.009 224.404 628.191 246.297 632.374 273.901L642.07 273.33C643.21 248.391 643.21 198.323 643.21 198.323H682.373Z" fill="black"/>
<path d="M707.089 198.323V175.288C680.663 175.288 650.625 172.433 650.625 196.8C653.477 224.404 657.659 246.297 661.842 273.901L671.537 273.33C672.678 248.391 672.678 198.323 672.678 198.323H707.089Z" fill="#004CBC"/>
<path d="M736.366 175.288C735.415 188.233 726.29 198.133 711.841 198.133H704.237V175.288H736.366Z" fill="#004CBC"/>
<path d="M707.28 92.4759L711.273 92.6663C715.265 92.8566 718.687 89.6203 718.687 85.6224V82.9572C718.877 76.6749 713.934 71.5349 707.66 71.3445L707.28 92.4759Z" fill="#FF7254"/>
<path d="M703.857 93.6179L701.196 114.178L704.998 121.603L714.693 114.178L716.024 93.6179H703.857Z" fill="#FAC47D"/>
<path d="M702.907 94.1886L702.527 107.515C708.61 107.324 713.553 102.565 713.743 96.4731V94.5694L702.907 94.1886Z" fill="#004CBC"/>
<path d="M701.577 110.18C708.231 109.038 713.744 103.327 713.744 97.2347V95.1406H703.668L701.577 110.18Z" fill="#42145F"/>
<path d="M704.237 107.515H704.618C710.891 107.705 716.215 102.756 716.215 96.4734L716.595 82.9569C716.785 76.6746 711.842 71.3442 705.568 71.3442H705.188C698.914 71.1538 693.591 76.1035 693.591 82.3858L693.211 95.9023C693.021 101.994 697.964 107.325 704.237 107.515Z" fill="#FAC47D"/>
<path d="M716.404 92.2851C718.399 92.2851 720.016 90.6657 720.016 88.668C720.016 86.6704 718.399 85.051 716.404 85.051C714.409 85.051 712.792 86.6704 712.792 88.668C712.792 90.6657 714.409 92.2851 716.404 92.2851Z" fill="#FAC47D"/>
<path d="M712.222 89.2391V92.6658C712.222 93.4273 711.842 93.9984 711.461 94.5695C710.321 95.7117 708.61 95.7117 707.659 94.5695L705.948 92.6658C705.378 92.0947 704.808 91.9043 704.047 91.9043L695.872 91.7139C694.541 91.7139 693.401 92.8561 693.211 94.1887V95.9021C693.021 102.375 698.154 107.515 704.427 107.705C710.891 107.896 716.024 102.756 716.214 96.4732L716.404 85.2412C714.313 85.0509 712.222 86.9546 712.222 89.2391Z" fill="#FF7254"/>
<path d="M703.477 94.1889C703.477 94.1889 701.576 96.283 699.484 96.283C697.773 96.283 696.062 93.9986 696.062 93.9986L703.477 94.1889Z" fill="#F6E4EB"/>
<path d="M697.393 79.5297L711.461 79.9104C712.031 79.9104 712.602 80.4816 712.602 81.0527C712.602 83.3372 714.313 85.0505 716.594 85.2409L716.784 80.672C716.974 75.7223 712.982 71.534 707.849 71.3436L698.723 71.1533C696.062 71.1533 693.971 73.2474 693.971 75.9126C693.78 77.8164 695.301 79.3393 697.393 79.5297Z" fill="#FF7254"/>
<path d="M673.819 280.183H646.633C645.682 280.183 645.112 279.231 645.492 278.47L645.682 278.089C646.253 276.757 647.583 275.614 649.104 275.234L657.089 272.759L660.511 269.332C661.271 268.571 662.412 268.571 663.173 269.332C663.743 269.903 664.884 270.474 666.214 270.474C668.116 270.474 669.256 269.522 670.967 268.761C671.918 268.38 673.058 268.951 673.058 270.094L673.819 280.183Z" fill="#FF7254"/>
<path d="M643.783 280.183H616.787C615.836 280.183 615.266 279.231 615.646 278.47L615.836 278.089C616.406 276.757 617.737 275.614 619.258 275.234L627.243 272.759L630.665 269.332C631.425 268.571 632.566 268.571 633.326 269.332C633.897 269.903 635.037 270.474 636.368 270.474C638.269 270.474 639.41 269.522 641.121 268.761C642.072 268.38 643.212 268.951 643.212 270.094L643.783 280.183Z" fill="#FF7254"/>
<path d="M704.997 121.603L707.659 125.029L716.784 112.845L714.883 111.322L704.997 121.603Z" fill="white"/>
<path d="M704.998 121.603L701.385 112.846L700.625 124.268L704.998 121.603Z" fill="white"/>
<path d="M705.569 175.097H692.451L689.79 153.014H708.041L705.569 175.097Z" fill="white"/>
<path d="M707.66 156.631H690.17C688.839 156.631 687.888 155.679 687.888 154.347C687.888 153.014 688.839 152.062 690.17 152.062H707.66C708.991 152.062 709.941 153.014 709.941 154.347C709.941 155.679 708.991 156.631 707.66 156.631Z" fill="#004CBC"/>
<path d="M704.617 149.778H693.401C692.83 149.778 692.45 150.159 692.26 150.539L691.119 153.205H707.089L705.948 150.539C705.568 149.968 704.998 149.778 704.617 149.778Z" fill="#004CBC"/>
<path d="M711.652 165.007H701.006C698.915 165.007 697.394 166.721 697.394 168.625V172.051C697.394 173.765 698.724 175.097 700.435 175.097H712.412L711.652 165.007Z" fill="#FAC47D"/>
<path d="M735.225 122.745L752.526 161.771C753.096 162.913 753.286 164.246 753.286 165.579C753.286 170.909 749.103 175.097 743.78 175.097H709.94V163.104L736.366 161.771L721.347 132.644L735.225 122.745Z" fill="#79D4E7"/>
<path d="M200.06 102.756C200.44 107.325 196.828 108.467 195.687 108.657C194.547 108.848 193.596 108.467 192.646 107.896C189.794 106.373 188.273 99.1387 185.421 97.6157C181.049 95.3312 175.726 95.1408 170.973 96.2831C169.452 96.6638 167.931 97.0446 166.41 96.6638C164.699 96.2831 163.558 94.7601 162.988 93.0468C162.608 91.3334 162.798 89.62 163.368 87.9067C163.939 86.1933 166.6 83.5281 167.361 81.8147C169.642 75.5324 166.98 69.4405 170.402 63.7293C172.874 59.5411 177.437 56.6855 182.379 56.1143C187.322 55.5432 192.265 57.447 195.877 60.6833C197.779 62.3967 200.44 66.2041 200.25 68.679C200.06 70.3923 199.49 72.4864 198.729 74.1998C196.448 78.9591 194.927 84.0992 194.547 89.0489C193.976 93.0467 199.68 97.4253 200.06 102.756Z" fill="#79D4E7"/>
<path fill-rule="evenodd" clip-rule="evenodd" d="M187.132 86.955H184.471C176.866 86.955 172.874 81.4343 172.874 74.9616L173.064 67.9178C173.064 62.397 178.007 58.2087 184.471 58.2087C192.075 58.2087 198.349 62.7777 198.729 70.2023V75.7231C198.539 82.7669 195.497 86.955 187.132 86.955Z" fill="#FFB612"/>
<path d="M186.562 298.649L149.68 166.34L181.429 162.913L198.349 295.984L195.687 301.314L186.562 298.649Z" fill="#008FCD"/>
<path fill-rule="evenodd" clip-rule="evenodd" d="M194.926 298.65C196.257 298.65 197.588 297.127 197.968 295.794C198.348 294.842 199.489 294.271 200.439 294.842L207.664 297.888L212.606 300.363C214.888 301.315 216.029 303.409 216.219 305.884C216.219 306.645 215.648 307.216 215.078 307.216H189.793C188.082 307.216 186.751 305.884 186.751 304.361L186.371 298.65H194.926Z" fill="black"/>
<path d="M239.793 273.52C239.793 306.645 266.599 333.488 299.679 333.488C332.758 333.488 359.374 306.645 359.374 273.52C359.374 240.395 332.568 213.553 299.679 213.553C266.599 213.743 239.793 240.395 239.793 273.52ZM247.017 273.52C247.017 244.393 270.591 220.787 299.679 220.787C328.766 220.787 352.34 244.393 352.34 273.52C352.34 302.647 328.766 326.254 299.679 326.254C270.591 326.254 247.017 302.647 247.017 273.52Z" fill="#FFB612"/>
<path d="M63.5596 273.52C63.5596 306.645 90.3654 333.488 123.445 333.488C156.525 333.488 183.14 306.645 183.14 273.52C183.14 240.395 156.334 213.553 123.445 213.553C90.3654 213.743 63.5596 240.395 63.5596 273.52ZM70.7838 273.52C70.7838 244.393 94.3578 220.787 123.445 220.787C152.532 220.787 176.106 244.393 176.106 273.52C176.106 302.647 152.532 326.254 123.445 326.254C94.3578 326.254 70.7838 302.647 70.7838 273.52Z" fill="#FFB612"/>
<path d="M179.528 173.765L160.326 174.717C146.828 174.717 141.315 159.106 146.258 144.447L187.132 153.585C187.322 153.776 186.752 173.765 179.528 173.765Z" fill="#008FCD"/>
<path d="M281.998 193.563H278.006C274.204 193.563 271.162 190.517 271.162 186.71C271.162 182.902 274.204 179.856 278.006 179.856H281.998V193.563Z" fill="#002783"/>
<path d="M275.916 186.139C275.155 185.378 273.824 185.378 273.064 186.139L266.98 192.612C267.741 193.944 268.311 194.896 268.881 196.229L276.106 188.995C276.866 188.233 276.866 186.901 275.916 186.139Z" fill="#002783"/>
<path d="M166.03 184.997L197.969 279.802L271.733 208.222" stroke="#002783" stroke-width="1.959" stroke-miterlimit="10"/>
<path d="M181.43 174.907H153.103C150.441 174.907 148.54 177.001 148.54 179.476V182.522C148.54 185.949 151.202 188.614 154.624 188.614H157.665C160.517 188.614 163.369 187.852 165.84 186.52L171.734 183.283C172.684 182.712 173.635 182.522 174.776 182.522H180.289C182.76 182.522 184.852 180.428 184.852 177.953C184.852 176.43 183.331 174.907 181.43 174.907Z" fill="black"/>
<path d="M199.68 297.127L123.635 285.133C117.932 284.372 113.559 279.612 113.559 273.711C113.559 267.428 118.692 262.288 124.966 262.288H201.772C211.467 262.288 219.262 270.094 219.262 279.803C219.262 290.273 210.137 298.459 199.68 297.127Z" fill="#002783"/>
<path d="M187.323 246.677H202.912C210.326 246.677 217.55 243.821 223.254 238.872L266.409 194.896" stroke="#002783" stroke-width="1.959" stroke-miterlimit="10"/>
<path d="M306.903 273.52L285.42 247.249L255.002 162.913H261.276" stroke="#002783" stroke-width="1.959" stroke-miterlimit="10" stroke-linecap="round" stroke-linejoin="round"/>
<path d="M168.882 192.421L123.825 271.426" stroke="#002783" stroke-width="1.959" stroke-miterlimit="10"/>
<path d="M156.524 214.124L147.969 205.367H89.7948" stroke="#002783" stroke-width="1.959" stroke-miterlimit="10" stroke-linecap="round" stroke-linejoin="round"/>
<path d="M204.052 279.993L212.608 257.339" stroke="#007BC7" stroke-width="1.052" stroke-miterlimit="10" stroke-linecap="round"/>
<path d="M219.262 260.385H205.954C204.433 260.385 203.292 259.242 203.292 257.719C203.292 256.196 204.433 255.054 205.954 255.054H219.262C220.782 255.054 221.923 256.196 221.923 257.719C221.923 259.052 220.592 260.385 219.262 260.385Z" fill="#008FCD"/>
<path d="M201.771 311.785H188.463C186.942 311.785 185.802 310.643 185.802 309.12C185.802 307.597 186.942 306.455 188.463 306.455H201.771C203.292 306.455 204.433 307.597 204.433 309.12C204.433 310.643 203.292 311.785 201.771 311.785Z" fill="#008FCD"/>
<path d="M187.133 153.776L157.856 174.908L214.319 190.518L200.441 248.392L213.369 248.963L236.562 194.135C241.125 182.332 239.034 173.004 227.057 168.245L187.133 153.776Z" fill="#008FCD"/>
<path d="M156.145 146.161C156.145 146.161 147.209 164.437 171.164 170.338L224.395 184.426L207.095 243.251" stroke="#0069D1" stroke-width="0.8337" stroke-miterlimit="10"/>
<path d="M201.771 243.251H215.84" stroke="#0069D1" stroke-width="0.8337" stroke-miterlimit="10"/>
<path fill-rule="evenodd" clip-rule="evenodd" d="M211.277 248.201C212.608 248.201 213.939 246.678 214.319 245.345C214.699 244.393 215.84 243.822 216.79 244.393L221.543 247.439L226.486 249.914C228.767 250.866 229.908 252.96 230.098 255.435C230.098 256.196 229.528 256.768 228.957 256.768H203.673C201.961 256.768 200.631 255.435 200.631 253.912L200.25 248.201H211.277Z" fill="black"/>
<path d="M151.581 140.64L137.703 137.784C131.619 136.261 127.817 130.17 129.338 124.078L135.231 99.1387C136.752 93.0468 142.836 89.2394 148.92 90.7623L160.897 93.6179C164.889 94.5698 167.17 98.9483 165.459 102.756L151.581 140.64Z" fill="#FF7254"/>
<path fill-rule="evenodd" clip-rule="evenodd" d="M146.449 144.638L186.943 153.585L187.893 133.025C188.083 133.977 199.11 124.839 197.969 118.747C193.977 100.09 187.513 93.2368 178.958 91.9042C166.601 90.1909 163.749 100.661 155.194 129.408L146.449 144.638Z" fill="#004CBC"/>
<path d="M188.464 133.787C185.993 131.502 186.183 130.36 185.612 129.979C183.711 128.646 165.08 112.655 165.08 112.655C165.08 112.655 173.065 134.738 180.669 152.062L186.943 153.776L188.464 133.787Z" fill="black"/>
<path d="M239.033 273.52C239.033 240.014 266.219 212.791 299.679 212.791" stroke="#002783" stroke-width="2.1039" stroke-miterlimit="10" stroke-linecap="round"/>
<path d="M62.7992 273.52C62.7992 240.014 89.9853 212.791 123.445 212.791C156.905 212.791 184.091 240.014 184.091 273.52" stroke="#002783" stroke-width="1.959" stroke-miterlimit="10" stroke-linecap="round"/>
<path fill-rule="evenodd" clip-rule="evenodd" d="M244.927 151.491L247.588 150.349C249.68 149.588 251.771 149.588 253.672 150.73L260.326 156.632C261.086 157.393 261.467 158.535 261.467 159.487C261.277 161.581 259.185 162.914 257.284 162.343L243.216 159.868L244.927 151.491Z" fill="#FFB612"/>
<path d="M190.364 115.51H187.322V110.37C187.322 103.898 181.999 98.5673 175.535 98.5673H168.882C164.509 98.5673 160.326 101.042 158.045 104.85L157.855 105.23L155.003 106.373L153.863 103.517L155.764 102.755C158.615 98.1865 163.558 95.5213 168.882 95.5213H175.535C183.71 95.5213 190.364 102.184 190.364 110.37V115.51Z" fill="#FF7254"/>
<path d="M191.316 117.034L185.232 105.04C182.38 99.5196 175.726 97.2351 170.213 100.091C164.129 103.137 162.038 110.942 165.84 116.463L174.015 128.456L191.316 117.034Z" fill="#004CBC"/>
<path d="M203.673 137.974L191.125 116.653L174.015 128.646L186.182 145.589C189.604 150.158 194.547 153.395 200.251 154.537L244.357 160.438L247.779 150.539L203.673 137.974Z" fill="#FFB612"/>
<path fill-rule="evenodd" clip-rule="evenodd" d="M190.745 77.2457L196.829 77.0554C196.829 77.0554 195.688 79.5302 193.217 79.5302C191.315 79.5302 190.745 77.2457 190.745 77.2457Z" fill="white"/>
<path d="M175.155 76.1035C175.155 76.1035 180.288 62.587 187.322 58.2084C187.322 58.2084 190.174 57.4469 193.976 60.8737C193.976 60.8737 195.307 61.8255 196.638 63.7293C197.588 65.0619 198.349 67.3463 198.539 69.4404C198.539 69.4404 197.778 64.8715 193.786 64.11C188.273 63.1582 181.239 70.0116 175.155 76.1035Z" fill="#008FCD"/>
<path d="M187.132 86.9547C187.512 86.9547 178.957 82.005 181.999 68.1078C183.52 60.6833 189.414 58.2084 189.414 58.2084C189.414 58.2084 173.824 54.0202 171.733 67.9174C169.832 79.9109 173.064 88.6681 187.132 86.9547Z" fill="#79D4E7"/>
<path fill-rule="evenodd" clip-rule="evenodd" d="M477.432 53.6399C488.459 53.6399 500.436 55.1629 501.576 101.043H463.744C463.934 100.852 455.379 53.6399 477.432 53.6399Z" fill="black"/>
<path fill-rule="evenodd" clip-rule="evenodd" d="M485.987 100.281L470.968 100.662L474.2 80.4824L487.318 76.8653L485.987 100.281Z" fill="#FF7254"/>
<path d="M480.855 89.8104L471.92 94.5698L473.061 87.7163L480.855 89.8104Z" fill="#F25A37"/>
<path fill-rule="evenodd" clip-rule="evenodd" d="M457.09 173.194L419.828 332.536C418.878 336.154 421.159 339.961 424.771 340.913L438.459 344.53C442.072 345.482 446.064 343.388 447.015 339.771L494.162 177.573L457.09 173.194Z" fill="black"/>
<path fill-rule="evenodd" clip-rule="evenodd" d="M465.265 174.907L477.052 258.672C478.002 264.763 480.094 270.855 483.135 276.186L515.835 341.103C517.926 345.291 523.059 346.624 526.861 344.149L537.698 337.486C541.12 335.392 542.451 331.204 540.74 327.586L511.652 263.812C511.652 263.812 510.322 230.687 508.42 202.702C507.66 190.137 504.238 177.382 499.295 173.384C487.128 163.675 465.265 174.907 465.265 174.907Z" fill="#004CBC"/>
<path fill-rule="evenodd" clip-rule="evenodd" d="M498.535 173.194H457.09L457.851 138.737C457.851 138.737 452.718 134.549 452.718 128.076C452.718 119.319 458.421 115.321 463.934 109.8C469.067 104.47 469.258 100.281 477.432 100.281C490.17 100.281 501.767 111.704 503.668 134.168C504.618 145.019 504.048 159.487 503.668 168.435C503.668 171.1 501.387 173.194 498.535 173.194Z" fill="#FFB612"/>
<path fill-rule="evenodd" clip-rule="evenodd" d="M474.771 126.362L457.28 161.581L457.09 173.194H471.539L481.805 162.723L474.771 126.362Z" fill="#FF9E12"/>
<path fill-rule="evenodd" clip-rule="evenodd" d="M441.501 197.752L435.988 204.605C435.227 205.557 435.227 207.08 436.178 208.032V208.223L435.988 208.794C435.607 209.365 435.797 210.126 436.178 210.697C436.748 211.268 437.699 211.268 438.269 210.888L438.649 210.697L439.41 211.268C439.98 211.649 440.93 211.84 441.501 211.459L441.881 211.268L442.451 211.459C443.212 211.84 444.162 211.649 444.733 211.078L455.189 201.94L445.683 192.802L441.501 197.752Z" fill="#FF7254"/>
<path fill-rule="evenodd" clip-rule="evenodd" d="M440.93 200.797L437.508 201.559C436.557 201.749 435.607 200.988 435.607 200.036C435.607 199.465 435.987 198.894 436.367 198.703L444.352 194.515L447.204 198.703L444.352 201.749L440.93 200.797Z" fill="#FF7254"/>
<path fill-rule="evenodd" clip-rule="evenodd" d="M470.018 103.136L470.779 97.2347H486.938V104.469L470.018 103.136Z" fill="#FFB612"/>
<path d="M515.075 216.979L495.303 218.121C490.55 218.502 486.368 214.695 486.177 209.935L485.227 195.086C484.847 190.327 488.649 186.139 493.402 185.948L513.173 184.806C517.926 184.425 522.109 188.233 522.299 192.992L523.249 207.841C523.44 212.6 519.827 216.789 515.075 216.979Z" fill="#008FCD"/>
<path d="M485.798 190.708L493.022 199.274C494.353 200.988 496.634 201.94 498.725 201.749L511.273 200.988C513.744 200.797 516.026 199.274 517.166 196.99L521.159 188.423" stroke="#0069D1" stroke-width="1.0421" stroke-miterlimit="10" stroke-linecap="round"/>
<path d="M489.409 190.518C489.409 190.518 475.341 145.019 475.341 117.796L491.691 114.75L517.546 188.424" stroke="#008FCD" stroke-width="2.0842" stroke-miterlimit="10"/>
<path fill-rule="evenodd" clip-rule="evenodd" d="M494.732 111.704L489.409 164.056L452.717 205.748L440.55 195.087L469.447 156.822L473.44 111.323L494.732 111.704Z" fill="#FFB612"/>
<path fill-rule="evenodd" clip-rule="evenodd" d="M491.881 74.9617C490.74 83.9092 480.665 92.2856 471.539 91.3337C461.273 90.1915 459.562 83.9092 460.513 74.9617C461.463 65.0623 467.167 55.9244 476.862 55.734C488.459 55.9244 493.592 61.6356 491.881 74.9617Z" fill="#FF7254"/>
<path fill-rule="evenodd" clip-rule="evenodd" d="M476.672 55.9241C476.101 55.9241 475.721 55.9241 475.341 55.9241C475.341 56.4952 478.953 60.1122 479.904 63.9197C481.995 71.9154 477.432 97.6157 483.896 100.852H489.599C489.599 100.852 491.69 77.8169 492.261 74.771C493.972 61.2545 488.459 55.9241 476.672 55.9241Z" fill="black"/>
<path d="M482.186 79.34C484.181 79.34 485.798 77.7206 485.798 75.723C485.798 73.7253 484.181 72.1059 482.186 72.1059C480.191 72.1059 478.574 73.7253 478.574 75.723C478.574 77.7206 480.191 79.34 482.186 79.34Z" fill="#FF7254"/>
<path fill-rule="evenodd" clip-rule="evenodd" d="M477.623 55.9241C477.052 55.9241 476.292 55.9241 475.531 55.9241C474.961 55.9241 474.391 55.924 473.82 56.1144C473.63 56.1144 473.63 56.1144 473.44 56.1144C473.06 56.1144 472.489 56.3048 472.109 56.3048H471.919C469.067 57.0663 467.356 57.2567 463.554 63.1582L481.425 70.9635L482.565 56.8759C481.615 56.4952 480.474 56.3048 479.334 56.1144H479.143C478.763 56.1144 478.193 55.9241 477.623 55.9241Z" fill="black"/>
<path d="M464.315 81.0538C464.315 81.0538 464.885 82.9575 467.356 82.7672C469.638 82.5768 470.779 80.4827 470.779 80.4827" stroke="black" stroke-width="0.5246" stroke-miterlimit="10"/>
</svg>
