<svg width="40" height="40" viewBox="0 0 40 40" fill="none" xmlns="http://www.w3.org/2000/svg">
<path d="M31.6667 0H8.33333C3.73167 0 0 3.73167 0 8.33333V31.6667C0 36.2683 3.73167 40 8.33333 40H31.6667C36.27 40 40 36.2683 40 31.6667V8.33333C40 3.73167 36.27 0 31.6667 0ZM13.3333 31.6667H8.33333V13.3333H13.3333V31.6667ZM10.8333 11.22C9.22333 11.22 7.91667 9.90333 7.91667 8.28C7.91667 6.65667 9.22333 5.34 10.8333 5.34C12.4433 5.34 13.75 6.65667 13.75 8.28C13.75 9.90333 12.445 11.22 10.8333 11.22ZM33.3333 31.6667H28.3333V22.3267C28.3333 16.7133 21.6667 17.1383 21.6667 22.3267V31.6667H16.6667V13.3333H21.6667V16.275C23.9933 11.965 33.3333 11.6467 33.3333 20.4017V31.6667Z" fill="#2867B2"/>
</svg>

