<svg width="42" height="52" viewBox="0 0 42 52" fill="none" xmlns="http://www.w3.org/2000/svg">
<path d="M40.09 23H39V18C39 8.08 30.93 0 21 0C11.07 0 3 8.08 3 18V21.49C4.3 21.74 8.47 22.55 8.73 22.63C9.05 22.73 9 22.94 8.98 22.99H1.9C0.85 23 0 23.85 0 24.91V48.51C0 49.44 0.67 50.23 1.58 50.39C4.62 50.93 11.82 52 21 52C30.18 52 37.38 50.93 40.42 50.39C41.33 50.23 42 49.44 42 48.51V24.91C42 23.85 41.15 23 40.09 23ZM11 18C11 12.49 15.49 8 21 8C26.51 8 31 12.49 31 18V21.49C32.3 21.74 36.47 22.55 36.73 22.63C37.05 22.73 37 22.94 36.98 22.99H11V18ZM21.38 45.26C21.14 45.38 20.85 45.38 20.61 45.26C11.53 40.51 11.28 31.97 15.15 30.24C19.08 28.5 21 32.25 21 32.25C21 32.25 22.92 28.5 26.85 30.24C30.72 31.96 30.46 40.5 21.38 45.26Z" fill="#154273"/>
</svg>

