<svg id="Layer_1" data-name="Layer 1" xmlns="http://www.w3.org/2000/svg" viewBox="0 0 385.3 96.34">
  <defs>
    <style>
      .cls-1{fill:#ca005d}.cls-2{fill:#fff}
    </style>
  </defs>
  <rect class="cls-1" x="218.09" width="167.21" height="45.76" rx="3.34"/>
  <path class="cls-1" d="M209.93 0H99.42a3.33 3.33 0 013.34 3.34v39.09a3.33 3.33 0 01-3.34 3.33h110.51a3.34 3.34 0 003.34-3.33V3.34A3.34 3.34 0 00209.93 0z"/>
  <path class="cls-2" d="M3.34.5h96.09a2.83 2.83 0 012.83 2.83v39.1a2.84 2.84 0 01-2.84 2.84H3.34A2.84 2.84 0 01.5 42.43V3.34A2.84 2.84 0 013.34.5z"/>
  <path class="cls-1" d="M99.42 1a2.34 2.34 0 012.34 2.34v39.09a2.34 2.34 0 01-2.34 2.33H3.34A2.34 2.34 0 011 42.43V3.34A2.34 2.34 0 013.34 1h96.08m0-1H3.34A3.33 3.33 0 000 3.34v39.09a3.33 3.33 0 003.34 3.33h96.08a3.33 3.33 0 003.34-3.33V3.34A3.33 3.33 0 0099.42 0z"/>
  <path class="cls-1" d="M21.73 34h-3.81v-1.2a8.64 8.64 0 01-5 1.37c-3.64 0-5.65-2-5.65-5 0-3.28 2.52-5.58 8.1-5.58h2.44v-1c0-1.94-1.15-3-3.95-3a12.34 12.34 0 00-5.08 1.08l-.58-3.42a15.41 15.41 0 016.41-1.37c4.79 0 7.16 2.27 7.16 6.27zm-7.66-3a7.42 7.42 0 003.7-.93v-3.42c-.68 0-1.61-.07-2.34-.07-2.91 0-4 .93-4 2.3s.95 2.05 2.64 2.05zm16.05 3h-4.06V9l4.06-.22zm8.68 0h-4.07V9l4.07-.22zm11.59-18.19c4.36 0 7.06 2.63 7.06 7.28 0 1.08 0 2.23-.11 3h-11c.44 3.17 2.27 4.61 5.47 4.61a15.16 15.16 0 005.19-.85v3.39a16.28 16.28 0 01-5.69.93c-5.43 0-8.93-2.88-8.93-9.07s3.62-9.29 8.01-9.29zm3.1 7.31c0-2.45-1.3-4-3.39-4-1.9 0-3.34 1.4-3.7 4zm14.43-7.31c4.36 0 7.06 2.63 7.06 7.28 0 1.08 0 2.23-.11 3h-11c.44 3.17 2.27 4.61 5.48 4.61a15.1 15.1 0 005.18-.87v3.39a16.28 16.28 0 01-5.69.93c-5.43 0-8.92-2.88-8.92-9.07s3.57-9.27 8-9.27zM71 23.12c0-2.45-1.3-4-3.39-4-1.9 0-3.34 1.4-3.7 4zm18.27-.07c0-2.34-1.15-3.35-3.28-3.35a8.13 8.13 0 00-3.45.69V34h-4.07V16.25l4-.18v1.29a8.3 8.3 0 014.72-1.44c3.88 0 6.19 2.23 6.19 6.3V34h-4.11z"/>
  <path class="cls-2" d="M110 30.14a20.75 20.75 0 005.08.61c2.52 0 3.38-.75 3.38-1.83s-.5-1.48-2.41-2l-2.23-.65C111.41 25.53 110 24 110 21.5c0-3.2 2.74-5.58 7.42-5.58a22 22 0 014.35.4l-.25 3.42a25.53 25.53 0 00-4.32-.36c-2.19 0-3.17.75-3.17 1.69s.36 1.37 2.09 1.84l2.13.57c3.06.83 4.28 2.41 4.28 4.79 0 3.67-2.84 5.9-7.42 5.9a21 21 0 01-5.11-.5zM139.13 34h-3.82v-1.2a8.6 8.6 0 01-5 1.37c-3.63 0-5.65-2-5.65-5 0-3.28 2.52-5.58 8.1-5.58h2.45v-1c0-1.94-1.15-3-4-3a12.34 12.34 0 00-5.08 1.08l-.57-3.42a15.34 15.34 0 016.44-1.33c4.78 0 7.16 2.27 7.16 6.27zm-7.67-3a7.44 7.44 0 003.71-.93v-3.42c-.68 0-1.62-.07-2.34-.07-2.92 0-4 .93-4 2.3s.94 2.05 2.63 2.05zm33.23-7.91c0-2.34-1.15-3.39-3.24-3.39a7.6 7.6 0 00-3.31.69V34h-4.07V23.09c0-2.42-1.12-3.39-3.24-3.39a7.52 7.52 0 00-3.31.69V34h-4.07V16.25l4-.18v1.29a8.43 8.43 0 014.68-1.44 5.89 5.89 0 014.86 2 9.26 9.26 0 015.65-2c3.92 0 6.15 2.27 6.15 6.34V34h-4.06zm15.37-7.28c4.36 0 7.06 2.63 7.06 7.28 0 1.08 0 2.23-.11 3H176c.44 3.17 2.27 4.61 5.47 4.61a15.16 15.16 0 005.19-.87v3.39a16.28 16.28 0 01-5.69.93c-5.43 0-8.93-2.88-8.93-9.07s3.59-9.27 8.02-9.27zm3.1 7.31c0-2.45-1.3-4-3.39-4-1.9 0-3.34 1.4-3.7 4zm18.25-.07c0-2.34-1.15-3.35-3.28-3.35a8.13 8.13 0 00-3.45.69V34h-4.07V16.25l4-.18v1.29a8.27 8.27 0 014.71-1.44c3.89 0 6.2 2.23 6.2 6.3V34h-4.07zM232.49 34h-4.07V9l4.07-.22v13.8H234l5.11-6.44h4.65l-6.16 7.52L244.23 34h-4.94l-5-8.21h-1.76zm23.4-13.9a7.76 7.76 0 00-2-.25 5.55 5.55 0 00-3.45 1.29V34h-4.07V16.25l4-.18v2.05c1.23-1.59 2.34-2.2 3.75-2.2a7.29 7.29 0 012.05.25zm4.39-11.34a2.22 2.22 0 012.42 2.34 2.24 2.24 0 01-2.42 2.3 2.15 2.15 0 01-2.37-2.3 2.24 2.24 0 012.37-2.34zM262.33 34h-4.06V16.25l4.06-.18zm8.67 0c0 4.5-2.84 6.51-6.44 7l-.36-3.24c1.87-.47 2.73-1.62 2.73-3.71v-17.8l4.07-.18zm-2-25.24a2.21 2.21 0 012.41 2.34 2.23 2.23 0 01-2.41 2.3 2.16 2.16 0 01-2.38-2.3A2.24 2.24 0 01269 8.76zm11.87 21.74h4.25c3.82 0 5.44 1.51 5.44 4.39 0 3.39-2.81 6.12-9.29 6.12-5.07 0-7.41-1.8-7.41-4.57a4.08 4.08 0 012.69-3.85v-.11a2.68 2.68 0 01-1.4-2.38 2.86 2.86 0 012-2.66v-.11a5 5 0 01-2.56-4.71c0-4.32 2.92-6.66 7.42-6.66a10 10 0 012.74.36h5.76V19h-2.74v.11a4.21 4.21 0 011.4 3.34c0 3.93-2.66 6-7.56 6a8.84 8.84 0 01-2.23-.29 1.31 1.31 0 00-.75 1.12c-.02.79.59 1.22 2.24 1.22zm.76 7.49c3.89 0 5.29-1 5.29-2.38 0-1-.65-1.62-2.41-1.65l-5.9-.18a2 2 0 00-1 1.87c.02 1.4 1.25 2.35 4.02 2.35zm3.74-15.84c0-2.16-1.18-3.31-3.45-3.31a3.21 3.21 0 00-3.46 3.56c0 2.31 1.3 3.28 3.39 3.28s3.52-1.05 3.52-3.53zm14.87-6.34c4.36 0 7.06 2.63 7.06 7.28 0 1.08 0 2.23-.11 3h-11c.44 3.17 2.27 4.61 5.48 4.61a15.1 15.1 0 005.18-.87v3.39a16.28 16.28 0 01-5.69.93c-5.43 0-8.93-2.88-8.93-9.07s3.58-9.27 8.01-9.27zm3.1 7.31c0-2.45-1.3-4-3.39-4-1.9 0-3.34 1.4-3.7 4zm18.25-.07c0-2.34-1.15-3.35-3.28-3.35a8.13 8.13 0 00-3.45.69V34h-4.07V16.25l4-.18v1.29a8.3 8.3 0 014.72-1.44c3.88 0 6.19 2.23 6.19 6.3V34h-4.07zM354.92 34h-5.61l-2.59-9.58h-.11L343.73 34h-5.44l-4.75-17.82h4.68l3 14.36h.18l3.53-11-.9-3.31h4.11l4 14.36h.18l3.09-14.36h4.25zM369 15.81c4.36 0 7.06 2.63 7.06 7.28 0 1.08 0 2.23-.11 3h-11c.44 3.17 2.27 4.61 5.47 4.61a15.16 15.16 0 005.19-.87v3.39a16.28 16.28 0 01-5.69.93c-5.44 0-8.93-2.88-8.93-9.07s3.58-9.27 8.01-9.27zm3.1 7.31c0-2.45-1.3-4-3.39-4-1.91 0-3.34 1.4-3.71 4z"/>
  <rect class="cls-1" x="22.17" y="50.58" width="340.96" height="45.76" rx="3.34"/>
  <path class="cls-2" d="M42.24 70.1a15.16 15.16 0 00-3.17-.33c-2.8 0-4.78 2-4.78 5.48 0 3.85 2.08 5.47 4.86 5.47a13 13 0 003.42-.47v3.53a12.76 12.76 0 01-3.82.5c-5.18 0-8.64-2.77-8.64-8.85s4-9.43 8.75-9.43a13.3 13.3 0 013.74.43zm10.62 14.29c-4.89 0-8.35-3-8.35-8.89s4.1-9.58 8.86-9.58 8.35 3 8.35 8.93-4.11 9.54-8.86 9.54zm.25-14.87c-2.48 0-4.42 2-4.42 5.83s1.72 5.44 4.42 5.44c2.49 0 4.43-2.05 4.43-5.83s-1.76-5.44-4.43-5.44zm21.71.69a7.7 7.7 0 00-2-.26 5.51 5.51 0 00-3.46 1.3v12.81h-4.08V66.35l4-.18v2.06c1.23-1.59 2.34-2.2 3.75-2.2a7.29 7.29 0 012 .25zm9.68 14.18c-4.89 0-8.35-3-8.35-8.89s4.11-9.58 8.86-9.58 8.35 3 8.35 8.93-4.1 9.54-8.86 9.54zm.26-14.87c-2.49 0-4.43 2-4.43 5.83s1.73 5.44 4.43 5.44c2.48 0 4.42-2.05 4.42-5.83s-1.76-5.44-4.42-5.44zm22.96 3.64c0-2.34-1.15-3.35-3.27-3.35a8.32 8.32 0 00-3.46.68v13.57h-4.06V66.35l4-.18v1.3A8.24 8.24 0 01105.6 66c3.89 0 6.19 2.23 6.19 6.3v11.76h-4.07zm21.57 10.9h-3.82v-1.15a8.6 8.6 0 01-5 1.37c-3.63 0-5.65-2-5.65-5 0-3.27 2.52-5.58 8.1-5.58h2.45v-1c0-1.94-1.15-3-4-3a12.34 12.34 0 00-5.08 1.08l-.57-3.42a15.33 15.33 0 016.4-1.37c4.79 0 7.17 2.27 7.17 6.26zm-7.67-3a7.39 7.39 0 003.71-.94v-3.36c-.69 0-1.62-.07-2.34-.07-2.92 0-4 .93-4 2.3s.94 2.01 2.63 2.01zm25.2 3.33c-4.9 0-8.35-3-8.35-8.89s4.1-9.58 8.85-9.58c4.9 0 8.35 3 8.35 8.93s-4.1 9.54-8.85 9.54zm.25-14.87c-2.48 0-4.43 2-4.43 5.83s1.73 5.44 4.43 5.44c2.49 0 4.43-2.05 4.43-5.83s-1.76-5.44-4.43-5.44zM170 73.16c0-2.34-1.15-3.35-3.28-3.35a8.27 8.27 0 00-3.45.68v13.57h-4.07V66.35l4-.18v1.3a8.29 8.29 0 014.71-1.47c3.89 0 6.2 2.23 6.2 6.3v11.76H170zm23.37 10.9h-4v-1.22a7.89 7.89 0 01-4.61 1.44c-4.43 0-7.42-3-7.42-8.71 0-6 3.89-9.54 9.33-9.54a9.7 9.7 0 012.59.29v-7.2l4.07-.22zm-11.81-8.71c0 3.78 1.84 5.37 4.46 5.37a6.29 6.29 0 003.28-.83V69.74a14.18 14.18 0 00-2.56-.22c-3.13 0-5.18 2.16-5.18 5.83zM205 65.92c4.35 0 7 2.63 7 7.27 0 1.08 0 2.24-.1 3h-11c.43 3.16 2.27 4.61 5.47 4.61a15.16 15.16 0 005.19-.87v3.38a16.12 16.12 0 01-5.69.94c-5.44 0-8.93-2.88-8.93-9.07s3.59-9.26 8.06-9.26zm3.09 7.31c0-2.45-1.29-4-3.38-4-1.91 0-3.35 1.4-3.71 4zm16.96-3.02a7.78 7.78 0 00-2-.26 5.53 5.53 0 00-3.46 1.3v12.81h-4.06V66.35l4-.18v2.06c1.22-1.59 2.34-2.2 3.74-2.2a7.24 7.24 0 012.05.25zm19.36-.11a15.13 15.13 0 00-3.16-.33c-2.81 0-4.79 2-4.79 5.48 0 3.85 2.09 5.47 4.86 5.47a13 13 0 003.42-.47v3.53a12.76 12.76 0 01-3.82.5c-5.18 0-8.64-2.77-8.64-8.85S236.31 66 241 66a13.3 13.3 0 013.74.43zM255 84.39c-4.89 0-8.35-3-8.35-8.89s4.11-9.58 8.86-9.58 8.35 3 8.35 8.93-4.08 9.54-8.86 9.54zm.25-14.87c-2.48 0-4.42 2-4.42 5.83s1.73 5.44 4.42 5.44c2.49 0 4.43-2.05 4.43-5.83s-1.68-5.44-4.4-5.44zm23 3.64c0-2.34-1.15-3.35-3.27-3.35a8.29 8.29 0 00-3.46.68v13.57h-4.07V66.35l4-.18v1.3a8.3 8.3 0 014.68-1.47c3.89 0 6.19 2.23 6.19 6.3v11.76h-4.07zm6.84-6.91h2.16V63l4.07-.36v3.6h4.5v3.13h-4.5v8.43c0 2 1.08 3 2.66 3a8.65 8.65 0 002.31-.29v3.39a12.42 12.42 0 01-3.49.43c-3.32 0-5.55-1.87-5.55-5.94v-9h-2.16zm23.37 3.96a7.78 7.78 0 00-2-.26 5.53 5.53 0 00-3.46 1.3v12.81h-4.06V66.35l4-.18v2.06c1.22-1.59 2.34-2.2 3.74-2.2a7.24 7.24 0 012.05.25zm9.68 14.18c-4.9 0-8.35-3-8.35-8.89s4.1-9.58 8.85-9.58c4.9 0 8.35 3 8.35 8.93s-4.1 9.54-8.85 9.54zm.25-14.87c-2.48 0-4.43 2-4.43 5.83s1.73 5.44 4.43 5.44c2.49 0 4.43-2.05 4.43-5.83s-1.76-5.44-4.43-5.44zm16.24 14.54h-4.07V59.12l4.07-.22zm11.59-18.14c4.35 0 7 2.63 7 7.27 0 1.08 0 2.24-.1 3h-11c.43 3.16 2.27 4.61 5.47 4.61a15.16 15.16 0 005.19-.87v3.38a16.12 16.12 0 01-5.69.94c-5.44 0-8.93-2.88-8.93-9.07s3.63-9.26 8.06-9.26zm3.09 7.31c0-2.45-1.29-4-3.38-4-1.91 0-3.35 1.4-3.71 4z"/>
</svg>
