<?xml version="1.0" encoding="utf-8"?>
<!-- Generator: Adobe Illustrator 22.1.0, SVG Export Plug-In . SVG Version: 6.00 Build 0)  -->
<svg version="1.1" id="Layer_1" xmlns="http://www.w3.org/2000/svg" xmlns:xlink="http://www.w3.org/1999/xlink" x="0px" y="0px"
	 viewBox="0 0 566 231" style="enable-background:new 0 0 566 231;" xml:space="preserve">
<style type="text/css">
	.st0{fill:#00295A;}
	.st1{fill:#FFD000;}
	.st2{fill:#FFFFFF;}
</style>
<polygon class="st0" points="247.3,26.5 167.7,204.3 317.6,204.3 397.4,26.5 "/>
<path class="st1" d="M279.1,163l21.9-49.3h31.6l-33.7,75.9c-66.9-13.2-92.4-42.9-77.2-77.2c17.1-38.5,78.5-64.5,145.4-76.4L360,52.3
	c-19.2,4.2-88.5,19.8-106.4,60.1C244.4,133.5,253.3,149.3,279.1,163"/>
<polygon class="st0" points="83,26.5 3.4,204.3 153.3,204.3 233.1,26.5 "/>
<path class="st2" d="M114.8,163l21.9-49.3h31.6l-33.4,75.9c-66.9-13.2-92.5-43-77.2-77.2C74.8,73.9,136.2,47.9,203.1,36l-7.4,16.3
	c-19.2,4.2-88.5,19.8-106.4,60.1C80.1,133.5,89,149.3,114.8,163"/>
<g>
	<polygon class="st0" points="411.5,26.5 332,204.3 481.9,204.3 561.7,26.5 	"/>
</g>
<path class="st2" d="M361.4,194.6l7.1-16.3c19.2-4.2,88.5-19.8,106.4-60.1c9.5-21.1,0.3-37.1-25.5-50.8l-33.2,75.1h-31.6l45-101.7
	C496.5,54,522,83.7,506.8,118C489.6,156.4,428.3,182.4,361.4,194.6"/>
</svg>
