<svg width="254" height="66" viewBox="0 0 254 66" fill="none" xmlns="http://www.w3.org/2000/svg">
<path d="M251.751 31.0021H146.375C145.136 31.0021 144.126 29.999 144.126 28.7536V2.44479C144.126 1.2061 145.129 0.196289 146.375 0.196289H251.751C252.99 0.196289 254 1.19936 254 2.44479V28.7604C254 29.999 252.997 31.0021 251.751 31.0021Z" fill="#CA005D"/>
<path d="M138.633 0.196289H66.2568C67.4955 0.196289 68.5053 1.19936 68.5053 2.44479V28.7604C68.5053 29.999 67.5022 31.0089 66.2568 31.0089H138.633C139.872 31.0089 140.875 30.0058 140.875 28.7604V2.44479C140.881 1.19936 139.872 0.196289 138.633 0.196289Z" fill="#CA005D"/>
<path d="M68.5053 28.7604V2.44479C68.5053 1.2061 67.5022 0.196289 66.2568 0.196289H33.2563H2.2485C1.00307 0.196289 0 1.19936 0 2.44479V28.7604C0 29.999 1.00307 31.0089 2.2485 31.0089H33.2563H66.2635C67.5022 31.0021 68.5053 29.999 68.5053 28.7604Z" fill="white"/>
<path d="M239.923 65.0529H14.8778C13.6391 65.0529 12.6293 64.0498 12.6293 62.8044V36.4956C12.6293 35.2569 13.6324 34.2471 14.8778 34.2471H239.923C241.162 34.2471 242.172 35.2501 242.172 36.4956V62.8111C242.165 64.0498 241.162 65.0529 239.923 65.0529Z" fill="#CA005D"/>
<path d="M14.6287 23.0582H12.0571V22.2773C11.0607 22.9101 10.0913 23.1996 8.66414 23.1996C6.21368 23.1996 4.86053 21.8666 4.86053 19.8537C4.86053 17.6456 6.55701 16.0972 10.3135 16.0972C10.9194 16.0972 11.4512 16.1242 11.9628 16.1242V15.4442C11.9628 14.1382 11.1887 13.4112 9.29695 13.4112C8.13231 13.4112 7.16289 13.6064 5.87707 14.1382L5.48661 11.8359C6.96766 11.2031 8.24675 10.9136 9.80186 10.9136C13.0265 10.9136 14.622 12.4417 14.622 15.1278V23.0582H14.6287ZM9.47198 21.0184C10.4145 21.0184 11.1415 20.8231 11.9696 20.3856V18.1303C11.5118 18.1034 10.879 18.0832 10.3943 18.0832C8.42852 18.0832 7.68126 18.716 7.68126 19.6316C7.67453 20.4865 8.33427 21.0184 9.47198 21.0184Z" fill="#CA005D"/>
<path d="M20.2769 23.0583H17.537V6.26187L20.2769 6.11377V23.0583Z" fill="#CA005D"/>
<path d="M26.1203 23.0583H23.3804V6.26187L26.1203 6.11377V23.0583Z" fill="#CA005D"/>
<path d="M33.9228 10.8398C36.8579 10.8398 38.6756 12.6104 38.6756 15.734C38.6756 16.4611 38.6487 17.2353 38.6015 17.7671H31.1828C31.4723 19.9012 32.711 20.8706 34.8652 20.8706C36.2251 20.8706 37.1676 20.6754 38.3524 20.2916V22.5671C37.0936 22.9777 36.1241 23.1999 34.5219 23.1999C30.8597 23.1999 28.5102 21.261 28.5102 17.0939C28.5169 13.0008 30.9405 10.8398 33.9228 10.8398ZM36.0097 15.761C36.0097 14.1116 35.1345 13.048 33.7343 13.048C32.4484 13.048 31.479 13.9904 31.2367 15.761H36.0097Z" fill="#CA005D"/>
<path d="M45.724 10.8398C48.6592 10.8398 50.4701 12.6104 50.4701 15.734C50.4701 16.4611 50.4432 17.2353 50.3961 17.7671H42.9841C43.2736 19.9012 44.5123 20.8706 46.6665 20.8706C48.0264 20.8706 48.9689 20.6754 50.1537 20.2916V22.5671C48.8948 22.9777 47.9254 23.1999 46.3232 23.1999C42.6609 23.1999 40.3115 21.261 40.3115 17.0939C40.3249 13.0008 42.7417 10.8398 45.724 10.8398ZM47.811 15.761C47.811 14.1116 46.9358 13.048 45.5355 13.048C44.2497 13.048 43.2803 13.9904 43.0379 15.761H47.811Z" fill="#CA005D"/>
<path d="M60.0969 15.7136C60.0969 14.1383 59.3227 13.4584 57.8888 13.4584C57.0136 13.4584 56.3876 13.5796 55.5595 13.9162V23.0516H52.8196V11.1358L55.4855 11.0147V11.8898C56.5289 11.2368 57.4512 10.9204 58.6563 10.9204C61.275 10.9204 62.8234 12.4217 62.8234 15.1616V23.0583H60.0835V15.7136H60.0969Z" fill="#CA005D"/>
<path d="M72.733 20.4869C73.8707 20.7764 75.0354 20.8976 76.1529 20.8976C77.8494 20.8976 78.4283 20.3859 78.4283 19.6589C78.4283 19.0261 78.0917 18.6625 76.8059 18.299L75.3047 17.8614C73.6553 17.3767 72.733 16.3602 72.733 14.6637C72.733 12.5095 74.5776 10.9072 77.7282 10.9072C78.8457 10.9072 79.8353 11.0015 80.6634 11.1765L80.4951 13.4789C79.4516 13.3106 78.6034 13.2365 77.5868 13.2365C76.1058 13.2365 75.4528 13.7481 75.4528 14.3742C75.4528 14.9532 75.6951 15.2965 76.8598 15.6129L78.287 16.0034C80.347 16.5621 81.1683 17.6258 81.1683 19.228C81.1683 21.6987 79.2564 23.1999 76.1731 23.1999C74.8402 23.1999 73.6553 23.1057 72.733 22.8633V20.4869Z" fill="white"/>
<path d="M92.3165 23.0582H89.7449V22.2773C88.7485 22.9101 87.7791 23.1996 86.3519 23.1996C83.9015 23.1996 82.5483 21.8666 82.5483 19.8537C82.5483 17.6456 84.2448 16.0972 88.0013 16.0972C88.6072 16.0972 89.139 16.1242 89.6506 16.1242V15.4442C89.6506 14.1382 88.8765 13.4112 86.9848 13.4112C85.8201 13.4112 84.8507 13.6064 83.5649 14.1382L83.1744 11.8359C84.6555 11.2031 85.9346 10.9136 87.4897 10.9136C90.7143 10.9136 92.3098 12.4417 92.3098 15.1278V23.0582H92.3165ZM87.1531 21.0184C88.0955 21.0184 88.8226 20.8231 89.6506 20.3856V18.1303C89.1929 18.1034 88.5601 18.0832 88.0753 18.0832C86.1096 18.0832 85.3623 18.716 85.3623 19.6316C85.3623 20.4865 86.0153 21.0184 87.1531 21.0184Z" fill="white"/>
<path d="M109.524 15.7406C109.524 14.1653 108.749 13.4651 107.342 13.4651C106.467 13.4651 105.962 13.5863 105.114 13.9229V23.0583H102.374V15.7406C102.374 14.1181 101.62 13.4651 100.193 13.4651C99.2977 13.4651 98.813 13.5863 97.9647 13.9229V23.0583H95.2248V11.1358L97.8907 11.0147V11.8898C98.9813 11.2368 99.8564 10.9204 101.041 10.9204C102.59 10.9204 103.586 11.3782 104.313 12.2264C105.498 11.3782 106.663 10.9204 108.117 10.9204C110.756 10.9204 112.264 12.4486 112.264 15.1885V23.065H109.524V15.7406Z" fill="white"/>
<path d="M119.871 10.8398C122.806 10.8398 124.617 12.6104 124.617 15.734C124.617 16.4611 124.59 17.2353 124.543 17.7671H117.131C117.42 19.9012 118.659 20.8706 120.813 20.8706C122.173 20.8706 123.116 20.6754 124.3 20.2916V22.5671C123.042 22.9777 122.072 23.1999 120.47 23.1999C116.808 23.1999 114.458 21.261 114.458 17.0939C114.465 13.0008 116.889 10.8398 119.871 10.8398ZM121.958 15.761C121.958 14.1116 121.083 13.048 119.682 13.048C118.396 13.048 117.427 13.9904 117.185 15.761H121.958Z" fill="white"/>
<path d="M134.244 15.7136C134.244 14.1383 133.47 13.4584 132.036 13.4584C131.16 13.4584 130.534 13.5796 129.706 13.9162V23.0516H126.966V11.1358L129.632 11.0147V11.8898C130.676 11.2368 131.598 10.9204 132.803 10.9204C135.422 10.9204 136.97 12.4217 136.97 15.1616V23.0583H134.23V15.7136H134.244Z" fill="white"/>
<path d="M151.801 23.0583H149.061V6.26187L151.801 6.11377V15.3973H152.817L156.257 11.0618H159.381L155.234 16.1243L159.691 23.0516H156.372L152.979 17.5246H151.794V23.0583H151.801Z" fill="white"/>
<path d="M167.554 13.7276C167.042 13.6064 166.706 13.5593 166.194 13.5593C165.44 13.5593 164.693 13.8016 163.865 14.4344V23.0582H161.125V11.1357L163.838 11.0146V12.3946C164.659 11.331 165.413 10.9136 166.355 10.9136C166.887 10.9136 167.298 10.9607 167.736 11.0819L167.554 13.7276Z" fill="white"/>
<path d="M170.509 6.09375C171.553 6.09375 172.132 6.74676 172.132 7.66905C172.132 8.51729 171.553 9.21742 170.509 9.21742C169.466 9.21742 168.907 8.58461 168.907 7.66905C168.914 6.82081 169.466 6.09375 170.509 6.09375ZM171.889 23.0585H169.149V11.1361L171.889 11.0149V23.0585Z" fill="white"/>
<path d="M177.733 23.0585C177.733 26.0879 175.821 27.4478 173.397 27.7844L173.155 25.6032C174.414 25.2868 175 24.5126 175 23.1056V11.1361L177.739 11.0149V23.0585H177.733ZM176.353 6.09375C177.396 6.09375 177.975 6.74676 177.975 7.66905C177.975 8.51729 177.396 9.21742 176.353 9.21742C175.309 9.21742 174.75 8.58461 174.75 7.66905C174.75 6.82081 175.309 6.09375 176.353 6.09375Z" fill="white"/>
<path d="M184.37 20.7292H187.232C189.803 20.7292 190.894 21.7457 190.894 23.6846C190.894 25.96 189.002 27.8046 184.64 27.8046C181.22 27.8046 179.645 26.5928 179.645 24.728C179.645 23.5903 180.277 22.6411 181.462 22.1362V22.0622C180.903 21.7727 180.52 21.1668 180.52 20.4599C180.52 19.7059 180.977 19.0058 181.853 18.6692V18.5951C180.762 17.9893 180.129 16.9727 180.129 15.4176C180.129 12.5094 182.095 10.9341 185.124 10.9341C185.777 10.9341 186.363 11.0081 186.969 11.1764H190.847V12.9941H189.002V13.0681C189.514 13.4586 189.945 14.2799 189.945 15.3234C189.945 17.9623 188.154 19.3491 184.855 19.3491C184.323 19.3491 183.812 19.2751 183.354 19.1539C183.037 19.3222 182.842 19.6117 182.842 19.9079C182.849 20.4397 183.26 20.7292 184.37 20.7292ZM184.882 25.7715C187.501 25.7715 188.443 25.1185 188.443 24.1693C188.443 23.4691 188.006 23.0787 186.821 23.0518L182.849 22.9306C182.391 23.247 182.196 23.6307 182.196 24.1895C182.189 25.1387 183.017 25.7715 184.882 25.7715ZM187.4 15.1079C187.4 13.6538 186.599 12.8796 185.071 12.8796C183.711 12.8796 182.741 13.6538 182.741 15.2763C182.741 16.8246 183.616 17.4844 185.017 17.4844C186.531 17.4844 187.4 16.7775 187.4 15.1079Z" fill="white"/>
<path d="M197.41 10.8398C200.346 10.8398 202.157 12.6104 202.157 15.734C202.157 16.4611 202.13 17.2353 202.083 17.7671H194.671C194.96 19.9012 196.199 20.8706 198.353 20.8706C199.713 20.8706 200.655 20.6754 201.84 20.2916V22.5671C200.581 22.9777 199.612 23.1999 198.01 23.1999C194.347 23.1999 191.998 21.261 191.998 17.0939C192.005 13.0008 194.428 10.8398 197.41 10.8398ZM199.497 15.761C199.497 14.1116 198.622 13.048 197.222 13.048C195.936 13.048 194.967 13.9904 194.724 15.761H199.497Z" fill="white"/>
<path d="M211.783 15.7136C211.783 14.1383 211.009 13.4584 209.575 13.4584C208.7 13.4584 208.074 13.5796 207.246 13.9162V23.0516H204.506V11.1358L207.172 11.0147V11.8898C208.215 11.2368 209.138 10.9204 210.343 10.9204C212.962 10.9204 214.51 12.4217 214.51 15.1616V23.0583H211.77V15.7136H211.783Z" fill="white"/>
<path d="M234.221 23.0585H230.438L228.694 16.6092H228.62L226.681 23.0585H223.026L219.828 11.062H222.979L225.012 20.7292H225.133L227.509 13.2903L226.903 11.062H229.664L232.377 20.7292H232.498L234.578 11.062H237.439L234.221 23.0585Z" fill="white"/>
<path d="M243.7 10.8398C246.635 10.8398 248.446 12.6104 248.446 15.734C248.446 16.4611 248.419 17.2353 248.372 17.7671H240.96C241.249 19.9012 242.488 20.8706 244.642 20.8706C246.002 20.8706 246.945 20.6754 248.13 20.2916V22.5671C246.871 22.9777 245.901 23.1999 244.299 23.1999C240.637 23.1999 238.287 21.261 238.287 17.0939C238.294 13.0008 240.718 10.8398 243.7 10.8398ZM245.787 15.761C245.787 14.1116 244.912 13.048 243.511 13.048C242.226 13.048 241.256 13.9904 241.014 15.761H245.787Z" fill="white"/>
<path d="M26.1405 47.3881C25.3865 47.24 24.7807 47.1726 24.0065 47.1726C22.1148 47.1726 20.7818 48.5056 20.7818 50.8551C20.7818 53.4469 22.1888 54.5375 24.0536 54.5375C24.8278 54.5375 25.5347 54.4432 26.356 54.2211V56.5975C25.5548 56.8399 24.7537 56.9341 23.7843 56.9341C20.2971 56.9341 17.9678 55.0693 17.9678 50.9762C17.9678 46.9774 20.6808 44.6279 23.8584 44.6279C24.8749 44.6279 25.5279 44.702 26.3762 44.9174L26.1405 47.3881Z" fill="white"/>
<path d="M33.29 57.0079C29.9913 57.0079 27.6687 54.9748 27.6687 51.0231C27.6687 47.0714 30.4288 44.5806 33.6266 44.5806C36.9253 44.5806 39.2478 46.6136 39.2478 50.5923C39.2545 54.5373 36.4944 57.0079 33.29 57.0079ZM33.465 46.9974C31.7954 46.9974 30.4827 48.3774 30.4827 50.9222C30.4827 53.3928 31.6473 54.5844 33.465 54.5844C35.1345 54.5844 36.4473 53.2043 36.4473 50.6596C36.4406 48.2091 35.2557 46.9974 33.465 46.9974Z" fill="white"/>
<path d="M48.0735 47.4618C47.5619 47.3407 47.2253 47.2935 46.7136 47.2935C45.9596 47.2935 45.2124 47.5359 44.3844 48.1687V56.7925H41.6444V44.8633L44.3574 44.7421V46.1222C45.1787 45.0585 45.9327 44.6411 46.8752 44.6411C47.407 44.6411 47.8177 44.6882 48.2553 44.8094L48.0735 47.4618Z" fill="white"/>
<path d="M54.5968 57.0079C51.3049 57.0079 48.9756 54.9748 48.9756 51.0231C48.9756 47.0714 51.7357 44.5806 54.9334 44.5806C58.2321 44.5806 60.5547 46.6136 60.5547 50.5923C60.5547 54.5373 57.7946 57.0079 54.5968 57.0079ZM54.7651 46.9974C53.0956 46.9974 51.7828 48.3774 51.7828 50.9222C51.7828 53.3928 52.9475 54.5844 54.7651 54.5844C56.4347 54.5844 57.7474 53.2043 57.7474 50.6596C57.7474 48.2091 56.5559 46.9974 54.7651 46.9974Z" fill="white"/>
<path d="M70.2287 49.4479C70.2287 47.8726 69.4545 47.1927 68.0206 47.1927C67.1454 47.1927 66.5193 47.3138 65.6913 47.6504V56.7858H62.9514V44.8634L65.6172 44.7422V45.6174C66.6607 44.9644 67.583 44.6479 68.788 44.6479C71.4068 44.6479 72.9552 46.1492 72.9552 48.8891V56.7858H70.2152V49.4479H70.2287Z" fill="white"/>
<path d="M84.743 56.7858H82.1713V56.0116C81.175 56.6445 80.2056 56.9339 78.7784 56.9339C76.3279 56.9339 74.9748 55.601 74.9748 53.5881C74.9748 51.38 76.6713 49.8316 80.4277 49.8316C81.0336 49.8316 81.5655 49.8585 82.0771 49.8585V49.1786C82.0771 47.8726 81.3029 47.1455 79.4112 47.1455C78.2466 47.1455 77.2771 47.3408 75.9913 47.8726L75.6009 45.5702C77.0819 44.9374 78.361 44.6479 79.9161 44.6479C83.1408 44.6479 84.7363 46.1761 84.7363 48.8622V56.7858H84.743ZM79.5795 54.7527C80.522 54.7527 81.2491 54.5575 82.0771 54.1199V51.8647C81.6193 51.8378 80.9865 51.8176 80.5018 51.8176C78.536 51.8176 77.7888 52.4504 77.7888 53.3659C77.7888 54.2209 78.4418 54.7527 79.5795 54.7527Z" fill="white"/>
<path d="M96.5442 57.0079C93.2523 57.0079 90.923 54.9748 90.923 51.0231C90.923 47.0714 93.6831 44.5806 96.8808 44.5806C100.18 44.5806 102.502 46.6136 102.502 50.5923C102.509 54.5373 99.742 57.0079 96.5442 57.0079ZM96.7125 46.9974C95.043 46.9974 93.7302 48.3774 93.7302 50.9222C93.7302 53.3928 94.8949 54.5844 96.7125 54.5844C98.3821 54.5844 99.6948 53.2043 99.6948 50.6596C99.6948 48.2091 98.51 46.9974 96.7125 46.9974Z" fill="white"/>
<path d="M112.176 49.4479C112.176 47.8726 111.402 47.1927 109.968 47.1927C109.093 47.1927 108.467 47.3138 107.639 47.6504V56.7858H104.899V44.8634L107.565 44.7422V45.6174C108.608 44.9644 109.53 44.6479 110.735 44.6479C113.354 44.6479 114.902 46.1492 114.902 48.8891V56.7858H112.163V49.4479H112.176Z" fill="white"/>
<path d="M127.882 56.786H125.216V55.9647C124.368 56.5705 123.304 56.9341 122.113 56.9341C119.13 56.9341 117.117 54.9481 117.117 51.0705C117.117 47.0245 119.736 44.6481 123.392 44.6481C124.024 44.6481 124.603 44.6952 125.135 44.8433V39.9962L127.875 39.8481V56.786H127.882ZM119.931 50.9224C119.931 53.4671 121.17 54.5307 122.934 54.5307C123.809 54.5307 124.341 54.3826 125.142 53.972V47.1457C124.563 47.0514 124.051 46.9976 123.419 46.9976C121.311 46.9976 119.931 48.4517 119.931 50.9224Z" fill="white"/>
<path d="M135.684 44.5737C138.62 44.5737 140.43 46.3443 140.43 49.4679C140.43 50.195 140.404 50.9692 140.356 51.501H132.944C133.234 53.6351 134.473 54.6045 136.627 54.6045C137.987 54.6045 138.929 54.4092 140.114 54.0255V56.3009C138.855 56.7116 137.886 56.9338 136.284 56.9338C132.621 56.9338 130.272 54.9949 130.272 50.8278C130.279 46.7347 132.702 44.5737 135.684 44.5737ZM137.771 49.4949C137.771 47.8455 136.896 46.7818 135.496 46.7818C134.21 46.7818 133.241 47.7243 132.998 49.4949H137.771Z" fill="white"/>
<path d="M149.209 47.4618C148.697 47.3407 148.361 47.2935 147.849 47.2935C147.095 47.2935 146.348 47.5359 145.52 48.1687V56.7925H142.78V44.8633L145.493 44.7421V46.1222C146.314 45.0585 147.068 44.6411 148.011 44.6411C148.543 44.6411 148.953 44.6882 149.391 44.8094L149.209 47.4618Z" fill="white"/>
<path d="M162.249 47.3881C161.495 47.24 160.889 47.1726 160.115 47.1726C158.223 47.1726 156.89 48.5056 156.89 50.8551C156.89 53.4469 158.297 54.5375 160.162 54.5375C160.936 54.5375 161.643 54.4432 162.464 54.2211V56.5975C161.663 56.8399 160.862 56.9341 159.893 56.9341C156.406 56.9341 154.076 55.0693 154.076 50.9762C154.076 46.9774 156.789 44.6279 159.967 44.6279C160.983 44.6279 161.636 44.702 162.485 44.9174L162.249 47.3881Z" fill="white"/>
<path d="M169.398 57.0079C166.106 57.0079 163.777 54.9748 163.777 51.0231C163.777 47.0714 166.537 44.5806 169.735 44.5806C173.034 44.5806 175.356 46.6136 175.356 50.5923C175.356 54.5373 172.596 57.0079 169.398 57.0079ZM169.567 46.9974C167.897 46.9974 166.584 48.3774 166.584 50.9222C166.584 53.3928 167.749 54.5844 169.567 54.5844C171.236 54.5844 172.549 53.2043 172.549 50.6596C172.542 48.2091 171.357 46.9974 169.567 46.9974Z" fill="white"/>
<path d="M185.03 49.4479C185.03 47.8726 184.256 47.1927 182.822 47.1927C181.947 47.1927 181.321 47.3138 180.493 47.6504V56.7858H177.753V44.8634L180.419 44.7422V45.6174C181.462 44.9644 182.385 44.6479 183.59 44.6479C186.208 44.6479 187.757 46.1492 187.757 48.8891V56.7858H185.017V49.4479H185.03Z" fill="white"/>
<path d="M189.635 44.7961H191.089V42.6149L193.829 42.3726V44.7961H196.858V46.9032H193.829V52.5716C193.829 53.9517 194.556 54.5576 195.62 54.5576C196.199 54.5576 196.542 54.5104 197.168 54.3623V56.6378C196.347 56.8532 195.741 56.9272 194.819 56.9272C192.59 56.9272 191.089 55.6683 191.089 52.9284V46.8965H189.635V44.7961Z" fill="white"/>
<path d="M205.361 47.4618C204.849 47.3407 204.513 47.2935 204.001 47.2935C203.247 47.2935 202.5 47.5359 201.672 48.1687V56.7925H198.932V44.8633L201.645 44.7421V46.1222C202.466 45.0585 203.22 44.6411 204.163 44.6411C204.695 44.6411 205.105 44.6882 205.543 44.8094L205.361 47.4618Z" fill="white"/>
<path d="M211.878 57.0079C208.586 57.0079 206.256 54.9748 206.256 51.0231C206.256 47.0714 209.016 44.5806 212.214 44.5806C215.513 44.5806 217.835 46.6136 217.835 50.5923C217.842 54.5373 215.075 57.0079 211.878 57.0079ZM212.046 46.9974C210.376 46.9974 209.064 48.3774 209.064 50.9222C209.064 53.3928 210.228 54.5844 212.046 54.5844C213.715 54.5844 215.028 53.2043 215.028 50.6596C215.028 48.2091 213.843 46.9974 212.046 46.9974Z" fill="white"/>
<path d="M222.979 56.786H220.239V39.9962L222.979 39.8481V56.786Z" fill="white"/>
<path d="M230.781 44.5737C233.716 44.5737 235.527 46.3443 235.527 49.4679C235.527 50.195 235.5 50.9692 235.453 51.501H228.041C228.331 53.6351 229.569 54.6045 231.724 54.6045C233.084 54.6045 234.026 54.4092 235.211 54.0255V56.3009C233.952 56.7116 232.983 56.9338 231.38 56.9338C227.718 56.9338 225.369 54.9949 225.369 50.8278C225.375 46.7347 227.799 44.5737 230.781 44.5737ZM232.868 49.4949C232.868 47.8455 231.993 46.7818 230.593 46.7818C229.307 46.7818 228.337 47.7243 228.095 49.4949H232.868Z" fill="white"/>
</svg>
