<svg width="132" height="132" fill="none" xmlns="http://www.w3.org/2000/svg">
  <path d="M132 28.772v74.456C132 119.109 119.109 132 103.228 132H28.772C12.89 132 0 119.109 0 103.228V28.875C0 12.891 12.89 0 28.772 0h74.353C119.109 0 132 12.89 132 28.772z" fill="url(#paint0_linear)"/>
  <path d="M81.667 70.994c-.62 1.44-1.448 2.673-2.378 3.906l2.895 2.879c1.758-.72 3.93-.206 5.067 1.644.828 1.337.828 3.084 0 4.318-1.447 2.364-4.653 2.57-6.515.72-1.24-1.234-1.55-2.982-.93-4.524L76.91 77.06c-2.482 2.056-5.584 3.495-9.1 3.803V85.9c2.275.823 3.722 3.187 3.206 5.86a5.09 5.09 0 01-3.93 3.906c-3.31.72-6.308-1.85-6.308-5.037 0-2.159 1.344-4.01 3.309-4.832V80.76a18 18 0 01-9.1-3.804l-2.896 2.878c.724 1.748.206 3.907-1.655 5.037-1.344.823-3.102.823-4.343 0-2.379-1.439-2.586-4.625-.724-6.476 1.24-1.233 2.999-1.541 4.55-.925l2.896-2.878c-2.069-2.467-3.517-5.55-3.827-9.046h-5.067c-.827 2.262-3.206 3.7-5.895 3.187a5.09 5.09 0 01-3.93-3.906c-.723-3.29 1.862-6.27 5.068-6.27 2.172 0 4.033 1.335 4.86 3.289h5.068a17.78 17.78 0 013.826-9.046l-2.896-2.878c-1.758.72-3.93.205-5.067-1.645-.827-1.336-.827-3.084 0-4.317 1.448-2.365 4.654-2.57 6.515-.72 1.241 1.234 1.551 2.981.93 4.523l2.897 2.878c2.481-2.056 5.584-3.495 9.1-3.803V41.8c-2.275-.822-3.723-3.187-3.206-5.86a5.089 5.089 0 013.93-3.905c3.31-.72 6.308 1.85 6.308 5.036 0 2.16-1.344 4.01-3.31 4.832v5.037a18 18 0 019.101 3.803l2.896-2.878c-.724-1.748-.207-3.906 1.654-5.037 1.345-.822 3.103-.822 4.344 0 2.379 1.439 2.585 4.626.724 6.476-1.241 1.233-3 1.542-4.55.925l-2.896 2.878a16.196 16.196 0 012.482 4.01c.414 1.027 1.448 1.644 2.482 1.644h18.304a2.772 2.772 0 002.792-2.776V35.633c0-5.037-2.068-6.681-6.204-8.429-5.585-2.364-23.682-9.046-29.267-10.999-1.344-.41-2.688-.72-4.033-.72-1.344 0-2.689.31-3.93.72-5.584 1.85-23.681 8.738-29.266 11-4.033 1.644-6.205 3.392-6.205 8.428v41.015c0 17.68 9.308 24.156 36.195 39.678 1.241.72 2.379.925 3.206.925.724 0 1.965-.308 3.206-.925 27.405-14.699 36.195-21.998 36.195-39.678v-4.523a2.772 2.772 0 00-2.792-2.775H84.046c-1.035.102-1.965.72-2.379 1.644z" fill="#fff"/>
  <defs>
    <linearGradient id="paint0_linear" x1="20.088" y1="111.89" x2="152.872" y2="-20.812" gradientUnits="userSpaceOnUse">
      <stop stop-color="#C9005D"/>
      <stop offset="0" stop-color="#C9005D"/>
      <stop offset=".248" stop-color="#C9005D"/>
      <stop offset=".983" stop-color="#315BBC"/>
      <stop offset="1" stop-color="#315BBC"/>
    </linearGradient>
  </defs>
</svg>