<svg width="194" height="75" xmlns="http://www.w3.org/2000/svg"><g fill="none" fill-rule="evenodd"><path fill="#154273" d="M.42 74.58h36.86V.88H.42z"/><path d="M20.68 49.63c0 .16.1.4.31.33h.02c-.03.19-.35.35-.5.14-.12.27-.1.53.18.68.02 0 .02.03 0 .04a.36.36 0 01-.54-.14c-.23.17-.2.54-.06.66 0 0-.63.38-1.2.11-.39-.18-.7-.41-1.19-.38.07-.68.42-.87 1.05-.96.5-.09.57-.32.5-.5-.18-.04-.49.12-.49.12-.06-.1.03-.2.03-.2-.04-.03-.05-.16-.05-.16.35 0 .42-.08.42-.08.06-.37-.32-.4-.6-.2-.13-.13-.11-.28-.11-.28-.04-.02-.07-.08-.07-.1 0-.1.42-.33.53-.36.03-.12.18-.29.62-.25.06-.12-.03-.55-.08-.66-.02-.04 0-.06.04-.03.16.1.31.46.42.46 0 0 .5-.26.52-.24.03 0 .1.57.1.57.07.08.45 0 .62.07.04.02.04.05 0 .06-.12.02-.52.2-.6.3.24.35.13.86.13 1zm-4.47.29c-.04.05-.16 0-.2-.02h-.02c.03.07.15.27.33.27.08 0 .2-.05.23-.1l1.04.32c-.14.17-.22.39-.24.62-.27-.17-1.38-.76-1.38-.76l-.34.46c-.06.08-.33-.12-.27-.2l.26-.35c-.09-.1-.3-.04-.35-.02-.01 0-.02 0-.01-.02.03-.07.16-.28.49-.19 0-.2-.3-.13-.38-.1v-.02c.08-.09.32-.28.59-.12l.12-.16-.24-.25.15-.2.17.22 1.27-1.75c.03-.04.28-.11.38-.13 0 .1.02.36-.01.4l-1.25 1.76.26.09-.15.2-.3-.14-.15.19zm9.5 9.18c.02 0 .03-.01.02-.02-.17-.1-.3-.26-.3-.42 0-.3.57-.68.83-.68.16 0 .28.2.59.2.16 0 .34-.07.5-.27 0-.01 0-.02-.02-.02-.13.02-.47.1-.63-.52-.17-.65-.23-1.13.06-1.38.24-.21 1.32-.62 1.92-.85.03 0 .03-.03 0-.04-.17-.04-.33-.14-.35-.34-.01-.13.01-.3.16-.39-.3-.31-.88-.54-1.18-.54-1.18 0-2.18 1.6-2.65 1.6-.06 0-.14-.03-.21-.13-.02-.02-.03-.02-.03.02 0 .48.25.52.39.52.07 0 .16-.03.22-.06.01 0 .02 0 .02.02v.1c0 .56.59 1.18.59 1.18-.27.28-.94.75-1.13.5-.08-.1-.43-.73-.9-.23-.01.02 0 .04.03.04.27 0 .47.18.4.45-.38-.3-.9-.25-.9.45 0 .02.02.03.04.01.25-.36.64-.11.7-.06-.26.04-.72.35-.32.9.02.03.03.02.04 0 .04-.36.26-.42.44-.42.37 0 .64.34.92-.02.1.47.63.42.76.4zm-12.97-.4c.28.36.55.02.92.02.18 0 .4.06.45.42 0 .02.01.03.03 0 .4-.55-.05-.86-.32-.9.06-.05.45-.3.7.06.02.02.04.02.04-.01 0-.7-.52-.75-.9-.45-.07-.27.13-.45.4-.45.03 0 .04-.02.03-.04-.47-.5-.82.13-.9.23-.19.25-.86-.22-1.13-.5 0 0 .6-.62.6-1.18v-.1c0-.02 0-.03.02-.02.05.03.14.06.21.06.14 0 .4-.05.4-.53 0-.03-.02-.03-.04 0-.07.1-.15.12-.2.12-.48 0-1.48-1.6-2.65-1.6-.31 0-.9.23-1.19.54.15.09.17.26.16.39-.02.2-.18.3-.35.34-.03.01-.03.03 0 .04.6.23 1.68.64 1.92.85.3.25.23.73.07 1.38-.17.63-.51.54-.64.52-.02 0-.03 0-.01.02.15.2.34.26.5.26.3 0 .42-.19.58-.19.27 0 .83.39.83.68 0 .16-.13.31-.3.42l.01.02c.13.02.66.07.76-.4zm5.54-9.47c.2-.05.43-.03.45-.02.04.01.04.06 0 .06-.43.06-.45.25-.72.25-.18 0-.37-.18-.3-.44 0-.04.04-.04.04 0 .03.11.2.23.53.15zm1.07-.72c-.29-.02-.48.05-.47.14.14.15.33.13.47-.14zm-2.44 7.55c-.16.2-.3.01-.52.01-.2 0-.23.17-.23.23 0 .02-.01.02-.02 0-.23-.3.03-.47.17-.5-.02-.01-.24-.16-.38.04-.01.02-.03.01-.03 0 0-.39.3-.42.5-.25.04-.14-.06-.24-.22-.25-.02 0-.02-.01-.01-.02.06-.07.13-.1.2-.1.21 0 .24.26.38.26.2 0 .5-.28.53-.31 0-.02-.2-.56-.17-.88 0-.01 0-.02-.01-.01-.1.06-.36.05-.36-.26 0-.03 0-.03.02 0 .11.15.3-.03.39-.13.1-.1.62-.88 1.32-.88.16 0 .36.09.52.2-.24.3 0 .58.18.54.02 0 .02.02 0 .02-.93.35-1.34.5-1.34 1.27 0 .4.14.63.38.58.01 0 .02 0 0 .01a.35.35 0 01-.26.14c-.2 0-.23-.1-.33-.1-.11 0-.46.2-.46.37 0 .06.04.15.17.23v.01c-.08.02-.36.04-.42-.22zm-1.25-3.3l-.37-.09-.03.05-.42-.19h.38c.03 0 .04-.02.02-.04l-.32-.32.41.16c.03 0 .04-.01.03-.03l-.28-.4.4.27c.03.01.05 0 .04-.03l-.2-.47.38.35c.01.01.03 0 .03-.02l-.1-.48.27.4c.01.03.03.02.03 0l.01-.44.18.4c0 .02.03.02.04-.01l.14-.34.02.46h-.06l-.08.55c.54-.12 1.22-1.05 1.73-1.05.62 0 .84.72 1.98.36.29.42.39.8.5 1.3.44.41 1.05.28 1.05-.16 0-.59-.64-.7-.64-1.32 0-.27.2-.66.72-.66.28 0 .68.12.92.12.27 0 .33-.2.36-.29.03-.06.1-.04.1 0-.01.06.03.14.03.28 0 .39-.57.44-.64.39-.02-.02-.05 0-.02.03.08.06.06.3-.04.44-.01.02-.03.02-.03 0-.06-.28-.39-.62-.68-.62-.1 0-.31.06-.31.3 0 .35.7.67.7 1.4 0 .75-.75.93-1.5.74.03.72 1.1 1.14 1.12.63 0-.03.02-.01.03 0 .16.22.08.38-.12.47.19.08.22.46.28.68.08.34.43.15.45.14.02-.01.03 0 .02.02-.14.35-.5.22-.5.22-.18.13.04.25.21.3.03 0 .03.02 0 .03-.12.05-.38.13-.51-.1-.1.24-.3.23-.38.23-.13 0-.22.14-.2.33.01.02 0 .02-.01.01-.33-.21-.14-.47-.01-.53-.02-.02-.25-.11-.34.15-.01.02-.02.02-.03 0-.14-.38.17-.48.4-.39-.02-.05-.14-.24-.44-.18 0 0-.02 0-.01-.02.05-.12.2-.29.46-.11.14.08.38-.04.4-.05-.48-.95-1.4-.16-1.61-.9 0-.02-.02-.03-.04.01-.05.16-.45.17-.52-.14-.01-.03 0-.03.02-.01.05.06.18.11.35-.13a.93.93 0 00.12-.52c0-.57-.57-1.54-1.47-1.54a2.9 2.9 0 00-1.63.55l.42.1a.65.65 0 01-.83.57l.07-.5a.64.64 0 00-.32.21h-.02c-.08-.28.15-.42.22-.45v-.01a.4.4 0 00-.36.19h-.02c-.01-.05-.05-.2.05-.3zm3.2 8.96c3.57 0 7.21.18 7.69.72.03.05.05 0 .05-.03v-1.9c0-.55-3.75-.88-7.75-.88s-7.75.33-7.75.88v1.9c0 .03.02.08.06.03.47-.54 4.1-.72 7.7-.72zm5.84.84v.83c0 1.4 2.3.08 4.52-.06 1.85-.12 2.37.35 2.37.35l-.34-1.87c-.02-.1-.42-.38-1.7-.38-1.53 0-2.3.29-2.57.39v.98c0 .22-.12.33-.29.4 0-.08-.25-.64-2-.64zM11 63.2c-.16-.07-.28-.18-.28-.4v-.98c-.28-.1-1.04-.4-2.58-.4-1.27 0-1.67.3-1.69.4l-.33 1.86s.51-.47 2.36-.35c2.22.14 4.53 1.46 4.53.06v-.83c-1.75 0-2 .56-2 .64zm4.25-16.18c-.54.12-.92.23-1.1.28.02-.23.1-.45.32-.5.02 0 .03-.04 0-.06-.47-.32-.73.29-.73.3-.17 0-.43.05-.43.28 0 .68-1.56 1.06-1.92 1.12.63.24.9 1.05.9 1.05.46-.47 1-.88 1.12-.88.13 0 .17.16.18.25 0 .03.04.04.05.01.25-.36.13-.44.11-.55-.02-.08 0-.4.36-.36v4.56l-.18.03c-.08.02-.75-.55-1.51-1.08-.76-.52-1.17-.2-2.04.26-1.14.62-2.3.06-2.3.06-.97.7-1.3 2.73-1.3 2.73-.2.08-.53.17-.83.17-.75 0-.9-.45-.9-.72 0-1.16 1.46-1.66 1.46-2.8 0-.27-.13-1.4-1.52-1.4H3.74c-.52 0-.65-.38-.72-.52-.03-.05-.08-.02-.06.02.04.1-.06.24-.06.53 0 .47.27.74.78.74.23 0 .44-.06.51-.1.05-.03.08.01.05.04-.22.26-.24.74-.14.86.02.02.04.02.05 0 .12-.5.58-.96 1.2-.96.75 0 .75.64.75.8 0 .93-1.63 1.6-1.63 2.88 0 1.3 1.37 1.57 2.16 1.37-.05 1.3-1.53 1.74-1.58.81 0-.04-.03-.05-.06 0-.18.46-.11.86.47 1 .04 0 .02.02-.02.05-.57.36-.26 1.79-.23 2.2.04.61-.56.54-.61.52-.02 0-.05 0-.01.05.43.53.95.05.95.05.4.13.16.47-.11.64-.04.03-.04.06 0 .06.07 0 .68.06.8-.44.26.33.67.21.75.17.12-.06.7-.27.75.38 0 .05.04.02.05 0 .44-.56-.03-.9-.29-.94a.44.44 0 01.69.09c.02.02.04.03.04-.03.04-.7-.53-.76-.9-.45-.01-.08-.13-.47.42-.45.01 0 .04-.02.01-.05-.43-.45-.78-.04-.86.06-.2.22-.67.13-.71.13.15-2.42 2.28-1.56 2.57-2.74.01-.06.04-.04.05-.02.08.29.8.33.93-.24.01-.03 0-.06-.02-.03-.62.62-2-1.31-.1-2.88a2.75 2.75 0 013.61-.15c.03.2-.08.26-.16.28-.02 0-.03.03.01.05.16.06.37.04.47-.1.35.24.06.54-.08.63-.04.02-.03.05 0 .05.32.06.59-.27.6-.46l.05.03v1.38c0 1.96 2.26 2.23 4.74 3.89 2.48-1.66 4.74-1.93 4.74-3.89V53.7l.05-.03c.02.2.28.52.6.46.03 0 .04-.03 0-.05-.13-.09-.43-.4-.08-.63.1.14.32.16.47.1.04-.02.03-.04 0-.05-.07-.02-.18-.09-.15-.28.55-.44 2-1.18 3.62.15 1.9 1.57.5 3.5-.11 2.88-.03-.03-.03 0-.02.03.13.57.85.53.93.24 0-.02.04-.04.05.02.3 1.18 2.43.32 2.57 2.74-.04 0-.52.1-.7-.13-.09-.1-.44-.51-.87-.06-.03.03 0 .05.01.05.55-.02.43.38.41.45-.36-.3-.93-.24-.9.45.01.06.03.05.05.02.32-.4.67-.1.69-.08-.26.04-.73.38-.3.93.02.03.05.06.06 0 .05-.64.63-.43.75-.37.09.04.49.16.76-.16.1.49.73.43.79.43.04 0 .04-.03 0-.06-.26-.17-.51-.52-.11-.64 0 0 .53.48.95-.05.04-.04.02-.06 0-.05-.06.02-.66.1-.62-.51.03-.42.34-1.85-.23-2.21-.04-.03-.06-.05-.02-.06.58-.13.66-.53.47-.99-.03-.05-.06-.04-.06 0-.05.93-1.53.48-1.58-.81.8.2 2.16-.07 2.16-1.37 0-1.27-1.63-1.95-1.63-2.88 0-.16 0-.8.75-.8.62 0 1.08.46 1.2.95 0 .03.03.04.05 0 .1-.11.08-.6-.14-.85-.02-.03 0-.07.05-.04.07.04.28.1.51.1.51 0 .78-.27.78-.74 0-.29-.1-.43-.06-.53.02-.04-.03-.07-.06-.02-.07.15-.2.52-.72.52H32.7c-1.39 0-1.52 1.13-1.52 1.4 0 1.14 1.45 1.64 1.45 2.8 0 .27-.13.72-.89.72-.3 0-.63-.09-.82-.17 0 0-.34-2.03-1.32-2.73 0 0-1.15.56-2.29-.06-.87-.47-1.28-.78-2.04-.26-.76.53-1.43 1.1-1.51 1.08l-.18-.03v-4.56c.35-.04.38.28.36.36-.02.11-.13.2.1.55.03.03.05.02.06-.01 0-.1.05-.25.18-.25a4 4 0 011.12.88s.27-.8.9-1.05c-.36-.06-1.92-.44-1.92-1.12 0-.23-.26-.28-.43-.27 0-.02-.26-.63-.73-.31-.03.02-.02.05 0 .06.21.05.3.27.31.5-.45-.14-2.4-.68-4.69-.68-1.12 0-2.14.13-2.96.28v1.58h-.64v-1.46zm3.6-1.46c1.96 0 3.07.37 3.07.37.01-.99 0-1.54.58-1.46-.31-.84 1.03-1.16 1.03-2.25 0-.71-.51-.8-.66-.8-.45 0-.38.3-.75.3-.05 0-.1-.02-.1.02 0 .12.1.34.28.34.23 0 .24-.24.41-.24.08 0 .18.06.18.3 0 .46-.3.98-.66 1.37a.4.4 0 00-.32-.18c-.22 0-.4.22-.4.5 0 .1.01.17.05.25a.7.7 0 01-.3.1c-.17 0-.4-.06-.4-.41 0-.8 1.05-1.48 1.05-2.48a.92.92 0 00-.99-.95c-.7 0-.58.65-1.2.65-.02 0-.04 0-.04.03 0 .04.1.4.42.4.34 0 .44-.59.74-.59.12 0 .29.07.29.47 0 .31-.16.81-.38 1.3a.44.44 0 00-.31-.14c-.27 0-.46.25-.46.56 0 .2.08.38.21.5-.16.2-.31.36-.53.36-.43 0-.61-.24-.61-.5 0-.29.52-.4.52-.84 0-.3-.2-.47-.4-.47s-.3.13-.32.13c-.02 0-.13-.13-.33-.13-.19 0-.38.17-.38.47 0 .45.52.55.52.84 0 .26-.2.5-.62.5-.21 0-.37-.16-.53-.36a.7.7 0 00.2-.5c0-.3-.18-.56-.45-.56a.44.44 0 00-.3.14 3.66 3.66 0 01-.38-1.3c0-.4.17-.47.28-.47.3 0 .4.6.74.6.32 0 .42-.37.42-.4 0-.03-.02-.04-.05-.04-.61 0-.48-.65-1.2-.65a.92.92 0 00-.98.95c0 1 1.06 1.69 1.06 2.48 0 .35-.24.41-.4.41a.7.7 0 01-.31-.1.62.62 0 00.05-.26c0-.27-.18-.5-.4-.5a.4.4 0 00-.32.2c-.36-.4-.66-.92-.66-1.38 0-.24.1-.3.18-.3.17 0 .18.23.41.23.17 0 .28-.2.28-.33 0-.04-.05-.03-.1-.03-.37 0-.3-.29-.75-.29-.15 0-.65.09-.65.8 0 1.09 1.34 1.41 1.03 2.25.56-.08.56.47.57 1.46 0 0 1.1-.37 3.07-.37zm0-4.72a.5.5 0 100 .98.5.5 0 000-.98zm-.25-3c0 .13.05.23.1.29.08.11.07.18.03.22-.04.04-.1.05-.23-.03a.5.5 0 00-.27-.1c-.2 0-.3.14-.3.25 0 .12.1.25.3.25a.5.5 0 00.27-.1c.12-.08.19-.06.23-.02.04.03-.02.44-.07.76-.33.07-.5.34-.5.5 0 .4.44.63.7.76.24-.13.67-.36.67-.77 0-.15-.16-.42-.5-.49a3 3 0 01-.06-.76c.04-.04.1-.06.23.03.05.04.16.09.27.09.2 0 .3-.13.3-.25 0-.11-.1-.24-.3-.24a.5.5 0 00-.27.09c-.12.08-.19.07-.23.03-.03-.04-.05-.1.04-.22a.5.5 0 00.09-.28c0-.2-.14-.3-.25-.3-.11 0-.25.1-.25.3zm9.88 7.87c-.1.47-.52.54-.77.25.02-.22.24-.27.77-.25zm3.03 2.65c0-.05-.02-.04-.04-.03-.4.2-.62-.23-.52-.68.05-.24.27-.92-.28-1.46-.53.3-.9-.2-.8-.45.02-.06.06-.07.06.01 0 .17.18.3.3.3.22 0 .61-.24.64-.61-.55-.37-1.49-.22-1.67.47-.03.08-.13.08-.12-.01a.8.8 0 01.43-.67c.37-.18.23-.46.14-.55-.04-.04-.12-.04-.1 0 .15.25-.15.36-.57.3-.89-.11-1.18.22-1.22.44-.2.05-.95.47-.95.63 0 .05.05.16.12.2 0 0-.02.31.21.52.94-.57 1.2-.04 1.1.34 0 0-.16.13-.8.13 0 0 .04.23.1.3 0 0-.15.18-.05.35 0 0 .33-.25.89-.22 0 0 .36.55-.98.8-1.33.26-1.75 1.52-1.75 2.21 0 .03 0 .05.04.05 1.08-.2 1.57.92 2.97.79-.12-.33.02-.68.02-.68.1.3.37.5.56.6.5-.12.83-.35.9-.5 0 0-.53-.43-.18-1.22 0 0 .33.52 1.01.24.07-.03.05-.07.01-.08-.93-.3-.32-1.09-.27-1.16.43.24.8-.08.8-.36zm-5.27-1.3c-.27 0-.53-.12-.58-.34-.01-.05-.06-.07-.08.01-.13.48.2.7.53.7.36 0 .56-.26 1.07-.35.23-.04.39 0 .39-.07s-.34-.07-.39-.07c-.53 0-.6.12-.94.12zM10 45.96c-.25.29-.67.22-.77-.25.53-.02.75.03.77.25zm-3 2.76c.05.07.66.86-.27 1.16-.04.01-.05.05 0 .08.7.28 1.03-.24 1.03-.24.34.79-.19 1.22-.19 1.22.08.15.4.38.9.5.19-.1.45-.3.56-.6 0 0 .14.35.02.68 1.4.13 1.9-1 2.97-.8.03.01.05 0 .05-.04 0-.69-.43-1.95-1.76-2.2-1.33-.26-.98-.81-.98-.81.57-.03.89.22.89.22.1-.17-.04-.35-.04-.35.05-.07.08-.3.08-.3-.63 0-.8-.13-.8-.13-.1-.38.17-.9 1.1-.34.24-.2.22-.53.22-.53.07-.03.12-.14.12-.19 0-.16-.75-.58-.95-.63-.04-.22-.33-.55-1.22-.43-.41.05-.72-.06-.58-.3.03-.05-.05-.05-.09-.01-.1.1-.23.37.14.55.4.2.43.61.43.67.01.09-.1.1-.12 0-.18-.68-1.12-.83-1.67-.46.03.37.42.6.64.6.12 0 .3-.12.3-.29 0-.08.04-.07.06 0 .1.24-.27.74-.8.44-.55.54-.33 1.22-.28 1.46.1.45-.12.88-.52.68-.02-.01-.04-.02-.04.03 0 .28.37.6.8.36zm3.53-1.78c-.05 0-.38 0-.38.07s.15.03.38.07c.5.09.71.35 1.07.35.33 0 .66-.23.53-.7-.02-.08-.07-.06-.08 0-.05.2-.3.33-.58.33-.34 0-.41-.12-.94-.12zM21.74 50h.64v-1.77h-.64V50zm-2.89 7.84h.64v-1.78h-.64v1.78z" fill="#FFFFFE"/><path d="M45.36 48.37c.43-.13.65-.34.68-.68l.5-5.88-.66-.2v-.33c.52-.07 1.15-.08 1.56-.08h.42l1.8 5.58h.02l1.75-5.58h.49c.41 0 .93.01 1.4.08v.33l-.72.18.5 6.32.67.13v.25c-.27.13-.67.2-1.11.2-.53 0-.87-.02-1.27-.11v-.22c.48-.12.7-.4.68-.88l-.29-5.22h-.02l-2.05 6.38-.45.06-2.07-6.43v.01l-.37 5.77.75.2v.24a3.83 3.83 0 01-2.2.09v-.21M55.2 41.38c0-.35.24-.68.65-.68.32 0 .6.25.6.63 0 .4-.28.71-.65.71-.34 0-.6-.28-.6-.66zm-.5 7c.32-.12.62-.35.62-.62v-3.9l-.74-.3v-.24a5.45 5.45 0 011.37-.22h.37l-.06.62v4.37l.65.17v.22c-.4.14-.75.2-1.34.2-.26 0-.6-.02-.86-.1v-.2zM57.84 48.38c.3-.12.6-.35.6-.62v-3.9l-.74-.3v-.25a5.4 5.4 0 011.38-.21h.27v.62c.4-.4 1.04-.64 1.7-.64.96 0 1.62.6 1.62 1.79v3.22l.6.17v.22a3.22 3.22 0 01-1.96.1v-.2c.29-.13.41-.35.41-.76v-2.2c0-1.13-.47-1.55-1.15-1.55-.47 0-.93.16-1.18.36v3.86l.64.17v.22c-.39.14-.76.2-1.33.2-.28 0-.6-.02-.87-.1v-.2M64.68 41.38c0-.35.25-.68.65-.68.32 0 .6.25.6.63 0 .4-.28.71-.64.71-.35 0-.61-.28-.61-.66zm-.49 7c.31-.12.61-.35.61-.62v-3.9l-.73-.3v-.24a5.45 5.45 0 011.37-.22h.36l-.05.62v4.37l.64.17v.22c-.4.14-.75.2-1.33.2-.27 0-.6-.02-.87-.1v-.2zM67.32 47.33c.52.48 1.01.73 1.62.73.64 0 .98-.31.98-.72 0-.4-.23-.65-1-.97l-.57-.25c-.66-.28-1.03-.77-1.03-1.42 0-.91.8-1.7 2-1.7.92 0 1.29.28 1.29.72 0 .17-.03.32-.06.48a2.48 2.48 0 00-1.31-.43c-.74 0-1.08.32-1.08.71 0 .41.2.64.9.9l.62.25c.82.32 1.14.75 1.14 1.43 0 .88-.86 1.69-2.14 1.69-1.02 0-1.47-.32-1.47-.95 0-.16.04-.34.1-.47M72.15 45.43l.03-1.53h-.63v-.38l1.24-1.23.38-.04-.04 1.03h1.51l-.08.62H73.1l-.02 1.45-.01 1.35c0 .93.27 1.25.7 1.25.33 0 .62-.11.85-.3l.11.05c-.04.68-.44 1.02-1.24 1.02-.92 0-1.37-.48-1.37-1.6 0-.55.03-1.16.04-1.69M78.7 45.3c0-1.12-.49-1.66-1.17-1.66-.63 0-1.3.76-1.3 1.67h2.47zm-1.07-2.28c1.24 0 1.99.83 1.99 2.15 0 .22 0 .45-.02.73h-3.39c0 1.3.75 2.04 1.7 2.04.57 0 1.19-.2 1.63-.5a1 1 0 01.04.3c0 .52-.76 1-1.98 1-1.31 0-2.38-1.02-2.38-2.63 0-2 1.2-3.1 2.4-3.1zM80.5 48.38c.3-.12.61-.35.61-.62v-3.9l-.75-.3v-.25a5.4 5.4 0 011.39-.21h.27v.8h.01l.33-.35c.3-.34.62-.5 1-.5.41 0 .6.16.6.49 0 .21-.06.47-.18.69a1.17 1.17 0 00-.71-.27c-.36 0-.7.16-1.01.47v3.66l.79.17v.22c-.4.14-.77.2-1.43.2-.33 0-.65-.02-.92-.1v-.2M85.19 41.38c0-.35.25-.68.65-.68.32 0 .6.25.6.63 0 .4-.28.71-.65.71-.34 0-.6-.28-.6-.66zm-.49 7c.31-.12.61-.35.61-.62v-3.9l-.73-.3v-.24a5.45 5.45 0 011.36-.22h.37l-.06.62v4.37l.65.17v.22c-.4.14-.75.2-1.34.2-.26 0-.6-.02-.86-.1v-.2zM91.11 45.3c0-1.12-.48-1.66-1.16-1.66-.64 0-1.3.76-1.3 1.67h2.46zm-1.07-2.28c1.24 0 1.99.83 1.99 2.15l-.01.73h-3.4c0 1.3.75 2.04 1.7 2.04.57 0 1.2-.2 1.63-.5a1 1 0 01.05.3c0 .52-.76 1-1.98 1-1.31 0-2.38-1.02-2.38-2.63 0-2 1.2-3.1 2.4-3.1zM94.9 43.7l-.47-.33v-.27h2.2v.27l-.66.28 1.24 3.65h.02l1.27-3.61-.65-.31v-.28h1.77v.27l-.32.27-2.05 5.07-.4.03-1.95-5.03M101.88 48.06c.35 0 .81-.14 1.1-.31v-1.61c-1.3 0-2 .54-2 1.16 0 .46.3.76.9.76zm1.1-2.47v-.3c0-1.25-.3-1.51-1.03-1.51-.63 0-1.24.26-1.72.74a1.74 1.74 0 01-.04-.34c0-.74.55-1.16 1.9-1.16 1.15 0 1.84.58 1.84 1.54l-.04 1.16-.04 1.87c.08.2.26.42.46.58-.17.2-.48.44-.78.59-.22-.14-.39-.32-.53-.56-.32.3-.94.55-1.55.55-.87 0-1.46-.54-1.46-1.28 0-1.01 1.1-1.88 2.99-1.88zM105.26 48.38c.3-.12.6-.35.6-.62v-3.9l-.74-.3v-.25c.53-.15 1.05-.21 1.38-.21h.28v.62c.39-.4 1.03-.64 1.7-.64.95 0 1.61.6 1.61 1.79v3.22l.6.17v.22a3.22 3.22 0 01-1.96.1v-.2c.3-.13.42-.35.42-.76v-2.2c0-1.13-.47-1.55-1.15-1.55-.47 0-.94.16-1.19.36v3.86l.65.17v.22c-.4.14-.76.2-1.34.2-.27 0-.6-.02-.86-.1v-.2M113.85 41.8l-.62-.2v-.24a4.24 4.24 0 012.2-.08v.22c-.37.1-.47.37-.36.71l1.38 4.72h.01l1.5-5.12-.73-.2v-.24c.43-.12.82-.2 1.24-.2.3 0 .52.04.79.12v.22c-.31.12-.51.32-.66.8l-2.03 6.33-.46.04-2.26-6.88M121.9 48.1c.77 0 1.57-.76 1.57-2.33 0-1.35-.72-2.1-1.54-2.1-.8 0-1.58.8-1.58 2.32 0 1.39.73 2.1 1.55 2.1zM122 43c1.42 0 2.5 1.06 2.5 2.66 0 1.9-1.31 3.1-2.68 3.1-1.4 0-2.52-.98-2.52-2.66 0-1.88 1.29-3.1 2.7-3.1zM125.36 48.38c.3-.12.6-.35.6-.62v-6.67l-.74-.32v-.25a5.4 5.4 0 011.38-.2h.37l-.06.64v7.13l.64.17v.22c-.39.14-.76.2-1.33.2-.28 0-.6-.02-.86-.1v-.2M128.46 48.38c.3-.12.62-.35.62-.62v-6.67l-.76-.32v-.25c.53-.15 1.06-.2 1.38-.2h.4l-.08.64v4.6l.63-.55c.63-.53 1.19-1.32 1.19-1.84.2-.07.38-.1.61-.1.17 0 .31.04.46.1-.02.5-.52 1.29-1.56 2.03l-.4.3 1.76 2.14c.33.4.61.55.86.55v.25c-.26.17-.52.24-.86.24a.97.97 0 01-.81-.44l-1.88-2.47v2.32l.6.18v.22c-.43.14-.76.19-1.3.19-.26 0-.6-.02-.86-.1v-.2M134.21 47.33c.52.48 1.02.73 1.63.73.64 0 .97-.31.97-.72 0-.4-.23-.65-.99-.97l-.57-.25c-.67-.28-1.04-.77-1.04-1.42 0-.91.81-1.7 2-1.7.93 0 1.3.28 1.3.72 0 .17-.03.32-.06.48a2.48 2.48 0 00-1.31-.43c-.74 0-1.09.32-1.09.71 0 .41.21.64.9.9l.62.25c.83.32 1.14.75 1.14 1.43 0 .88-.85 1.69-2.14 1.69-1.01 0-1.46-.32-1.46-.95 0-.16.03-.34.1-.47M141.85 45.02c0-.97-.54-1.43-1.15-1.43-.66 0-1.2.63-1.2 1.63 0 .96.53 1.43 1.1 1.43.7 0 1.25-.5 1.25-1.63zm-1.2 5.78c1.09 0 1.81-.54 1.81-1.1 0-.45-.3-.7-.85-.7h-1.85c-.34.15-.59.53-.59.92 0 .47.5.88 1.47.88zm-1.13-3.9v-.02c-.52-.2-1.04-.8-1.04-1.6a2.27 2.27 0 012.29-2.27c.47 0 1.05.2 1.24.38a1.66 1.66 0 011.51-.3l-.08.76a5.76 5.76 0 00-1.23-.13v.01c.38.29.65.78.65 1.26 0 1.33-1.09 2.24-2.33 2.24-.25 0-.52-.06-.72-.14-.17.1-.36.35-.36.55 0 .35.29.53.73.53h1.61c.97-.02 1.51.43 1.51 1.28 0 1.1-1.2 2.01-2.8 2.01-1.46 0-2.2-.58-2.2-1.34 0-.61.47-1.1 1.09-1.28v-.01c-.43-.15-.68-.46-.68-.9s.37-.88.8-1.03zM147.34 45.3c0-1.12-.49-1.66-1.17-1.66-.63 0-1.3.76-1.3 1.67h2.47zm-1.07-2.28c1.24 0 1.99.83 1.99 2.15l-.01.73h-3.4c0 1.3.75 2.04 1.7 2.04.57 0 1.19-.2 1.63-.5.02.07.04.2.04.3 0 .52-.76 1-1.98 1-1.3 0-2.38-1.02-2.38-2.63 0-2 1.21-3.1 2.4-3.1zM151.76 43.8h-1.34c-.45 0-.73.2-.83.5l-.1.28h-.35l.13-1.43h3.68l.09.21-2.8 4.57h1.42c.6 0 .82-.15.95-.44l.19-.38h.3l-.15 1.47h-3.92l-.1-.18 2.83-4.6M156.4 48.1c.77 0 1.57-.76 1.57-2.33 0-1.35-.72-2.1-1.54-2.1-.8 0-1.57.8-1.57 2.32 0 1.39.72 2.1 1.54 2.1zm.11-5.1c1.42 0 2.51 1.06 2.51 2.66 0 1.9-1.32 3.1-2.69 3.1-1.4 0-2.52-.98-2.52-2.66 0-1.88 1.29-3.1 2.7-3.1zM159.9 48.38c.3-.12.6-.35.6-.62v-3.9l-.75-.3v-.25a5.4 5.4 0 011.38-.21h.28v.62c.4-.4 1.04-.64 1.7-.64.96 0 1.61.6 1.61 1.79v3.22l.6.17v.22a3.22 3.22 0 01-1.95.1v-.2c.28-.13.41-.35.41-.76v-2.2c0-1.13-.47-1.55-1.15-1.55-.47 0-.93.16-1.19.36v3.86l.65.17v.22c-.4.14-.76.2-1.34.2-.27 0-.6-.02-.86-.1v-.2M169.6 47.6v-3.8c-.19-.07-.52-.13-.83-.13-.98 0-1.72.77-1.72 2.37 0 1.26.66 1.94 1.38 1.94.44 0 .91-.15 1.18-.37zm-.8-4.57c.28 0 .61.03.8.08v-2.02l-.79-.32v-.25c.53-.15 1.1-.2 1.43-.2h.37l-.07.64v6.6c.08.22.22.46.44.66-.23.2-.49.37-.81.54a2.09 2.09 0 01-.55-.7c-.37.39-1 .66-1.47.66-1.17 0-2.1-.96-2.1-2.5 0-2.06 1.25-3.2 2.75-3.2zM171.97 48.38c.3-.12.6-.35.6-.62v-6.67l-.74-.32v-.25c.52-.15.99-.2 1.38-.2h.37l-.06.64v2.75c.41-.4.94-.63 1.67-.63.98 0 1.6.6 1.6 1.79v3.22l.6.17v.22a3.32 3.32 0 01-1.95.1v-.2c.28-.13.42-.35.42-.76v-2.2c0-1.13-.46-1.55-1.18-1.55-.45 0-.9.16-1.16.36v3.86l.64.17v.22c-.39.14-.74.2-1.33.2-.27 0-.6-.02-.86-.1v-.2M181.6 45.3c0-1.12-.48-1.66-1.16-1.66-.63 0-1.3.76-1.3 1.67h2.46zm-1.07-2.28c1.24 0 2 .83 2 2.15 0 .22 0 .45-.02.73h-3.4c0 1.3.75 2.04 1.7 2.04.57 0 1.2-.2 1.63-.5a1 1 0 01.05.3c0 .52-.76 1-1.98 1-1.31 0-2.38-1.02-2.38-2.63 0-2 1.2-3.1 2.4-3.1zM183.89 41.38c0-.35.25-.68.65-.68.32 0 .6.25.6.63 0 .4-.28.71-.64.71-.35 0-.61-.28-.61-.66zm-.49 7c.31-.12.61-.35.61-.62v-3.9l-.73-.3v-.24a5.45 5.45 0 011.37-.22h.36l-.05.62v4.37l.64.17v.22c-.4.14-.75.2-1.34.2-.26 0-.6-.02-.86-.1v-.2zM189.9 47.6v-3.8c-.2-.07-.54-.13-.85-.13-.98 0-1.71.77-1.71 2.37 0 1.26.65 1.94 1.38 1.94.44 0 .9-.15 1.17-.37zm-.81-4.57c.27 0 .6.03.79.08v-2.02l-.78-.32v-.25c.53-.15 1.09-.2 1.42-.2h.37l-.07.64v6.6c.08.22.22.46.44.66-.23.2-.48.37-.8.54a2.08 2.08 0 01-.56-.7c-.37.39-1 .66-1.47.66-1.16 0-2.1-.96-2.1-2.5 0-2.06 1.26-3.2 2.75-3.2zM193.22 47.32c.35 0 .62.25.62.66 0 1.07-.88 1.98-1.36 2.11l-.31-.08c.47-.5.71-1 .71-1.68l-.4-.5c.18-.3.48-.5.74-.5M45.57 54.81l-.63-.2v-.24c.38-.13.8-.2 1.17-.2.37 0 .67.02 1.02.11v.22c-.35.08-.46.29-.35.65l1.25 4.64h.01l1.22-4.98-.6-.19v-.25a4.23 4.23 0 012.18-.07v.22c-.23.08-.3.27-.22.6l1.12 4.66 1.27-4.96-.7-.22v-.24c.43-.13.82-.18 1.21-.18.31 0 .52.03.75.11v.2c-.3.2-.46.41-.58.81l-1.88 6.33-.45.05-1.6-6.08h-.01l-1.6 6.03-.43.05-2.15-6.87M57.88 58.3c0-1.12-.49-1.66-1.17-1.66-.63 0-1.3.76-1.3 1.67h2.47zm-1.08-2.28c1.25 0 2 .83 2 2.15 0 .22 0 .45-.02.73H55.4c0 1.3.75 2.04 1.7 2.04.57 0 1.19-.2 1.63-.5.02.06.04.2.04.3 0 .52-.76 1-1.98 1-1.3 0-2.38-1.02-2.38-2.63 0-2 1.2-3.1 2.4-3.1zM59.65 61.38c.3-.12.61-.35.61-.62v-6.68l-.75-.3v-.26a5.4 5.4 0 011.38-.2h.37l-.05.64v7.13l.64.17v.22c-.4.14-.76.2-1.34.2-.27 0-.6-.03-.86-.1v-.2M65.42 56.8h-1.35c-.45 0-.72.2-.83.5l-.1.28h-.35l.13-1.44 3.68.02.1.2-2.8 4.57h1.41c.6 0 .82-.15.96-.44l.18-.38h.31l-.16 1.46h-3.92l-.1-.17 2.84-4.6M68.08 54.38c0-.35.25-.68.65-.68.32 0 .6.25.6.63 0 .4-.28.7-.65.7-.34 0-.6-.27-.6-.65zm-.49 7c.31-.12.61-.35.61-.62v-3.9l-.74-.3v-.24a5.45 5.45 0 011.37-.22h.37l-.06.62v4.37l.65.17v.22c-.4.14-.75.2-1.34.2-.26 0-.6-.03-.86-.1v-.2zM70.98 54.38c0-.35.25-.68.65-.68.33 0 .6.25.6.63 0 .4-.27.7-.64.7-.35 0-.61-.27-.61-.65zm.13 2.49l-.74-.31v-.24a5.52 5.52 0 011.38-.22h.37l-.07.64v5.17c0 1.89-.56 2.47-1.3 2.47-.25 0-.5-.1-.65-.27v-.19c.51 0 1-.57 1-1.75v-5.3zM73.36 61.38c.3-.12.6-.35.6-.62v-3.9l-.74-.3v-.26a5.4 5.4 0 011.38-.2h.27v.62c.4-.4 1.04-.64 1.7-.64.96 0 1.62.6 1.62 1.79v3.22l.6.17v.22a3.24 3.24 0 01-1.96.1v-.2c.29-.13.41-.35.41-.76v-2.2c0-1.13-.47-1.55-1.15-1.55-.47 0-.93.16-1.18.36v3.86l.64.17v.22c-.39.14-.76.2-1.33.2-.28 0-.6-.03-.86-.1v-.2M85.3 58.3c0-1.12-.48-1.66-1.16-1.66-.63 0-1.3.76-1.3 1.67h2.46zm-1.07-2.28c1.25 0 2 .83 2 2.15 0 .22 0 .45-.02.73h-3.4c0 1.3.76 2.04 1.71 2.04.56 0 1.19-.2 1.62-.5.03.06.05.2.05.3 0 .52-.76 1-1.98 1-1.31 0-2.38-1.02-2.38-2.63 0-2 1.2-3.1 2.4-3.1zM87.11 61.38c.3-.12.61-.35.61-.62v-3.9l-.75-.3v-.26a5.4 5.4 0 011.38-.2h.28v.62c.4-.4 1.04-.64 1.7-.64.96 0 1.61.6 1.61 1.79v3.22l.6.17v.22a3.24 3.24 0 01-1.95.1v-.2c.28-.13.41-.35.41-.76v-2.2c0-1.13-.47-1.55-1.15-1.55-.47 0-.93.16-1.18.36v3.86l.64.17v.22c-.4.14-.76.2-1.34.2-.27 0-.6-.03-.86-.1v-.2M95.55 59.81h.34l.08.3c.17.62.54.9 1.41.9.85 0 1.5-.5 1.5-1.2 0-.45-.29-.87-1-1.29l-1.08-.64a1.92 1.92 0 01-1.05-1.75c0-1.14 1.06-2.01 2.4-2.01a4 4 0 011.61.26l-.1 1.63h-.33l-.05-.23c-.15-.7-.47-.94-1.24-.94-.83 0-1.36.52-1.36 1.08 0 .48.24.84.85 1.17l1.14.62c.8.42 1.2 1.03 1.2 1.77 0 1.2-1.17 2.24-2.55 2.24a5.3 5.3 0 01-1.77-.24v-1.67M103.02 61.06c1.03 0 1.83-.7 1.83-2.34 0-1.27-.72-1.9-1.5-1.9-.42 0-.77.08-1.06.26v3.9c.2.05.46.08.73.08zm-.72 2.76l.76.16v.23a4.67 4.67 0 01-2.31.08v-.2c.3-.1.6-.33.6-.62v-6.6l-.74-.31v-.26a5.4 5.4 0 011.38-.2h.28v.53a2.3 2.3 0 011.48-.59c1.16 0 2.1.85 2.1 2.42 0 2.14-1.34 3.24-2.81 3.24-.26 0-.56-.06-.74-.14v2.26zM109.39 61.1c.77 0 1.57-.76 1.57-2.33 0-1.35-.72-2.1-1.54-2.1-.8 0-1.58.8-1.58 2.31 0 1.4.73 2.11 1.55 2.11zm.11-5.1c1.42 0 2.5 1.06 2.5 2.66 0 1.9-1.31 3.1-2.68 3.1-1.4 0-2.52-.98-2.52-2.66 0-1.89 1.28-3.1 2.7-3.1zM112.88 61.38c.3-.12.6-.35.6-.62v-3.9l-.74-.3v-.26a5.4 5.4 0 011.38-.2h.28v.8l.33-.35c.31-.34.62-.51 1.01-.51.4 0 .6.17.6.5 0 .21-.07.47-.18.69a1.16 1.16 0 00-.72-.27c-.35 0-.69.16-1 .47v3.66l.78.17v.22c-.39.14-.77.2-1.42.2-.33 0-.66-.03-.92-.1v-.2M117.56 58.43l.03-1.53h-.63v-.38l1.24-1.23.38-.04-.04 1.03h1.52l-.09.62h-1.47l-.02 1.45-.01 1.35c0 .93.28 1.25.7 1.25.33 0 .62-.11.85-.3l.12.05c-.05.68-.45 1.02-1.25 1.02-.92 0-1.36-.48-1.36-1.6l.03-1.69" fill="#1A1919"/></g></svg>