<svg xmlns="http://www.w3.org/2000/svg" viewBox="0 0 513.7 128.5">
  <defs>
    <clipPath id="a" clipPathUnits="userSpaceOnUse">
      <path d="M0 96.3h385.3V0H0z"/>
    </clipPath>
  </defs>
  <g clip-path="url(#a)" transform="matrix(1.33333 0 0 -1.33333 0 128.5)">
    <path fill="#ca005d" d="M382 50.6H221.4a3.3 3.3 0 00-3.3 3.3V93c0 1.9 1.5 3.3 3.3 3.3H382c1.8 0 3.3-1.4 3.3-3.3V54c0-2-1.5-3.4-3.3-3.4M210 96.3H99.3c1.9 0 3.4-1.4 3.4-3.3V54c0-2-1.5-3.4-3.4-3.4H210c1.9 0 3.4 1.5 3.4 3.3V93c0 1.9-1.5 3.3-3.4 3.3"/>
    <path fill="#fff" d="M3.3 51a2.8 2.8 0 00-2.8 3v39c0 1.6 1.3 2.8 2.8 2.8h96.1c1.6 0 2.9-1.2 2.9-2.8V54c0-1.6-1.3-3-2.9-3z"/>
    <path fill="#ca005d" d="M99.4 96.3h-96A3.3 3.3 0 010 93V54c0-2 1.5-3.4 3.3-3.4h96.1c1.9 0 3.4 1.5 3.4 3.3V93c0 1.9-1.5 3.3-3.4 3.3m0-1c1.3 0 2.4-1 2.4-2.3V54c0-1.4-1-2.4-2.4-2.4h-96c-1.4 0-2.4 1-2.4 2.3V93c0 1.3 1 2.3 2.3 2.3h96.1"/>
    <path fill="#ca005d" d="M14 65.4c1.5 0 2.6.3 3.8 1v3.3h-2.4c-2.9 0-4-.9-4-2.2 0-1.3 1-2 2.7-2m7.6-3.1H18v1.1c-1.5-.9-2.9-1.3-5-1.3-3.7 0-5.7 2-5.7 5 0 3.2 2.5 5.5 8.1 5.5h2.5v1c0 2-1.2 3-4 3-1.7 0-3.2-.3-5-1L8.1 79c2.2.9 4 1.3 6.4 1.3 4.8 0 7.1-2.2 7.1-6.2zM30.1 62.4h-4v25l4 .1zM38.8 62.4h-4v25l4 .1zM53.5 73.2c0 2.5-1.3 4-3.4 4-1.9 0-3.3-1.4-3.7-4zm-3.1 7.3c4.3 0 7-2.6 7-7.2v-3h-11c.4-3.2 2.2-4.7 5.4-4.7 2 0 3.4.3 5.2.9V63c-1.9-.6-3.3-1-5.7-1-5.4 0-9 3-9 9.1s3.7 9.3 8 9.3M71 73.2c0 2.5-1.3 4-3.4 4-1.9 0-3.3-1.4-3.7-4zm-3 7.3c4.3 0 7-2.6 7-7.2l-.1-3h-11c.4-3.2 2.2-4.7 5.4-4.7 2 0 3.4.3 5.2.9V63c-1.9-.6-3.3-1-5.7-1-5.4 0-8.9 3-8.9 9.1s3.6 9.3 8 9.3M89.3 73.3c0 2.3-1.2 3.3-3.3 3.3-1.3 0-2.2-.1-3.5-.6V62.4h-4V80l4 .2V79c1.5 1 2.8 1.4 4.6 1.4 4 0 6.2-2.2 6.2-6.3V62.4h-4z"/>
    <path fill="#fff" d="M110 66.2c1.7-.4 3.5-.6 5.1-.6 2.5 0 3.4.7 3.4 1.8 0 1-.5 1.5-2.4 2l-2.2.7c-2.5.7-3.9 2.2-3.9 4.7 0 3.2 2.8 5.6 7.5 5.6a22 22 0 004.3-.4l-.2-3.4c-1.6.3-2.8.4-4.4.4-2.2 0-3.1-.8-3.1-1.7 0-.9.3-1.4 2-1.9l2.2-.5c3-.9 4.3-2.4 4.3-4.8 0-3.7-2.9-6-7.4-6-2 0-3.8.2-5.2.6zM131.5 65.4c1.4 0 2.4.3 3.7 1v3.3h-2.4c-2.9 0-4-.9-4-2.2 0-1.3 1-2 2.7-2m7.6-3.1h-3.8v1.1c-1.5-.9-2.9-1.3-5-1.3-3.7 0-5.7 2-5.7 5 0 3.2 2.5 5.5 8.1 5.5h2.5v1c0 2-1.2 3-4 3-1.7 0-3.2-.3-5-1l-.6 3.4c2.2.9 4 1.3 6.4 1.3 4.8 0 7.1-2.2 7.1-6.2zM164.7 73.3c0 2.3-1.2 3.3-3.3 3.3-1.2 0-2-.1-3.3-.6V62.4h-4v10.9c0 2.4-1.1 3.3-3.3 3.3-1.3 0-2-.1-3.3-.6V62.4h-4V80l4 .2V79c1.5 1 2.8 1.4 4.6 1.4 2.3 0 3.8-.7 4.8-2 1.8 1.3 3.5 2 5.7 2 4 0 6.2-2.2 6.2-6.3V62.4h-4.1zM183.2 73.2c0 2.5-1.3 4-3.4 4-2 0-3.4-1.4-3.7-4zm-3.1 7.3c4.3 0 7-2.6 7-7.2v-3H176c.4-3.2 2.3-4.7 5.5-4.7 2 0 3.4.3 5.1.9V63c-1.8-.6-3.3-1-5.6-1-5.5 0-9 3-9 9.1s3.6 9.3 8 9.3M201.4 73.3c0 2.3-1.1 3.3-3.3 3.3-1.3 0-2.2-.1-3.4-.6V62.4h-4V80l3.9.2V79c1.5 1 2.9 1.4 4.7 1.4 3.9 0 6.2-2.2 6.2-6.3V62.4h-4zM232.5 62.4h-4v25l4 .1V73.8h1.5l5.1 6.4h4.7l-6.2-7.5 6.6-10.3h-5l-5 8.2h-1.7zM255.9 76.2c-.8.2-1.3.3-2 .3-1.1 0-2.3-.4-3.5-1.3V62.4h-4V80l4 .2v-2c1.2 1.5 2.3 2.1 3.7 2.1.8 0 1.4 0 2-.2zM262.3 62.4h-4V80l4 .2zm-2 25.2c1.5 0 2.4-1 2.4-2.4 0-1.2-.9-2.3-2.4-2.3-1.6 0-2.4 1-2.4 2.3 0 1.3.8 2.4 2.4 2.4M269 87.6c1.5 0 2.4-1 2.4-2.4 0-1.2-.9-2.3-2.4-2.3-1.6 0-2.4 1-2.4 2.3 0 1.3.8 2.4 2.4 2.4m2-25.2c0-4.5-2.8-6.5-6.4-7l-.4 3.2c1.9.5 2.7 1.6 2.7 3.7v17.8l4.1.2zM285.4 74.2c0 2.2-1.2 3.3-3.5 3.3-2 0-3.4-1.1-3.4-3.6 0-2.3 1.3-3.2 3.3-3.2 2.3 0 3.6 1 3.6 3.5m-3.8-15.8c4 0 5.3 1 5.3 2.3 0 1-.6 1.7-2.4 1.7l-5.9.2a2 2 0 01-1-1.9c0-1.4 1.3-2.3 4-2.3m-.7 7.4h4.2c3.8 0 5.5-1.5 5.5-4.3 0-3.4-2.9-6.2-9.3-6.2-5.1 0-7.4 1.8-7.4 4.6 0 1.7.9 3.1 2.7 3.9-.9.5-1.4 1.4-1.4 2.4 0 1.2.6 2.2 2 2.7v.1c-1.7 1-2.6 2.4-2.6 4.7 0 4.3 2.9 6.7 7.4 6.7 1 0 1.8-.1 2.7-.4h5.8v-2.7h-2.8c.8-.7 1.5-1.9 1.5-3.4 0-4-2.7-6-7.6-6-.8 0-1.6.1-2.2.3-.5-.3-.8-.7-.8-1.1 0-.8.6-1.3 2.3-1.3M303.3 73.2c0 2.5-1.3 4-3.3 4-2 0-3.4-1.4-3.8-4zm-3 7.3c4.3 0 7-2.6 7-7.2l-.1-3h-11c.4-3.2 2.2-4.7 5.4-4.7 2 0 3.5.3 5.2.9V63c-1.8-.6-3.3-1-5.7-1-5.4 0-8.9 3-8.9 9.1s3.6 9.3 8 9.3M321.6 73.3c0 2.3-1.2 3.3-3.3 3.3-1.3 0-2.2-.1-3.4-.6V62.4h-4.1V80l4 .2V79c1.5 1 2.9 1.4 4.7 1.4 3.9 0 6.2-2.2 6.2-6.3V62.4h-4.1zM355 62.4h-5.7l-2.6 9.6-3-9.6h-5.4l-4.8 17.8h4.7l3-14.4h.2l3.6 11-1 3.4h4.2l4-14.4h.2l3 14.4h4.3zM372.1 73.2c0 2.5-1.3 4-3.4 4-1.9 0-3.3-1.4-3.7-4zm-3.1 7.3c4.4 0 7-2.6 7-7.2v-3h-11c.4-3.2 2.2-4.7 5.4-4.7 2 0 3.4.3 5.2.9V63c-1.9-.6-3.3-1-5.7-1-5.4 0-9 3-9 9.1s3.7 9.3 8.1 9.3"/>
    <path fill="#ca005d" d="M359.8 0H25.5a3.3 3.3 0 00-3.3 3.3v39.1c0 1.9 1.5 3.4 3.3 3.4h334.3c1.8 0 3.3-1.5 3.3-3.4v-39c0-2-1.5-3.4-3.3-3.4"/>
    <path fill="#fff" d="M42.2 26.2c-1 .3-2 .4-3.1.4-2.8 0-4.8-2-4.8-5.5 0-3.9 2-5.5 4.8-5.5 1.2 0 2.2.2 3.5.5v-3.5c-1.2-.4-2.4-.5-3.9-.5-5.1 0-8.6 2.7-8.6 8.8 0 6 4 9.4 8.8 9.4 1.5 0 2.4 0 3.7-.4zM53.1 26.8c-2.5 0-4.4-2-4.4-5.8 0-3.7 1.7-5.4 4.4-5.4 2.5 0 4.4 2 4.4 5.8 0 3.6-1.7 5.4-4.4 5.4M53 12c-5 0-8.4 3-8.4 8.8 0 6 4.1 9.6 8.9 9.6 4.9 0 8.3-3 8.3-9 0-5.8-4-9.4-8.8-9.4M74.8 26.1c-.7.2-1.2.3-2 .3-1.1 0-2.2-.4-3.5-1.3V12.3h-4V30l4 .2v-2c1.2 1.5 2.4 2.1 3.8 2.1.7 0 1.4 0 2-.2zM84.8 26.8c-2.5 0-4.5-2-4.5-5.8 0-3.7 1.8-5.4 4.5-5.4 2.4 0 4.4 2 4.4 5.8 0 3.6-1.8 5.4-4.4 5.4M84.5 12c-4.9 0-8.3 3-8.3 8.8 0 6 4 9.6 8.8 9.6 4.9 0 8.4-3 8.4-9 0-5.8-4.1-9.4-8.9-9.4M107.7 23.2c0 2.3-1.1 3.3-3.3 3.3-1.2 0-2.2-.1-3.4-.6V12.3h-4V30l3.9.2v-1.3c1.5 1 2.9 1.4 4.7 1.4 3.9 0 6.2-2.2 6.2-6.3V12.3h-4zM121.6 15.3c1.4 0 2.5.3 3.7 1v3.3H123c-3 0-4-.9-4-2.2 0-1.3 1-2.1 2.6-2.1m7.7-3h-3.8v1.1c-1.5-.9-3-1.3-5-1.3-3.7 0-5.7 2-5.7 5 0 3.2 2.5 5.5 8 5.5h2.5v1c0 2-1.1 3-4 3-1.7 0-3.1-.3-5-1l-.6 3.3c2.2 1 4.1 1.4 6.4 1.4 4.8 0 7.2-2.3 7.2-6.2zM147 26.8c-2.4 0-4.4-2-4.4-5.8 0-3.7 1.8-5.4 4.5-5.4 2.5 0 4.4 2 4.4 5.8 0 3.6-1.8 5.4-4.4 5.4m-.3-14.8c-4.9 0-8.3 3-8.3 8.8 0 6 4 9.6 8.8 9.6 5 0 8.4-3 8.4-9 0-5.8-4.1-9.4-8.9-9.4M170 23.2c0 2.3-1.1 3.3-3.2 3.3-1.3 0-2.3-.1-3.5-.6V12.3h-4V30l3.9.2v-1.3c1.5 1 3 1.4 4.7 1.4 3.9 0 6.2-2.2 6.2-6.3V12.3h-4zM181.6 21c0-3.8 1.8-5.4 4.4-5.4 1.3 0 2.1.2 3.3.9v10.1l-2.6.2c-3 0-5.1-2.1-5.1-5.8m11.8-8.7h-4v1.2a7.9 7.9 0 00-4.6-1.4c-4.4 0-7.4 3-7.4 8.7 0 6 3.9 9.5 9.3 9.5 1 0 1.8 0 2.6-.3v7.2l4 .2zM208 23.1c0 2.5-1.2 4-3.3 4-2 0-3.4-1.4-3.7-4zm-3 7.3c4.3 0 7-2.6 7-7.2v-3h-11.1c.4-3.2 2.3-4.7 5.5-4.7 2 0 3.4.3 5.1.9V13c-1.8-.6-3.3-1-5.6-1-5.5 0-9 3-9 9.1s3.6 9.3 8 9.3M225 26.1c-.7.2-1.2.3-2 .3-1 0-2.2-.4-3.4-1.3V12.3h-4V30l4 .2v-2c1.2 1.5 2.3 2.1 3.7 2.1.8 0 1.4 0 2-.2zM244.4 26.2c-1.1.3-2 .4-3.2.4-2.8 0-4.7-2-4.7-5.5 0-3.9 2-5.5 4.8-5.5 1.2 0 2.2.2 3.4.5v-3.5c-1.2-.4-2.3-.5-3.8-.5-5.2 0-8.6 2.7-8.6 8.8 0 6 4 9.4 8.7 9.4 1.5 0 2.5 0 3.8-.4zM255.3 26.8c-2.5 0-4.4-2-4.4-5.8 0-3.7 1.7-5.4 4.4-5.4 2.5 0 4.4 2 4.4 5.8 0 3.6-1.8 5.4-4.4 5.4M255 12c-4.9 0-8.3 3-8.3 8.8 0 6 4 9.6 8.8 9.6 5 0 8.4-3 8.4-9 0-5.8-4.1-9.4-8.9-9.4M278.3 23.2c0 2.3-1.2 3.3-3.3 3.3-1.3 0-2.3-.1-3.5-.6V12.3h-4V30l4 .2v-1.3c1.5 1 2.8 1.4 4.6 1.4 4 0 6.2-2.2 6.2-6.3V12.3h-4zM285 30.1h2.3v3.2l4 .4v-3.6h4.5V27h-4.5v-8.5c0-2 1.1-3 2.7-3 .8 0 1.4.2 2.3.4v-3.4c-1.2-.3-2.1-.4-3.5-.4-3.3 0-5.5 1.8-5.5 5.9v9H285zM308.5 26.1c-.8.2-1.3.3-2 .3-1.2 0-2.3-.4-3.5-1.3V12.3h-4V30l4 .2v-2c1.2 1.5 2.3 2.1 3.7 2.1.8 0 1.4 0 2-.2zM318.4 26.8c-2.5 0-4.4-2-4.4-5.8 0-3.7 1.7-5.4 4.4-5.4 2.5 0 4.4 2 4.4 5.8 0 3.6-1.7 5.4-4.4 5.4M318 12c-4.9 0-8.3 3-8.3 8.8 0 6 4 9.6 8.8 9.6 5 0 8.4-3 8.4-9 0-5.8-4.1-9.4-8.9-9.4M334.6 12.3h-4v25l4 .1zM349.3 23.1c0 2.5-1.3 4-3.4 4-1.9 0-3.3-1.4-3.7-4zm-3 7.3c4.3 0 7-2.6 7-7.2l-.1-3h-11c.4-3.2 2.2-4.7 5.4-4.7 2 0 3.4.3 5.2.9V13c-1.9-.6-3.3-1-5.7-1-5.4 0-9 3-9 9.1s3.7 9.3 8.1 9.3"/>
  </g>
</svg>
