<svg xmlns="http://www.w3.org/2000/svg" height="128.46" width="503.07"><defs><clipPath id="a" clipPathUnits="userSpaceOnUse"><path d="M0 351.54h624.96V0H0z"/></clipPath><clipPath id="b" clipPathUnits="userSpaceOnUse"><path d="M-188.65 48.17h377.3v-96.34h-377.3z"/></clipPath></defs><g clip-path="url(#a)" transform="matrix(1.33333 0 0 -1.33333 -165.1 297.23)"><g clip-path="url(#b)" transform="matrix(1 0 0 -1 312.48 174.75)"><path d="M185.31-2.41H28.78a3.33 3.33 0 01-3.34-3.34v-39.09c0-1.84 1.5-3.33 3.34-3.33h156.53c1.85 0 3.34 1.5 3.34 3.33v39.1c0 1.84-1.5 3.33-3.34 3.33M17.28-48.17h-107.5c1.84 0 3.33 1.5 3.33 3.33v39.1c0 1.84-1.5 3.33-3.33 3.33h107.5c1.84 0 3.34-1.5 3.34-3.34v-39.09c0-1.84-1.5-3.33-3.34-3.33" fill="#ca005d"/><path d="M-86.89-5.75v-39.09c0-1.84-1.5-3.33-3.33-3.33h-95.09a3.33 3.33 0 00-3.34 3.33v39.1c0 1.84 1.5 3.33 3.34 3.33h95.09c1.84 0 3.33-1.5 3.33-3.34" fill="#fff"/><path d="M167.74 48.17h-334.3a3.33 3.33 0 01-3.33-3.33V5.74c0-1.84 1.5-3.33 3.34-3.33h334.29c1.84 0 3.33 1.5 3.33 3.34v39.09c0 1.84-1.49 3.33-3.33 3.33M-174.58-17.24c1.4 0 2.48-.29 3.7-.94v-3.34a49.3 49.3 0 00-2.33-.07c-2.92 0-4.04.93-4.04 2.3 0 1.26.98 2.05 2.67 2.05m7.66 3.02h-3.81v-1.15a8.64 8.64 0 01-5.04 1.37c-3.64 0-5.65-1.98-5.65-4.97 0-3.27 2.52-5.58 8.1-5.58.9 0 1.69.04 2.45.04v-1c0-1.95-1.16-3.03-3.96-3.03-1.73 0-3.17.29-5.08 1.08l-.58-3.42c2.2-.94 4.1-1.37 6.41-1.37 4.79 0 7.16 2.27 7.16 6.26zM-158.53-14.22h-4.06v-24.94l4.06-.22zM-149.85-14.22h-4.07v-24.94l4.07-.22zM-135.16-25.05c0-2.45-1.3-4.03-3.39-4.03-1.9 0-3.34 1.4-3.7 4.03zm-3.1-7.3c4.36 0 7.06 2.62 7.06 7.26 0 1.08-.04 2.24-.11 3.03h-11.02c.44 3.16 2.27 4.6 5.47 4.6 2.02 0 3.42-.28 5.19-.86v3.38c-1.87.62-3.31.94-5.69.94-5.43 0-8.93-2.88-8.93-9.07 0-6.08 3.6-9.29 8.03-9.29M-117.63-25.05c0-2.45-1.3-4.03-3.39-4.03-1.9 0-3.34 1.4-3.7 4.03zm-3.1-7.3c4.36 0 7.06 2.62 7.06 7.26 0 1.08-.04 2.24-.1 3.03h-11.03c.44 3.16 2.27 4.6 5.48 4.6 2.01 0 3.42-.28 5.18-.86v3.38c-1.87.62-3.31.94-5.69.94-5.43 0-8.92-2.88-8.92-9.07 0-6.08 3.6-9.29 8.02-9.29M-99.38-25.12c0-2.34-1.15-3.35-3.27-3.35-1.3 0-2.24.18-3.46.68v13.57h-4.07v-17.7l3.96-.19v1.3a8.26 8.26 0 014.72-1.44c3.88 0 6.19 2.23 6.19 6.3v11.73h-4.07z" fill="#ca005d"/><path d="M-80.6-18.03c1.69.43 3.41.61 5.07.61 2.52 0 3.38-.76 3.38-1.84 0-.93-.5-1.47-2.4-2.01l-2.24-.65c-2.45-.72-3.82-2.23-3.82-4.75 0-3.2 2.74-5.58 7.42-5.58 1.65 0 3.13.14 4.35.4l-.25 3.42c-1.55-.26-2.8-.36-4.32-.36-2.2 0-3.17.75-3.17 1.69 0 .86.37 1.37 2.1 1.83l2.12.58c3.06.83 4.28 2.41 4.28 4.79 0 3.67-2.84 5.9-7.42 5.9a20.9 20.9 0 01-5.1-.5zM-59.19-17.24c1.4 0 2.49-.29 3.7-.94v-3.34c-.67-.04-1.61-.07-2.33-.07-2.92 0-4.03.93-4.03 2.3 0 1.26.97 2.05 2.66 2.05m7.67 3.02h-3.82v-1.15A8.64 8.64 0 01-60.38-14c-3.63 0-5.65-1.98-5.65-4.97 0-3.27 2.52-5.58 8.1-5.58.9 0 1.7.04 2.45.04v-1c0-1.95-1.15-3.03-3.96-3.03-1.73 0-3.17.29-5.08 1.08l-.57-3.42c2.2-.94 4.1-1.37 6.4-1.37 4.8 0 7.17 2.27 7.17 6.26zM-25.96-25.09c0-2.34-1.15-3.38-3.24-3.38a7.7 7.7 0 00-3.31.68v13.57h-4.07v-10.87c0-2.4-1.12-3.38-3.24-3.38a7.6 7.6 0 00-3.31.68v13.57h-4.07v-17.7l3.96-.19v1.3a8.4 8.4 0 014.68-1.44c2.3 0 3.78.68 4.86 1.94a9.26 9.26 0 015.65-1.94c3.92 0 6.15 2.27 6.15 6.34v11.7h-4.06zM-7.5-25.05c0-2.45-1.29-4.03-3.38-4.03-1.9 0-3.34 1.4-3.7 4.03zm-3.09-7.3c4.36 0 7.06 2.62 7.06 7.26 0 1.08-.04 2.24-.11 3.03h-11.02c.44 3.16 2.27 4.6 5.48 4.6 2.01 0 3.42-.28 5.18-.86v3.38c-1.87.62-3.31.94-5.69.94-5.43 0-8.93-2.88-8.93-9.07 0-6.08 3.6-9.29 8.03-9.29M10.76-25.12c0-2.34-1.15-3.35-3.28-3.35-1.3 0-2.23.18-3.45.68v13.57H-.04v-17.7l3.96-.19v1.3a8.26 8.26 0 014.71-1.44c3.9 0 6.2 2.23 6.2 6.3v11.73h-4.07zM36.84-14.22h-4.07v-24.94l4.07-.22v13.79h1.51l5.11-6.44h4.65l-6.16 7.52 6.62 10.3h-4.93l-5.04-8.21h-1.76zM60.24-28.07a7.74 7.74 0 00-2.02-.26c-1.11 0-2.23.36-3.45 1.3v12.81H50.7v-17.7l4.03-.19v2.06c1.23-1.59 2.34-2.2 3.75-2.2.79 0 1.4.07 2.05.25zM66.68-14.22h-4.06v-17.7l4.06-.19zm-2.05-25.2c1.55 0 2.41.98 2.41 2.35 0 1.26-.86 2.3-2.4 2.3-1.56 0-2.38-.93-2.38-2.3 0-1.26.82-2.34 2.37-2.34M73.3-39.41c1.56 0 2.42.97 2.42 2.34 0 1.26-.86 2.3-2.41 2.3-1.55 0-2.38-.94-2.38-2.3 0-1.26.83-2.34 2.38-2.34m2.05 25.2c0 4.5-2.84 6.51-6.44 7.01l-.36-3.24c1.87-.46 2.73-1.62 2.73-3.7v-17.79l4.07-.18zM89.72-26.02c0-2.16-1.18-3.31-3.45-3.31-2.02 0-3.46 1.15-3.46 3.56 0 2.3 1.3 3.27 3.39 3.27 2.23 0 3.52-1.04 3.52-3.52m-3.74 15.84c3.89 0 5.3-.98 5.3-2.38 0-1.04-.66-1.62-2.42-1.66l-5.9-.18a2.06 2.06 0 00-.98 1.88c0 1.4 1.23 2.34 4 2.34m-.76-7.5h4.25c3.82 0 5.44 1.52 5.44 4.4 0 3.38-2.81 6.12-9.29 6.12-5.08 0-7.42-1.8-7.42-4.57 0-1.7.94-3.1 2.7-3.85v-.11a2.67 2.67 0 01-1.4-2.38c0-1.11.68-2.16 1.98-2.66v-.1c-1.62-.91-2.56-2.42-2.56-4.72 0-4.32 2.92-6.66 7.42-6.66.97 0 1.84.1 2.74.36h5.75v2.7H92.1v.1c.76.58 1.4 1.8 1.4 3.35 0 3.93-2.66 5.98-7.56 5.98-.79 0-1.54-.11-2.23-.3-.47.26-.75.7-.75 1.12 0 .8.6 1.23 2.26 1.23M107.69-25.05c0-2.45-1.3-4.03-3.39-4.03-1.9 0-3.34 1.4-3.7 4.03zm-3.1-7.3c4.36 0 7.06 2.62 7.06 7.26 0 1.08-.04 2.24-.11 3.03h-11.02c.44 3.16 2.27 4.6 5.48 4.6 2.01 0 3.42-.28 5.18-.86v3.38c-1.87.62-3.31.94-5.69.94-5.43 0-8.93-2.88-8.93-9.07 0-6.08 3.6-9.29 8.03-9.29M125.94-25.12c0-2.34-1.15-3.35-3.28-3.35-1.3 0-2.23.18-3.45.68v13.57h-4.07v-17.7l3.96-.19v1.3a8.26 8.26 0 014.72-1.44c3.88 0 6.19 2.23 6.19 6.3v11.73h-4.07zM159.27-14.22h-5.61l-2.6-9.57h-.1l-2.88 9.57h-5.44l-4.75-17.81h4.68l3.02 14.36h.18l3.53-11.05-.9-3.31h4.1l4.04 14.36h.18l3.1-14.36h4.24zM176.45-25.05c0-2.45-1.3-4.03-3.39-4.03-1.9 0-3.34 1.4-3.7 4.03zm-3.1-7.3c4.36 0 7.06 2.62 7.06 7.26 0 1.08-.04 2.24-.11 3.03h-11.02c.44 3.16 2.27 4.6 5.47 4.6 2.02 0 3.42-.28 5.19-.86v3.38c-1.87.62-3.31.94-5.69.94-5.44 0-8.93-2.88-8.93-9.07 0-6.08 3.6-9.29 8.03-9.29M-149.82 21.93a15.44 15.44 0 00-3.16-.33c-2.81 0-4.8 1.98-4.8 5.47 0 3.85 2.1 5.47 4.87 5.47 1.15 0 2.2-.14 3.42-.46v3.52c-1.19.36-2.38.5-3.82.5-5.18 0-8.64-2.76-8.64-8.85 0-5.94 4.03-9.43 8.75-9.43 1.51 0 2.48.11 3.74.43zM-138.94 21.35c-2.49 0-4.43 2.05-4.43 5.83 0 3.67 1.73 5.44 4.43 5.44 2.48 0 4.42-2.05 4.42-5.83 0-3.64-1.76-5.44-4.42-5.44m-.26 14.87c-4.89 0-8.35-3.03-8.35-8.9 0-5.86 4.1-9.57 8.86-9.57 4.9 0 8.35 3.02 8.35 8.93 0 5.86-4.1 9.54-8.86 9.54M-117.24 22.03a7.74 7.74 0 00-2.01-.25c-1.12 0-2.23.36-3.46 1.3v12.81h-4.06V18.2l4.03-.19v2.05c1.22-1.58 2.34-2.2 3.74-2.2.8 0 1.4.08 2.05.26zM-107.3 21.35c-2.48 0-4.43 2.05-4.43 5.83 0 3.67 1.73 5.44 4.43 5.44 2.48 0 4.43-2.05 4.43-5.83 0-3.64-1.77-5.44-4.43-5.44m-.25 14.87c-4.9 0-8.35-3.03-8.35-8.9 0-5.86 4.1-9.57 8.85-9.57 4.9 0 8.35 3.02 8.35 8.93 0 5.86-4.1 9.54-8.85 9.54M-84.33 24.99c0-2.34-1.15-3.35-3.28-3.35-1.3 0-2.23.18-3.45.68V35.9h-4.07V18.2l3.96-.19v1.3a8.26 8.26 0 014.71-1.44c3.9 0 6.2 2.23 6.2 6.3v11.73h-4.07zM-70.44 32.87c1.4 0 2.49-.29 3.71-.94V28.6c-.68-.04-1.62-.08-2.34-.08-2.91 0-4.03.94-4.03 2.3 0 1.27.97 2.06 2.66 2.06m7.67 3.02h-3.82v-1.15a8.65 8.65 0 01-5.03 1.37c-3.64 0-5.66-1.98-5.66-4.97 0-3.28 2.52-5.58 8.1-5.58.9 0 1.7.04 2.45.04v-1.01c0-1.94-1.15-3.02-3.96-3.02-1.73 0-3.17.28-5.07 1.08l-.58-3.42c2.2-.94 4.1-1.37 6.4-1.37 4.8 0 7.17 2.27 7.17 6.26zM-44.99 21.35c-2.48 0-4.42 2.05-4.42 5.83 0 3.67 1.73 5.44 4.42 5.44 2.49 0 4.43-2.05 4.43-5.83 0-3.64-1.76-5.44-4.43-5.44m-.25 14.87c-4.9 0-8.35-3.03-8.35-8.9 0-5.86 4.1-9.57 8.86-9.57 4.9 0 8.35 3.02 8.35 8.93 0 5.86-4.1 9.54-8.86 9.54M-22.02 24.99c0-2.34-1.15-3.35-3.27-3.35-1.3 0-2.24.18-3.46.68V35.9h-4.07V18.2l3.96-.19v1.3a8.26 8.26 0 014.72-1.44c3.89 0 6.19 2.23 6.19 6.3v11.73h-4.07zM-10.5 27.18c0 3.78 1.84 5.36 4.47 5.36 1.3 0 2.08-.21 3.27-.82V21.57c-.86-.15-1.62-.22-2.55-.22-3.14 0-5.19 2.16-5.19 5.83M1.3 35.9h-3.95v-1.22a7.88 7.88 0 01-4.6 1.44c-4.44 0-7.42-2.95-7.42-8.71 0-6.01 3.88-9.54 9.32-9.54.94 0 1.8.07 2.6.29v-7.2l4.06-.22zM16 25.06c0-2.45-1.3-4.03-3.39-4.03-1.9 0-3.34 1.4-3.7 4.03zm-3.1-7.3c4.36 0 7.06 2.62 7.06 7.26 0 1.08-.04 2.23-.11 3.03H8.83c.44 3.16 2.27 4.6 5.47 4.6 2.02 0 3.42-.28 5.19-.86v3.38c-1.87.61-3.31.94-5.69.94-5.43 0-8.93-2.88-8.93-9.07 0-6.09 3.6-9.29 8.03-9.29M32.99 22.03a7.74 7.74 0 00-2.02-.25c-1.11 0-2.23.36-3.45 1.3v12.81h-4.07V18.2l4.03-.19v2.05c1.23-1.58 2.34-2.2 3.75-2.2.79 0 1.4.08 2.05.26zM52.36 21.93a15.44 15.44 0 00-3.17-.33c-2.81 0-4.79 1.98-4.79 5.47 0 3.85 2.09 5.47 4.86 5.47 1.15 0 2.2-.14 3.42-.46v3.52c-1.19.36-2.38.5-3.82.5-5.18 0-8.63-2.76-8.63-8.85 0-5.94 4.03-9.43 8.74-9.43 1.51 0 2.49.11 3.75.43zM63.23 21.35c-2.49 0-4.43 2.05-4.43 5.83 0 3.67 1.73 5.44 4.43 5.44 2.48 0 4.43-2.05 4.43-5.83 0-3.64-1.77-5.44-4.43-5.44m-.25 14.87c-4.9 0-8.36-3.03-8.36-8.9 0-5.86 4.1-9.57 8.86-9.57 4.9 0 8.35 3.02 8.35 8.93 0 5.86-4.1 9.54-8.85 9.54M86.2 24.99c0-2.34-1.16-3.35-3.28-3.35-1.3 0-2.23.18-3.46.68V35.9H75.4V18.2l3.96-.19v1.3a8.26 8.26 0 014.71-1.44c3.89 0 6.2 2.23 6.2 6.3v11.73H86.2zM93.04 18.08h2.16v-3.24l4.06-.36v3.6h4.5v3.13h-4.5v8.42c0 2.05 1.08 2.95 2.67 2.95.86 0 1.37-.07 2.3-.29v3.39c-1.22.32-2.12.43-3.5.43-3.3 0-5.53-1.87-5.53-5.94V21.2h-2.16zM116.4 22.03a7.74 7.74 0 00-2.02-.25c-1.11 0-2.23.36-3.45 1.3v12.81h-4.07V18.2l4.03-.19v2.05c1.22-1.58 2.34-2.2 3.74-2.2.8 0 1.4.08 2.06.26zM126.33 21.35c-2.48 0-4.42 2.05-4.42 5.83 0 3.67 1.72 5.44 4.42 5.44 2.49 0 4.43-2.05 4.43-5.83 0-3.64-1.76-5.44-4.43-5.44m-.25 14.87c-4.9 0-8.35-3.03-8.35-8.9 0-5.86 4.1-9.57 8.86-9.57 4.9 0 8.35 3.02 8.35 8.93 0 5.86-4.1 9.54-8.86 9.54M142.57 35.9h-4.07V10.94l4.07-.22zM157.26 25.06c0-2.45-1.3-4.03-3.39-4.03-1.9 0-3.34 1.4-3.7 4.03zm-3.1-7.3c4.36 0 7.06 2.62 7.06 7.26 0 1.08-.04 2.23-.11 3.03h-11.02c.44 3.16 2.27 4.6 5.48 4.6 2.01 0 3.42-.28 5.18-.86v3.38c-1.87.61-3.31.94-5.69.94-5.43 0-8.93-2.88-8.93-9.07 0-6.09 3.6-9.29 8.03-9.29" fill="#fff"/></g></g></svg>