<svg width="229" height="229" fill="none" xmlns="http://www.w3.org/2000/svg">
  <path d="M229 49.915v129.17C229 206.637 206.637 229 179.085 229H49.915C22.363 229 0 206.637 0 179.085V50.094C0 22.364 22.363 0 49.915 0h128.991C206.637 0 229 22.363 229 49.915z" fill="url(#paint0_linear)"/>
  <path d="M142.497 122.455c-1.109 2.474-2.587 4.596-4.251 6.717l5.175 4.949c3.141-1.237 7.022-.353 9.055 2.828 1.478 2.298 1.478 5.304 0 7.425-2.587 4.065-8.316 4.419-11.642 1.237-2.218-2.121-2.772-5.126-1.664-7.778l-5.174-4.949c-4.435 3.535-9.979 6.01-16.262 6.54v8.662c4.065 1.414 6.653 5.48 5.729 10.076-.74 3.358-3.511 6.01-7.023 6.717-5.913 1.237-11.272-3.182-11.272-8.662 0-3.712 2.402-6.894 5.913-8.308v-8.662c-6.098-.707-11.642-3.005-16.262-6.54l-5.174 4.95c1.293 3.005.37 6.717-2.957 8.661-2.402 1.414-5.544 1.414-7.761 0-4.25-2.475-4.62-7.954-1.294-11.136 2.218-2.121 5.36-2.652 8.131-1.591l5.174-4.95c-3.695-4.242-6.283-9.545-6.837-15.555h-9.055c-1.479 3.889-5.729 6.364-10.534 5.48-3.51-.707-6.283-3.359-7.022-6.718-1.293-5.656 3.326-10.782 9.055-10.782a9.454 9.454 0 018.686 5.656h9.055c.739-5.833 3.141-11.136 6.837-15.555l-5.174-4.95c-3.142 1.237-7.022.354-9.055-2.828-1.479-2.298-1.479-5.303 0-7.424 2.587-4.066 8.316-4.42 11.642-1.238 2.218 2.121 2.772 5.126 1.663 7.778l5.175 4.95c4.435-3.536 9.979-6.01 16.262-6.54v-8.663c-4.066-1.414-6.653-5.48-5.729-10.075.739-3.359 3.511-6.01 7.022-6.717 5.914-1.238 11.273 3.181 11.273 8.661 0 3.712-2.403 6.894-5.914 8.308v8.662c6.099.707 11.643 3.005 16.262 6.54l5.175-4.95c-1.294-3.004-.37-6.716 2.957-8.66 2.402-1.415 5.543-1.415 7.761 0 4.25 2.474 4.62 7.954 1.294 11.136-2.218 2.12-5.36 2.651-8.132 1.59l-5.174 4.95c1.848 2.121 3.327 4.42 4.435 6.894.739 1.768 2.587 2.828 4.435 2.828h32.709c2.772 0 4.99-2.121 4.99-4.772v-35c0-8.662-3.696-11.49-11.088-14.495-9.979-4.066-42.318-15.556-52.297-18.915-2.403-.707-4.805-1.237-7.207-1.237-2.403 0-4.805.53-7.023 1.237-9.979 3.182-42.318 15.026-52.297 18.915C47.88 49.98 44 52.984 44 61.646v70.53c0 30.404 16.632 41.54 64.679 68.232 2.217 1.237 4.25 1.591 5.729 1.591 1.293 0 3.511-.53 5.728-1.591 48.971-25.278 64.679-37.828 64.679-68.232v-7.778c0-2.652-2.217-4.773-4.989-4.773h-33.079c-1.848.177-3.511 1.238-4.25 2.829z" fill="#fff"/>
  <defs>
    <linearGradient id="paint0_linear" x1="34.85" y1="194.112" x2="265.21" y2="-36.106" gradientUnits="userSpaceOnUse">
      <stop stop-color="#C9005D"/>
      <stop offset="0" stop-color="#C9005D"/>
      <stop offset=".248" stop-color="#C9005D"/>
      <stop offset=".983" stop-color="#315BBC"/>
      <stop offset="1" stop-color="#315BBC"/>
    </linearGradient>
  </defs>
</svg>
