<svg width="50" height="100" xmlns="http://www.w3.org/2000/svg"><g fill="none" fill-rule="evenodd"><path fill="#154273" d="M0 100h50V0H0z"/><path d="M27.52 66.22c0 .22.13.54.42.44.02 0 .03 0 .03.02-.05.24-.48.46-.68.17-.17.37-.13.72.25.92.02.02.02.04 0 .06a.5.5 0 01-.74-.19c-.31.24-.27.73-.08.9 0 0-.86.51-1.64.15-.52-.25-.94-.56-1.6-.51.09-.94.56-1.18 1.42-1.32.68-.1.77-.42.67-.66-.23-.07-.66.15-.66.15-.08-.13.04-.26.04-.26-.05-.06-.07-.23-.07-.23.48 0 .57-.1.57-.1.08-.5-.43-.56-.81-.29-.18-.16-.16-.37-.16-.37-.05-.03-.08-.1-.08-.15 0-.11.57-.43.71-.47.04-.17.25-.4.85-.34.07-.16-.04-.75-.12-.9-.02-.05.01-.08.07-.05.2.14.42.63.56.64 0 0 .68-.36.72-.34.03.02.12.78.12.78.1.11.62 0 .85.1.06.03.05.07 0 .08-.17.03-.72.26-.8.41.3.48.16 1.17.16 1.36zm-6.07.39c-.05.07-.22 0-.28-.03h-.02c.04.1.2.37.45.37.1 0 .26-.07.3-.14l1.41.43c-.18.24-.29.53-.31.85-.38-.23-1.88-1.04-1.88-1.04l-.46.64c-.08.1-.45-.17-.37-.27l.35-.49c-.12-.12-.4-.05-.48-.02 0 0-.02 0 0-.02.04-.1.22-.4.66-.26 0-.27-.4-.18-.5-.16-.02 0-.02 0-.01-.01.1-.12.43-.38.8-.16l.16-.22-.33-.34.2-.28.23.3 1.73-2.37c.04-.05.39-.15.52-.18.01.13.03.49-.02.55l-1.7 2.39.36.12-.2.27-.42-.2-.2.27zm12.91 12.47c.03 0 .03-.02.01-.03-.22-.15-.4-.35-.4-.57 0-.4.77-.92 1.13-.92.22 0 .38.26.8.26.21 0 .46-.09.67-.35.02-.02.01-.04-.02-.03-.17.02-.64.14-.86-.71-.23-.89-.3-1.53.09-1.87.33-.29 1.8-.85 2.6-1.15.05-.02.04-.05 0-.06-.22-.06-.44-.2-.47-.47-.02-.17.02-.4.21-.52a2.66 2.66 0 00-1.6-.73c-1.6 0-2.95 2.16-3.6 2.16-.08 0-.19-.03-.28-.17-.02-.03-.04-.03-.04.02 0 .65.34.7.52.7.1.01.22-.02.3-.07.02-.01.03 0 .03.02v.14c0 .77.8 1.6.8 1.6-.36.39-1.27 1.02-1.52.68-.11-.13-.59-.99-1.22-.3-.03.02-.01.05.03.05.36 0 .64.24.54.61-.51-.41-1.22-.34-1.22.6 0 .04.03.05.05.02.34-.48.88-.15.96-.08-.36.05-.99.47-.44 1.22.02.04.05.03.05 0 .05-.49.35-.57.6-.57.5 0 .87.46 1.26-.03.14.64.85.58 1.02.55zm-17.63-.55c.38.5.75.03 1.26.03.24 0 .54.08.6.57 0 .03.02.04.05 0 .55-.75-.08-1.17-.44-1.22.08-.07.61-.4.96.08.01.03.05.02.05-.01 0-.95-.71-1.02-1.23-.6-.1-.38.19-.62.54-.62.05 0 .06-.03.04-.06-.64-.68-1.11.18-1.22.31-.25.34-1.16-.3-1.53-.67 0 0 .8-.84.8-1.61v-.14c0-.02.01-.03.04-.02.08.05.19.08.3.08.17 0 .52-.06.52-.71 0-.05-.02-.05-.04-.02-.1.14-.2.17-.28.17-.65 0-2-2.16-3.6-2.16-.42 0-1.2.3-1.6.73.19.11.22.35.2.52-.03.27-.24.4-.47.47-.04 0-.04.04 0 .06.81.3 2.28.86 2.61 1.15.4.34.32.98.09 1.87-.22.85-.7.73-.87.7-.02 0-.03.02-.02.04.21.26.47.35.68.35.42 0 .58-.26.8-.26.36 0 1.12.52 1.12.92 0 .22-.17.42-.4.57-.01.01 0 .03.01.03.18.03.9.1 1.03-.55zm7.53-12.86c.28-.07.58-.04.62-.03.04.02.04.09-.01.1-.58.07-.6.33-.98.33-.24 0-.5-.24-.4-.6 0-.05.04-.05.05 0 .04.15.27.32.72.2zm1.45-.97c-.4-.03-.64.06-.63.19.19.2.44.18.63-.2zM22.4 74.95c-.22.27-.42.01-.7.01-.28 0-.32.23-.33.32 0 .02 0 .02-.02 0-.3-.41.04-.64.24-.67-.03-.03-.33-.23-.53.04-.01.02-.03.01-.03 0 0-.53.4-.57.68-.34.04-.2-.08-.33-.3-.34-.03 0-.03-.02-.02-.03.09-.1.18-.14.27-.14.29 0 .33.36.51.36.29 0 .69-.38.73-.42 0-.02-.28-.75-.23-1.2 0-.01 0-.02-.02 0-.13.07-.48.07-.48-.36 0-.04 0-.04.03-.01.15.2.4-.03.52-.17.13-.15.85-1.19 1.8-1.19.21 0 .48.12.7.27-.33.4 0 .78.24.74.03 0 .03.02 0 .03-1.25.47-1.82.66-1.82 1.71 0 .55.2.86.52.79.02 0 .03 0 0 .02a.47.47 0 01-.35.19c-.27 0-.31-.15-.45-.15-.15 0-.62.28-.62.5 0 .1.06.21.22.32v.02c-.1.02-.48.05-.56-.3zm-1.7-4.48l-.5-.12-.04.06-.57-.25h.51c.05 0 .05-.04.03-.06l-.44-.43.56.21c.04.01.06-.01.04-.04l-.38-.55.55.37c.03.02.06 0 .05-.03l-.27-.65.5.48c.03.02.06 0 .05-.02l-.14-.65.37.54c.02.03.05.02.05-.01l.01-.6.24.55c.01.03.04.04.06-.01l.2-.46.01.62-.08.01-.1.74c.73-.17 1.65-1.43 2.35-1.43.84 0 1.14.98 2.68.49.4.57.53 1.08.68 1.77.6.56 1.43.37 1.43-.22 0-.8-.87-.95-.87-1.79 0-.37.26-.9.98-.9.37 0 .93.16 1.24.16.38 0 .46-.28.5-.39.04-.09.14-.06.13 0-.01.09.04.2.04.38 0 .52-.76.6-.86.53-.04-.03-.07.01-.04.03.12.1.09.41-.05.61-.01.02-.03.02-.04 0-.08-.38-.53-.85-.92-.85-.14 0-.43.09-.43.42 0 .47.96.9.96 1.9 0 1.01-1.02 1.26-2.04 1 .04.97 1.48 1.55 1.52.86 0-.05.03-.02.04 0 .22.3.12.52-.16.63.26.12.3.62.38.93.1.45.59.2.61.19.03-.02.04 0 .03.03-.19.47-.67.3-.67.3-.26.17.05.33.28.4.04 0 .04.03 0 .04-.16.07-.53.18-.7-.12-.13.31-.4.3-.5.3-.2 0-.32.2-.27.45 0 .02-.02.03-.03.01-.45-.29-.2-.64-.01-.72-.03-.02-.34-.15-.47.2 0 .04-.03.04-.04.01-.19-.51.23-.66.54-.53-.02-.08-.18-.33-.58-.25-.02 0-.03 0-.02-.03.06-.15.26-.39.63-.15.18.11.5-.05.53-.07-.65-1.29-1.9-.2-2.18-1.22 0-.02-.03-.04-.05.02-.07.21-.62.23-.72-.2 0-.03 0-.03.03-.01.08.08.25.15.48-.18.15-.21.17-.5.17-.7 0-.78-.78-2.1-2-2.1-.78 0-1.6.3-2.22.75l.57.14a.89.89 0 01-1.12.77l.09-.66a.86.86 0 00-.44.27c0 .02-.02.01-.03 0-.1-.38.2-.57.3-.62.02 0 .02 0 0 0a.55.55 0 00-.48.25c0 .02-.02.01-.02 0-.03-.07-.08-.26.05-.4zm4.33 12.16c4.87 0 9.8.26 10.46.99.05.06.07 0 .07-.05V81c0-.76-5.1-1.2-10.53-1.2s-10.52.44-10.52 1.2v2.57c0 .05.02.1.07.05.65-.73 5.59-.99 10.45-.99zm7.94 1.15v1.12c0 1.9 3.13.12 6.15-.07 2.51-.17 3.21.47 3.21.47l-.46-2.53c-.02-.14-.56-.53-2.3-.53-2.07 0-3.12.4-3.5.53v1.33c0 .3-.15.45-.38.55 0-.11-.35-.87-2.72-.87zm-18.59.87c-.23-.1-.38-.24-.38-.55v-1.33c-.38-.13-1.43-.53-3.5-.53-1.74 0-2.28.39-2.3.53l-.47 2.53s.7-.64 3.21-.47c3.02.19 6.16 1.97 6.16.07v-1.12c-2.37 0-2.72.76-2.72.87zm5.76-21.98c-.73.16-1.25.31-1.48.38.01-.32.13-.61.42-.68.04 0 .05-.06.01-.08-.65-.43-1 .4-1 .42-.23-.02-.58.05-.58.36 0 .93-2.12 1.45-2.61 1.52.86.34 1.22 1.43 1.22 1.43a5.44 5.44 0 011.53-1.19c.17 0 .23.21.24.34 0 .04.05.05.07.02.33-.5.17-.6.15-.75-.03-.11 0-.54.49-.5v6.2l-.25.05c-.11.01-1.02-.75-2.05-1.47-1.04-.72-1.6-.29-2.78.35-1.54.84-3.1.08-3.1.08-1.34.95-1.8 3.7-1.8 3.7-.26.12-.7.24-1.12.24-1.01 0-1.2-.62-1.2-.99 0-1.57 1.97-2.24 1.97-3.79 0-.37-.18-1.9-2.07-1.9H4.51c-.7 0-.88-.51-.98-.7-.04-.08-.11-.04-.08.02.05.13-.09.33-.09.72 0 .63.37 1 1.06 1 .31 0 .6-.08.7-.14.07-.04.1.02.07.06-.3.35-.32 1-.2 1.16.03.04.07.03.07 0a1.7 1.7 0 011.63-1.29c1.03 0 1.02.87 1.02 1.08 0 1.26-2.21 2.19-2.21 3.92 0 1.76 1.85 2.13 2.93 1.85-.06 1.76-2.08 2.36-2.14 1.1 0-.06-.05-.07-.08.01-.25.62-.15 1.17.63 1.34.05.01.03.04-.02.08-.78.5-.36 2.43-.32 3 .06.82-.76.72-.82.7-.04-.01-.07 0-.02.07.58.71 1.3.06 1.3.06.54.17.2.63-.16.87-.05.04-.05.08.01.08.08 0 .92.08 1.07-.59.37.44.92.28 1.03.22.16-.08.95-.36 1.02.52.01.06.05.02.07-.01.6-.75-.04-1.2-.4-1.26a.6.6 0 01.94.11c.03.04.05.04.06-.03.05-.95-.72-1.03-1.22-.62-.02-.1-.19-.63.56-.61.02 0 .06-.03.02-.06-.58-.62-1.06-.06-1.18.07-.26.31-.9.19-.96.18.2-3.29 3.1-2.12 3.5-3.72.01-.08.05-.05.06-.02.1.39 1.1.44 1.27-.33.01-.04 0-.08-.03-.04-.84.83-2.73-1.78-.15-3.91a3.74 3.74 0 014.92-.2c.04.26-.12.34-.22.37-.03.01-.04.05.01.07.21.08.5.05.65-.14.47.33.06.74-.13.86-.04.03-.02.06.02.07.43.08.79-.37.8-.62l.08.04v1.87c0 2.66 3.07 3.03 6.43 5.28 3.37-2.25 6.44-2.62 6.44-5.28v-1.87l.07-.04c.02.25.38.7.8.62.05 0 .07-.04.02-.07-.19-.12-.6-.53-.12-.86.14.2.43.22.64.14.06-.02.05-.06.01-.07-.1-.03-.25-.11-.21-.38.75-.6 2.72-1.6 4.92.21 2.57 2.13.68 4.74-.15 3.9-.04-.03-.04 0-.03.05.18.77 1.16.72 1.27.33 0-.03.04-.06.06.02.4 1.6 3.3.43 3.5 3.72-.06 0-.7.13-.97-.18-.11-.13-.59-.69-1.17-.07-.04.03 0 .06.01.06.75-.02.59.51.57.61-.5-.41-1.27-.33-1.22.62 0 .07.03.07.06.03a.6.6 0 01.93-.11c-.35.05-.99.51-.4 1.26.03.03.07.07.07 0 .08-.87.86-.59 1.03-.5.11.05.66.21 1.03-.23.15.67.98.6 1.06.6.06-.01.07-.05.01-.09-.36-.24-.7-.7-.15-.87 0 0 .72.65 1.3-.06.05-.07.01-.08-.02-.07-.07.02-.89.12-.83-.7.04-.57.46-2.5-.31-3-.05-.04-.08-.07-.02-.08.78-.17.88-.72.63-1.34-.04-.08-.08-.07-.09 0-.06 1.25-2.07.65-2.13-1.1 1.07.27 2.93-.1 2.93-1.86 0-1.73-2.21-2.66-2.21-3.92 0-.2-.01-1.08 1.02-1.08.83 0 1.46.63 1.62 1.3 0 .02.05.03.07 0 .13-.17.1-.82-.2-1.17-.03-.04 0-.1.07-.06.1.06.4.15.7.15.7 0 1.06-.38 1.06-1.01 0-.4-.13-.59-.08-.72.03-.06-.04-.1-.08-.03-.1.2-.28.7-.99.7h-1.69c-1.89 0-2.06 1.54-2.06 1.91 0 1.55 1.97 2.22 1.97 3.8 0 .36-.19.98-1.2.98-.43 0-.86-.12-1.13-.23 0 0-.45-2.76-1.79-3.71 0 0-1.56.76-3.1-.08-1.19-.64-1.74-1.07-2.78-.35-1.04.72-1.94 1.48-2.05 1.47l-.25-.05v-6.2c.48-.04.51.39.5.5-.04.15-.2.26.14.75.02.03.06.02.06-.02.02-.13.08-.34.25-.34.16 0 .9.56 1.52 1.19 0 0 .37-1.1 1.23-1.43-.5-.07-2.61-.59-2.61-1.52 0-.3-.35-.38-.58-.36-.01-.03-.36-.85-1-.42a.04.04 0 000 .08c.3.07.42.36.43.68a23.3 23.3 0 00-6.38-.92c-1.51 0-2.9.17-4.02.37v2.15h-.87v-1.98zm4.9-1.99c2.66 0 4.17.51 4.17.51.01-1.34 0-2.1.78-1.98-.43-1.14 1.4-1.58 1.4-3.06 0-.97-.7-1.08-.9-1.08-.6 0-.5.4-1.02.4-.06 0-.13-.02-.13.02 0 .17.14.46.38.46.32 0 .32-.31.56-.31.1 0 .24.08.24.4 0 .63-.4 1.33-.9 1.87a.54.54 0 00-.44-.25c-.28 0-.54.3-.54.67 0 .13.03.23.08.35a.94.94 0 01-.42.14c-.22 0-.55-.09-.55-.57 0-1.07 1.44-2.01 1.44-3.37 0-.64-.44-1.29-1.34-1.29-.97 0-.79.89-1.63.89-.03 0-.07 0-.07.04 0 .06.15.55.58.55.47 0 .6-.8 1-.8.16 0 .4.09.4.63 0 .42-.22 1.1-.52 1.76a.6.6 0 00-.42-.19c-.36 0-.62.35-.62.77 0 .26.1.51.28.68-.2.27-.42.49-.72.49-.58 0-.83-.33-.83-.69 0-.38.7-.53.7-1.13 0-.41-.26-.64-.52-.64-.28 0-.42.18-.45.18-.03 0-.17-.18-.44-.18-.26 0-.53.23-.53.64 0 .6.71.75.71 1.13 0 .36-.26.69-.84.69-.29 0-.5-.22-.72-.5a.94.94 0 00.28-.67c0-.42-.25-.77-.61-.77a.6.6 0 00-.43.2 4.97 4.97 0 01-.5-1.77c0-.54.22-.63.38-.63.4 0 .54.8 1 .8.44 0 .58-.5.58-.55 0-.03-.03-.04-.07-.04-.84 0-.65-.89-1.62-.89-.9 0-1.34.65-1.34 1.3 0 1.35 1.43 2.3 1.43 3.36 0 .48-.33.57-.54.57a.94.94 0 01-.42-.14.83.83 0 00.07-.35c0-.37-.25-.67-.54-.67-.18 0-.33.1-.44.25-.49-.54-.9-1.24-.9-1.87 0-.32.15-.4.25-.4.23 0 .24.31.56.31.23 0 .38-.29.38-.46 0-.04-.07-.03-.13-.03-.52 0-.42-.39-1.03-.39-.2 0-.89.11-.89 1.08 0 1.48 1.82 1.92 1.4 3.06.77-.12.76.64.78 1.98 0 0 1.5-.5 4.17-.5zm0-6.4a.67.67 0 100 1.32.67.67 0 000-1.33zm-.34-4.07c0 .16.07.3.12.38.12.16.1.25.05.3-.06.05-.15.07-.3-.04a.68.68 0 00-.38-.12c-.28 0-.41.18-.41.33 0 .15.13.33.4.33.17 0 .3-.07.38-.12.16-.11.25-.1.3-.04.06.05-.02.6-.08 1.04-.46.1-.67.45-.67.67 0 .54.58.86.92 1.04.35-.18.93-.5.93-1.04 0-.22-.22-.58-.67-.67a4 4 0 01-.09-1.04c.05-.05.14-.07.3.04.08.05.22.12.38.12.27 0 .41-.18.41-.33 0-.15-.14-.33-.4-.33-.17 0-.3.06-.39.12-.16.11-.25.1-.3.04-.05-.05-.07-.14.04-.3a.7.7 0 00.13-.38c0-.27-.18-.4-.34-.4-.15 0-.33.13-.33.4zM38.1 60.9c-.13.63-.7.72-1.04.34.03-.31.34-.38 1.05-.34zm4.13 3.59c0-.07-.03-.06-.06-.04-.54.27-.84-.32-.7-.92.07-.34.36-1.25-.38-2-.73.42-1.22-.26-1.1-.6.04-.08.1-.1.1.02 0 .23.23.4.4.4.3 0 .83-.33.88-.83-.76-.5-2.03-.3-2.28.64-.03.11-.17.1-.16-.01 0-.08.03-.63.58-.91.5-.25.32-.62.19-.75-.06-.06-.16-.05-.13 0 .2.34-.21.49-.78.42-1.2-.16-1.6.28-1.66.6-.26.06-1.28.63-1.28.84 0 .07.06.22.16.26 0 0-.03.44.3.72 1.26-.77 1.62-.05 1.49.46 0 0-.23.18-1.09.19 0 0 .04.3.12.4 0 0-.2.24-.06.47 0 0 .44-.33 1.2-.3 0 0 .49.74-1.32 1.1-1.81.34-2.39 2.05-2.39 3 0 .04.02.06.06.06 1.47-.28 2.14 1.24 4.04 1.07-.16-.45.02-.91.02-.91.15.4.51.66.77.8.67-.15 1.12-.48 1.22-.67 0 0-.72-.6-.25-1.67 0 0 .45.72 1.38.33.08-.04.07-.09.01-.1-1.26-.42-.44-1.48-.36-1.59.58.33 1.08-.1 1.08-.48zm-7.16-1.77c-.37 0-.72-.16-.79-.45-.01-.07-.08-.1-.1.01-.18.64.27.94.72.94.48 0 .76-.35 1.45-.47.31-.05.52 0 .52-.1 0-.09-.45-.09-.52-.09-.72 0-.82.16-1.28.16zM13 61.24c-.34.38-.9.3-1.04-.34.7-.04 1.01.03 1.04.34zm-4.08 3.73c.08.1.9 1.17-.36 1.58-.06.02-.08.07 0 .11.94.39 1.39-.33 1.39-.33.47 1.08-.25 1.67-.25 1.67.1.2.54.52 1.22.67.26-.14.62-.4.77-.8 0 0 .18.46.01.91 1.9.17 2.58-1.35 4.04-1.07.04 0 .06-.02.06-.07 0-.94-.57-2.65-2.38-3-1.81-.35-1.33-1.09-1.33-1.09.77-.03 1.2.3 1.2.3.15-.23-.05-.48-.05-.48.07-.08.11-.4.11-.4-.86 0-1.08-.18-1.08-.18-.13-.5.22-1.23 1.5-.46.32-.28.3-.72.3-.72.09-.04.15-.2.15-.26 0-.2-1.02-.78-1.28-.85-.07-.3-.46-.75-1.66-.6-.57.08-.98-.07-.79-.4.03-.06-.07-.07-.12-.01-.13.13-.31.5.18.75.55.28.59.83.6.9 0 .12-.14.13-.17.02-.25-.93-1.53-1.13-2.28-.64.04.5.58.83.87.83.17 0 .4-.17.4-.4 0-.11.06-.1.1-.01.12.33-.37 1.01-1.1.6-.74.74-.44 1.65-.37 2 .14.6-.16 1.18-.7.9-.03 0-.06-.02-.06.05 0 .38.5.81 1.08.48zm4.8-2.4c-.07 0-.52 0-.52.09s.2.04.51.1c.7.11.97.46 1.46.46.45 0 .9-.3.72-.94-.03-.1-.09-.08-.1-.01-.07.29-.42.45-.8.45-.45 0-.55-.16-1.28-.16zm15.24 4.15h.87v-2.4h-.87v2.4zm-3.93 10.64h.87v-2.4h-.87v2.4z" fill="#FFF"/></g></svg>