<svg width="77" height="77" fill="none" xmlns="http://www.w3.org/2000/svg">
  <path fill-rule="evenodd" clip-rule="evenodd" d="M38.5 77C59.763 77 77 59.763 77 38.5S59.763 0 38.5 0 0 17.237 0 38.5 17.237 77 38.5 77z" fill="url(#paint0_linear)"/>
  <path fill-rule="evenodd" clip-rule="evenodd" d="M17.52 26.066c.97-2.598 4.041-6.008 5.496-7.307l1.455-1.462s.97-.974 1.94-.162c.807.812 7.434 8.444 7.434 8.444s.808.974-.162 2.111c-1.131 1.137-4.687 4.547-4.687 4.547s-.646.974.162 2.111c3.232 4.547 9.05 10.555 13.738 13.64.97.812 1.94.325 1.94.325s3.555-3.735 4.525-4.709c1.131-1.137 2.1-.325 2.1-.325s7.597 6.658 8.405 7.632c.808.975-.161 1.949-.161 1.949l-1.294 1.461c-1.454 1.3-4.848 4.547-7.434 5.522-9.86 3.734-37.335-23.871-33.456-33.777z" fill="#fff"/>
  <defs>
    <linearGradient id="paint0_linear" x1="11.718" y1="65.269" x2="89.175" y2="-12.14" gradientUnits="userSpaceOnUse">
      <stop stop-color="#C9005D"/>
      <stop offset="0" stop-color="#C9005D"/>
      <stop offset=".248" stop-color="#C9005D"/>
      <stop offset=".983" stop-color="#315BBC"/>
      <stop offset="1" stop-color="#315BBC"/>
    </linearGradient>
  </defs>
</svg>
