<svg xmlns="http://www.w3.org/2000/svg" xmlns:xlink="http://www.w3.org/1999/xlink" viewBox="0 0 871 1821">
  <defs>
    <filter x="-6.1%" y="-182.5%" width="112.3%" height="481.6%" filterUnits="objectBoundingBox" id="b">
      <feOffset dy="2" in="SourceAlpha" result="shadowOffsetOuter1"/>
      <feGaussianBlur stdDeviation="15" in="shadowOffsetOuter1" result="shadowBlurOuter1"/>
      <feColorMatrix values="0 0 0 0 0 0 0 0 0 0 0 0 0 0 0 0 0 0 0.12 0" in="shadowBlurOuter1"/>
    </filter>
    <filter x="-2.6%" y="-88.1%" width="105.2%" height="297%" filterUnits="objectBoundingBox" id="d">
      <feOffset dy="2" in="SourceAlpha" result="shadowOffsetOuter1"/>
      <feGaussianBlur stdDeviation="6" in="shadowOffsetOuter1" result="shadowBlurOuter1"/>
      <feColorMatrix values="0 0 0 0 0 0 0 0 0 0 0 0 0 0 0 0 0 0 0.08 0" in="shadowBlurOuter1"/>
    </filter>
    <filter x="-1.9%" y="-114.1%" width="103.8%" height="369.6%" filterUnits="objectBoundingBox" id="f">
      <feOffset dy="2" in="SourceAlpha" result="shadowOffsetOuter1"/>
      <feGaussianBlur stdDeviation="4" in="shadowOffsetOuter1" result="shadowBlurOuter1"/>
      <feColorMatrix values="0 0 0 0 0 0 0 0 0 0 0 0 0 0 0 0 0 0 0.24 0" in="shadowBlurOuter1"/>
    </filter>
    <filter x="-1%" y="-.5%" width="102%" height="101%" filterUnits="objectBoundingBox" id="j">
      <feMorphology radius="7" in="SourceAlpha" result="shadowSpreadInner1"/>
      <feGaussianBlur stdDeviation="5" in="shadowSpreadInner1" result="shadowBlurInner1"/>
      <feOffset in="shadowBlurInner1" result="shadowOffsetInner1"/>
      <feComposite in="shadowOffsetInner1" in2="SourceAlpha" operator="arithmetic" k2="-1" k3="1" result="shadowInnerInner1"/>
      <feColorMatrix values="0 0 0 0 0 0 0 0 0 0 0 0 0 0 0 0 0 0 0.25 0" in="shadowInnerInner1" result="shadowMatrixInner1"/>
      <feMorphology radius="1" in="SourceAlpha" result="shadowSpreadInner2"/>
      <feGaussianBlur stdDeviation="2.5" in="shadowSpreadInner2" result="shadowBlurInner2"/>
      <feOffset in="shadowBlurInner2" result="shadowOffsetInner2"/>
      <feComposite in="shadowOffsetInner2" in2="SourceAlpha" operator="arithmetic" k2="-1" k3="1" result="shadowInnerInner2"/>
      <feColorMatrix values="0 0 0 0 0 0 0 0 0 0 0 0 0 0 0 0 0 0 0.25 0" in="shadowInnerInner2" result="shadowMatrixInner2"/>
      <feGaussianBlur stdDeviation="1" in="SourceAlpha" result="shadowBlurInner3"/>
      <feOffset in="shadowBlurInner3" result="shadowOffsetInner3"/>
      <feComposite in="shadowOffsetInner3" in2="SourceAlpha" operator="arithmetic" k2="-1" k3="1" result="shadowInnerInner3"/>
      <feColorMatrix values="0 0 0 0 0 0 0 0 0 0 0 0 0 0 0 0 0 0 0.05 0" in="shadowInnerInner3" result="shadowMatrixInner3"/>
      <feMerge>
        <feMergeNode in="shadowMatrixInner1"/>
        <feMergeNode in="shadowMatrixInner2"/>
        <feMergeNode in="shadowMatrixInner3"/>
      </feMerge>
    </filter>
    <filter x="-.4%" y="-.2%" width="100.7%" height="100.3%" filterUnits="objectBoundingBox" id="k">
      <feMorphology radius="1" operator="dilate" in="SourceAlpha" result="shadowSpreadOuter1"/>
      <feOffset in="shadowSpreadOuter1" result="shadowOffsetOuter1"/>
      <feColorMatrix values="0 0 0 0 1 0 0 0 0 1 0 0 0 0 1 0 0 0 0.45 0" in="shadowOffsetOuter1"/>
    </filter>
    <filter x="-.6%" y="-.3%" width="101.2%" height="100.6%" filterUnits="objectBoundingBox" id="m">
      <feMorphology radius="5" in="SourceAlpha" result="shadowSpreadInner1"/>
      <feGaussianBlur stdDeviation=".5" in="shadowSpreadInner1" result="shadowBlurInner1"/>
      <feOffset in="shadowBlurInner1" result="shadowOffsetInner1"/>
      <feComposite in="shadowOffsetInner1" in2="SourceAlpha" operator="arithmetic" k2="-1" k3="1" result="shadowInnerInner1"/>
      <feColorMatrix values="0 0 0 0 0.91372549 0 0 0 0 0.917647059 0 0 0 0 0.925490196 0 0 0 1 0" in="shadowInnerInner1" result="shadowMatrixInner1"/>
      <feMorphology radius="1" in="SourceAlpha" result="shadowSpreadInner2"/>
      <feGaussianBlur stdDeviation=".5" in="shadowSpreadInner2" result="shadowBlurInner2"/>
      <feOffset in="shadowBlurInner2" result="shadowOffsetInner2"/>
      <feComposite in="shadowOffsetInner2" in2="SourceAlpha" operator="arithmetic" k2="-1" k3="1" result="shadowInnerInner2"/>
      <feColorMatrix values="0 0 0 0 1 0 0 0 0 1 0 0 0 0 1 0 0 0 0.5 0" in="shadowInnerInner2" result="shadowMatrixInner2"/>
      <feMerge>
        <feMergeNode in="shadowMatrixInner1"/>
        <feMergeNode in="shadowMatrixInner2"/>
      </feMerge>
    </filter>
    <filter x="-3.8%" y="-.2%" width="107.6%" height="100.3%" filterUnits="objectBoundingBox" id="o">
      <feGaussianBlur stdDeviation="1" in="SourceGraphic"/>
    </filter>
    <filter x="-3.8%" y="-.2%" width="107.6%" height="100.3%" filterUnits="objectBoundingBox" id="p">
      <feGaussianBlur stdDeviation="1" in="SourceGraphic"/>
    </filter>
    <filter x="-14.3%" y="-2.9%" width="157.1%" height="105.7%" filterUnits="objectBoundingBox" id="t">
      <feOffset dx="1" in="SourceAlpha" result="shadowOffsetOuter1"/>
      <feGaussianBlur stdDeviation=".5" in="shadowOffsetOuter1" result="shadowBlurOuter1"/>
      <feColorMatrix values="0 0 0 0 0 0 0 0 0 0 0 0 0 0 0 0 0 0 0.1 0" in="shadowBlurOuter1"/>
    </filter>
    <filter x="-7.1%" y="-2.1%" width="142.9%" height="104.3%" filterUnits="objectBoundingBox" id="w">
      <feOffset dx="1" in="SourceAlpha" result="shadowOffsetInner1"/>
      <feComposite in="shadowOffsetInner1" in2="SourceAlpha" operator="arithmetic" k2="-1" k3="1" result="shadowInnerInner1"/>
      <feColorMatrix values="0 0 0 0 0.718377976 0 0 0 0 0.718377976 0 0 0 0 0.718377976 0 0 0 1 0" in="shadowInnerInner1"/>
    </filter>
    <filter x="-14.3%" y="-1.5%" width="157.1%" height="103.1%" filterUnits="objectBoundingBox" id="y">
      <feOffset dx="1" in="SourceAlpha" result="shadowOffsetOuter1"/>
      <feGaussianBlur stdDeviation=".5" in="shadowOffsetOuter1" result="shadowBlurOuter1"/>
      <feColorMatrix values="0 0 0 0 0 0 0 0 0 0 0 0 0 0 0 0 0 0 0.1 0" in="shadowBlurOuter1"/>
    </filter>
    <filter x="-7.1%" y="-1.1%" width="142.9%" height="102.3%" filterUnits="objectBoundingBox" id="B">
      <feOffset dx="1" in="SourceAlpha" result="shadowOffsetInner1"/>
      <feComposite in="shadowOffsetInner1" in2="SourceAlpha" operator="arithmetic" k2="-1" k3="1" result="shadowInnerInner1"/>
      <feColorMatrix values="0 0 0 0 0.718377976 0 0 0 0 0.718377976 0 0 0 0 0.718377976 0 0 0 1 0" in="shadowInnerInner1"/>
    </filter>
    <filter x="-14.3%" y="-1.5%" width="157.1%" height="103%" filterUnits="objectBoundingBox" id="D">
      <feOffset dx="1" in="SourceAlpha" result="shadowOffsetOuter1"/>
      <feGaussianBlur stdDeviation=".5" in="shadowOffsetOuter1" result="shadowBlurOuter1"/>
      <feColorMatrix values="0 0 0 0 0 0 0 0 0 0 0 0 0 0 0 0 0 0 0.1 0" in="shadowBlurOuter1"/>
    </filter>
    <filter x="-7.1%" y="-1.1%" width="142.9%" height="102.3%" filterUnits="objectBoundingBox" id="G">
      <feOffset dx="1" in="SourceAlpha" result="shadowOffsetInner1"/>
      <feComposite in="shadowOffsetInner1" in2="SourceAlpha" operator="arithmetic" k2="-1" k3="1" result="shadowInnerInner1"/>
      <feColorMatrix values="0 0 0 0 0.718377976 0 0 0 0 0.718377976 0 0 0 0 0.718377976 0 0 0 1 0" in="shadowInnerInner1"/>
    </filter>
    <filter x="-14.3%" y="-1.5%" width="157.1%" height="103%" filterUnits="objectBoundingBox" id="H">
      <feOffset dx="1" in="SourceAlpha" result="shadowOffsetOuter1"/>
      <feGaussianBlur stdDeviation=".5" in="shadowOffsetOuter1" result="shadowBlurOuter1"/>
      <feColorMatrix values="0 0 0 0 0 0 0 0 0 0 0 0 0 0 0 0 0 0 0.1 0" in="shadowBlurOuter1"/>
    </filter>
    <filter x="-7.1%" y="-1.1%" width="142.9%" height="102.3%" filterUnits="objectBoundingBox" id="K">
      <feOffset dx="1" in="SourceAlpha" result="shadowOffsetInner1"/>
      <feComposite in="shadowOffsetInner1" in2="SourceAlpha" operator="arithmetic" k2="-1" k3="1" result="shadowInnerInner1"/>
      <feColorMatrix values="0 0 0 0 0.718377976 0 0 0 0 0.718377976 0 0 0 0 0.718377976 0 0 0 1 0" in="shadowInnerInner1"/>
    </filter>
    <filter x="-2.6%" y="-1.8%" width="105.1%" height="105.1%" filterUnits="objectBoundingBox" id="L">
      <feMorphology radius=".5" operator="dilate" in="SourceAlpha" result="shadowSpreadOuter1"/>
      <feOffset dy="1" in="shadowSpreadOuter1" result="shadowOffsetOuter1"/>
      <feGaussianBlur stdDeviation=".5" in="shadowOffsetOuter1" result="shadowBlurOuter1"/>
      <feColorMatrix values="0 0 0 0 1 0 0 0 0 1 0 0 0 0 1 0 0 0 0.7 0" in="shadowBlurOuter1"/>
    </filter>
    <filter x="-2.6%" y="-1.8%" width="105.1%" height="105.1%" filterUnits="objectBoundingBox" id="N">
      <feMorphology radius="1" in="SourceAlpha" result="shadowSpreadInner1"/>
      <feGaussianBlur stdDeviation=".5" in="shadowSpreadInner1" result="shadowBlurInner1"/>
      <feOffset dx="1" in="shadowBlurInner1" result="shadowOffsetInner1"/>
      <feComposite in="shadowOffsetInner1" in2="SourceAlpha" operator="arithmetic" k2="-1" k3="1" result="shadowInnerInner1"/>
      <feColorMatrix values="0 0 0 0 0 0 0 0 0 0 0 0 0 0 0 0 0 0 0.112686821 0" in="shadowInnerInner1"/>
    </filter>
    <filter x="-1.3%" y="-15.4%" width="102.6%" height="130.8%" filterUnits="objectBoundingBox" id="R">
      <feMorphology radius="2" in="SourceAlpha" result="shadowSpreadInner1"/>
      <feGaussianBlur stdDeviation="1" in="shadowSpreadInner1" result="shadowBlurInner1"/>
      <feOffset in="shadowBlurInner1" result="shadowOffsetInner1"/>
      <feComposite in="shadowOffsetInner1" in2="SourceAlpha" operator="arithmetic" k2="-1" k3="1" result="shadowInnerInner1"/>
      <feColorMatrix values="0 0 0 0 0 0 0 0 0 0 0 0 0 0 0 0 0 0 0.5 0" in="shadowInnerInner1"/>
    </filter>
    <filter x="-2.5%" y="-2.5%" width="105%" height="110%" filterUnits="objectBoundingBox" id="S">
      <feOffset dy="1" in="SourceAlpha" result="shadowOffsetOuter1"/>
      <feColorMatrix values="0 0 0 0 1 0 0 0 0 1 0 0 0 0 1 0 0 0 1 0" in="shadowOffsetOuter1"/>
    </filter>
    <filter x="-60%" y="-60%" width="220%" height="220%" filterUnits="objectBoundingBox" id="W">
      <feMorphology radius="1.5" operator="dilate" in="SourceAlpha" result="shadowSpreadOuter1"/>
      <feOffset in="shadowSpreadOuter1" result="shadowOffsetOuter1"/>
      <feGaussianBlur stdDeviation="1.5" in="shadowOffsetOuter1" result="shadowBlurOuter1"/>
      <feColorMatrix values="0 0 0 0 0 0 0 0 0 0 0 0 0 0 0 0 0 0 0.4 0" in="shadowBlurOuter1"/>
    </filter>
    <filter x="-150.2%" y="-150.2%" width="400.3%" height="400.3%" filterUnits="objectBoundingBox" id="Y">
      <feGaussianBlur stdDeviation="1.001" in="SourceGraphic"/>
    </filter>
    <filter x="-150.2%" y="-150.2%" width="400.3%" height="400.3%" filterUnits="objectBoundingBox" id="aa">
      <feGaussianBlur stdDeviation="1.001" in="SourceGraphic"/>
    </filter>
    <filter x="-100.1%" y="-100.1%" width="300.2%" height="300.2%" filterUnits="objectBoundingBox" id="ab">
      <feGaussianBlur stdDeviation="1.001" in="SourceGraphic"/>
    </filter>
    <filter x="-100.1%" y="-100.1%" width="300.2%" height="300.2%" filterUnits="objectBoundingBox" id="ac">
      <feGaussianBlur stdDeviation="1.001" in="SourceGraphic"/>
    </filter>
    <filter x="-42.9%" y="-100.1%" width="185.8%" height="300.2%" filterUnits="objectBoundingBox" id="ad">
      <feGaussianBlur stdDeviation="1.001" in="SourceGraphic"/>
    </filter>
    <filter x="-42.9%" y="-42.9%" width="185.8%" height="185.8%" filterUnits="objectBoundingBox" id="ae">
      <feGaussianBlur stdDeviation="1.001" in="SourceGraphic"/>
    </filter>
    <linearGradient x1="50%" y1="-.776%" x2="50%" y2="100%" id="n">
      <stop stop-color="#FFF" stop-opacity="0" offset="0%"/>
      <stop stop-color="#FFF" offset="3.127%"/>
      <stop stop-color="#FFF" offset="96.791%"/>
      <stop stop-color="#F1F3F4" stop-opacity="0" offset="100%"/>
    </linearGradient>
    <linearGradient x1="0%" y1="50%" x2="100%" y2="50%" id="q">
      <stop stop-color="#969696" offset="0%"/>
      <stop stop-color="#BEBFC1" offset="32.983%"/>
      <stop stop-color="#E0E1E3" offset="100%"/>
    </linearGradient>
    <linearGradient x1="0%" y1="50%" x2="100%" y2="50%" id="r">
      <stop stop-color="#969696" offset="0%"/>
      <stop stop-color="#BEBFC1" offset="32.983%"/>
      <stop stop-color="#E0E1E3" offset="100%"/>
    </linearGradient>
    <linearGradient x1="50%" y1="0%" x2="50%" y2="100%" id="s">
      <stop stop-color="#2C2C2C" offset="0%"/>
      <stop stop-color="#1D1D1D" offset="100%"/>
    </linearGradient>
    <linearGradient x1="50%" y1="0%" x2="50%" y2="100%" id="v">
      <stop stop-color="#AFB0B1" offset="0%"/>
      <stop stop-color="#DDDEDF" offset="15.921%"/>
      <stop stop-color="#F4F5F6" offset="77.399%"/>
      <stop stop-color="#F3F4F5" offset="77.399%"/>
      <stop stop-color="#DFE0E1" offset="87.683%"/>
      <stop stop-color="#4D4E4F" offset="100%"/>
    </linearGradient>
    <linearGradient x1="50%" y1="0%" x2="50%" y2="98.255%" id="x">
      <stop stop-color="#FFFCFC" offset="0%"/>
      <stop stop-color="#6E6F6F" offset="2.098%"/>
      <stop stop-color="#F7F8F9" offset="14.245%"/>
      <stop stop-color="#F4F5F6" offset="84.875%"/>
      <stop stop-color="#A4A6A8" offset="89.364%"/>
      <stop stop-color="#707579" offset="100%"/>
    </linearGradient>
    <linearGradient x1="50%" y1="0%" x2="50%" y2="100%" id="A">
      <stop stop-color="#AFB0B1" offset="0%"/>
      <stop stop-color="#EFF0F1" offset="8.19%"/>
      <stop stop-color="#DDDEDF" offset="15.921%"/>
      <stop stop-color="#F4F5F6" offset="77.399%"/>
      <stop stop-color="#F3F4F5" offset="77.399%"/>
      <stop stop-color="#DFE0E1" offset="87.683%"/>
      <stop stop-color="#FFF" offset="95.28%"/>
      <stop stop-color="#4D4E4F" offset="100%"/>
    </linearGradient>
    <linearGradient x1="50%" y1="0%" x2="50%" y2="98.255%" id="C">
      <stop stop-color="#FFFCFC" offset="0%"/>
      <stop stop-color="#2E2F2F" offset="2.098%"/>
      <stop stop-color="#383838" offset="4.737%"/>
      <stop stop-color="#E4E5E6" offset="11.348%"/>
      <stop stop-color="#F7F8F9" offset="14.245%"/>
      <stop stop-color="#F4F5F6" offset="84.875%"/>
      <stop stop-color="#8D8E8F" offset="89.364%"/>
      <stop stop-color="#404142" offset="97.994%"/>
      <stop stop-color="#FFF" offset="100%"/>
    </linearGradient>
    <linearGradient x1="50%" y1="0%" x2="50%" y2="100%" id="F">
      <stop stop-color="#AFB0B1" offset="0%"/>
      <stop stop-color="#EFF0F1" offset="8.19%"/>
      <stop stop-color="#DDDEDF" offset="15.921%"/>
      <stop stop-color="#F4F5F6" offset="77.399%"/>
      <stop stop-color="#F3F4F5" offset="77.399%"/>
      <stop stop-color="#DFE0E1" offset="87.683%"/>
      <stop stop-color="#FFF" offset="95.28%"/>
      <stop stop-color="#4D4E4F" offset="100%"/>
    </linearGradient>
    <linearGradient x1="50%" y1="0%" x2="50%" y2="100%" id="J">
      <stop stop-color="#AFB0B1" offset="0%"/>
      <stop stop-color="#EFF0F1" offset="8.19%"/>
      <stop stop-color="#DDDEDF" offset="15.921%"/>
      <stop stop-color="#F4F5F6" offset="77.399%"/>
      <stop stop-color="#F3F4F5" offset="77.399%"/>
      <stop stop-color="#DFE0E1" offset="87.683%"/>
      <stop stop-color="#FFF" offset="95.28%"/>
      <stop stop-color="#4D4E4F" offset="100%"/>
    </linearGradient>
    <path d="M375.5 24.111c207.383 0 375.5-5.988 375.5-13.375S520.732 0 375.5 0 0 3.349 0 10.736C0 18.123 168.117 24.11 375.5 24.11z" id="c"/>
    <path d="M375.399 20.782c200.47 0 362.983-4.79 362.983-10.7 0-5.91-222.593-8.589-362.983-8.589-140.39 0-362.983 2.68-362.983 8.589 0 5.91 162.513 10.7 362.983 10.7z" id="e"/>
    <path d="M376 14.812c186.645 0 337.95-2.396 337.95-5.35 0-2.956-207.24-4.295-337.95-4.295-130.708 0-337.95 1.34-337.95 4.294 0 2.955 151.306 5.35 337.95 5.35z" id="g"/>
    <path d="M867 512.9V1627c0 49.577-14.154 149-151 149H155c-135.252 0-150-98.871-150-149V674.898a6.966 6.966 0 002-4.892V379.994a6.968 6.968 0 00-2-4.894V149C5 61.467 50.008 0 155 0h564c68.797 0 148 29.79 148 149v226.102a6.965 6.965 0 00-2 4.891v128.014c0 1.905.763 3.632 2 4.894z" id="h"/>
    <path d="M851 149c0-50.771-15.017-85.322-42.096-106.63C786.224 24.522 754.921 16 719 16H155c-46.597 0-80.606 12.773-102.636 36.55C31.63 74.928 21 107.71 21 149v1478c0 32.22 6.232 61.312 21.606 84.442C63.196 1742.422 98.873 1760 155 1760h561c56.817 0 92.818-17.668 113.493-48.767C844.854 1688.127 851 1659.23 851 1627V149z" id="l"/>
    <path d="M0 3.008A3.01 3.01 0 013.01 0H7v70H3.01A3.002 3.002 0 010 66.992V3.008z" id="u"/>
    <path d="M0 2.998A3.005 3.005 0 013.01 0H7v131H3.01A3.002 3.002 0 010 128.002V2.998z" id="z"/>
    <path d="M0 3.005C0 1.345 1.35 0 3.01 0H7v130.995A.997.997 0 015.997 132H3.01A3.01 3.01 0 010 128.995V3.005z" id="E"/>
    <path d="M0 3.005C0 1.345 1.333.19 2.969.425l1.062.15C5.671.81 7 2.35 7 3.992v124.018c0 1.652-1.333 3.181-2.969 3.415l-1.062.152C1.329 131.81 0 130.65 0 128.995V3.005z" id="I"/>
    <path d="M380 1663c33.137 0 60-26.863 60-60s-26.863-60-60-60-60 26.863-60 60 26.863 60 60 60zm0 8c-37.555 0-68-30.445-68-68s30.445-68 68-68 68 30.445 68 68-30.445 68-68 68z" id="M"/>
    <radialGradient cx="121.058%" cy="134.126%" fx="121.058%" fy="134.126%" r="100.661%" id="U">
      <stop stop-color="#434343" offset="0%"/>
      <stop stop-color="#161616" offset="100%"/>
    </radialGradient>
    <radialGradient cx="50%" cy="0%" fx="50%" fy="0%" r="100%" id="X">
      <stop stop-color="#2A4893" offset="0%"/>
      <stop stop-color="#213054" offset="100%"/>
    </radialGradient>
    <circle id="T" cx="380" cy="10" r="10"/>
    <circle id="V" cx="14.5" cy="14.5" r="7.5"/>
    <rect id="O" x="0" y="0" width="151" height="13" rx="6.5"/>
    <rect id="Q" x="0" y="0" width="151" height="13" rx="6.5"/>
  </defs>
  <g fill="none" fill-rule="evenodd">
    <g fill="#000">
      <use filter="url(#b)" xlink:href="#c" transform="translate(60 1764)"/>
      <use filter="url(#d)" xlink:href="#e" transform="translate(60 1764)"/>
      <use filter="url(#f)" xlink:href="#g" transform="translate(60 1764)"/>
    </g>
    <use fill="#F5F5F6" xlink:href="#h"/>
    <use fill-opacity=".03" fill="url(#i)" xlink:href="#h"/>
    <use fill="#000" filter="url(#j)" xlink:href="#h"/>
    <use fill="#000" filter="url(#k)" xlink:href="#l"/>
    <use fill="#FAFBFD" xlink:href="#l"/>
    <use fill="#000" filter="url(#m)" xlink:href="#l"/>
    <g transform="translate(26 27)" fill="url(#n)">
      <path d="M741.14.423c14.696 4.267 27.577 10.64 38.29 19.06C806.22 40.54 820 74.566 820 122.852V1599.15c0 33.34-6.686 60.661-20.838 81.924-12.945 19.448-31.848 32.953-57.376 40.324 18.58-7.898 32.921-19.797 43.376-35.595 14.152-21.385 20.838-48.865 20.838-82.396V118.594c0-48.565-13.78-82.785-40.57-103.963-7.067-5.588-15.079-10.279-23.932-14.057z" filter="url(#o)"/>
      <path d="M-.007.423c14.696 4.267 27.577 10.64 38.291 19.06 26.79 21.057 40.57 55.082 40.57 103.368V1599.15c0 33.34-6.687 60.661-20.839 81.924-12.944 19.448-31.847 32.953-57.376 40.324 18.58-7.898 32.922-19.797 43.376-35.595 14.152-21.385 20.838-48.865 20.838-82.396V118.594c0-48.565-13.78-82.785-40.569-103.963C17.216 9.043 9.204 4.352.351.574z" filter="url(#p)" transform="matrix(-1 0 0 1 78.853 0)"/>
    </g>
    <path d="M0 2s5.212-2 16-2v25c-10.472.889-16 3-16 3V2z" fill="url(#q)" transform="translate(5 140)"/>
    <path d="M846 2s5.212-2 16-2v25c-10.472.889-16 3-16 3V2z" fill="url(#q)" transform="matrix(-1 0 0 1 1713 140)"/>
    <path d="M0 1472s5.212-2 16-2v26c-11.374-.4-16 1-16 1v-25z" fill="url(#r)" transform="matrix(1 0 0 -1 5 3107)"/>
    <path d="M846 1472s5.212-2 16-2v26c-11.374-.4-16 1-16 1v-25z" fill="url(#r)" transform="rotate(180 856.5 1553.5)"/>
    <g transform="translate(377 1772)" fill="url(#s)" opacity=".6">
      <path d="M9.068 0c3.972.042 10.928.008 10.928.008C21.103.003 22.896 0 23.998 0h85.107C113.385 0 118 4 118 4H0S5.097-.042 9.068 0z"/>
    </g>
    <g transform="translate(0 227)">
      <use fill="#000" filter="url(#t)" xlink:href="#u"/>
      <use fill="url(#v)" xlink:href="#u"/>
      <use fill="#000" filter="url(#w)" xlink:href="#u"/>
      <rect fill="url(#x)" x="1" width="2" height="70" rx="1"/>
    </g>
    <g transform="translate(1 379)">
      <use fill="#000" filter="url(#y)" xlink:href="#z"/>
      <use fill="url(#A)" xlink:href="#z"/>
      <use fill="#000" filter="url(#B)" xlink:href="#z"/>
      <rect fill="url(#C)" x="1" width="2" height="130" rx="1"/>
    </g>
    <g transform="translate(1 540)">
      <use fill="#000" filter="url(#D)" xlink:href="#E"/>
      <use fill="url(#F)" xlink:href="#E"/>
      <use fill="#000" filter="url(#G)" xlink:href="#E"/>
      <rect fill="url(#C)" x="1" y="1" width="2" height="130" rx="1"/>
    </g>
    <g transform="matrix(-1 0 0 1 871 378)">
      <use fill="#000" filter="url(#H)" xlink:href="#I"/>
      <use fill="url(#J)" xlink:href="#I"/>
      <use fill="#000" filter="url(#K)" xlink:href="#I"/>
      <rect fill="url(#C)" x="1" y="1" width="2" height="130" rx="1"/>
    </g>
    <g>
      <g opacity=".801" transform="translate(361 110)">
        <mask id="P" fill="#fff">
          <use xlink:href="#O"/>
        </mask>
        <use fill="#272627" xlink:href="#O"/>
        <path d="M152.11 11.143v.928H-2.22v-.928h154.33zm0-2.786v.929H-2.22v-.929h154.33zm0-2.786V6.5H-2.22v-.929h154.33zm0-2.785v.928H-2.22v-.928h154.33zm0-2.786v.929H-2.22V0h154.33z" fill-opacity=".15" fill="#000" mask="url(#P)"/>
        <path d="M2.22-.929v15.786H1.11V-.929h1.11zm3.331 0v15.786h-1.11V-.929h1.11zm3.331 0v15.786h-1.11V-.929h1.11zm3.331 0v15.786h-1.11V-.929h1.11zm3.331 0v15.786h-1.11V-.929h1.11zm3.331 0v15.786h-1.11V-.929h1.11zm3.33 0v15.786h-1.11V-.929h1.11zm3.332 0v15.786h-1.11V-.929h1.11zm3.33 0v15.786h-1.11V-.929h1.11zm3.332 0v15.786h-1.11V-.929h1.11zm3.33 0v15.786h-1.11V-.929h1.11zm3.331 0v15.786h-1.11V-.929h1.11zm3.331 0v15.786h-1.11V-.929h1.11zm3.331 0v15.786h-1.11V-.929h1.11zm3.33 0v15.786h-1.11V-.929h1.11zm3.332 0v15.786h-1.11V-.929h1.11zm3.33 0v15.786h-1.11V-.929h1.11zm3.332 0v15.786h-1.11V-.929h1.11zm3.33 0v15.786h-1.11V-.929h1.11zm3.331 0v15.786h-1.11V-.929h1.11zm3.331 0v15.786h-1.11V-.929h1.11zm3.331 0v15.786h-1.11V-.929h1.11zm3.331 0v15.786h-1.11V-.929h1.11zm3.33 0v15.786h-1.11V-.929h1.11zm3.332 0v15.786h-1.11V-.929h1.11zm3.33 0v15.786h-1.11V-.929h1.11zm3.332 0v15.786h-1.11V-.929h1.11zm3.33 0v15.786h-1.11V-.929h1.11zm3.331 0v15.786h-1.11V-.929h1.11zm3.331 0v15.786h-1.11V-.929h1.11zm3.331 0v15.786h-1.11V-.929h1.11zm3.33 0v15.786h-1.11V-.929h1.11zm3.332 0v15.786h-1.11V-.929h1.11zm3.33 0v15.786h-1.11V-.929h1.11zm3.332 0v15.786h-1.11V-.929h1.11zm3.33 0v15.786h-1.11V-.929h1.11zm3.331 0v15.786h-1.11V-.929h1.11zm3.331 0v15.786h-1.11V-.929h1.11zm3.331 0v15.786h-1.11V-.929h1.11zm3.331 0v15.786h-1.11V-.929h1.11zm3.33 0v15.786h-1.11V-.929h1.11zm3.332 0v15.786h-1.11V-.929h1.11zm3.33 0v15.786h-1.11V-.929h1.11zm3.332 0v15.786h-1.11V-.929h1.11zm3.33 0v15.786h-1.11V-.929h1.11z" fill-opacity=".15" fill="#000" mask="url(#P)"/>
        <use filter="url(#R)" xlink:href="#Q" opacity=".2" fill="#000"/>
      </g>
      <g transform="translate(56 49)">
        <use fill="#000" filter="url(#S)" xlink:href="#T"/>
        <use fill="#323234" xlink:href="#T"/>
      </g>
      <g transform="translate(285 102)">
        <circle fill="url(#U)" cx="14.5" cy="14.5" r="14.5"/>
        <mask id="Z" fill="#fff">
          <use xlink:href="#V"/>
        </mask>
        <g opacity=".388">
          <use fill="#000" filter="url(#W)" xlink:href="#V"/>
          <use fill="url(#X)" xlink:href="#V"/>
        </g>
        <circle fill="#BEE5FF" filter="url(#Y)" mask="url(#Z)" cx="10" cy="17" r="1"/>
        <circle fill="#BEE5FF" filter="url(#aa)" mask="url(#Z)" cx="10" cy="17" r="1"/>
        <circle fill="#75C8FF" filter="url(#ab)" mask="url(#Z)" cx="21.5" cy="10.5" r="1.5"/>
        <circle fill="#75C8FF" filter="url(#ac)" mask="url(#Z)" cx="21.5" cy="10.5" r="1.5"/>
        <ellipse fill="#3358B6" filter="url(#ad)" mask="url(#Z)" transform="rotate(-29 12.5 10.5)" cx="12.5" cy="10.5" rx="3.5" ry="1.5"/>
        <circle fill="#00154F" filter="url(#ae)" mask="url(#Z)" transform="rotate(-16 15.5 14.5)" cx="15.5" cy="14.5" r="3.5"/>
      </g>
      <path d="M61 214h750a5 5 0 015 5v1334a5 5 0 01-5 5H61a5 5 0 01-5-5V219a5 5 0 015-5z" fill="#EFF7F9"/>
    </g>
  </g>
</svg>
