<svg width="49" height="47" viewBox="0 0 49 47" fill="none" xmlns="http://www.w3.org/2000/svg">
<path d="M27.391 27.6642C27.6115 27.7205 27.8565 27.7929 28.1097 27.8654C27.8973 28.7102 27.7667 29.5873 27.7667 30.4966V31.3897C26.7948 31.9771 26.1333 33.0232 26.1333 34.2221V43.7733H0C0 43.7733 0.931 34.4716 3.34017 31.9771C5.06333 30.1908 9.96333 28.5976 12.6338 27.8251C13.1565 27.6722 14.0793 27.3745 14.3897 27.2941C14.4142 27.3021 14.4223 27.3182 14.4468 27.3262C17.0112 28.6378 18.767 28.3884 19.5265 28.1389C19.9838 27.9941 20.1145 27.8332 20.0002 27.632C18.7343 27.5757 17.5175 27.286 16.8397 26.7228C14.2835 24.5985 12.2092 22.2087 11.711 18.121C10.1593 17.6463 9.849 15.7392 9.849 14.5484C9.849 13.3575 10.0613 12.7137 10.4942 12.5126C10.731 12.408 10.9597 12.416 11.1557 12.4643C10.9352 9.95379 10.6738 5.05345 11.9968 3.37978C13.2218 1.8268 15.5493 0.8934 17.6727 0.322097C20.727 -0.498649 21.9193 0.402562 23.667 1.31182C26.3293 0.652004 27.8565 1.17503 28.9998 3.19471C30.0533 5.04541 29.8982 9.96184 29.7348 12.4482C29.9145 12.408 30.1187 12.408 30.331 12.5045C30.7638 12.7057 30.9762 13.3494 30.9762 14.5403C30.9762 15.7312 30.6658 17.6463 29.1142 18.113C28.7058 20.9695 27.4972 23.126 25.872 24.9203C25.872 24.9203 25.9455 25.6123 26.0843 26.2158C26.2395 26.9078 26.705 27.4791 27.391 27.6642ZM49 34.2302V45.3344C49 45.7769 48.6733 46.1551 48.2323 46.2356C46.7542 46.4931 43.2507 47 38.7917 47C34.3327 47 30.8292 46.4931 29.351 46.2356C28.91 46.1471 28.5833 45.7689 28.5833 45.3263V34.2221C28.5833 33.7152 28.9998 33.3129 29.5143 33.3129H30.2167V30.4966C30.2167 25.8376 34.0632 22.0477 38.7917 22.0477C43.5202 22.0477 47.3667 25.8376 47.3667 30.4966V33.3129H47.6117H48.0772C48.5835 33.3129 49 33.7232 49 34.2302ZM40.915 38.5431C40.915 37.3844 39.9677 36.451 38.7917 36.451C37.6157 36.451 36.6683 37.3844 36.6683 38.5431C36.6683 39.2512 37.0277 39.8708 37.5667 40.249V42.9687H40.0167V40.249C40.5557 39.8708 40.915 39.2512 40.915 38.5431ZM43.2833 30.4966C43.2833 28.0585 41.2662 26.071 38.7917 26.071C36.3172 26.071 34.3 28.0585 34.3 30.4966V33.3129H43.2833V30.4966Z" fill="#154273"/>
</svg>

