<svg width="49" height="48" viewBox="0 0 49 48" fill="none" xmlns="http://www.w3.org/2000/svg">
<path d="M46.5019 26.2911C47.7704 25.3311 48.8422 24.3312 48.9897 22.2613C49.1667 19.7514 47.0329 18.0015 44.4959 18.0015H32.0469C31.3684 18.0015 30.8964 17.3115 31.1225 16.6616C32.7549 11.9618 33.158 9.91192 33.2367 5.61214C33.2957 2.05231 31.8895 0.252405 30.5424 0.0324164C29.2247 -0.177573 28.2709 0.622387 27.8284 2.73228C26.7172 7.98202 24.2687 14.1917 21.0434 18.1715C18.7325 21.0214 15.694 22.2913 12.7932 22.7913C12.3605 26.6011 11.5345 33.8507 11.4657 34.2807C11.3772 34.8307 10.915 34.7407 10.8265 34.7007C10.8265 34.7107 10.8265 23.0313 10.8265 23.0213C10.8265 23.0213 10.7872 22.0013 9.84318 22.0013H0V48H9.83334C10.3742 48 10.8167 47.55 10.8167 47V43.0003C12.1835 43.0003 13.57 43.0003 14.337 43.0003C20.0699 43.0003 18.0245 47.66 29.2542 47.82C32.1649 47.86 37.8092 48.25 41.3099 47.07C44.5844 45.9701 45.3219 43.0203 44.2697 41.2903C45.2629 40.7904 46.8755 39.5404 47.1214 37.3805C47.3771 35.1706 45.5579 33.9207 45.5579 33.9207C45.6169 33.8507 48.2424 32.8908 48.3506 30.0009C48.4292 27.671 46.5019 26.2911 46.5019 26.2911Z" fill="#154273"/>
</svg>

